<svg xmlns="http://www.w3.org/2000/svg" viewBox="0 0 44 38"><title>Handdrawn</title><g id="Mail"><path d="M.59,19.21a16.76,16.76,0,0,0,1.88,7.23c1.19,2.17,3.78,3.24,6.17,3.41a9.06,9.06,0,0,0,7.09-2.42c.29-.29-.94-1.05-1.54-.76l.07,0a5.73,5.73,0,0,1-3.06.46,13.74,13.74,0,0,1-3-.7,6.23,6.23,0,0,1-3.3-3.25,10.91,10.91,0,0,1-.68-2.91,13.46,13.46,0,0,1,.21-2.5,11.05,11.05,0,0,1,2.4-5.85A14.26,14.26,0,0,1,11.6,8.09l-.08,0a9.55,9.55,0,0,1,5.89-.21c2,.51,3.52,2.14,4.75,3.66-.18-.18.25.38.26.4s.18.32.27.48c.23.42.45.85.64,1.29,1,2-.09,5.17-1.37,6.87A4.74,4.74,0,0,1,20.18,22l.06,0a1.85,1.85,0,0,1-.56.16A2.44,2.44,0,0,1,19,22a1.73,1.73,0,0,1-.79-1s0,0,0,.07a14.59,14.59,0,0,1,.38-2.27c.06-.44.09-.73.16-1.17a12.51,12.51,0,0,1,.75-2.9l0,.06c.25-.56,1-1.25.28-1.72-.55-.36-1,0-1.34.46a6.41,6.41,0,0,0-3.1-1.58,5.2,5.2,0,0,0-3.55.22A7.45,7.45,0,0,0,8,17.7c-.37,2.3,0,4.39,2.08,5.76a5.35,5.35,0,0,0,6.8-.87A3.3,3.3,0,0,0,21.05,24a7.19,7.19,0,0,0,4.08-3.51,11.81,11.81,0,0,0-.21-10.78,10.66,10.66,0,0,0-3.75-4.05,10.56,10.56,0,0,0-4.81-1.43A16.31,16.31,0,0,0,5.83,7.95a13.21,13.21,0,0,0-4,4.86,16.34,16.34,0,0,0-1.23,6.4Zm3,7.77Zm0,0h0Zm4.69-.64h0Zm2.41-6.74c0-1.57-.06-3.08.93-4.36.62-.8,2.29-2.13,3.3-1.79a2.23,2.23,0,0,1,1.63,1.44c.5.63.24,1,.05,1.75a24.22,24.22,0,0,0-.49,2.76v-.08a5.12,5.12,0,0,1-.33,2,2.92,2.92,0,0,1-1.1,1.09l.07,0a2.93,2.93,0,0,1-3.3-.31c.14.11-.24-.22-.28-.27a1.73,1.73,0,0,1-.26-.47,4.1,4.1,0,0,1-.21-1v.08c0-.26,0-.51,0-.77Zm-.34-2.28Zm7.88,3.42h0Zm5.43-5.6a.46.46,0,0,0,0,.08v-.08Z" style="fill:#2a2722"/></g></svg>