<svg xmlns="http://www.w3.org/2000/svg" viewBox="0 0 44 38"><title>Handdrawn</title><g id="IN"><path d="M27.25,23.22c-.08-1.83,0-3.63-.18-5.46a6.39,6.39,0,0,0-1.81-4.38,8.17,8.17,0,0,0-4.84-2c-1.78-.16-5.64.81-6.94,2.47,0-.52.27-1.88-.35-2.16s-.17-.22-.79-.19-1.94-.06-2.33.3a1.21,1.21,0,0,0-.22.6,8.19,8.19,0,0,0-.1,1.2c-.1,2.88.18,5.75.06,8.63-.06,1.46,0,2.91-.16,4.36a10.24,10.24,0,0,0-.12,1.9c0,.79.36.7,1.3.66s2.23.33,2.58-.2.06-2.89.08-4c0-1.73,0-3.45,0-5.18,0-1.11,3.07-3.87,4.94-3.87,1.12,0,3.58.42,4.11,1.31S23,20,23,21.11c.05,2.45,0,4.51,0,7,0,1.31-.29,1.38,1,1.21a18.82,18.82,0,0,1,1.92.06c.56,0,.49.22.86-.21s.32-1.15.43-1.87A20.2,20.2,0,0,0,27.25,23.22Z" style="fill:#2a2722"/><path d="M.72,7.79a2.26,2.26,0,0,0,3.3,0,2.24,2.24,0,0,0,.61-1.44,1.62,1.62,0,0,0-.12-.74c-.05-.12-.15-.22-.2-.34l-.13-.15a.21.21,0,0,0,0-.22C4,4.46,3,4.21,2.54,4.21a2.2,2.2,0,0,0-1.66.65A2.19,2.19,0,0,0,.72,7.79Z" style="fill:#2a2722"/><path d="M4.53,22c-.17-2.83-.1-7,.06-9.88.05-1-4-1-4.1-.29-.14,1,0,2.88,0,3.93s0,2.14,0,3.21c0,1.55.1,3.06.13,4.61a25.23,25.23,0,0,1-.14,3.22c-.09.79-.29,1.8.23,2.23s1.78.07,2.47.1c1.1,0,1.45.44,1.47-.07C4.64,27.17,4.67,24,4.53,22Z" style="fill:#2a2722"/></g></svg>