<svg xmlns="http://www.w3.org/2000/svg" viewBox="0 0 55 38"><title>Handdrawn</title><g id="Be"><path d="M26.53,8.65s0,.45.21.6.94.21,1.3.23c1.29.06,2.58,0,3.87,0s2.37.13,3.55.08,1.11-1.22,1.16-2-.15-1.13-1.09-1.3a18.73,18.73,0,0,0-3.7,0c-1.22,0-2.43.12-3.64.17-.31,0-1.86-.2-1.7.34A11.82,11.82,0,0,0,26.53,8.65Z" style="fill:#2a2722"/><path d="M22.58,20.69a8.37,8.37,0,0,0,3.88,7.52c2.54,1.48,7.77,1.72,10.26,0,1.07-.73,2.1-1.33,2.43-2.49.26-.92,1-2.33.41-2.61a7,7,0,0,0-2.85.12,3.38,3.38,0,0,1-.52,1.05c-.73,1.07-2.82,1.11-3.84,1.27s-3.52,0-3.93-.45S27.1,23.9,27,23.37a3.25,3.25,0,0,1-.26-1.71c1.65-.2,5.72.1,7.42.08,1.47,0,5.15.53,5.67-.16s-.14-4.37-.65-5.44A7.93,7.93,0,0,0,36.71,13a8.92,8.92,0,0,0-9.37-.63C24.37,14,22.58,16.45,22.58,20.69Zm9.24-2.2c-1.72.17-3.08-.24-4.8,0,.12-2.28,3.15-3.35,3.9-3.46.31,0,2.23-.24,3.15.56.51.44,2.35,1.66,2.35,3.07C36.33,18.63,31.82,18.49,31.82,18.49Zm1.23-3.33h0Zm.65.16.07,0-.07,0Zm.59.43,0,0,0,0Z" style="fill:#2a2722"/><path d="M3.26,28.83c1.48,0,3,0,4.45,0,2.81-.09,5.71.39,8.4-.62a5.17,5.17,0,0,0,3.39-4.46,12.86,12.86,0,0,0,0-3.89,6,6,0,0,0-.83-1.89,3.31,3.31,0,0,0-1.24-1.33,3.14,3.14,0,0,1-.73-.43c2-1.18,3.14-3.67,1.95-6.9C17.53,6.21,15.16,5.69,12.1,5.6c-1.87-.05-3.74,0-5.61,0A42.46,42.46,0,0,0,1,5.76c-.83.12-.63-.29-.64.46,0,1,0,2,0,3,.05,1.78-.09,3.57,0,5.35.11,2.06.17,4.15.12,6.21s.07,4.16-.16,6.19a7.35,7.35,0,0,0-.06,1.79S2.45,28.84,3.26,28.83ZM4.68,13.71c0-1-.11-2-.11-3.08a4.68,4.68,0,0,1,0-1.12c.1-.11,8.59-.41,9.64.41A6,6,0,0,1,15,11,5,5,0,0,1,15,13.22a1.7,1.7,0,0,1-1.25,1.62c-.55.1-4.25.17-5,.16s-3.46-.06-4-.15c-.2,0-.07-1-.07-1.15Zm-.11,4.74c1.67-.24,7,0,9.14.06,1.49,0,2.26,1.77,2.25,3.3a3.68,3.68,0,0,1-.78,2.26,2.38,2.38,0,0,1-1.46.59c-.09,0-7.53.21-9,.21a11.82,11.82,0,0,1-.06-1.19c0-1-.13-2-.1-3C4.56,20.83,4.57,18.45,4.57,18.45Zm1.17-3.21h0Zm7,9.42Z" style="fill:#2a2722"/></g></svg>