<svg xmlns="http://www.w3.org/2000/svg" viewBox="0 0 44 38"><title>Handdrawn</title><g id="Mail"><path d="M22,25.89,11.67,8.73l-1,12.48S19.5,25.89,22,25.89Z" style="fill:#2a2722;stroke:#fff;stroke-miterlimit:10"/><path d="M32.07,30.71c1.19,0,.93-19.15.1-22S21.33,22.56,22,24.89,30.4,30.71,32.07,30.71Z" style="fill:#2a2722;stroke:#fff;stroke-miterlimit:10"/><path d="M32.17,8.73,22,25.89,14.82,14S20.67,3.75,22,3.57,32.17,7.23,32.17,8.73Z" style="fill:#2a2722;stroke:#fff;stroke-miterlimit:10"/><path d="M.83,4.12C.52,5.55.5,25.06.83,25.73s7.5,5,9.17,4.67S12.5,9.23,11.67,8.73,1.38,1.65.83,4.12Z" style="fill:#2a2722;stroke:#fff;stroke-miterlimit:10"/></g></svg>