<svg id="LinkedIn_link" data-name="LinkedIn link" xmlns="http://www.w3.org/2000/svg" viewBox="0 0 291.58 31.34"><title>Handdrawn</title><path d="M.63,22.19c0,.75,1.41.39,2.5.36.73,0,.51-4.78.41-6.19,0-.34-.28-7,0-7.12,0,0,5.07,11.66,5.74,12.73.28.45,1.53.66,1.68.31.37-.89,1.93-5.22,2.35-6,.58-1.12,2.94-7.29,3.38-7.21s-.13,7-.13,7c.1,1.09-.05,2.23,0,3.34,0,.88-.3,3,.38,3.12s2.53,0,2.53,0c0-3,.06-4,.12-5.28C19.66,15.34,20,5.1,20,5.1s-4.28-.66-4.68,0C13,8.92,10.73,16.85,10.09,17.75A82.38,82.38,0,0,0,4.5,5c-.84-.32-3.14-.71-3.92.13,0,1.75,0,6.06,0,6.34,0,0,0,3.19,0,4.53S.76,18.66.63,20C.57,20.53.63,22.19.63,22.19ZM14,11h0Zm2,0h0Z"/><path d="M22.28,20.68c.41,1.34,1.89,2,3.22,2.25,1.5.25,4.13-.07,5.18-2.1.12,1-.35,1.78.12,1.86,1.2.21,2,.41,2-.1a64.37,64.37,0,0,0-.27-7.67c-.24-1.68-.84-3.46-2.73-4.08a8.89,8.89,0,0,0-5,.15c-.47.18-1.72.54-2,1.32-.18.49,1.44,1.71,1.66,1.56,1.25-.82,4-2.27,5-.42A8.32,8.32,0,0,1,30,15.06c-.32,0-.7,0-.53,0-2-.27-3.8-.35-5.44.89a4.37,4.37,0,0,0-1.78,4.74Zm1.9-8.95c.06-.05,0,0,0,0Zm.5,7.56a1.46,1.46,0,0,1,.18-.79c.19-.33.38-.55.3-.42a5.65,5.65,0,0,1,2.13-.82l2-.24c.7-.08,1,.24.86,1.1a3.15,3.15,0,0,1-.71,1.46,7.93,7.93,0,0,1-.56.56c-.9.61-1.78,1.27-2.81,1.07C24.11,20.83,24.69,19.29,24.69,19.29Zm1.63,3.14h0ZM31,12.17h0Zm.23,10Z"/><path d="M36.12,22.37c0,.42,2.27.37,2.48,0,.36-.67,0-3.45.06-4.65,0-.76.1-1.53.07-2.3,0-.25.2.44.7-.66.68-1.5,2.23-1,3.39-1.33.54-.15.59-3,.08-3-3.12,0-3.61,1.41-4.47,2.35,0-.87.44-1.83-.27-1.69-.49.09-2.64-.77-2.43-.09C36.61,13.83,36,19.85,36.12,22.37Z"/><path d="M45.4,15.35c0,1,0,2,0,3a19.32,19.32,0,0,0,0,3.91c.17.65,1.93.48,2.35.14.59-.48,0-1.74,0-2.43,0-1-.13-2.11-.14-3.16s0-2,0-3.07c0-.76.36-2.85-.07-2.93-.81-.15-2.36.21-2.31,0a22.68,22.68,0,0,0,0,4.55ZM47,22.26Z"/><path d="M45.05,7c0,1.32,2.33,2.08,2.88.68a1.74,1.74,0,0,0-1.58-2.38A1.81,1.81,0,0,0,45.05,7Zm1.19-1.67c.12,0,.1,0,0,0Z"/><path d="M50.45,19.41c0,1.88,1.66,3.71,4.6,3.58a5.16,5.16,0,0,0,3.74-1.84,2.31,2.31,0,0,0,.38,1.52c1.06-.2,2.54.37,2.36,0-.48-1-.54-4-.55-5,0-.85,0-2,0-2.66-.26-2.07-.75-3.67-2.86-4.21a9.6,9.6,0,0,0-3.26-.16A8,8,0,0,0,51,12.21c-.33.25,1.51,2.29,1.81,2.06.53-.42,1.32-1.23,1.72-1.31,1.43-.28,1.66-1,3.36-.06a3,3,0,0,1,.9,2.32,15.35,15.35,0,0,0-5.19.58C51.78,16.36,50.41,17.06,50.45,19.41Zm3.48-1.32a2.71,2.71,0,0,1,1.59-.64,25.56,25.56,0,0,0,3.22-.4A4.73,4.73,0,0,1,58.62,19a5.12,5.12,0,0,1-.88,1.39,5.16,5.16,0,0,1-2.56,1A3,3,0,0,1,54,20.94C52.58,19.94,53.53,18.5,53.93,18.09Zm1.59-.64Zm.19,5.63h0Zm1.62-12.5h0Zm3,11.84Z"/><path d="M70.72,22.11c0,.62,2.74.7,2.74.31,0-1.49-.18-6.6,0-7.5.12-.51,2.17,0,3.56-.17s4.61-.22,4.77.09a6.56,6.56,0,0,1,.14,2.36c0,1.49.12,3.74.21,5.21,0,.4,1.57.21,2.4,0,.54-.13.09-8.78.11-9.65.07-2.58.21-6.14.05-7.68,0-.42-1.33-.25-2.6.06-.6.14-.17,6.09-.37,7.13-1.45.09-8.21.39-8.26-.07-.08-.75.18-7.12-.2-7.22-.74-.19-2.27-.57-2.51.19,0-.25.08,2.81,0,3.84-.12,1.63,0,7.53,0,9.17C70.67,21,70.72,22.11,70.72,22.11Zm3.67.29Zm.05,0h0ZM79.9,13h0Z"/><path d="M87,19.64c0,1.82,2.12,3.13,3.78,3.38a4.43,4.43,0,0,0,4.65-2.28c.12,1-.36,2.19.45,2.09s3.23.14,2.88-.21c-.87-.88-.8-2.59-.79-3.44,0-1.14-.11-5.2-.54-6.25-.7-1.73-2.75-2.11-4.19-2.32a6.39,6.39,0,0,0-5.7,1.8s1.69,2,2.17,1.71c1.78-1.19,3.35-2,4.1-1.26a4.23,4.23,0,0,1,.9,2.49A14.46,14.46,0,0,0,89,16.1,3.5,3.5,0,0,0,87,19.64Zm4.35-2.42C92.43,17,94,17.11,95,17a9.91,9.91,0,0,1-.35,2.85c-.28.55-.7,1.42-3.09,1.43C89.63,21.27,88.5,17.87,91.32,17.23Zm-.27,5.59h0Zm4.89-.27s0,0-.06,0,.11-.21.06,0Zm0,0h0Z"/><path d="M110.22,20.62a6.38,6.38,0,0,1,0,1c-.07,1.73-.42,4.56-4.26,4.37a2.19,2.19,0,0,1-1.6-.54c-.46-.29-.94-1.17-1.47-1.49s-2.09,1.28-1.9,1.71c1.05,2.27,5.67,2.09,6.71,1.89,1.58-.31,3.92-1.47,4.41-3,.6-1.92.25-4.92.29-7.78,0-.78.69-5,0-5.35a3.33,3.33,0,0,0-2.1-.09c-.21-.07,0,1.87,0,1.87a5.45,5.45,0,0,0-7.7-.85c-2.06,1.61-2.09,4.78-1.69,6.4C101.85,22.59,108.76,24,110.22,20.62Zm-6.07-5.77c.59-1,1.39-1.48,3.46-1.49s2.31,1.71,2.39,2.71a7,7,0,0,1-.4,2.87c-.41.79-1,1.63-3.17,1.67-1.18,0-2.45-.79-2.82-2.9A5.11,5.11,0,0,1,104.15,14.85Zm-1.55,3.26v0Zm.05-1.64h0Zm1.47,9.13h0Z"/><path d="M116.68,22.71c-.29-.12,3.41.79,5.17.12,1.23-.46,2.1-.63,2.66-1.86s.83-2.12.1-3.14a8.08,8.08,0,0,0-2.49-1.46,5.27,5.27,0,0,0-1.52-.45c-.54-.24.2-.13-1.32-.5-1-.25-2.66-1.27.22-2.45,1.08-.41,1.89.23,2.53,1,.35.43,2.15-.94,2-1.2a5.78,5.78,0,0,0-3.72-2.26c-1.64-.15-4,.38-5,2a3,3,0,0,0,.89,3.93,6.08,6.08,0,0,0,2,.8c.67.26,1.85.43,2.41.72.27.14,1.19.48,1,2.1-.1.76-1.42,1-1.84,1a3,3,0,0,1-2.83-1.35c-.37-.52-1.71.71-2.33,1.12C114.2,21.05,115.63,22.29,116.68,22.71Zm2-7.42Z"/><path d="M125.48,13c0,.32,1.06-.1,1.63.16a8.39,8.39,0,0,1,0,2.15,30.07,30.07,0,0,0,.08,5.54c.16,1.29,1.41,2.23,3.24,2.2.71,0,3.3-.19,3.27-.48s.17-2.05-.12-1.84a2.71,2.71,0,0,1-2.93.16c-.65-.48-.6-2.19-.62-3.15s.11-3.41.11-3.83-.1-.63,0-.85a17.84,17.84,0,0,0,3.35-.05c.19-.2.31-1.93,0-2a25.19,25.19,0,0,0-3.41-.06V7.66c0-.36-2.93-.15-3-.13a24.57,24.57,0,0,1,0,3.41c-.46.14-1.68-.17-1.68,0Zm1.19.62h0Zm2.61-2.22h0Zm.17,8a0,0,0,0,1,0,0v0Z"/><path d="M134.73,16.27c-.17,3.18,1.4,5.59,3.83,6.4a7.49,7.49,0,0,0,6-.23c.94-.45,1.75-1.67,1.61-1.92s-1.48-1.38-1.66-1.13a3.21,3.21,0,0,1-2.47,1.77,3.54,3.54,0,0,1-2.5-.59,4,4,0,0,1-1.87-3,24.5,24.5,0,0,1,3.95,0c.85.09,4.49.26,5-.09.92-.64-.44-3.46-.9-4.32-.93-1.77-2.38-2.8-5.09-2.72A6.17,6.17,0,0,0,134.73,16.27Zm3.17-.63c-.31-.1.29-1.59.87-2.12s1.15-.64,1.43-.77a2.09,2.09,0,0,1,1.55-.21,3.45,3.45,0,0,1,2.13,1.62,12.53,12.53,0,0,1,.48,1.52,13.11,13.11,0,0,1-3,0c-1.33,0-1,0-2,0Zm7,6.35Z"/><path d="M149.06,22.5c0,.3,1.53.07,2.66.07.25,0,0-.34.08-1,.06-1.15-.16-1.83-.09-3,0-.63,0-1.26,0-1.89a5.44,5.44,0,0,1,1.36-3.08,4,4,0,0,1,1-.57l.67-.19a3.49,3.49,0,0,1,.74,0,1.67,1.67,0,0,1,1.15.63,3.82,3.82,0,0,1,.89,2c.09.75,0,3.24,0,4a20.4,20.4,0,0,0,.19,3s2.44.38,2.43,0c0-1.41.14-3.29,0-4.69-.16-2.22-.24-6-2.82-6.92-1.93-.66-4.49-1.07-6.17,1.85-.2-1.63.06-1.09-.09-1.72s-2.11,0-2.07-.31c0,0,.15,5,.08,6.29a40.15,40.15,0,0,0,0,4.22Z"/><path d="M170,22.42c.08.34,1.36.14,2.6,0,.4,0-.05-2.65,0-3.73.09-1.41-.16-8.83-.15-10.25,0-.69,1.88,4.43,2.57,6.21a38.42,38.42,0,0,0,1.76,4.29,29.56,29.56,0,0,0,1.54,3.47s2.13-.09,2.08-.1,2.72-7.63,3-8.51c.15,0,2.24-5.48,2.39-5.46s-.31,6.4-.17,7.21-.13,5.74.1,6.86c.06.31,2.84.33,2.78,0-.23-1.2-.08-7.54-.1-8.75,0-2.28.62-8.66,0-8.7-2.24-.14-3.71.32-4.41.06-1.22,2.11-4.49,13.07-4.82,13.09s-1.86-4.85-2.79-6.76c-.35-.72-2.14-6.25-2.65-6.4-.72-.21-3.52-.31-3.84,0-.06-.64.09,10.08,0,11.22C169.87,17.85,170,22.42,170,22.42Zm9.79-10.09Z"/><path d="M192.07,22.71c.16.62,2.37,0,2.37,0,.5-1.31.11-2.15.13-3.53a33.12,33.12,0,0,0,0-4.29c-.06-.56.31-3.24,0-3.71s-2.47-.36-2.47,0c0,1.8-.22,5.34,0,7.12Z"/><path d="M191.78,7.26c0,1.15,1.72,1.75,2.57,1,1.18-1-.35-3.26-1.4-2.54C192.55,6,191.84,6,191.78,7.26Z"/><path d="M196.94,17.34a5.78,5.78,0,0,0,5.33,5.45,6.29,6.29,0,0,0,5.25-1.5c.46-.49-1.24-1.89-1.24-1.89-.69.14-.85.63-1.59,1s-1.91.66-2.47.27c-.86-.6-2.43-2.13-2.51-3.54-.1-1.74.57-3,2.5-4a2.84,2.84,0,0,1,3.67.78c.51.59,1-1,1.59-1.58.39-.36-3.12-2.83-6.53-1.7-2.65.87-4.24,3.93-4,6.69Zm11-3.13h0Zm.5,7.73Z"/><path d="M209.91,22.44c.06.27,2.47.35,2.48,0,0-1.66.13-4.94.16-6.25a8.4,8.4,0,0,1,.27-1.09,1.82,1.82,0,0,1,.8-1.37c.28-.24,2-1.13,3.23-.43,1.59.9,1.08,3.28,1.2,5.19,0,.71,0,1.41,0,2.11a5.41,5.41,0,0,0,.12,1.78c.14.4,1.48.34,2,.06s.19-.93.18-1.49c0-2.95.52-6.26-1-8.72s-5-2.11-6.87.39a57,57,0,0,0,.11-6.05,16.05,16.05,0,0,0-.09-2.63c.12-.12-2.27-.6-2.47-.05a10.21,10.21,0,0,0,0,1.93c0,1.73.06,3.43-.07,5.15s0,3.7,0,5.51a17.9,17.9,0,0,1,0,2.38C209.82,19.6,209.91,22.44,209.91,22.44Zm4-9.58h0Zm1.88.25Z"/><path d="M222.71,16.42c-.06,4.11,1.74,6.39,5.69,6.65,2.64.17,4.91-.9,5.58-2.24.3-.59-.76-1-1.31-1.33-.34-.19.09.27-.71.68a5.54,5.54,0,0,1-3,.73c-1.5,0-1.77-.61-1.76-.6a3.11,3.11,0,0,1-1.63-2.79c1.49.13,3.26.12,4.76.15,1.34,0,2.87-.05,4.22-.09.54,0,0-2-.19-2.88a5.53,5.53,0,0,0-1.94-3.08,5.62,5.62,0,0,0-6.75-.23A6.07,6.07,0,0,0,222.71,16.42Zm3.9-3a3.83,3.83,0,0,1,1.51-.83,7.46,7.46,0,0,1,1.07-.24,2.73,2.73,0,0,1,1.65.43c.08.07.72.52.71.51a5.14,5.14,0,0,1,.75,1.38,2.46,2.46,0,0,1,0,1c-.11.17-1.17,0-1.39,0-.88.06-4.18,0-5.06,0C224.78,15.81,226.4,13.64,226.61,13.4Z"/><path d="M237.21,22.37c.24.4,2.5.4,2.46,0-.22-2.27.22-6.09.08-8.31s-.1-4.55-.09-6.82a11.09,11.09,0,0,0,0-3.29c-.24-.63-2.39,0-2.56,0,0,.61.2,5.71.06,8.16a74.51,74.51,0,0,0-.18,7.86A8.73,8.73,0,0,0,237.21,22.37Z"/><path d="M242.43,21.58a5.67,5.67,0,0,0,3.72,1.58,7.14,7.14,0,0,0,3.34-.59A3.45,3.45,0,0,0,251,17.82c-1.21-2.58-4.23-1.2-5.89-3.12-.39-.45.32-1.33.89-1.57a2.37,2.37,0,0,1,2.77.36c.72.57.31.63.68.34A13.13,13.13,0,0,0,251,12.77c.19-.27-1.1-1.43-1.48-1.62a5.5,5.5,0,0,0-2.48-.62,4.5,4.5,0,0,0-4,1.74c-1.54,2.29-.42,4.7,2.47,5.28.74.15,3.26.11,3.35,1.71.14,2.36-2.33,1.82-3.11,1.52a8,8,0,0,1-2.36-1.31c-.42-.36-1.35,1-1.53,1.56C241.9,21,242.31,21.43,242.43,21.58Zm.54-7.07a0,0,0,0,1,0,0v0Zm.31,1h0Zm1.88-1.22a0,0,0,0,1,0,0v0Zm.79,1.05h0Zm1,.59h0Zm.33,2.9Zm3.53-.35h0Zm0,0h0Zm.17-6.06h0Z"/><path d="M252.71,16.94c-.3,5.14,4.65,6.75,7.95,6,1.36-.3,3.65-2,3.41-2.31-.47-.64-1.18-1.49-1.52-1.19S261,21,260.62,21a3.19,3.19,0,0,1-1.52.19,3.5,3.5,0,0,1-2.11-.6,12,12,0,0,1-1.31-1.49,3.7,3.7,0,0,1-.38-1.38,44.61,44.61,0,0,0,4.65,0,25.82,25.82,0,0,0,2.72,0c.56,0,1.54.33,1.77-.22a5.4,5.4,0,0,0,0-2.07,6.27,6.27,0,0,0-1.53-3.22,5.43,5.43,0,0,0-6.89-1c-2.42,1.62-3.1,2.67-3.28,5.74Zm2.68-1.13a3.78,3.78,0,0,1,2-2.65,13.25,13.25,0,0,1,1.46-.65,4,4,0,0,1,1.79.65,2.73,2.73,0,0,1,1.5,1.2c.07.16.49,1.23.33,1.4s-1.63.12-2,.1C259.06,15.75,255.39,15.8,255.39,15.8Z"/><path d="M266.71,19.43a9.13,9.13,0,0,0,.19,3c.35.55,2.45,0,2.45,0,0-1.35,0-4.93,0-6.3,0-.4.37-1.38.44-1.78s1.23-1.18,1.76-1.4c0,0,.57.05.58.05a9.16,9.16,0,0,1,1.63.09c.93.55,1,.54,1.15,1.41a19,19,0,0,1,.11,2.42c.1.73-.19,4.95.16,5.71,0,0,2.41.25,2.48-.2.11-.7,0-4.58,0-5.27s0-1.64,0-2.09c-.25-2-.7-3.87-2.88-4.38-2-.47-4.85-.44-5.89,2.23-.21-1.13.46-2-.06-2.18-.35.32-2.14-.21-2.14,0,0,.67.18,3.4.12,4.1C266.7,16.4,266.71,19.43,266.71,19.43ZM269,11.78h0Zm4.92-.92h0Z"/></svg>