<svg xmlns="http://www.w3.org/2000/svg" viewBox="0 0 44 38"><title>Handdrawn</title><g id="Mail"><path d="M22,30.19s-11.54.46-15.42,0c-2.89-.34-5.27-2.37-5.27-5.27L1.11,9.39A5.37,5.37,0,0,1,6.6,4.23l15.52-.11a5.28,5.28,0,0,1,5.27,5.27l-.11,15.52A5.28,5.28,0,0,1,22,30.19ZM6.6,7A2.91,2.91,0,0,0,4,9.39s-.1,8.06,0,10.75c0,1.2.42,4.77.42,4.77a2.23,2.23,0,0,0,2.18,2.4s3.71.11,7.66.09c2.88,0,5.89-.21,7.66-.09a2.26,2.26,0,0,0,2.29-2.4c0-1.44.34-3.95.36-6.53,0-4.38,0-9,0-9,0-1.32-1.6-2.4-2.93-2.4Z" style="fill:#2a2722"/><path d="M14.1,23.54a6.11,6.11,0,0,1-6.11-6,6.11,6.11,0,0,1,6.11-6,6,6,0,0,1,6,6A6.23,6.23,0,0,1,17,22.91,4.52,4.52,0,0,1,14.1,23.54Zm0-9.44a3.45,3.45,0,0,0-3.54,3.43A3.31,3.31,0,0,0,14.1,21c2.25-.3,3.54-1.48,3.54-3.43A3.45,3.45,0,0,0,14.1,14.09Z" style="fill:#2a2722"/><path d="M23,11.06a1.43,1.43,0,0,1-1.43,1.43A1.56,1.56,0,0,1,20,11.06a1.69,1.69,0,0,1,1.57-1.57A1.56,1.56,0,0,1,23,11.06Z" style="fill:#2a2722"/></g></svg>