<svg id="LinkedIn_link" data-name="LinkedIn link" xmlns="http://www.w3.org/2000/svg" viewBox="0 0 277.18 31.34"><title>Handdrawn</title><path d="M4.19,21.69c0,.73.79.38,1.84.35.71,0,.5-4.65.4-6,0-.33-.18-8.06.13-8.19,0,0,1.83,4.83,1.83,4.82.18-.08,1.12,2.61,1.29,2.61a56.13,56.13,0,0,0,2.65,6.2,1.16,1.16,0,0,0,1.63.3c.5-.8,1.87-5.07,2.29-5.88.56-1.09,3.25-8.35,3.67-8.27s0,8.1,0,8.11c.09,1.06-.05,2.17,0,3.25,0,.85-.29,2.95.37,3a12.5,12.5,0,0,0,1.68,0c.14-1.19.06-3.93.12-5.13.09-1.85.82-11.36,0-11.79-.62-.34-2.71-.64-3.09,0-2.21,3.71-4.59,12.2-5.84,13.06A89.89,89.89,0,0,0,7.37,5c-.81-.31-2.17-.69-2.94.13,0-.25.07,5.92-.06,6.16,0,0,0,3.1,0,4.4s-.24,2.54-.15,3.8Zm8.5-.37Zm4.21-10.5h0Zm1.91,0h0Zm1.57,10.54c.06,0,.2.09,0,0Zm.75-.25c0-.05.16-.18,0,0Z"/><path d="M25.17,20.11a3.61,3.61,0,0,0,3,2.12c1.42.23,3.9-.07,4.89-2,.11.91-.33,1.68.11,1.76a3.85,3.85,0,0,0,1.74,0c-.05-2,.22-5.38-.07-7.34-.23-1.59-.8-3.27-2.58-3.85A8.4,8.4,0,0,0,27.6,11c-.44.17-1.63.51-1.9,1.25-.17.46,1,1.33,1.19,1.19,1.18-.77,4.19-1.86,5.1-.12-.11-.32.24.87.15.51a9.07,9.07,0,0,1,.05,1H32c-1.84-.25-3.59-.33-5.14.84a4.13,4.13,0,0,0-1.68,4.48ZM27,11.66c.05,0,0,0,0,0Zm.19,7.14a2.19,2.19,0,0,1,.07-.74,3.42,3.42,0,0,1,.66-.77,5.53,5.53,0,0,1,2-.59c.62-.07,1.25,0,1.87,0s.91.23.82,1a3,3,0,0,1-.67,1.38,7.49,7.49,0,0,1-.53.53c-.85.58-1.68,1.2-2.65,1C26.9,20.26,27.16,18.8,27.16,18.8Zm1.82,3h0Zm4.44-9.69h0Zm.22,9.46Z"/><path d="M38.3,22c0,.41,1.62.36,1.83,0,.35-.66,0-3.35.06-4.52,0-.74.1-1.49.07-2.23,0-.25.19-.55.68-1.61.66-1.46,2.17-.79,3.3-1.1.53-.15.57-2.11.08-2.11-3,0-3.51,1.37-4.35,2.29,0-.85.23-2.06-.46-1.92-.47.09-1.51-.49-1.38.19C38.12,11,38.19,19.59,38.3,22Z"/><path d="M46.94,15.2c0,1,0,1.91,0,2.86a18.69,18.69,0,0,0,0,3.78c.16.63,1.34.46,1.74.14.57-.46.25-1.68.28-2.35,0-1-.12-2-.14-3.05s0-2,0-3c0-.74.22-2.84-.19-2.92-.78-.15-1.86.28-1.82.1a21.93,21.93,0,0,0,0,4.4Zm1.59,6.68Z"/><path d="M46.55,6.62c0,1.18,2.09,1.87,2.59.61a1.57,1.57,0,0,0-1.42-2.14,1.62,1.62,0,0,0-1.18,1.53Zm1.07-1.5c.11,0,.09,0,0,0Z"/><path d="M51.74,18.93c0,1.78,1.57,3.51,4.35,3.39a4.88,4.88,0,0,0,3.54-1.74A2.19,2.19,0,0,0,60,22c1-.19,1.7.38,1.67,0-.07-.95-.13-3.82-.14-4.77s0-1.94,0-2.51c-.25-2-.52-3.47-2.52-4a9.08,9.08,0,0,0-3.08-.15,7.56,7.56,0,0,0-3.61,1.52c-.31.24.87,1.61,1.15,1.39a7.65,7.65,0,0,1,2.18-1c1.35-.27,1.57-.62,3.17.23A2.79,2.79,0,0,1,59.63,15a14.52,14.52,0,0,0-4.91.55C53,16,51.7,16.71,51.74,18.93Zm2.72-1.25a4.57,4.57,0,0,1,2.07-.61,24.18,24.18,0,0,0,3-.38,4.48,4.48,0,0,1-.12,1.82,4.84,4.84,0,0,1-.83,1.31,4.88,4.88,0,0,1-2.42,1,8.09,8.09,0,0,1-1.71-.4A1.74,1.74,0,0,1,54.46,17.68Zm2.07-.61Zm.18,5.32h0Zm1.53-11.82h0ZM61,21.77Z"/><path d="M71.87,21.72c0,.61,2.09.68,2.09.3,0-1.45-.18-6.84,0-7.72.11-.5,2.7,0,4.07-.17s4.7-.22,4.86.09a8.73,8.73,0,0,1,.13,2.7c0,1.46-.07,3.66,0,5.09,0,.39.94.2,1.76,0,.53-.13.09-8.58.11-9.42.07-2.52.2-6,0-7.5,0-.41-.71-.24-2,.05-.58.14.23,5.95,0,7-1.42.08-9,.38-9-.07-.08-.74.17-7-.19-7-.72-.19-1.64-.55-1.87.18,0-.25.08,2.75,0,3.75-.12,1.6,0,7.36,0,9C71.83,20.6,71.87,21.72,71.87,21.72Zm3.59.29Zm.05,0h0Zm5.33-9.17h0Z"/><path d="M88.23,19.19c0,1.73,2,3,3.6,3.21a4.22,4.22,0,0,0,4.42-2.17c.11.95-.34,2.09.43,2s1.47.27,1.41-.2a30.61,30.61,0,0,1,0-3.27c0-1.08-.1-4.94-.51-5.95-.67-1.64-2-2-3.42-2.21a6.08,6.08,0,0,0-5.42,1.71s.84,1.49,1.29,1.19c1.69-1.13,4-1.48,4.67-.76a4,4,0,0,1,.85,2.37,13.74,13.74,0,0,0-5.36.73A3.33,3.33,0,0,0,88.23,19.19Zm3.66-2.3c1.05-.24,3.33-.11,4.28-.23a9.49,9.49,0,0,1-.62,2.71c-.27.52-1.14,1.35-3.41,1.36C90.28,20.74,89.21,17.51,91.89,16.89Zm.22,5.31h0Zm4.65-.26s0,0-.06,0,.1-.2.06,0Zm0,0h0Z"/><path d="M110.66,19.93a14,14,0,0,1,0,1.54c-.08,1.8-.44,4.74-4.44,4.55a4,4,0,0,1-2.34-.56c-.48-.3-1.11-.83-1.65-1.16s-1.38.95-1.18,1.39c1.09,2.36,5.9,2.17,7,2,1.64-.32,3.6-1.53,4.11-3.17.63-2,.26-5.12.3-8.1,0-.82.72-5.18,0-5.57a2.14,2.14,0,0,0-1.71-.1c-.22-.07,0,1.95,0,1.95a5.67,5.67,0,0,0-8-.88c-2.14,1.68-2.17,5-1.76,6.66C102,22.46,109.14,23.49,110.66,19.93Zm-7.27-5.53A4.08,4.08,0,0,1,108,12.47a3.64,3.64,0,0,1,2.68,3.2,7.45,7.45,0,0,1-.61,3c-.43.83-1.07,1.7-3.29,1.73a4,4,0,0,1-3.89-3A5.32,5.32,0,0,1,103.39,14.4Zm-.66,3.39v0Zm.05-1.7h0Zm1.53,9.5h0Z"/><path d="M116.83,22c-.27-.11,2.27.74,3.93.12,1.16-.44,2-.59,2.5-1.75s.78-2,.09-3A4,4,0,0,0,122,16a5,5,0,0,0-1.43-.43,16.69,16.69,0,0,0-2.08-.47c-.94-.23-2.32-1.66.39-2.77a2.54,2.54,0,0,1,2.71,1c.33.41,1.8-.72,1.66-1a4,4,0,0,0-2.95-1.88c-1.54-.14-3.8.36-4.7,1.85a2.81,2.81,0,0,0,.83,3.7,5.72,5.72,0,0,0,1.88.75c.64.24,1.74.41,2.27.67.26.13,1.12.45.93,2-.09.72-1.34.91-1.74.91-.91,0-2.54-.05-3.4-1.27-.34-.49-.87.66-1.46,1.06C114.5,20.43,115.84,21.6,116.83,22Zm1.88-7Z"/><path d="M124.77,12.28c0,.31,1.87-.1,2.41.16a12.21,12.21,0,0,1,0,2.52,28.61,28.61,0,0,0,.08,5.27c.15,1.22,1.34,2.12,3.09,2.09.67,0,2.19-.18,2.16-.46s.16-2-.12-1.75a2.58,2.58,0,0,1-2.78.15c-.61-.45-.57-2.08-.59-3s.1-3.24.11-3.65a5.55,5.55,0,0,1,0-1.28,17,17,0,0,0,3.19,0c.19-.19.3-1.36,0-1.43a24,24,0,0,0-3.24-.06V7.65c0-.34-1.83-.14-1.95-.12a23.37,23.37,0,0,1,0,3.24c-.44.13-2.46-.16-2.46,0Zm2,1.06h0Zm2.48-2.12h0Zm.17,7.57a0,0,0,0,1,0,0v0Z"/><path d="M134.09,15.94c-.16,3,1.32,5.26,3.61,6a6.47,6.47,0,0,0,5.41-.5c.89-.42,1.75-1.29,1.61-1.52s-1.2-1.3-1.37-1.06a4.83,4.83,0,0,1-3.17,1.67,3.34,3.34,0,0,1-2.36-.55,4.11,4.11,0,0,1-1.76-3,38.84,38.84,0,0,1,4.57.08c.8.09,4,.15,4.52-.18.86-.6-.33-3.07-.75-3.88-.87-1.67-2.15-2.63-4.7-2.56A5.81,5.81,0,0,0,134.09,15.94Zm2-.59c-.29-.1.27-1.49.82-2a3.07,3.07,0,0,1,1.44-.92,4.6,4.6,0,0,1,2.3-.11,3.5,3.5,0,0,1,2,1.62,11.81,11.81,0,0,1,.46,1.43,12.35,12.35,0,0,1-2.81,0c-1.25,0-1.89,0-2.78,0Zm7.53,6Z"/><path d="M148.05,22c0,.29.79.06,1.87.06.24,0,0-.33.07-.94.06-1.1-.15-2.23-.09-3.34,0-.6,0-1.2,0-1.8a5.2,5.2,0,0,1,1.3-2.94,3.82,3.82,0,0,1,.93-.54l.64-.18a3.33,3.33,0,0,1,.71,0,2.68,2.68,0,0,1,1.58.51,3.64,3.64,0,0,1,.85,1.94c.09.72,0,3.67,0,4.38a19.48,19.48,0,0,0,.18,2.84s1.76.36,1.75,0c0-1.35.13-3.14,0-4.48-.15-2.12.35-5.77-2.12-6.61-1.84-.63-4.28-1-5.89,1.77-.19-1.56.05-1-.09-1.64s-1.82,0-1.79-.3c0,0,.14,4.76.07,6a38.34,38.34,0,0,0,0,4Zm2.61-7.26s0,0,0,0Z"/><path d="M168.46,22c.08.33.74.14,1.95,0,.39,0-.05-2.59,0-3.64.09-1.38-.06-9.41,0-10.79,0-.68,2.33,5.11,3,6.85a37.54,37.54,0,0,0,1.72,4.19,28.88,28.88,0,0,0,1.5,3.39h1.16c.05,0,3.34-7.55,3.63-8.41.14,0,2.39-5.84,2.53-5.82s-.21,6.74-.07,7.53-.13,5.61.09,6.7c.06.3,2.09.33,2,0-.22-1.17.11-7.36.09-8.55,0-2.23.41-8.47-.16-8.5-2.19-.14-2.16.31-2.84.06-1.19,2.06-5.56,13.26-5.89,13.28s-2.21-5.23-3.11-7.09c-.34-.7-2.19-6.11-2.69-6.26-.71-.21-2.66-.3-3,0-.06-.62.09,9.85,0,11C168.28,17.55,168.46,22,168.46,22ZM178,12.15Z"/><path d="M190,22c.15.6,1.81,0,1.81,0,.48-1.27.1-2.08.13-3.41a32.06,32.06,0,0,0,0-4.16c-.06-.54.3-3.13,0-3.59s-1.91-.34-1.91,0c0,1.74-.21,5.17,0,6.9Z"/><path d="M189.56,6.5c0,1,1.56,1.59,2.34.91,1.08-1-.32-3-1.28-2.31C190.26,5.34,189.61,5.37,189.56,6.5Z"/><path d="M194.94,17.07a5.77,5.77,0,0,0,9.89,3.52c.44-.47-1.29-1.25-1.29-1.25-.66.14-1.2.89-1.9,1.24a3.39,3.39,0,0,1-2.56-.31,5.32,5.32,0,0,1-2.13-3.4c-.09-1.68.27-3.35,2.12-4.29a4.18,4.18,0,0,1,4.47.94c.49.57,1-.72,1.53-1.23.37-.35-3-2.72-6.28-1.64-2.54.84-4.08,3.78-3.84,6.43Zm4.55-.83v0Zm6-2.18h0ZM206,21.5Z"/><path d="M207.16,22c.06.27,1.93.34,1.94,0,0-1.63,0-5.32.06-6.6a8.22,8.22,0,0,1,.26-1.06,2.68,2.68,0,0,1,1.08-1.64,4.19,4.19,0,0,1,3.45-.12c1.56.88,1.06,3.7,1.18,5.56,0,.69,0,1.38,0,2.07A5.29,5.29,0,0,0,215.2,22c.14.4,1.15.34,1.68.06s.18-.91.17-1.46c0-2.88.61-6.12-.87-8.53s-5.41-2.06-7.21.38a55.78,55.78,0,0,0,.1-5.92A15.7,15.7,0,0,0,209,3.93c.12-.12-1.54-.58-1.73-.05a10,10,0,0,0,0,1.88c0,1.69.06,3.35-.07,5s0,3.61,0,5.39a17.51,17.51,0,0,1,0,2.33C207.07,19.24,207.16,22,207.16,22Zm4-9.37h0Zm1.84.24Z"/><path d="M219.8,16c-.06,3.85,1.63,6,5.33,6.22,2.47.16,4.59-.84,5.22-2.1.28-.55-.72-1-1.22-1.24-.32-.18.08.25-.66.64a5.18,5.18,0,0,1-2.81.69,4.66,4.66,0,0,1-2.3-.56,3.15,3.15,0,0,1-1.53-2.8c1.4.12,3.71.11,5.11.14s2.68,0,3.94-.09c.5,0,0-1.7-.18-2.51a5.17,5.17,0,0,0-1.82-2.89,5.26,5.26,0,0,0-6.31-.21A5.68,5.68,0,0,0,219.8,16Zm3.09-2.83a3.58,3.58,0,0,1,1.41-.78,7,7,0,0,1,1-.22,4.72,4.72,0,0,1,2.11.4l.67.48a4.81,4.81,0,0,1,.7,1.3,2.44,2.44,0,0,1,.15,1c-.1.15-1.28,0-1.48,0-.82.05-4.47,0-5.29,0C221.17,15.46,222.69,13.43,222.89,13.2Z"/><path d="M234,22c.18.39,1.9.39,1.88,0-.17-2.22.16-6,.06-8.16s-.08-4.46-.07-6.69a14,14,0,0,0,0-3.23c-.19-.62-1.67,0-1.79,0,0,.6.15,5.6,0,8-.11,2.58-.23,5.12-.14,7.71A9.33,9.33,0,0,0,234,22Zm2.87-16.18Zm0,0h0Zm.33-.57Zm1.32.32h0Zm0,0Z"/><path d="M238.82,20.82a5.32,5.32,0,0,0,3.49,1.48,6.7,6.7,0,0,0,3.13-.55,3.24,3.24,0,0,0,1.44-4.45c-1.13-2.42-4.16-1.13-5.72-2.92a1.16,1.16,0,0,1,.08-1.47c.69-1,2.7-.7,3.54,0,.67.53.29,1,.64.7a12.32,12.32,0,0,0,1.44-1c.18-.26-1-1.34-1.39-1.52a5.16,5.16,0,0,0-2.33-.58,4.22,4.22,0,0,0-3.73,1.63c-1.45,2.15-.39,4.22,2.31,4.77.7.14,3.34.29,3.43,1.79.13,2.22-2.47,2.08-3.2,1.8a7.94,7.94,0,0,1-2.21-1.32c-.4-.34-1.27.68-1.43,1.18C238.32,20.32,238.7,20.68,238.82,20.82Zm.51-6.63a0,0,0,0,1,0,0v0Zm.29.92h0ZM241.38,14a0,0,0,0,1,0,0v0Zm.74,1h0Zm1,.56h0Zm.31,2.72Zm1.15.67v0Zm2.16-1h0Zm0,0h0Zm.16-5.69h0Z"/><path d="M249.16,16.46c-.28,4.85,4.38,6.37,7.49,5.68,1.29-.28,3.44-1.87,3.22-2.18-.44-.61-1.12-1.4-1.43-1.12s-1.43,1.44-1.82,1.44a3,3,0,0,1-1.43.18,4.56,4.56,0,0,1-2.37-.56,11.3,11.3,0,0,1-1.24-1.41,4.46,4.46,0,0,1-.36-1.49c1.35.15,3.41,0,4.76,0a24.34,24.34,0,0,0,2.57,0c.53,0,1.45.31,1.67-.21a4.17,4.17,0,0,0,0-1.76,5.91,5.91,0,0,0-1.45-3,5.12,5.12,0,0,0-6.49-.95c-2.28,1.53-2.93,2.52-3.09,5.41Zm4.26,2.36Zm-2.2-3.43a4.09,4.09,0,0,1,1.87-2.78,5.51,5.51,0,0,1,1.85-.42,3.62,3.62,0,0,1,1.69.42A3,3,0,0,1,258,14c.06.15.47,1.16.31,1.32s-1.54.12-1.85.09C255.14,15.34,251.21,15.39,251.21,15.39Zm9,7.27Zm1.47-6.41Zm1.49,1.43h0Zm.22-2.74s0,0,0,0,0,0,0,0Zm.32,1.12v0Zm0,.05h0Zm0,1.43s0,0,0,0Zm0,0h0Zm0,0v0Z"/><path d="M263.07,19.11a8.8,8.8,0,0,0,.18,2.86c.34.53,1.78,0,1.78,0,0-1.3,0-4.76,0-6.07,0-.39.36-1.33.42-1.72s1.48-1.61,2-1.83l.56-.14c.16,0,1.41.06,1.57.09a2.28,2.28,0,0,1,1.49,2,16.6,16.6,0,0,1,0,2.33c.09.7-.28,4.57.06,5.31,0,0,1.74.43,1.81,0,.11-.68,0-4.42,0-5.08s0-1.58,0-2c-.24-1.93-.29-3.73-2.39-4.22-1.92-.45-4.67-.42-5.68,2.15-.2-1.09.44-1.88-.06-2.1-.34.31-1.77-.21-1.77,0,0,.65.17,3.27.12,3.95-.12,1.45-.12,2.92-.12,4.38Zm2-7.38h0Zm4.75-.89h0Z"/></svg>