<svg xmlns="http://www.w3.org/2000/svg" viewBox="0 0 380 59"><title>My_Middle_Name_Is</title><g id="My_Name"><path d="M1.29,39.45c0,1.32,1.43.69,3.34.63,1.29,0,.9-8.41.72-10.89,0-.59-.32-14.59.23-14.83,0,0,3.31,8.75,3.32,8.74.33-.14,2,4.73,2.34,4.73A101.64,101.64,0,0,0,16,39.06c1.08,1.74,3,.54,3,.54.9-1.45,3.39-9.18,4.14-10.64,1-2,5.88-15.12,6.65-15,1,0-.06,14.67-.06,14.69.17,1.92-.09,3.92-.08,5.88,0,1.54-.53,5.34.67,5.48a22.63,22.63,0,0,0,3,0c.26-2.15.11-7.12.21-9.29.16-3.35,1.49-20.56,0-21.35-1.12-.61-4.9-1.17-5.6,0C24,16.11,19.67,31.48,17.41,33,15.53,27.4,10.78,15.73,7,9.28,5.58,8.71,3.11,8,1.73,9.5c0-.45.13,10.72-.12,11.16.05.05,0,5.62-.05,8s-.43,4.6-.27,6.89Zm15.4-.67Zm7.62-19h0Zm3.46.07h0ZM30.6,38.93c.11,0,.36.16,0,0ZM32,38.48c.06-.09.29-.33,0,0Z"/><path d="M39.27,36.59c.7,2.29,3.23,3.47,5.5,3.84,2.56.42,7.06-.12,8.85-3.58.21,1.65-.6,3,.2,3.18A7,7,0,0,0,57,40c-.1-3.57.39-9.74-.12-13.29-.42-2.88-1.44-5.92-4.67-7a15.21,15.21,0,0,0-8.5.26c-.8.3-2.95.93-3.43,2.26-.3.83,1.77,2.41,2.15,2.16,2.14-1.39,7.58-3.37,9.24-.21-.19-.57.43,1.58.27.93A16.43,16.43,0,0,1,52,27l-.4,0c-3.34-.46-6.49-.6-9.3,1.51-2.45,1.85-4.06,5-3,8.11Zm3.25-15.3c.1-.09,0,0,0,0Zm.35,12.93A4,4,0,0,1,43,32.87a6.18,6.18,0,0,1,1.19-1.4,10,10,0,0,1,3.65-1.06c1.12-.13,2.25.06,3.38-.06s1.65.41,1.48,1.89a5.38,5.38,0,0,1-1.21,2.49,13.56,13.56,0,0,1-1,1c-1.54,1-3,2.18-4.8,1.83C42.39,36.85,42.87,34.21,42.87,34.21Zm3.3,5.37h0ZM54.2,22l0,0,0,0Zm.4,17.13Z"/><path d="M63.05,40.06c0,.74,2.93.66,3.31,0,.64-1.19.07-6.07.11-8.19,0-1.34.17-2.7.13-4,0-.45.35-1,1.22-2.91,1.2-2.65,3.92-1.42,6-2,1-.26,1-3.82.15-3.82-5.5,0-6.35,2.48-7.87,4.14,0-1.54.41-3.72-.83-3.48-.85.17-2.73-.89-2.51.34C62.73,20.07,62.85,35.64,63.05,40.06Z"/><path d="M78.68,27.69c.08,1.73.07,3.45,0,5.18s-.39,5.11.06,6.85c.29,1.14,2.42.84,3.14.25,1-.83.46-3,.5-4.25.07-1.84-.23-3.69-.25-5.53s.07-3.58.06-5.37c0-1.34.4-5.14-.35-5.28-1.42-.27-3.38.5-3.3.19a39.71,39.71,0,0,0,.08,8Zm2.89,12.1c-.08.08,0,0,0,0Z"/><path d="M78,12.16c0,2.14,3.78,3.39,4.69,1.1a2.84,2.84,0,0,0-2.56-3.87A2.94,2.94,0,0,0,78,12.16Zm1.93-2.72c.2-.05.17,0,0,0Z"/><path d="M87.37,34.44c.05,3.22,2.84,6.35,7.87,6.13a8.84,8.84,0,0,0,6.4-3.15,4,4,0,0,0,.65,2.6c1.82-.34,3.07.69,3,0-.12-1.72-.23-6.91-.25-8.63,0-1.45,0-3.51,0-4.55-.45-3.54-.95-6.28-4.56-7.21a16.44,16.44,0,0,0-5.58-.28,13.68,13.68,0,0,0-6.54,2.75c-.56.43,1.58,2.92,2.09,2.52a13.86,13.86,0,0,1,4-1.75c2.45-.48,2.84-1.13,5.75.41,1,.54,1.61,2.78,1.54,4a26.29,26.29,0,0,0-8.9,1C89.64,29.22,87.31,30.43,87.37,34.44Zm4.93-2.26c.64-.65,2.78-1,3.76-1.1a43.78,43.78,0,0,0,5.52-.68,8.1,8.1,0,0,1-.21,3.3,8.76,8.76,0,0,1-1.51,2.37,8.84,8.84,0,0,1-4.39,1.72,14.65,14.65,0,0,1-3.09-.72C90,35.35,91.62,32.88,92.3,32.18Zm3.76-1.1Zm.33,9.64h0Zm2.77-21.4h0Zm5.07,20.28Z"/><path d="M185.47,40c.14.59,1.34.25,3.53,0,.71-.08-.09-4.69,0-6.6.17-2.5-.1-17-.09-19.54,0-1.23,4.21,9.25,5.43,12.41a68,68,0,0,0,3.11,7.59c.17.29,2.38,6.19,2.72,6.14,0,0,2.18,0,2.09,0,.1,0,6.05-13.67,6.58-15.23.26,0,4.32-10.57,4.58-10.54.5,0-.38,12.2-.12,13.63.29,1.64-.23,10.16.17,12.13.11.55,3.79.59,3.68,0-.41-2.12.21-13.33.17-15.48-.07-4,.74-15.33-.28-15.39-4-.25-3.9.57-5.15.11-2.15,3.73-10.06,24-10.66,24s-4-9.46-5.64-12.84c-.62-1.27-4-11.06-4.87-11.33-1.28-.37-4.81-.54-5.38.07-.11-1.13.16,17.84,0,19.84C185.15,31.94,185.47,40,185.47,40Zm17.32-17.86Z"/><path d="M224.42,40c.28,1.08,3.28-.08,3.28-.08.87-2.29.19-3.76.23-6.18a58.05,58.05,0,0,0-.06-7.53c-.11-1,.54-5.67,0-6.51s-3.46-.62-3.45-.07c0,3.15-.38,9.36,0,12.49Z"/><path d="M223.69,11.94c-.08,1.9,2.83,2.89,4.24,1.64,2-1.72-.57-5.38-2.32-4.19C225,9.84,223.77,9.9,223.69,11.94Z"/><path d="M233.43,31.08c.3,5.75,4.78,9,9.28,9.49a10,10,0,0,0,8.62-3.12c.8-.85-2.33-2.27-2.33-2.27-1.2.25-2.17,1.61-3.45,2.24a6.13,6.13,0,0,1-4.64-.55c-1.49-1-3.72-3.72-3.85-6.16-.17-3,.49-6.07,3.83-7.76A7.56,7.56,0,0,1,249,24.64c.89,1,1.77-1.31,2.76-2.24.68-.63-5.43-4.92-11.37-3-4.6,1.52-7.39,6.84-7,11.65Zm8.24-1.5v0Zm10.86-3.95h0Zm.87,13.46Z"/><path d="M255.54,40c.11.48,3.49.62,3.51,0,.08-2.95,0-9.64.11-12a14.89,14.89,0,0,1,.47-1.92,4.86,4.86,0,0,1,1.95-3c.5-.43,4-1.47,6.25-.22,2.82,1.59,1.92,6.7,2.13,10.07.08,1.25-.06,2.49-.07,3.74a9.58,9.58,0,0,0,.21,3.15c.25.72,2.09.61,3,.1s.33-1.65.31-2.65c-.09-5.22,1.11-11.08-1.58-15.44s-9.8-3.73-13.05.7A101,101,0,0,0,259,11.93c0-1.61.06-4.87-.16-4.65.22-.22-2.78-1.06-3.13-.09a18.09,18.09,0,0,0-.09,3.41c-.07,3.07.11,6.07-.13,9.13s0,6.55,0,9.76a31.71,31.71,0,0,1,0,4.22C255.38,35,255.54,40,255.54,40Zm7.17-17h0Zm3.33.44Z"/><path d="M278.43,29.19c-.1,7,2.95,10.83,9.65,11.26,4.47.29,8.32-1.52,9.46-3.8.5-1-1.3-1.74-2.22-2.25-.58-.32.15.46-1.2,1.15A9.39,9.39,0,0,1,289,36.79a8.43,8.43,0,0,1-4.16-1,5.71,5.71,0,0,1-2.77-5.07c2.53.22,6.71.21,9.25.26,2.28,0,4.86-.09,7.14-.16.91,0,0-3.07-.33-4.54A9.37,9.37,0,0,0,294.89,21a9.52,9.52,0,0,0-11.43-.39C279.58,23.27,278.47,26.54,278.43,29.19Zm5.6-5.12a6.49,6.49,0,0,1,2.56-1.41,12.64,12.64,0,0,1,1.82-.41,8.55,8.55,0,0,1,3.82.73c.14.12,1.21.88,1.21.87a8.71,8.71,0,0,1,1.26,2.35A4.41,4.41,0,0,1,295,28c-.18.28-2.33,0-2.69,0-1.49.09-8.09,0-9.59.08C280.92,28.17,283.67,24.48,284,24.07Z"/><path d="M304.09,40c.33.7,3.45.7,3.4,0-.3-4,.3-10.81.12-14.77s-.14-8.08-.12-12.12c0-1.64.39-4.38-.05-5.85-.34-1.12-3-.09-3.25-.06,0,1.09.27,10.15.08,14.51-.2,4.67-.42,9.28-.25,14C304,35.71,303.71,39.22,304.09,40Zm5.19-29.31Zm0,0h0Zm.59-1Zm2.39.58s0,0,0,0v0Zm0,0Z"/><path d="M312.87,37.87a9.63,9.63,0,0,0,6.32,2.68,12.13,12.13,0,0,0,5.66-1c2.85-1.24,4.15-4.76,2.6-8.07-2-4.37-7.53-2-10.35-5.29a2.1,2.1,0,0,1,.15-2.67c1.25-1.72,4.89-1.26,6.4-.07,1.22,1,.52,1.75,1.16,1.26a22.31,22.31,0,0,0,2.62-1.8c.32-.47-1.87-2.43-2.51-2.75a9.35,9.35,0,0,0-4.21-1c-2.66,0-5.25.72-6.75,3-2.62,3.88-.71,7.64,4.19,8.63,1.26.26,6,.53,6.21,3.24.23,4-4.47,3.77-5.79,3.26a14.38,14.38,0,0,1-4-2.4C313.84,34.2,312.27,36,312,37,312,37,312.66,37.62,312.87,37.87Zm.92-12a.06.06,0,0,1,0,0v0Zm.52,1.67h0Zm3.2-2.08a0,0,0,0,1,0,0v0Zm1.34,1.79a0,0,0,0,1,0,0,0,0,0,0,0,0,0Zm1.72,1h0Zm.57,4.93Zm2.09,1.22,0,0,0,0Zm3.91-1.81h0Zm0,0h0Zm.29-10.29h0Z"/><path d="M331.59,30c-.51,8.78,7.93,11.53,13.57,10.29,2.33-.51,6.23-3.38,5.82-4-.8-1.1-2-2.54-2.59-2s-2.6,2.61-3.3,2.61a5.45,5.45,0,0,1-2.59.33c-1,0-3.54-.27-4.29-1A20.47,20.47,0,0,1,336,33.67a8.07,8.07,0,0,1-.65-2.69c2.44.28,6.17,0,8.62,0a44.08,44.08,0,0,0,4.65,0c1-.07,2.63.57,3-.38a7.54,7.54,0,0,0,0-3.19,10.7,10.7,0,0,0-2.62-5.49c-3.06-3.26-8.08-4.17-11.76-1.71-4.12,2.76-5.3,4.56-5.6,9.8Zm7.71,4.28Zm-4-6.22c.56-2.08,1.41-4,3.39-5a10,10,0,0,1,3.35-.77,6.55,6.55,0,0,1,3.06.77,5.5,5.5,0,0,1,2.57,2.56c.11.28.84,2.1.56,2.39s-2.79.21-3.35.17C342.43,27.94,335.32,28,335.32,28Zm16.37,13.16Zm2.67-11.6s0,0,0,0Zm2.69,2.59h0Zm.41-5s0,0,0,0,0,0,0,0Zm.58,2v0Zm0,.1h0Zm.06,2.59c0-.05,0,0,0,0Zm0,0h0Zm0,0a.42.42,0,0,0,0-.06l0,.06Z"/><path d="M356.79,34.76c0,1.38-.21,4.35.33,5.19s3.23.09,3.23.09c.06-2.36,0-8.61,0-11,0-.7.65-2.41.76-3.11.15-.94,2.67-2.92,3.59-3.32,0,0,1-.26,1-.26.28,0,2.56.1,2.84.16,1.62.34,2.49,2.17,2.7,3.69a30.06,30.06,0,0,1,0,4.22c.17,1.28-.51,8.28.11,9.62,0,0,3.15.79,3.28,0,.2-1.22,0-8,0-9.2s0-2.86,0-3.65c-.43-3.5-.52-6.75-4.33-7.65-3.48-.82-8.45-.76-10.28,3.89-.36-2,.8-3.41-.1-3.8-.61.56-3.2-.37-3.21.06,0,1.17.32,5.93.21,7.15-.22,2.63-.21,5.29-.21,7.93Zm3.55-13.35h0Zm8.59-1.61h0Z"/></g><g id="H"><text transform="translate(127 40)" style="font-size:40px;font-family:Avenir-Medium, Avenir">H.</text></g><g id="Yoga"><path d="M164,12c-.15-.89-.49-.5-.9-.37.47-.15-.93.76-.47.38-.52.43-1.81,1.18-.77,2.07-3,.08-5.94,0-8.91.1-1.12,0-2.15-.17-3.27-.15-.61,0-2.1.39-2.37-.1.9.49,2.37-.2,3-.82,1.25-1.22,1.1-3.46.69-5A4.11,4.11,0,0,0,145,5.32c-.25-1.39-1.72-2.21-2.65-.85-.58.85-1.17,3.79.72,3.38a4.45,4.45,0,0,0,3.58,5.91.45.45,0,0,0-.24.33,12.23,12.23,0,0,0-1.67-.67c-1.55-.62-3.82-2-5.61-2.91C137.55,9.69,135,9,134.45,7.15c-.13-.44-.15-2.13-.7-2.28-.95-.27-.78,1.33-.82,1.91-.11,1.62-.83,2.88-1.4,4.54-.41,1.21-.65,2.47-1,3.69-.26.87-1.08,2.19-.57,3a8.7,8.7,0,0,0,2.46,1.82c1,.65,1.92,1.28,2.93,1.86.47.27.93.54,1.39.82.76.47.86.51.83,1.39a27.42,27.42,0,0,0,.07,3c.17,2.28.37,4.55.46,6.83a40.17,40.17,0,0,0-5,0c-.81.09-1.62.24-2.42.4s-2.86-.17-3.31.38c0,0-.63,1-.67,1.09-.37.77-.76,1.53-1.09,2.33C125.11,39,124,40.8,123.9,42c0,.67-.16.56.51.8,1.9.67,4.58.28,6.56.23,2.7-.07,5.41-.1,8.11-.2s5.28-.18,7.92-.33c2.48-.14,4.93-.58,7.42-.64l1.67,0h.7c.3-.07,1.25.19.89-.61-1-2.16-3-3.73-4.08-5.58l-.07-.09c-.67-.67-.35-1.47-1.22-1.73a7,7,0,0,0-1.88.14q-1.29.07-2.58,0c-1.74,0-3.49-.11-5.23-.17-.73,0-3.25.25-3.66-.2-.25-.27-.09-2-.11-2.46,0-.71-.11-1.4-.18-2.11-.11-1.28-.23-2.58-.26-3.86a6.1,6.1,0,0,1,.07-2.24c.27-.42,1.4-.82,1.84-1.06a17.79,17.79,0,0,0,2.52-1.61A12.24,12.24,0,0,0,146.75,16c.3-.66.16-.77.75-1a6.17,6.17,0,0,1,1.39-.06,19.92,19.92,0,0,1,2.56.1c2.68.21,5.48,0,8.16,0,.93,0,2.31.2,3.14-.25A2.73,2.73,0,0,0,164,12ZM140.2,34.64c3.89,0,7.89.63,11.76.07-.07.43.9,1.38,1.16,1.69.77,1,1.68,1.92,2.38,2.85A17.31,17.31,0,0,1,156.58,41c-5.43.15-10.86.66-16.29.95-5,.27-10.44.71-15.47.08,1-2.35,1.92-4.48,2.94-6.75a43.48,43.48,0,0,1,4.66-.57,16.4,16.4,0,0,1,2.82-.15c.51,0,2.4-.2,2.75.08.72.58,0,2.51.53,3.38a2.49,2.49,0,0,0,2.16.74c.42,0,1.09-.32,1.36-.32s0,0,0,0c.62.06.88-.42.69-1-.07-.21,0-.28-.3-.35-.65-.16-.36.3-.66.43a3.83,3.83,0,0,1-2.19-.53c-.63-.55-.46-1.45-.54-2.31Zm3.3-30,0,0M142.71,7m.56-.36c-.71.89-.66-.21-.42-1,.09-.29.24-.91.6-1,.63-.12.56.76.87,1.07C143.87,5.72,143.51,6.31,143.28,6.62Zm1.31,2.26c-.38.82,0,1.58-.37,2.3a3.86,3.86,0,0,1,1-4.92,2.91,2.91,0,0,1,2.46-.52c-.51.5-1.1.86-1.57,1.38A14.34,14.34,0,0,0,144.58,8.88Zm1.13,3.72c-.46-.23-.83-.47-.84-.85s.4-.73.44-1c.07-.64-.19-.93.19-1.53s2.81-3.42,3.3-2.93c1.45,1.12,2.58,5.27.71,6.37l-.07,0C148.61,13.38,146.71,13,145.72,12.6Zm.19,3.22a7.19,7.19,0,0,1-.71,1.12A9.54,9.54,0,0,1,143.1,19a33.18,33.18,0,0,1-3.79,2.5c-.28.15-1,.78-1.34.79a7.43,7.43,0,0,1-1.12-.71c-.75-.45-1.54-.85-2.28-1.32s-1.71-1.18-2.54-1.81c-.32-.24-1.22-.73-1.37-1.12s.52-1.48.64-1.89c.18-.6.33-1.2.49-1.81.2-.76.37-1.52.64-2.26a20.43,20.43,0,0,1,.92-2.31c.39-.77.25-.66.92-.24,1.36.85,2.73,1.55,4.17,2.29,1.75.9,3.46,1.92,5.24,2.75a8.53,8.53,0,0,1,2.1.89C146.31,15.2,146.29,14.8,145.9,15.82ZM163,13.1a1.81,1.81,0,0,1-.57.71c.13-.86-.49-.81.65-1A.73.73,0,0,1,163,13.1Z"/></g></svg>