<svg xmlns="http://www.w3.org/2000/svg" viewBox="0 0 373.47 37.65"><title>My_Middle_Name_Is</title><g id="My_Name"><path d="M1.29,39.45c0,1.32,1.43.69,3.34.63,1.29,0,.9-8.41.72-10.89,0-.59-.32-14.59.23-14.83,0,0,9.28,22.81,10.45,24.69s3,.54,3,.54c.9-1.45,10-25.76,10.79-25.62,1,0-.67,25.9.54,26a22.63,22.63,0,0,0,3,0c.26-2.15.11-7.12.21-9.29.16-3.35,1.49-20.56,0-21.35-1.12-.61-4.9-1.17-5.6,0C24,16.11,19.67,31.48,17.41,33,15.53,27.4,10.78,15.73,7,9.28,5.58,8.71,3.11,8,1.73,9.5,1.75,9.05,1.29,39.45,1.29,39.45Zm15.4-.67ZM27.76,19.85h0ZM30.6,38.93c.11,0,.36.16,0,0ZM32,38.48c.06-.09.29-.33,0,0Z" transform="translate(-1.29 -6.73)"/><path d="M39.27,36.59c.7,2.29,3.23,3.47,5.5,3.84,2.56.42,7.06-.12,8.85-3.58.21,1.65-.6,3,.2,3.18A7,7,0,0,0,57,40c-.1-3.57.39-9.74-.12-13.29-.42-2.88-1.44-5.92-4.67-7a15.21,15.21,0,0,0-8.5.26c-.8.3-2.95.93-3.43,2.26-.3.83,1.77,2.41,2.15,2.16,2.14-1.39,6.61-3.45,9.24-.21.38.47.08,2.73.36,2.76-3.34-.46-6.89-.64-9.7,1.48-2.45,1.85-4.06,5-3,8.11Zm3.6-2.38a5.92,5.92,0,0,1,1.37-2.78,8.46,8.46,0,0,1,3.61-1,23,23,0,0,1,3.38-.06,1.55,1.55,0,0,1,1.48,1.89c0,.69-2,3.3-2.17,3.46-1.44,1.19-3,2.18-4.8,1.83C42.39,36.85,42.9,35.3,42.87,34.21Z" transform="translate(-1.29 -6.73)"/><path d="M63.05,40.06c0,.74,2.93.66,3.31,0,.64-1.19,0-11.24.24-12.23a6.69,6.69,0,0,1,1.22-2.91c1.18-1,3.92-1.42,6-2,1-.26,1-3.82.15-3.82-5.5,0-6.35,2.48-7.87,4.14,0-1.54.41-3.72-.83-3.48-.85.17-2.73-.89-2.51.34C62.73,20.07,62.85,35.64,63.05,40.06Z" transform="translate(-1.29 -6.73)"/><path d="M78.73,32.87c0,1.78-.39,5.11.06,6.85.29,1.14,2.42.84,3.14.25,1-.83.33-13.36.32-15.15,0-1.34.4-5.14-.35-5.28-1.42-.27-3.38.5-3.3.19a39.71,39.71,0,0,0,.08,8S78.75,31.14,78.73,32.87Zm2.84,6.92c-.08.08,0,0,0,0Z" transform="translate(-1.29 -6.73)"/><path d="M78,12.16c0,2.14,3.78,3.39,4.69,1.1a2.84,2.84,0,0,0-2.56-3.87A2.94,2.94,0,0,0,78,12.16Zm1.93-2.72c.2-.05.17,0,0,0Z" transform="translate(-1.29 -6.73)"/><path d="M87.37,34.44c.05,3.22,2.84,6.35,7.87,6.13a8.84,8.84,0,0,0,6.4-3.15,4,4,0,0,0,.65,2.6c1.82-.34,3.07.69,3,0-.12-1.72-.23-6.91-.25-8.63,0-1.45,0-3.51,0-4.55-.23-3.56-.95-6.28-4.56-7.21a16.44,16.44,0,0,0-5.58-.28,13.68,13.68,0,0,0-6.54,2.75c-.56.43,1.58,2.92,2.09,2.52a17,17,0,0,1,4-1.75c1.35-.49,4.58-.43,5.75.41a5.81,5.81,0,0,1,1.54,4,26.29,26.29,0,0,0-8.9,1C89.64,29.22,87.31,30.43,87.37,34.44Zm4.93-2.26c.64-.65,2.78-1,3.76-1.1a43.78,43.78,0,0,0,5.52-.68,6.43,6.43,0,0,1-.21,3.3,7.81,7.81,0,0,1-1.51,2.37,8.84,8.84,0,0,1-4.39,1.72,6.11,6.11,0,0,1-3.09-.72C90,35,91.62,32.88,92.3,32.18Zm3.76-1.1Zm3.1-11.76h0Zm5.07,20.28Z" transform="translate(-1.29 -6.73)"/><path d="M185.47,40c.14.59,1.34.25,3.53,0,.71-.08-.07-23.64-.06-26.14,0-1.23,10.92,26.19,11.26,26.14,0,0,2.18,0,2.09,0,.1,0,10.9-25.8,11.16-25.77.5,0-.36,23.8,0,25.77.11.55,3.79.59,3.68,0-.41-2.12.91-30.81-.11-30.87-4-.25-3.9.57-5.15.11-2.15,3.73-10.06,24-10.66,24s-9.6-23.91-10.51-24.17c-1.28-.37-4.81-.54-5.38.07-.11-1.13.16,17.84,0,19.84C185.15,31.94,185.47,40,185.47,40Z" transform="translate(-1.29 -6.73)"/><path d="M224.42,40c.28,1.08,3.28-.08,3.28-.08.3-2,.71-19.38.17-20.21s-3.46-.62-3.45-.07C224.47,22.83,224.42,40,224.42,40Z" transform="translate(-1.29 -6.73)"/><path d="M223.69,11.94c-.08,1.9,2.83,2.89,4.24,1.64,2-1.72-.57-5.38-2.32-4.19C225,9.84,223.77,9.9,223.69,11.94Z" transform="translate(-1.29 -6.73)"/><path d="M233.43,31.08c.3,5.75,4.78,9,9.28,9.49a10,10,0,0,0,8.62-3.12c.8-.85-2.33-2.27-2.33-2.27-1.2.25-2.17,1.61-3.45,2.24a6.13,6.13,0,0,1-4.64-.55c-1.49-1-3.72-3.72-3.85-6.16-.17-3,.49-6.07,3.83-7.76A7.56,7.56,0,0,1,249,24.64c.89,1,1.77-1.31,2.76-2.24.68-.63-5.43-4.92-11.37-3-4.6,1.52-7.39,6.84-7,11.65Z" transform="translate(-1.29 -6.73)"/><path d="M255.54,40c.11.48,3.49.62,3.51,0,.08-2.95,0-9.64.11-12a10.51,10.51,0,0,1,2.42-4.89c1-1.18,4-1.47,6.25-.22,2.82,1.59,1.92,6.7,2.13,10.07.08,1.25-.2,5.91.14,6.89.25.72,2.09.61,3,.1s.33-1.65.31-2.65c-.09-5.22,1.11-11.08-1.58-15.44s-9.8-3.73-13.05.7c.28-3.09.24-15.59,0-15.37.22-.22-2.78-1.06-3.13-.09C255.49,7.8,255.54,40,255.54,40Zm7.17-17h0Zm3.33.44Z" transform="translate(-1.29 -6.73)"/><path d="M278.43,29.19c-.1,7,2.95,10.83,9.65,11.26,4.47.29,8.32-1.52,9.46-3.8.5-1-1.3-1.74-2.22-2.25-.58-.32.15.46-1.2,1.15A9.39,9.39,0,0,1,289,36.79a8.43,8.43,0,0,1-4.16-1,5.71,5.71,0,0,1-2.77-5.07c2.53.22,6.71.21,9.25.26,2.28,0,4.86-.09,7.14-.16.91,0,0-3.07-.33-4.54A9.37,9.37,0,0,0,294.89,21a9.52,9.52,0,0,0-11.43-.39C279.58,23.27,278.47,26.54,278.43,29.19Zm5.6-5.12a6.49,6.49,0,0,1,2.56-1.41,12.64,12.64,0,0,1,1.82-.41,8.55,8.55,0,0,1,3.82.73c.14.12,1.21.88,1.21.87a8.71,8.71,0,0,1,1.26,2.35A4.41,4.41,0,0,1,295,28c-.18.28-2.33,0-2.69,0-1.49.09-8.09,0-9.59.08C280.92,28.17,283.67,24.48,284,24.07Z" transform="translate(-1.29 -6.73)"/><path d="M304.09,40c.33.7,3.45.7,3.4,0-.3-4,.38-31.27-.06-32.74-.34-1.12-3-.09-3.25-.06C304.14,8.32,303.71,39.22,304.09,40Z" transform="translate(-1.29 -6.73)"/><path d="M312.87,37.87a9.63,9.63,0,0,0,6.32,2.68,12.13,12.13,0,0,0,5.66-1c2.85-1.24,4.15-4.76,2.6-8.07-2-4.37-7.53-2-10.35-5.29a2.1,2.1,0,0,1,.15-2.67c1.25-1.72,4.89-1.26,6.4-.07,1.22,1,.52,1.75,1.16,1.26a22.31,22.31,0,0,0,2.62-1.8c.32-.47-1.87-2.43-2.51-2.75a9.35,9.35,0,0,0-4.21-1c-2.66,0-5.25.72-6.75,3-2.62,3.88-.71,7.64,4.19,8.63,1.26.26,6,.53,6.21,3.24.23,4-4.47,3.77-5.79,3.26a14.38,14.38,0,0,1-4-2.4C313.84,34.2,312.27,36,312,37,312,37,312.66,37.62,312.87,37.87Z" transform="translate(-1.29 -6.73)"/><path d="M331.59,30c-.51,8.78,7.93,11.53,13.57,10.29,2.33-.51,6.23-3.38,5.82-4-.8-1.1-2-2.54-2.59-2s-2.6,2.61-3.3,2.61a5.45,5.45,0,0,1-2.59.33c-1,0-3.54-.27-4.29-1A12.21,12.21,0,0,1,336,33.67a9.82,9.82,0,0,1-.65-2.69c2.44.28,6.17,0,8.62,0a44.08,44.08,0,0,0,4.65,0c1-.07,2.63.57,3-.38a7.54,7.54,0,0,0,0-3.19,10.7,10.7,0,0,0-2.62-5.49c-3.06-3.26-8.08-4.17-11.76-1.71-4.12,2.76-5.3,4.56-5.6,9.8ZM335.32,28c.56-2.08,1.41-4,3.39-5a10,10,0,0,1,3.35-.77,6.55,6.55,0,0,1,3.06.77,5.5,5.5,0,0,1,2.57,2.56c.11.28.84,2.1.56,2.39s-2.79.21-3.35.17C342.43,27.94,335.32,28,335.32,28Z" transform="translate(-1.29 -6.73)"/><path d="M356.79,34.76c0,1.38-.21,4.35.33,5.19s3.23.09,3.23.09c.06-2.36,0-8.61,0-11a8.68,8.68,0,0,1,.76-3.11,10.42,10.42,0,0,1,4.61-3.57,10.5,10.5,0,0,1,2.84.16c1.62.34,2.49,2.17,2.7,3.69s-.5,12.5.12,13.83c0,0,3.15.79,3.28,0,.2-1.22.06-12.06.06-12.85-.43-3.5-.52-6.75-4.33-7.65-3.48-.82-8.45-.76-10.28,3.89-.36-2,.8-3.41-.1-3.8-.61.56-3.2-.37-3.21.06,0,1.17,0,12.44,0,15.08Zm3.55-13.35h0Zm8.59-1.61h0Z" transform="translate(-1.29 -6.73)"/><path d="M162.2,40.24a2.66,2.66,0,1,1,1.86-.78A2.54,2.54,0,0,1,162.2,40.24Z" transform="translate(-1.29 -6.73)"/></g><g id="H"><path d="M130.64,11.68h3.84V23.44h14.68V11.68H153V40h-3.84V27H134.48V40h-3.84Z" transform="translate(-1.29 -6.73)"/></g><g id="Globe"><g id="Globe-2" data-name="Globe"><path d="M147.28,17c-.22-.63-1.44-1.8-1.4-.41C145.91,17.82,147.8,18.56,147.28,17Z" transform="translate(-1.29 -6.73)"/><path d="M160.9,23.64C159.52,9.49,142.6,2.15,131.19,10.56a18.9,18.9,0,0,0-6.33,22,18.74,18.74,0,0,0,36-8.92Zm-31.48,5.8,0,0ZM133.32,41a18.25,18.25,0,0,1-7.49-8.58c-1.18-2-1.51-5.72-1.27-8.34A13,13,0,0,0,127,27.68c.35.4.38.85.83,1.26.81.74.64.13,1.54.5a1.69,1.69,0,0,1,.55.45c.19.17.27.51.5.72s.85.15,1,.49-.81,1.57-.93,1.93a4.23,4.23,0,0,0,.05,3c.38,1,1.28,1.53,1.71,2.17.9.9,1.19,2.22,1.82,3.28Zm7.78.79a15.88,15.88,0,0,1,1.68-2.53c.45-.7.76-3,0-3.62-.54-.45-2.11-.22-2.87-.69a15.54,15.54,0,0,0-3-1.87c-.89-.32-1.81-.2-2.48-.86-.4-.4-.45-1.21-1-1.53-.38-.21-.85.06-1.16-.05a11.73,11.73,0,0,1-1.17-1.09c.61-.7-1-1.85-.76-2.93s1.19-1.16,1.77-1.45l.08,0a6.94,6.94,0,0,0,1.08-.5c.31-.27.44-.69.72-1a5.38,5.38,0,0,1,1.29-.84c.83-.54,3.14-3.4,3-4,0-.26-.82-.78-1-1-.39-.57-.42-1.23-1-1.68s-2.19-.79-2.19-2c0-.22.34-.57.41-.81.14-.44-.05-1,.06-1.37a5.52,5.52,0,0,1,1.11-1.55A4.74,4.74,0,0,1,138,9.21a15.84,15.84,0,0,1,4.12-.3c1.61.17,2.78-.15,4.3.58a7.73,7.73,0,0,0,2.23.92c.71.09.81-.14,1.33.14s1.72,2.21,1.09,2.83c-.09.09-.27.77-.49.83s-1.19-.75-1.53-.83c-2.09-.46-1.68,2.28-1.24,2.28.17.41.35,1.22,1,.9s.2-1.45.2-2c.58.58,1.49.95,1.5,1.82,0,1.49-1.2,0-1.46,1.7-.89,0-2.07.56-1.68,1.72s2.1.74,2.72.2c.78-.67.93-1.07,2.09-1,.39,0,1.79-.19,2,.14,0,.31.77,1.2,1.21.5.26-.41-.4-.85,0-1.24.18-.18.17-.35.44-.27-.5,1,.79.79,1.15,1.15.61.61,1.78.59,2.46,1.27q.09.18-.18,0c-.76,0-1.86,1-2.58,1h-.13c-.53,0-1.19-.46-1.81-.4s-1.09.72-1.71.8c-.9.12-1.49-1.08-2.53-.69-.66.25-1,1-1.19,1.61-1.05,2.63-3.52,5.28-.89,8,1.31,1.35,1.83.65,3.22.06s1.93.52,2.55,1.54c.93,1.53.7,2.76.42,4.45-.21,1.23-.15,1.9-1.31,2.79-3.48,3.48-8.81,3.56-13.32,3.56q.36.12-.66-.11m11.51-29h0Z" transform="translate(-1.29 -6.73)"/><path d="M142,16.53c-.31-.58.31-1.24-.38-1.88a2.16,2.16,0,0,0-2.15-.21c-1.81.65-.83,1.36,0,2.18s.66.7.5,1.53c-.1.5-1.09,2.17.24,1.9.25-.05.65-1,.75-1.06s.43-.13.58-.28C142.24,18,142.55,17.45,142,16.53Z" transform="translate(-1.29 -6.73)"/></g></g><g id="Yoga"><path d="M161.31,16.13c-.13-.77-.42-.44-.78-.32.41-.13-.81.66-.41.33-.45.37-1.57,1-.67,1.79-2.58.07-5.15,0-7.73.09-1,0-1.86-.15-2.83-.13-.53,0-1.82.33-2.05-.09.78.42,2.06-.17,2.61-.71,1.09-1.06,1-3,.59-4.37a3.57,3.57,0,0,0-5.14-2.38c-.22-1.21-1.5-1.92-2.3-.73-.5.74-1,3.29.63,2.93a3.86,3.86,0,0,0,3.11,5.13.39.39,0,0,0-.2.29,10.61,10.61,0,0,0-1.45-.59c-1.34-.54-3.31-1.72-4.87-2.52s-3.64-1.29-4.1-2.93c-.11-.38-.13-1.85-.61-2-.82-.23-.68,1.15-.71,1.66a15.36,15.36,0,0,1-1.21,3.93c-.36,1-.56,2.14-.87,3.2-.22.76-.93,1.9-.49,2.61a7.55,7.55,0,0,0,2.14,1.58c.84.57,1.67,1.11,2.54,1.62.4.23.81.47,1.2.71.66.41.75.44.72,1.21a23.79,23.79,0,0,0,.06,2.59c.15,2,.32,3.95.4,5.93a34.84,34.84,0,0,0-4.37,0c-.7.07-1.41.21-2.1.35s-2.48-.15-2.87.33c0,0-.54.87-.58.94-.32.67-.66,1.33-.95,2-.4,1-1.38,2.51-1.46,3.54,0,.58-.14.49.44.69,1.65.58,4,.25,5.69.2,2.35-.06,4.69-.09,7-.17s4.58-.16,6.87-.29,4.28-.51,6.44-.56h2.05c.26-.06,1.08.16.77-.53-.85-1.88-2.58-3.24-3.54-4.84l-.06-.08c-.58-.58-.3-1.28-1.06-1.5a6,6,0,0,0-1.63.12q-1.12.06-2.24,0c-1.51,0-3-.09-4.54-.15-.63,0-2.82.21-3.18-.17s-.08-1.76-.1-2.14c0-.61-.1-1.22-.15-1.83-.1-1.11-.2-2.23-.23-3.35a5.29,5.29,0,0,1,.06-1.94c.24-.37,1.22-.71,1.6-.92a15.43,15.43,0,0,0,2.18-1.4,10.62,10.62,0,0,0,3.4-3.75c.26-.58.14-.67.65-.88a5.35,5.35,0,0,1,1.21,0,17.28,17.28,0,0,1,2.22.09c2.32.19,4.75,0,7.08,0a6.6,6.6,0,0,0,2.73-.21A2.37,2.37,0,0,0,161.31,16.13ZM140.7,35.77c3.37,0,6.85.54,10.2.06-.06.38.78,1.2,1,1.47.67.83,1.46,1.67,2.06,2.47a15,15,0,0,1,.94,1.48c-4.71.13-9.42.57-14.13.82-4.38.23-9.06.62-13.42.07.84-2,1.67-3.88,2.55-5.86a37.72,37.72,0,0,1,4-.49,14.23,14.23,0,0,1,2.45-.13c.44,0,2.08-.18,2.38.07.63.51,0,2.17.46,2.93a2.16,2.16,0,0,0,1.87.64c.37,0,.95-.28,1.18-.28s0,0,0,0c.54.05.76-.36.6-.89-.06-.18,0-.24-.26-.3-.56-.14-.31.26-.57.37a3.32,3.32,0,0,1-1.9-.46c-.55-.48-.4-1.26-.47-2Zm2.87-26,0,0-.68,2.06.49-.31c-.61.77-.57-.18-.36-.89.07-.25.21-.79.52-.85.54-.1.49.66.76.93C143.87,10.68,143.57,11.2,143.36,11.47Zm1.13,2c-.33.71,0,1.37-.32,2a3.35,3.35,0,0,1,.83-4.27,2.52,2.52,0,0,1,2.14-.45c-.45.43-1,.74-1.37,1.2A12.44,12.44,0,0,0,144.5,13.43Zm1,3.23c-.4-.2-.72-.41-.73-.74s.35-.63.38-.9c.06-.55-.17-.8.17-1.33s2.44-3,2.86-2.54c1.26,1,2.24,4.57.62,5.53l-.06,0C148,17.33,146.34,17,145.48,16.65Zm.16,2.79a6.24,6.24,0,0,1-.62,1,8.28,8.28,0,0,1-1.82,1.78,28.79,28.79,0,0,1-3.29,2.17c-.24.13-.89.68-1.16.68a6.45,6.45,0,0,1-1-.61c-.65-.39-1.33-.74-2-1.14s-1.48-1-2.2-1.57c-.28-.21-1.06-.63-1.19-1s.45-1.28.55-1.64c.16-.52.29-1,.43-1.57s.32-1.32.55-2a17.72,17.72,0,0,1,.79-2c.34-.67.21-.57.79-.21,1.18.74,2.37,1.34,3.62,2,1.52.78,3,1.66,4.55,2.38a7.4,7.4,0,0,1,1.82.77C146,18.91,146,18.56,145.64,19.44Zm14.87-2.36a1.57,1.57,0,0,1-.49.61c.11-.74-.42-.7.56-.9A.63.63,0,0,1,160.51,17.09Z" transform="translate(-1.29 -6.73)"/><path d="M148.75,16.7" transform="translate(-1.29 -6.73)"/><path d="M143.49,22" transform="translate(-1.29 -6.73)"/><path d="M143.92,22.58" transform="translate(-1.29 -6.73)"/><path d="M154,39.79" transform="translate(-1.29 -6.73)"/><path d="M152.29,36.61" transform="translate(-1.29 -6.73)"/></g></svg>