<?xml version="1.0" encoding="utf-8"?>
<!-- Generator: Adobe Illustrator 21.1.0, SVG Export Plug-In . SVG Version: 6.00 Build 0)  -->
<svg version="1.1" id="Layer_1" xmlns="http://www.w3.org/2000/svg" xmlns:xlink="http://www.w3.org/1999/xlink" x="0px" y="0px"
	 viewBox="0 0 250 26.5" style="enable-background:new 0 0 250 26.5;" xml:space="preserve">
<g>
	<path d="M0.1,25.4c0,1,1.1,0.5,2.6,0.5c1,0,0.7-6.6,0.5-8.5C3.2,16.9,3,5.9,3.5,5.8L6,12.6c0.2-0.1,1.6,3.7,1.8,3.7
		c0.5,1.5,2.8,7.3,3.8,8.8c0.9,1.3,2.3,0.4,2.3,0.4c0.7-1.1,2.7-7.2,3.2-8.3c0.8-1.6,4.6-11.8,5.2-11.7c0.8,0-0.1,11.5-0.1,11.5
		c0.2,1.5-0.1,3.1-0.1,4.6c0,1.2-0.4,4.1,0.5,4.3c0.9,0.1,2.3,0,2.3,0c0.2-1.7,0.1-5.6,0.2-7.3c0.2-2.6,1.2-16.1,0-16.7
		c-0.9-0.5-3.8-0.9-4.4,0c-3.1,5.2-6.5,17.3-8.3,18.5C11.2,15.9,7.5,6.8,4.6,1.8c-1.1-0.5-3.1-1-4.1,0.2c0-0.3,0.1,8.4-0.1,8.8
		c0.1,0.1,0,4.4-0.1,6.3c-0.1,1.8-0.3,3.6-0.2,5.4L0.1,25.4L0.1,25.4z M12.1,24.9C12.1,24.9,12.2,24.9,12.1,24.9L12.1,24.9
		L12.1,24.9z M18.1,10L18.1,10L18.1,10L18.1,10L18.1,10z M20.8,10.1L20.8,10.1L20.8,10.1L20.8,10.1z M23,24.9
		C23.1,25,23.3,25.1,23,24.9L23,24.9z M24.1,24.6C24.1,24.6,24.3,24.4,24.1,24.6L24.1,24.6z"/>
	<path d="M29.8,23.1c0.5,1.8,2.5,2.7,4.3,3c2,0.3,5.6-0.1,7-2.8c0.2,1.3-0.5,2.3,0.2,2.5c1.6,0.3,2.4,0,2.4,0
		c-0.1-2.8,0.3-7.6-0.1-10.4c-0.3-2.3-1.1-4.6-3.7-5.5c-2.2-0.7-5.3-0.3-6.7,0.2c-0.6,0.2-2.3,0.7-2.7,1.8c-0.2,0.6,1.4,1.9,1.7,1.7
		c1.6-1.1,5.9-2.7,7.2-0.2c-0.2-0.5,0.3,1.3,0.2,0.7c0,0.5,0,0.9,0,1.4c-0.5,0-0.5,0-0.3,0c-2.6-0.4-5.1-0.5-7.3,1.2
		C30.3,18.2,29,20.7,29.8,23.1L29.8,23.1z M32.3,11.2C32.4,11.1,32.3,11.2,32.3,11.2L32.3,11.2z M32.6,21.3c-0.1-0.4,0.2-1.3,0.1-1
		c0.2-0.5,1-1.3,0.9-1.1c0.2-0.2,2.1-0.9,2.8-0.9c0.9-0.1,1.8,0.1,2.7-0.1c0.9-0.1,1.3,0.3,1.2,1.5c0,0.5-0.6,1.6-0.9,2
		c-0.2,0.2-0.6,0.6-0.8,0.8c-1.2,0.8-2.3,1.7-3.8,1.4C32.3,23.4,32.6,21.3,32.6,21.3z M35.2,25.5L35.2,25.5L35.2,25.5L35.2,25.5
		L35.2,25.5z M41.5,11.7L41.5,11.7C41.5,11.8,41.5,11.7,41.5,11.7L41.5,11.7z M41.8,25.2L41.8,25.2L41.8,25.2z"/>
	<path d="M48.4,25.9c0,0.5,2.3,0.5,2.6,0c0.5-0.9,0.1-4.8,0.1-6.4c0-1,0.2-2.1,0.1-3.1c0-0.3,0.3-0.8,0.9-2.3c0.9-2,3.1-1.1,4.7-1.6
		c0.8-0.2,0.8-3,0.1-3c-4.3,0-4.9,2-6.2,3.2c0-1.2,0.3-2.9-0.6-2.7c-0.7,0.2-2.1-0.7-2,0.2C48.1,10.2,48.3,22.4,48.4,25.9z"/>
	<path d="M60.7,16.2c0.1,1.3,0.1,2.7,0,4.1c0,1.4-0.3,4,0.1,5.4c0.2,0.9,1.9,0.6,2.4,0.2c0.8-0.6,0.4-2.3,0.4-3.4
		c0.1-1.4-0.2-2.9-0.2-4.3c0-1.4,0.1-2.8,0.1-4.2c0-1,0.3-4-0.2-4.1c-1.1-0.2-2.7,0.4-2.6,0.2C60.3,11.9,60.6,14.2,60.7,16.2
		L60.7,16.2z M62.9,25.6C62.8,25.7,62.9,25.6,62.9,25.6L62.9,25.6z"/>
	<path d="M60.1,4.1c0,1.6,3,2.7,3.7,0.9c0.5-1.4-0.5-3.1-2-3.1C62,1.8,60.1,2.2,60.1,4.1L60.1,4.1z M61.6,1.9
		C61.8,1.9,61.8,1.9,61.6,1.9L61.6,1.9z"/>
	<path d="M67.5,21.4c0.1,2.5,2.2,5,6.2,4.8c2-0.1,3.5-0.9,5-2.4c0,1.5,0.5,2,0.5,2c1.4-0.2,2.4,0.5,2.3,0c-0.1-1.3-0.2-5.4-0.2-6.7
		c0-1.2,0-2.7,0-3.6c-0.4-2.7-0.7-4.9-3.6-5.6c-1.3-0.3-3.1-0.4-4.4-0.2c-0.6,0.1-2.8,0.4-5.1,2.2c-0.5,0.3,1.3,2.3,1.6,2
		c0.7-0.5,2.6-1.3,3.1-1.3c2-0.4,2.2-0.9,4.5,0.3c0.8,0.4,1.3,2.2,1.2,3.1c-2.6,0-4.4,0-7,0.8C69.2,17.4,67.4,18.3,67.5,21.4z
		 M71.3,19.7c0.5-0.5,2.2-0.8,3-0.9c1.6-0.2,2.7-0.2,4.3-0.5c0.2,1,0,1.4-0.2,2.6c0,0.2-0.8,1.5-1.2,1.9c-0.7,0.6-2.5,1.3-3.4,1.3
		c-0.6,0-2.3-0.5-2.4-0.5C69.5,22.1,70.7,20.2,71.3,19.7z M74.3,18.8L74.3,18.8L74.3,18.8L74.3,18.8z M74.5,26.4L74.5,26.4
		L74.5,26.4L74.5,26.4L74.5,26.4z M76.7,9.6L76.7,9.6L76.7,9.6L76.7,9.6L76.7,9.6z M80.6,25.5C80.7,25.5,80.7,25.5,80.6,25.5
		L80.6,25.5L80.6,25.5z"/>
	<path d="M102,25.8c0.1,0.5,1,0.2,2.7,0c0.5-0.1-0.1-3.7,0-5.2c0.2-2-0.1-13.3-0.1-15.3c0-0.9,3.3,7.3,4.2,9.7
		c0.5,1.5,1.6,4.6,2.4,5.9c0.2,0.2,1.9,4.9,2.1,4.8c0,0,1.7,0,1.6,0c0.1,0,4.8-10.7,5.2-11.9c0.2,0,3.4-8.3,3.6-8.2
		c0.4,0-0.3,9.5-0.1,10.6c0.2,1.3-0.2,8,0.2,9.5c0.1,0.5,3,0.5,2.9,0c-0.3-1.6,0.2-10.4,0.2-12.1c-0.1-3.1,0.5-12-0.2-12
		c-3.1-0.2-3.1,0.5-4,0.1c-1.7,2.9-7.9,18.8-8.4,18.8c-0.5,0.1-3.1-7.4-4.4-10c-0.5-1-3.1-8.7-3.8-8.8c-1-0.3-3.8-0.4-4.2,0.1
		c-0.1-0.9,0.2,13.9,0,15.5C101.7,19.5,102,25.8,102,25.8z M115.5,11.9L115.5,11.9L115.5,11.9z"/>
	<path d="M132.4,25.8c0.2,0.9,2.6-0.1,2.6-0.1c0.7-1.8,0.2-3,0.2-4.9c0-2,0.2-3.9-0.1-5.9c-0.1-0.8,0.4-4.5,0-5.1
		c-0.5-0.7-2.7-0.5-2.7-0.1c0,2.5-0.3,7.4,0,9.8L132.4,25.8L132.4,25.8z"/>
	<path d="M131.9,3.8c-0.1,1.5,2.2,2.3,3.3,1.3c1.6-1.3-0.5-4.2-1.8-3.3C132.9,2.2,131.9,2.3,131.9,3.8z"/>
	<path d="M139.4,18.8c0.2,4.5,3.8,7,7.3,7.4c3.1,0.4,5.3-0.9,6.7-2.4c0.6-0.7-1.8-1.8-1.8-1.8c-0.9,0.2-1.7,1.3-2.7,1.7
		c-0.9,0.4-2.9,0.1-3.6-0.5c-1.2-0.8-2.9-2.9-3.1-4.9c-0.2-2.3,0.4-4.8,3-6.1c1.8-0.9,4.9-0.3,6.3,1.3c0.7,0.8,1.4-1,2.2-1.7
		c0.5-0.5-4.2-3.8-8.9-2.3C141.3,10.9,139.1,15.1,139.4,18.8L139.4,18.8z M145.9,17.7L145.9,17.7L145.9,17.7L145.9,17.7z
		 M154.4,14.5L154.4,14.5L154.4,14.5L154.4,14.5z M155.1,25.1L155.1,25.1L155.1,25.1z"/>
	<path d="M156.7,25.8c0.1,0.4,2.7,0.5,2.7,0c0.1-2.3,0-7.5,0.1-9.4c0-0.5,0.3-1,0.4-1.5c0.2-1.3,1.3-2,1.5-2.3
		c0.4-0.3,3.1-1.2,4.9-0.2c2.2,1.3,1.5,5.2,1.6,7.9c0.1,0.9-0.1,2-0.1,2.9c0,0.8-0.1,1.7,0.2,2.5c0.2,0.5,1.6,0.5,2.3,0.1
		c0.8-0.4,0.2-1.3,0.2-2c-0.1-4.1,0.9-8.7-1.3-12c-2.1-3.4-7.7-2.9-10.3,0.5c0.2-2.4,0.2-5.9,0.2-8.4c0-1.3,0.1-3.8-0.2-3.7
		c0.2-0.2-2.2-0.9-2.4-0.1c-0.2,0.5-0.1,1.7-0.1,2.7c-0.1,2.4,0.1,4.8-0.1,7.1c-0.2,2.5,0,5.1,0,7.7c0,1.1,0.2,2.2,0,3.3
		C156.7,21.9,156.7,25.8,156.7,25.8z M162.4,12.6L162.4,12.6L162.4,12.6L162.4,12.6L162.4,12.6z M165,12.9
		C165,12.9,165,12.9,165,12.9L165,12.9z"/>
	<path d="M174.7,17.4c-0.1,5.5,2.3,8.5,7.5,8.8c3.5,0.2,6.5-1.2,7.4-3c0.4-0.8-1-1.3-1.7-1.8c-0.5-0.2,0.1,0.4-0.9,0.9
		c-1.3,0.6-2.6,1.1-4,0.9c-2,0-3.3-0.8-3.3-0.8c-2.1-1.2-2.2-3.5-2.2-4c2,0.2,5.2,0.2,7.2,0.2c1.8,0,3.8-0.1,5.6-0.2
		c0.7,0,0-2.4-0.2-3.5c-0.4-1.6-1.3-3.1-2.6-4.1c-2.6-2-6.1-2.2-8.9-0.3C175.6,12.7,174.7,15.2,174.7,17.4z M179,13.4
		c0.5-0.5,1.4-0.9,2-1.1c0.3-0.1,1.3-0.3,1.4-0.3c0.9-0.1,2.4,0.2,3,0.5c0.1,0.1,0.9,0.7,0.9,0.7c0.5,0.6,0.8,1.3,1,1.8
		c0.1,0.2,0.3,1.2,0.2,1.4c-0.2,0.2-1.8,0-2.1,0c-1.2,0.1-6.3,0-7.5,0.1C176.6,16.6,178.8,13.7,179,13.4z"/>
	<path d="M194.8,25.8c0.2,0.5,2.7,0.5,2.7,0c-0.2-3.1,0.2-8.5,0.1-11.6c-0.2-3.1-0.1-6.3-0.1-9.5c0-1.3,0.3-3.4-0.1-4.6
		c-0.2-0.9-2.3-0.1-2.5-0.1c0,0.9,0.2,7.9,0.1,11.3c-0.2,3.7-0.3,7.3-0.2,11C194.7,22.4,194.5,25.2,194.8,25.8z M198.8,2.9
		L198.8,2.9L198.8,2.9z M198.8,2.9L198.8,2.9L198.8,2.9L198.8,2.9L198.8,2.9z M199.3,2.1L199.3,2.1L199.3,2.1z M201.2,2.6L201.2,2.6
		L201.2,2.6L201.2,2.6z M201.2,2.6L201.2,2.6L201.2,2.6z"/>
	<path d="M201.7,24.2c1,1.2,3.4,2.1,4.9,2.1c1.8,0,2.7-0.1,4.5-0.8c2.3-0.9,3.3-3.8,2-6.3c-1.6-3.4-5.9-1.6-8.1-4.1
		c-0.5-0.6-0.4-1.4,0.1-2.1c0.9-1.3,3.8-1,5-0.1c0.9,0.8,0.4,1.3,0.9,1c0.3-0.2,1.8-1.1,2-1.4c0.2-0.4-1.5-1.9-2-2.2
		c-1.1-0.5-2.1-0.8-3.3-0.8c-2.1,0-4.1,0.5-5.3,2.3c-2,3.1-0.5,5.9,3.3,6.7c1,0.2,4.7,0.4,4.9,2.5c0.2,3.1-3.5,3-4.5,2.6
		c-0.9-0.3-2.1-1-3.1-1.9c-0.5-0.5-1.8,0.9-2,1.6C200.9,23.5,201.5,23.9,201.7,24.2z M202.4,14.8L202.4,14.8L202.4,14.8L202.4,14.8z
		 M202.7,16L202.7,16L202.7,16L202.7,16z M205.3,14.5L205.3,14.5L205.3,14.5L205.3,14.5z M206.3,15.8
		C206.3,15.8,206.3,15.9,206.3,15.8C206.3,15.9,206.3,15.8,206.3,15.8L206.3,15.8L206.3,15.8z M207.7,16.6L207.7,16.6L207.7,16.6
		L207.7,16.6L207.7,16.6z M208.1,20.5C208.1,20.5,208.1,20.5,208.1,20.5L208.1,20.5L208.1,20.5z M209.7,21.4L209.7,21.4L209.7,21.4
		L209.7,21.4z M212.8,20L212.8,20L212.8,20L212.8,20L212.8,20z M212.8,20L212.8,20L212.8,20L212.8,20z M213,12L213,12L213,12L213,12
		z"/>
	<path d="M216.3,18c-0.4,6.9,6.2,9,10.6,8.1c1.8-0.4,4.9-2.7,4.5-3.1c-0.6-0.9-1.6-2-2-1.6c-0.5,0.5-2,2-2.6,2
		c-0.7,0.2-1.3,0.3-2,0.2c-0.8,0-2.7-0.2-3.4-0.8c-0.4-0.3-1.4-1.6-1.7-2c-0.3-0.4-0.5-1.7-0.5-2.1c1.9,0.2,4.9,0,6.7,0
		c1.7,0,2,0.1,3.6,0c0.8-0.1,2,0.5,2.3-0.3c0.2-0.6,0.1-1.9,0-2.5c-0.2-1.6-1-3.1-2-4.3c-2.4-2.6-6.3-3.3-9.2-1.3
		C217.5,12.4,216.5,13.8,216.3,18L216.3,18z M222.3,21.3L222.3,21.3L222.3,21.3z M219.2,16.4c0.5-1.6,1.1-3.1,2.7-3.9
		c0.9-0.5,2.7-0.6,2.7-0.6c0.8-0.1,1.8,0.3,2.4,0.6c0.9,0.5,1.6,1.2,2,2c0.1,0.2,0.6,1.6,0.5,1.9c-0.3,0.3-2.2,0.2-2.6,0.2
		C224.7,16.3,219.2,16.4,219.2,16.4z M232,26.7C232,26.7,232.1,26.7,232,26.7L232,26.7z M234.1,17.7L234.1,17.7L234.1,17.7z
		 M236.2,19.7L236.2,19.7L236.2,19.7L236.2,19.7L236.2,19.7z M236.6,15.8L236.6,15.8L236.6,15.8L236.6,15.8L236.6,15.8z M236.9,17.4
		L236.9,17.4L236.9,17.4L236.9,17.4z M236.9,17.5L236.9,17.5L236.9,17.5L236.9,17.5z M237,19.5L237,19.5L237,19.5L237,19.5z
		 M237,19.5L237,19.5L237,19.5L237,19.5L237,19.5z M237,19.5L237,19.5L237,19.5L237,19.5z"/>
	<path d="M236,21.7c0,1.1-0.2,3.4,0.2,4.1c0.5,0.8,2.5,0.1,2.5,0.1c0.1-1.9,0-6.7,0-8.6c0-0.5,0.5-1.9,0.6-2.4
		c0.1-0.7,2.1-2.3,2.8-2.6L243,12c0.2,0,2,0.1,2.2,0.2c1.3,0.2,2,1.7,2.1,2.9c0.2,1.1,0,2.5,0,3.3c0.2,1-0.4,6.5,0.1,7.5
		c0,0,2.5,0.6,2.6,0c0.2-0.9,0-6.3,0-7.2c0-0.9,0-2.3,0-2.9c-0.3-2.7-0.4-5.2-3.4-5.9c-2.7-0.6-6.7-0.6-8.1,3.1
		c-0.3-1.6,0.6-2.7-0.1-3c-0.5,0.5-2.5-0.3-2.5,0.1c0,0.9,0.2,4.6,0.2,5.6C236,17.6,236,19.6,236,21.7L236,21.7z M238.7,11.3
		L238.7,11.3L238.7,11.3L238.7,11.3z M245.5,10C245.5,10,245.5,10,245.5,10C245.5,10,245.5,10,245.5,10L245.5,10L245.5,10z"/>
</g>
</svg>
