<svg xmlns="http://www.w3.org/2000/svg" xmlns:xlink="http://www.w3.org/1999/xlink" viewBox="0 0 800 600"><defs><style>.cls-1{fill:#fffaf5;}.cls-2{fill:#353535;}.cls-11,.cls-12,.cls-17,.cls-22,.cls-24,.cls-28,.cls-3,.cls-30,.cls-31{opacity:0.5;}.cls-3{fill:url(#linear-gradient);}.cls-4{fill:#e3e3e2;}.cls-5,.cls-6{opacity:0.25;}.cls-5{fill:url(#radial-gradient);}.cls-6{fill:url(#radial-gradient-2);}.cls-7{fill:url(#linear-gradient-2);}.cls-8{fill:#2e000a;}.cls-31,.cls-9{fill:#f1f0c1;}.cls-10{fill:url(#linear-gradient-3);}.cls-11{fill:url(#linear-gradient-4);}.cls-12,.cls-13{fill:#b9b9b6;}.cls-14{fill:#2e2e2e;}.cls-15{fill:#d5e0df;}.cls-16{fill:#fff;}.cls-17{fill:url(#linear-gradient-5);}.cls-18{fill:url(#linear-gradient-6);}.cls-19{fill:#1c7882;}.cls-20,.cls-30{fill:#a99999;}.cls-21{fill:#65dbd7;}.cls-23{fill:#273f3e;}.cls-24{fill:url(#linear-gradient-7);}.cls-25{fill:url(#linear-gradient-8);}.cls-26{fill:#fefefe;}.cls-27{fill:url(#linear-gradient-9);}.cls-28{fill:url(#linear-gradient-10);}.cls-29{fill:#f1f1f0;}</style><linearGradient id="linear-gradient" x1="535.1" y1="261.72" x2="615.94" y2="180.88" gradientUnits="userSpaceOnUse"><stop offset="0"/><stop offset="1" stop-color="#fefefe" stop-opacity="0"/></linearGradient><radialGradient id="radial-gradient" cx="584.04" cy="188.94" r="39.82" gradientUnits="userSpaceOnUse"><stop offset="0" stop-color="#b9b9b6" stop-opacity="0"/><stop offset="0.27" stop-color="#b1b1ae" stop-opacity="0.06"/><stop offset="0.52" stop-color="#989997" stop-opacity="0.25"/><stop offset="0.77" stop-color="#6f706f" stop-opacity="0.57"/><stop offset="1" stop-color="#393a3b"/></radialGradient><radialGradient id="radial-gradient-2" cx="464.47" cy="129.35" r="145.06" xlink:href="#radial-gradient"/><linearGradient id="linear-gradient-2" x1="521.46" y1="142.48" x2="521.46" y2="105.31" gradientUnits="userSpaceOnUse"><stop offset="0" stop-color="#393a3b"/><stop offset="1" stop-color="#b9b9b6" stop-opacity="0"/></linearGradient><linearGradient id="linear-gradient-3" x1="521.65" y1="144.01" x2="521.65" y2="105.05" gradientUnits="userSpaceOnUse"><stop offset="0" stop-color="#fff"/><stop offset="1" stop-color="#e9e9e8"/></linearGradient><linearGradient id="linear-gradient-4" x1="463.63" y1="165.02" x2="568.72" y2="165.02" gradientUnits="userSpaceOnUse"><stop offset="0" stop-color="#f1f0c1"/><stop offset="0.01" stop-color="#f3f2c9"/><stop offset="0.02" stop-color="#f7f7de"/><stop offset="0.03" stop-color="#fefefe" stop-opacity="0.99"/><stop offset="0.11" stop-color="#fefefe" stop-opacity="0.96"/><stop offset="0.24" stop-color="#fefefe" stop-opacity="0.87"/><stop offset="0.41" stop-color="#fefefe" stop-opacity="0.73"/><stop offset="0.59" stop-color="#fefefe" stop-opacity="0.52"/><stop offset="0.8" stop-color="#fefefe" stop-opacity="0.27"/><stop offset="1" stop-color="#fefefe" stop-opacity="0"/></linearGradient><linearGradient id="linear-gradient-5" x1="466.09" y1="414.29" x2="524.68" y2="355.69" gradientUnits="userSpaceOnUse"><stop offset="0"/><stop offset="0.88" stop-color="#b4b4b4" stop-opacity="0.29"/><stop offset="1" stop-color="#fefefe" stop-opacity="0"/></linearGradient><linearGradient id="linear-gradient-6" x1="336.12" y1="400.27" x2="466.03" y2="400.27" gradientUnits="userSpaceOnUse"><stop offset="0"/><stop offset="0.86" stop-color="#646968" stop-opacity="0.53"/><stop offset="1" stop-color="#d5e0df" stop-opacity="0"/></linearGradient><linearGradient id="linear-gradient-7" x1="440.48" y1="287.21" x2="471.44" y2="256.25" xlink:href="#linear-gradient"/><linearGradient id="linear-gradient-8" x1="294.03" y1="311.55" x2="435.56" y2="311.55" gradientUnits="userSpaceOnUse"><stop offset="0"/><stop offset="1" stop-color="#d5e0df" stop-opacity="0"/></linearGradient><linearGradient id="linear-gradient-9" x1="321.02" y1="286.18" x2="369.7" y2="286.18" gradientUnits="userSpaceOnUse"><stop offset="0" stop-color="#f1f0c1"/><stop offset="0.09" stop-color="#f1f0c3" stop-opacity="0.97"/><stop offset="0.23" stop-color="#f3f2c8" stop-opacity="0.88"/><stop offset="0.39" stop-color="#f4f4d1" stop-opacity="0.74"/><stop offset="0.58" stop-color="#f7f6dd" stop-opacity="0.54"/><stop offset="0.79" stop-color="#fafaec" stop-opacity="0.29"/><stop offset="1" stop-color="#fefefe" stop-opacity="0"/></linearGradient><linearGradient id="linear-gradient-10" x1="276.46" y1="234.65" x2="358.08" y2="153.03" xlink:href="#linear-gradient"/></defs><title>a</title><g id="Layer_1" data-name="Layer 1"><rect class="cls-1" x="-2597" y="-1405" width="3444" height="2252"/></g><g id="Layer_16" data-name="Layer 16"><path class="cls-2" d="M115.05,518h2.82a4.92,4.92,0,0,1,1.59.27,4.25,4.25,0,0,1,1.44.8,3.93,3.93,0,0,1,1,1.33,4.5,4.5,0,0,1,0,3.71,4,4,0,0,1-1,1.33,4.62,4.62,0,0,1-1.44.8,5.19,5.19,0,0,1-1.59.26h-2.82Zm.87,7.71h1.68a4.51,4.51,0,0,0,1.68-.29,3.49,3.49,0,0,0,1.19-.79,3,3,0,0,0,.7-1.1,3.71,3.71,0,0,0,.23-1.28,3.76,3.76,0,0,0-.23-1.28,3,3,0,0,0-.7-1.1,3.62,3.62,0,0,0-1.19-.78,4.31,4.31,0,0,0-1.68-.29h-1.68Z"/><path class="cls-2" d="M124.45,523.87a2.36,2.36,0,0,0,.2.79,2,2,0,0,0,.45.64,2.13,2.13,0,0,0,.63.43,2,2,0,0,0,.78.15,2,2,0,0,0,1.1-.29,2.17,2.17,0,0,0,.7-.68l.61.51a3,3,0,0,1-1.11.91,3.12,3.12,0,0,1-1.3.27,3,3,0,0,1-1.16-.22,2.63,2.63,0,0,1-.91-.62,2.84,2.84,0,0,1-.61-.93,3,3,0,0,1-.22-1.18,3.2,3.2,0,0,1,.21-1.17,3,3,0,0,1,.6-.94,3,3,0,0,1,.9-.62,3,3,0,0,1,2.26,0,2.4,2.4,0,0,1,.85.61,2.66,2.66,0,0,1,.52.88,3.24,3.24,0,0,1,.18,1.09v.36Zm3.81-.65a1.69,1.69,0,0,0-1.82-1.8,1.88,1.88,0,0,0-.74.15,2.08,2.08,0,0,0-1.07,1,1.57,1.57,0,0,0-.16.67Z"/><path class="cls-2" d="M131.66,526.46h-.79v-9.07h.79Z"/><path class="cls-2" d="M134.84,518.68a.54.54,0,0,1-.18.42.57.57,0,0,1-.4.16.56.56,0,0,1-.39-.16.54.54,0,0,1-.18-.42.54.54,0,0,1,.18-.41.56.56,0,0,1,.39-.16.57.57,0,0,1,.4.16A.54.54,0,0,1,134.84,518.68Zm-.18,7.78h-.79v-5.62h.79Z"/><path class="cls-2" d="M139.16,526.46h-.89L136,520.84h.94l1.8,4.73h0l1.79-4.73h.9Z"/><path class="cls-2" d="M143.14,523.87a2.64,2.64,0,0,0,.21.79,2.08,2.08,0,0,0,.44.64,2.32,2.32,0,0,0,.64.43,2,2,0,0,0,.78.15,2,2,0,0,0,1.1-.29,2.28,2.28,0,0,0,.7-.68l.61.51a3.21,3.21,0,0,1-1.11.91,3.15,3.15,0,0,1-1.3.27,3,3,0,0,1-1.16-.22,2.67,2.67,0,0,1-.92-.62,2.81,2.81,0,0,1-.6-.93,3,3,0,0,1-.23-1.18,3.2,3.2,0,0,1,.22-1.17,2.7,2.7,0,0,1,.6-.94,3,3,0,0,1,.9-.62,2.76,2.76,0,0,1,1.12-.22,2.8,2.8,0,0,1,1.14.23,2.46,2.46,0,0,1,.84.61,2.5,2.5,0,0,1,.52.88,3.24,3.24,0,0,1,.18,1.09v.36Zm3.82-.65a1.69,1.69,0,0,0-1.82-1.8,1.93,1.93,0,0,0-.75.15,2,2,0,0,0-1.06,1,1.44,1.44,0,0,0-.16.67Z"/><path class="cls-2" d="M149.47,522.6c0-.25,0-.5,0-.76s0-.59,0-1h.78v1h0a2.11,2.11,0,0,1,.24-.44,1.89,1.89,0,0,1,1.56-.75,2.08,2.08,0,0,1,.59.07l-.15.78a1.38,1.38,0,0,0-.46-.06,1.61,1.61,0,0,0-.78.18,1.56,1.56,0,0,0-.54.44,1.94,1.94,0,0,0-.32.58,1.89,1.89,0,0,0-.1.6v3.17h-.79Z"/><path class="cls-2" d="M154.64,518.68a.54.54,0,0,1-.18.42.57.57,0,0,1-.4.16.56.56,0,0,1-.39-.16.54.54,0,0,1-.18-.42.54.54,0,0,1,.18-.41.56.56,0,0,1,.39-.16.57.57,0,0,1,.4.16A.54.54,0,0,1,154.64,518.68Zm-.18,7.78h-.79v-5.62h.79Z"/><path class="cls-2" d="M157.24,520.84a3.64,3.64,0,0,1,0,.45c0,.15,0,.3,0,.46h0a1.74,1.74,0,0,1,.34-.43,2.51,2.51,0,0,1,.46-.32,1.91,1.91,0,0,1,.53-.22,2.16,2.16,0,0,1,.56-.08,2,2,0,0,1,1.59.57,2.31,2.31,0,0,1,.52,1.63v3.56h-.79v-3.11a2.59,2.59,0,0,0-.33-1.43,1.32,1.32,0,0,0-1.2-.5l-.33.05a1.51,1.51,0,0,0-.59.26,2,2,0,0,0-.54.65,2.5,2.5,0,0,0-.24,1.2v2.88h-.79v-4.38c0-.15,0-.34,0-.58s0-.45,0-.66Z"/><path class="cls-2" d="M163.71,527.59a2.58,2.58,0,0,0,.91.75,2.66,2.66,0,0,0,1.24.28,2.79,2.79,0,0,0,1-.17,1.74,1.74,0,0,0,1.05-1.18,3.37,3.37,0,0,0,.11-.86v-1h0a2.15,2.15,0,0,1-.94.82,2.87,2.87,0,0,1-1.16.24,3.13,3.13,0,0,1-1.15-.21,3.23,3.23,0,0,1-.93-.6,2.73,2.73,0,0,1-.62-.9,3,3,0,0,1,0-2.29,2.85,2.85,0,0,1,.59-.92,2.73,2.73,0,0,1,.9-.62,2.88,2.88,0,0,1,1.15-.22,3.38,3.38,0,0,1,.53,0,2.47,2.47,0,0,1,.57.17,2.67,2.67,0,0,1,.55.33,2.38,2.38,0,0,1,.52.53h0v-.94h.79v5.57a4.18,4.18,0,0,1-.11,1,2.43,2.43,0,0,1-.44,1,2.51,2.51,0,0,1-.92.72,3.38,3.38,0,0,1-1.54.29,3.75,3.75,0,0,1-1.5-.28,3.35,3.35,0,0,1-1.2-.85Zm.15-4a2.17,2.17,0,0,0,.6,1.52,2.4,2.4,0,0,0,.66.47,2,2,0,0,0,.82.17,2.15,2.15,0,0,0,.83-.16,2.35,2.35,0,0,0,.69-.43,2.15,2.15,0,0,0,.46-.68,2.28,2.28,0,0,0,.15-.89,2.31,2.31,0,0,0-.15-.83,1.89,1.89,0,0,0-.42-.69,2.07,2.07,0,0,0-.67-.47,2.28,2.28,0,0,0-.89-.17,2,2,0,0,0-.82.17,2.4,2.4,0,0,0-.66.47,2.08,2.08,0,0,0-.44.69A2.12,2.12,0,0,0,163.86,523.58Z"/><path class="cls-2" d="M178.66,524.88l2.87-6.92h1.32v8.5H182v-7.34h0l-3.07,7.34h-.46l-3.07-7.34h0v7.34h-.87V518h1.32Z"/><path class="cls-2" d="M190.66,523.65a3,3,0,0,1-.22,1.18,2.71,2.71,0,0,1-.62.93,2.66,2.66,0,0,1-.94.62,3.38,3.38,0,0,1-2.4,0,2.75,2.75,0,0,1-.94-.62,2.86,2.86,0,0,1-.62-.93,3.25,3.25,0,0,1,0-2.35,2.8,2.8,0,0,1,1.56-1.56,3.38,3.38,0,0,1,2.4,0,2.8,2.8,0,0,1,.94.62,2.75,2.75,0,0,1,.62.94A3,3,0,0,1,190.66,523.65Zm-.86,0a2.49,2.49,0,0,0-.15-.87,2,2,0,0,0-.43-.71,2,2,0,0,0-.66-.48,2.39,2.39,0,0,0-1.77,0,2,2,0,0,0-.66.48,2.09,2.09,0,0,0-.42.71,2.49,2.49,0,0,0-.15.87,2.54,2.54,0,0,0,.15.88,2.19,2.19,0,0,0,.42.71,2,2,0,0,0,.66.47,2.39,2.39,0,0,0,1.77,0,2,2,0,0,0,.66-.47,2,2,0,0,0,.43-.71A2.54,2.54,0,0,0,189.8,523.65Z"/><path class="cls-2" d="M192.31,522.6c0-.25,0-.5,0-.76s0-.59,0-1H193v1h0a2.11,2.11,0,0,1,.24-.44,1.89,1.89,0,0,1,1.56-.75,2.08,2.08,0,0,1,.59.07l-.16.78a1.28,1.28,0,0,0-.45-.06,1.61,1.61,0,0,0-.78.18,1.56,1.56,0,0,0-.54.44,1.94,1.94,0,0,0-.32.58,1.89,1.89,0,0,0-.1.6v3.17h-.79Z"/><path class="cls-2" d="M197.3,520.84q0,.24,0,.45v.46h0a1.74,1.74,0,0,1,.34-.43,2.14,2.14,0,0,1,.45-.32,2.2,2.2,0,0,1,.53-.22,2.23,2.23,0,0,1,.56-.08,2.07,2.07,0,0,1,1.6.57,2.36,2.36,0,0,1,.51,1.63v3.56h-.79v-3.11a2.59,2.59,0,0,0-.32-1.43,1.34,1.34,0,0,0-1.2-.5l-.34.05a1.47,1.47,0,0,0-.58.26,2,2,0,0,0-.55.65,2.5,2.5,0,0,0-.24,1.2v2.88h-.79v-4.38c0-.15,0-.34,0-.58s0-.45-.05-.66Z"/><path class="cls-2" d="M204.49,518.68a.54.54,0,0,1-.18.42.58.58,0,0,1-.8,0,.54.54,0,0,1-.18-.42.54.54,0,0,1,.18-.41.58.58,0,0,1,.8,0A.54.54,0,0,1,204.49,518.68Zm-.18,7.78h-.8v-5.62h.8Z"/><path class="cls-2" d="M207.09,520.84a3.64,3.64,0,0,1,0,.45c0,.15,0,.3,0,.46h0a1.74,1.74,0,0,1,.34-.43,2.14,2.14,0,0,1,.45-.32,2.11,2.11,0,0,1,.54-.22,2.09,2.09,0,0,1,.55-.08,2.05,2.05,0,0,1,1.6.57,2.36,2.36,0,0,1,.52,1.63v3.56h-.8v-3.11a2.59,2.59,0,0,0-.32-1.43,1.34,1.34,0,0,0-1.2-.5l-.34.05a1.53,1.53,0,0,0-.58.26,2,2,0,0,0-.54.65,2.5,2.5,0,0,0-.24,1.2v2.88h-.8v-4.38c0-.15,0-.34,0-.58s0-.45,0-.66Z"/><path class="cls-2" d="M213.56,527.59a2.55,2.55,0,0,0,.9.75,2.73,2.73,0,0,0,1.25.28,2.79,2.79,0,0,0,1-.17,1.81,1.81,0,0,0,1.05-1.18,3.37,3.37,0,0,0,.11-.86v-1h0a2.15,2.15,0,0,1-.94.82,2.9,2.9,0,0,1-1.16.24,3.13,3.13,0,0,1-1.15-.21,3,3,0,0,1-.93-.6,2.73,2.73,0,0,1-.62-.9,2.78,2.78,0,0,1-.23-1.15,3.12,3.12,0,0,1,.21-1.14,3,3,0,0,1,.6-.92,2.73,2.73,0,0,1,.9-.62,2.86,2.86,0,0,1,1.14-.22,3.5,3.5,0,0,1,.54,0,2.39,2.39,0,0,1,.56.17,2.49,2.49,0,0,1,.56.33,2.62,2.62,0,0,1,.52.53h0v-.94h.79v5.57a4.81,4.81,0,0,1-.11,1,2.43,2.43,0,0,1-1.36,1.67,3.44,3.44,0,0,1-1.54.29,3.75,3.75,0,0,1-1.5-.28,3.35,3.35,0,0,1-1.2-.85Zm.14-4a2.32,2.32,0,0,0,.16.84,2.37,2.37,0,0,0,.45.68,2.4,2.4,0,0,0,.66.47,2,2,0,0,0,.82.17,2.07,2.07,0,0,0,.82-.16,2.23,2.23,0,0,0,.69-.43,1.86,1.86,0,0,0,.46-.68,2.11,2.11,0,0,0,.15-.89,2.3,2.3,0,0,0-.14-.83,2.2,2.2,0,0,0-.42-.69,2.18,2.18,0,0,0-.67-.47,2.31,2.31,0,0,0-.89-.17,2,2,0,0,0-.82.17,2.4,2.4,0,0,0-.66.47,2.29,2.29,0,0,0-.45.69A2.31,2.31,0,0,0,213.7,523.58Z"/><path class="cls-2" d="M231.32,525.12a3.38,3.38,0,0,1-.54.61,3.41,3.41,0,0,1-.72.5,4.21,4.21,0,0,1-.88.33,4.11,4.11,0,0,1-1,.12,4.59,4.59,0,0,1-1.75-.34,4.23,4.23,0,0,1-1.41-.93,4.55,4.55,0,0,1-.93-1.41,5,5,0,0,1,0-3.58,4.33,4.33,0,0,1,4.09-2.67,4.28,4.28,0,0,1,1.59.31,3.14,3.14,0,0,1,1.35,1l-.75.57a1.93,1.93,0,0,0-.36-.41,2.41,2.41,0,0,0-.52-.36,3.45,3.45,0,0,0-.63-.25,2.29,2.29,0,0,0-.68-.1,3.37,3.37,0,0,0-2.56,1.1,3.62,3.62,0,0,0-.69,1.17,4.12,4.12,0,0,0-.24,1.4,4.08,4.08,0,0,0,.24,1.4,3.62,3.62,0,0,0,.69,1.17,3.37,3.37,0,0,0,2.56,1.1,3,3,0,0,0,.67-.06,2.22,2.22,0,0,0,.65-.2,2.8,2.8,0,0,0,.6-.39,2.71,2.71,0,0,0,.52-.62Z"/><path class="cls-2" d="M238.28,523.65a3.22,3.22,0,0,1-.22,1.18,2.83,2.83,0,0,1-1.56,1.55,3.18,3.18,0,0,1-1.21.22,3.07,3.07,0,0,1-1.19-.22,2.79,2.79,0,0,1-.95-.62,2.69,2.69,0,0,1-.61-.93,3.12,3.12,0,0,1,0-2.35,2.73,2.73,0,0,1,.61-.94,3,3,0,0,1,.95-.62,3.07,3.07,0,0,1,1.19-.22,3.18,3.18,0,0,1,1.21.22,3,3,0,0,1,.94.62,2.9,2.9,0,0,1,.62.94A3.2,3.2,0,0,1,238.28,523.65Zm-.87,0a2.49,2.49,0,0,0-.15-.87,2.09,2.09,0,0,0-.42-.71,2.16,2.16,0,0,0-.67-.48,2.36,2.36,0,0,0-1.76,0,2,2,0,0,0-.66.48,2.09,2.09,0,0,0-.42.71,2.49,2.49,0,0,0-.15.87,2.54,2.54,0,0,0,.15.88,2.19,2.19,0,0,0,.42.71,2,2,0,0,0,.66.47,2.36,2.36,0,0,0,1.76,0,2.13,2.13,0,0,0,.67-.47,2.19,2.19,0,0,0,.42-.71A2.54,2.54,0,0,0,237.41,523.65Z"/><path class="cls-2" d="M242.45,521.56h-1.33v4.9h-.79v-4.9h-1.19v-.72h1.19v-1.53a2.05,2.05,0,0,1,.52-1.59,1.91,1.91,0,0,1,1.36-.47,2.06,2.06,0,0,1,.35,0c.11,0,.23,0,.34.06l-.15.72a1.33,1.33,0,0,0-.3-.06,1.55,1.55,0,0,0-.31,0,1.19,1.19,0,0,0-.53.11.77.77,0,0,0-.31.31,1.31,1.31,0,0,0-.14.46,3.43,3.43,0,0,0,0,.56v1.44h1.33Z"/><path class="cls-2" d="M245.91,521.56h-1.33v4.9h-.79v-4.9H242.6v-.72h1.19v-1.53a2.09,2.09,0,0,1,.51-1.59,2.33,2.33,0,0,1,1.71-.45,3.43,3.43,0,0,1,.34.06l-.14.72-.3-.06a1.63,1.63,0,0,0-.31,0,1.16,1.16,0,0,0-.53.11.71.71,0,0,0-.31.31,1.55,1.55,0,0,0-.15.46,5.12,5.12,0,0,0,0,.56v1.44h1.33Z"/><path class="cls-2" d="M247.52,523.87a2.36,2.36,0,0,0,.2.79,2,2,0,0,0,.45.64,2.13,2.13,0,0,0,.63.43,2,2,0,0,0,.78.15,2,2,0,0,0,1.1-.29,2.17,2.17,0,0,0,.7-.68l.61.51a3,3,0,0,1-1.11.91,3.15,3.15,0,0,1-1.3.27,3,3,0,0,1-1.16-.22,2.77,2.77,0,0,1-.92-.62,3,3,0,0,1-.6-.93,3,3,0,0,1-.22-1.18,3.2,3.2,0,0,1,.21-1.17,3,3,0,0,1,.6-.94,3,3,0,0,1,.9-.62,3,3,0,0,1,2.26,0,2.5,2.5,0,0,1,.85.61,2.66,2.66,0,0,1,.52.88,3.24,3.24,0,0,1,.18,1.09v.36Zm3.81-.65a1.69,1.69,0,0,0-1.82-1.8,1.85,1.85,0,0,0-.74.15,2.1,2.1,0,0,0-.64.4,2.24,2.24,0,0,0-.43.58,1.57,1.57,0,0,0-.16.67Z"/><path class="cls-2" d="M254.31,523.87a2.36,2.36,0,0,0,.2.79,2,2,0,0,0,.45.64,2.13,2.13,0,0,0,.63.43,2,2,0,0,0,.78.15,2,2,0,0,0,1.1-.29,2.17,2.17,0,0,0,.7-.68l.62.51a2.9,2.9,0,0,1-2.42,1.18,3,3,0,0,1-1.16-.22,2.63,2.63,0,0,1-.91-.62,2.84,2.84,0,0,1-.61-.93,3.25,3.25,0,0,1,0-2.35,2.76,2.76,0,0,1,2.61-1.78,2.76,2.76,0,0,1,1.14.23,2.4,2.4,0,0,1,.85.61,2.5,2.5,0,0,1,.52.88,3.24,3.24,0,0,1,.18,1.09v.36Zm3.81-.65a1.78,1.78,0,0,0-.48-1.3,1.76,1.76,0,0,0-1.34-.5,1.88,1.88,0,0,0-.74.15,2.05,2.05,0,0,0-.63.4,1.87,1.87,0,0,0-.43.58,1.45,1.45,0,0,0-.17.67Z"/><path class="cls-2" d="M270.44,525.17h0V518h.87v8.5h-1.08l-5.07-7.27h0v7.27h-.87V518h1.08Z"/><path class="cls-2" d="M274,523.87a2.64,2.64,0,0,0,.21.79,2.08,2.08,0,0,0,.44.64,2.32,2.32,0,0,0,.64.43,2,2,0,0,0,.78.15,2,2,0,0,0,1.1-.29,2.28,2.28,0,0,0,.7-.68l.61.51a2.89,2.89,0,0,1-2.41,1.18,3,3,0,0,1-1.16-.22,2.67,2.67,0,0,1-.92-.62,3,3,0,0,1-.61-.93,3.25,3.25,0,0,1,0-2.35,2.7,2.7,0,0,1,.6-.94,2.84,2.84,0,0,1,.9-.62,2.76,2.76,0,0,1,1.12-.22,2.71,2.71,0,0,1,1.13.23,2.4,2.4,0,0,1,.85.61,2.5,2.5,0,0,1,.52.88,3.24,3.24,0,0,1,.18,1.09v.36Zm3.82-.65a1.69,1.69,0,0,0-1.82-1.8,1.93,1.93,0,0,0-.75.15,2,2,0,0,0-1.06,1,1.44,1.44,0,0,0-.16.67Z"/><path class="cls-2" d="M280.49,520.84l1.3,4.56h0l1.5-4.56h.82l1.5,4.56h0l1.3-4.56h.93l-1.77,5.62h-.89l-1.49-4.61h0l-1.49,4.61h-.89l-1.77-5.62Z"/><path class="cls-2" d="M292,522.18a1.46,1.46,0,0,0-.48-.56,1.3,1.3,0,0,0-.73-.2,1.92,1.92,0,0,0-.41.05,1.16,1.16,0,0,0-.38.15.84.84,0,0,0-.27.26.76.76,0,0,0,.17,1,2.84,2.84,0,0,0,.83.31l.8.19a1.89,1.89,0,0,1,1,.54,1.36,1.36,0,0,1,.39,1,1.49,1.49,0,0,1-.68,1.32,2.13,2.13,0,0,1-.7.31,3.57,3.57,0,0,1-.8.09,3,3,0,0,1-1.21-.24,2.26,2.26,0,0,1-.95-.85l.68-.47a2,2,0,0,0,.61.62,1.61,1.61,0,0,0,.87.22,2,2,0,0,0,.48,0,1.32,1.32,0,0,0,.42-.17.86.86,0,0,0,.31-.29.82.82,0,0,0,.11-.42.66.66,0,0,0-.31-.61,2.8,2.8,0,0,0-.76-.29l-.77-.18-.39-.12a2.21,2.21,0,0,1-.48-.25,1.7,1.7,0,0,1-.4-.44,1.26,1.26,0,0,1-.17-.67,1.49,1.49,0,0,1,.18-.75,1.41,1.41,0,0,1,.47-.53,2,2,0,0,1,.66-.31,2.8,2.8,0,0,1,.77-.1,2.63,2.63,0,0,1,1.09.23,1.56,1.56,0,0,1,.78.78Z"/><path class="cls-2" d="M115.36,540.46h-.57V534.8h.57Z"/><path class="cls-2" d="M117.44,540.46h-.53v-6.05h.53Z"/><path class="cls-2" d="M119.44,540.46h-.53v-6.05h.53Z"/><path class="cls-2" d="M123.49,540.46c0-.1,0-.2,0-.3v-.3h0a1.18,1.18,0,0,1-.22.28,1.16,1.16,0,0,1-.31.22,1.51,1.51,0,0,1-.35.14,1.24,1.24,0,0,1-.37.06,1.38,1.38,0,0,1-1.07-.38,1.58,1.58,0,0,1-.34-1.09v-2.37h.53v2.07a3,3,0,0,0,0,.55,1.18,1.18,0,0,0,.17.41.69.69,0,0,0,.31.24,1.16,1.16,0,0,0,.49.09l.23,0a1,1,0,0,0,.38-.17,1.33,1.33,0,0,0,.37-.43,1.74,1.74,0,0,0,.16-.8v-1.92H124v2.92c0,.1,0,.23,0,.38s0,.3,0,.44Z"/><path class="cls-2" d="M127.3,537.6a1,1,0,0,0-.32-.36.86.86,0,0,0-.49-.14l-.28,0a1.09,1.09,0,0,0-.25.1.73.73,0,0,0-.18.17.53.53,0,0,0-.07.26.42.42,0,0,0,.19.38,1.86,1.86,0,0,0,.55.21l.54.13a1.27,1.27,0,0,1,.65.36.93.93,0,0,1,.26.66,1.09,1.09,0,0,1-.12.53,1.15,1.15,0,0,1-.33.36,1.42,1.42,0,0,1-.47.2,2,2,0,0,1-.54.07,2,2,0,0,1-.8-.17,1.48,1.48,0,0,1-.64-.56l.46-.31a1.27,1.27,0,0,0,.4.4,1,1,0,0,0,.58.16,1.65,1.65,0,0,0,.32,0,.92.92,0,0,0,.29-.11.64.64,0,0,0,.2-.2.51.51,0,0,0,.07-.28.44.44,0,0,0-.2-.4,2,2,0,0,0-.51-.2l-.51-.12-.26-.08a.9.9,0,0,1-.32-.17,1.08,1.08,0,0,1-.27-.29.87.87,0,0,1-.11-.44,1,1,0,0,1,.12-.5.9.9,0,0,1,.31-.36,1.35,1.35,0,0,1,.44-.2,1.79,1.79,0,0,1,.51-.07,1.73,1.73,0,0,1,.73.15,1.09,1.09,0,0,1,.52.52Z"/><path class="cls-2" d="M130.74,537.2h-1.08v2.2a1.16,1.16,0,0,0,0,.35.55.55,0,0,0,.11.2.42.42,0,0,0,.17.1.78.78,0,0,0,.22,0,1.35,1.35,0,0,0,.28,0,1.09,1.09,0,0,0,.27-.11l0,.49a1.7,1.7,0,0,1-.71.14,1.87,1.87,0,0,1-.32,0,.73.73,0,0,1-.3-.16.78.78,0,0,1-.22-.3,1.21,1.21,0,0,1-.09-.5V537.2h-.79v-.48h.79v-1.06h.53v1.06h1.08Z"/><path class="cls-2" d="M131.6,537.88c0-.16,0-.33,0-.5s0-.39,0-.66h.52v.69h0a1.22,1.22,0,0,1,.41-.54,1,1,0,0,1,.35-.18,1.2,1.2,0,0,1,.44-.07,1.48,1.48,0,0,1,.39,0l-.1.52a.83.83,0,0,0-.31,0,1.21,1.21,0,0,0-.52.11,1.31,1.31,0,0,0-.36.3,1.33,1.33,0,0,0-.28.79v2.11h-.52Z"/><path class="cls-2" d="M136.68,538.17v-.1a.85.85,0,0,0-1-1,1.68,1.68,0,0,0-1.14.44l-.32-.37a2.09,2.09,0,0,1,1.59-.55,1.82,1.82,0,0,1,.52.08,1.15,1.15,0,0,1,.73.66,1.32,1.32,0,0,1,.11.59v1.67c0,.14,0,.3,0,.45s0,.29.05.39h-.51a2.54,2.54,0,0,1,0-.29c0-.11,0-.22,0-.32h0a1.42,1.42,0,0,1-.55.54,1.62,1.62,0,0,1-.77.17,2,2,0,0,1-.48-.07,1.44,1.44,0,0,1-.41-.21,1,1,0,0,1-.4-.82,1,1,0,0,1,.24-.71,1.33,1.33,0,0,1,.59-.39,2.71,2.71,0,0,1,.76-.16l.74,0Zm-.28.43a4.81,4.81,0,0,0-.5,0,2.61,2.61,0,0,0-.57.09,1.16,1.16,0,0,0-.47.24.51.51,0,0,0-.2.44.57.57,0,0,0,.08.32.66.66,0,0,0,.2.21.7.7,0,0,0,.28.12,1.75,1.75,0,0,0,.32,0,1.27,1.27,0,0,0,.5-.1.92.92,0,0,0,.35-.26,1.11,1.11,0,0,0,.22-.38,1.84,1.84,0,0,0,.07-.47v-.27Z"/><path class="cls-2" d="M140.44,537.2h-1.08v2.2a1.61,1.61,0,0,0,0,.35.56.56,0,0,0,.12.2.32.32,0,0,0,.17.1.73.73,0,0,0,.22,0,1.45,1.45,0,0,0,.28,0,1.19,1.19,0,0,0,.26-.11l0,.49a1.66,1.66,0,0,1-.71.14,1.76,1.76,0,0,1-.31,0,.73.73,0,0,1-.3-.16.8.8,0,0,1-.23-.3,1.21,1.21,0,0,1-.09-.5V537.2H138v-.48h.79v-1.06h.53v1.06h1.08Z"/><path class="cls-2" d="M142,535.28a.34.34,0,0,1-.12.27.4.4,0,0,1-.26.11.4.4,0,0,1-.27-.11.34.34,0,0,1-.12-.27.36.36,0,0,1,.12-.28.4.4,0,0,1,.27-.11.4.4,0,0,1,.26.11A.36.36,0,0,1,142,535.28Zm-.12,5.18h-.53v-3.74h.53Z"/><path class="cls-2" d="M147,538.59a2,2,0,0,1-.15.78,2,2,0,0,1-3.27.63,1.91,1.91,0,0,1-.41-.63,2,2,0,0,1-.15-.78,2.06,2.06,0,0,1,.15-.79,1.86,1.86,0,0,1,.41-.62,1.91,1.91,0,0,1,.63-.41,2.21,2.21,0,0,1,1.6,0,1.91,1.91,0,0,1,.63.41,2,2,0,0,1,.41.62A2.06,2.06,0,0,1,147,538.59Zm-.58,0a1.66,1.66,0,0,0-.1-.59,1.58,1.58,0,0,0-.28-.47,1.29,1.29,0,0,0-.45-.31,1.37,1.37,0,0,0-.58-.12,1.38,1.38,0,0,0-.59.12,1.17,1.17,0,0,0-.44.31,1.4,1.4,0,0,0-.28.47,1.66,1.66,0,0,0-.1.59,1.57,1.57,0,0,0,.1.58,1.31,1.31,0,0,0,.28.47,1.19,1.19,0,0,0,.44.32,1.38,1.38,0,0,0,.59.12,1.37,1.37,0,0,0,.58-.12,1.32,1.32,0,0,0,.45-.32,1.47,1.47,0,0,0,.28-.47A1.57,1.57,0,0,0,146.45,538.59Z"/><path class="cls-2" d="M148.57,536.72c0,.1,0,.2,0,.3v.3h0a1.18,1.18,0,0,1,.22-.28,1.6,1.6,0,0,1,.31-.22,2.17,2.17,0,0,1,.35-.15,1.65,1.65,0,0,1,.38,0,1.37,1.37,0,0,1,1.06.38,1.56,1.56,0,0,1,.35,1.08v2.38h-.53v-2.07a1.79,1.79,0,0,0-.22-1,.88.88,0,0,0-.8-.33l-.22,0a.86.86,0,0,0-.39.18,1.23,1.23,0,0,0-.37.43,1.74,1.74,0,0,0-.16.8v1.92h-.52v-2.92c0-.1,0-.23,0-.38s0-.3,0-.44Z"/><path class="cls-2" d="M157.6,540.46c0-.1,0-.2,0-.3v-.3h0a1.18,1.18,0,0,1-.22.28,1.29,1.29,0,0,1-.3.22,1.78,1.78,0,0,1-.36.14,1.24,1.24,0,0,1-.37.06,1.39,1.39,0,0,1-1.07-.38,1.58,1.58,0,0,1-.34-1.09v-2.37h.53v2.07a3,3,0,0,0,0,.55,1.18,1.18,0,0,0,.17.41.74.74,0,0,0,.31.24,1.19,1.19,0,0,0,.49.09l.23,0a1,1,0,0,0,.38-.17,1.33,1.33,0,0,0,.37-.43,1.62,1.62,0,0,0,.16-.8v-1.92h.53v2.92c0,.1,0,.23,0,.38s0,.3,0,.44Z"/><path class="cls-2" d="M161.41,537.6a1,1,0,0,0-.32-.36.86.86,0,0,0-.49-.14l-.27,0a.82.82,0,0,0-.25.1.63.63,0,0,0-.19.17.53.53,0,0,0-.06.26.42.42,0,0,0,.18.38,1.86,1.86,0,0,0,.55.21l.54.13a1.27,1.27,0,0,1,.65.36.93.93,0,0,1,.26.66,1.09,1.09,0,0,1-.12.53,1,1,0,0,1-.33.36,1.42,1.42,0,0,1-.47.2,1.9,1.9,0,0,1-.54.07,2,2,0,0,1-.8-.17,1.4,1.4,0,0,1-.63-.56l.45-.31a1.27,1.27,0,0,0,.4.4,1,1,0,0,0,.58.16,1.86,1.86,0,0,0,.33,0,.86.86,0,0,0,.28-.11.64.64,0,0,0,.2-.2.51.51,0,0,0,.08-.28.43.43,0,0,0-.21-.4,2,2,0,0,0-.51-.2l-.51-.12-.26-.08a.9.9,0,0,1-.32-.17,1.08,1.08,0,0,1-.27-.29.87.87,0,0,1-.11-.44,1,1,0,0,1,.12-.5.9.9,0,0,1,.31-.36,1.35,1.35,0,0,1,.44-.2,1.79,1.79,0,0,1,.51-.07,1.73,1.73,0,0,1,.73.15,1.05,1.05,0,0,1,.52.52Z"/><path class="cls-2" d="M163.28,538.73a1.54,1.54,0,0,0,.14.53,1.3,1.3,0,0,0,.29.43,1.52,1.52,0,0,0,.43.28,1.27,1.27,0,0,0,.52.11,1.33,1.33,0,0,0,.73-.2,1.45,1.45,0,0,0,.47-.45l.41.33a2,2,0,0,1-1.61.8,1.92,1.92,0,0,1-.77-.15,1.87,1.87,0,0,1-.61-.41,1.91,1.91,0,0,1-.41-.63,2,2,0,0,1-.15-.78,2.06,2.06,0,0,1,.15-.79,1.84,1.84,0,0,1,.4-.62,1.78,1.78,0,0,1,.6-.41,1.81,1.81,0,0,1,.74-.15,1.84,1.84,0,0,1,.76.15,1.7,1.7,0,0,1,.57.41,1.63,1.63,0,0,1,.34.59,2.18,2.18,0,0,1,.12.72v.24Zm2.55-.43a1.12,1.12,0,0,0-1.22-1.2,1.19,1.19,0,0,0-.49.1,1.51,1.51,0,0,0-.42.27,1.33,1.33,0,0,0-.29.38,1.06,1.06,0,0,0-.11.45Z"/><path class="cls-2" d="M171.18,540.46h-.53v-.62h0a1.55,1.55,0,0,1-.3.33,2,2,0,0,1-.37.22,2,2,0,0,1-.39.13,2.87,2.87,0,0,1-.39,0,2.07,2.07,0,0,1-.8-.15,1.86,1.86,0,0,1-.63-.41,1.93,1.93,0,0,1-.42-.63,2.21,2.21,0,0,1-.14-.78,2.26,2.26,0,0,1,.14-.79,1.89,1.89,0,0,1,.42-.62,1.72,1.72,0,0,1,.63-.41,2.07,2.07,0,0,1,.8-.15,1.84,1.84,0,0,1,.39,0,2,2,0,0,1,.39.13,2,2,0,0,1,.37.22,1.18,1.18,0,0,1,.3.33h0v-2.93h.53Zm-3.42-1.87a1.81,1.81,0,0,0,.1.58,1.33,1.33,0,0,0,.29.47,1.28,1.28,0,0,0,.44.32,1.38,1.38,0,0,0,.59.12,1.53,1.53,0,0,0,.6-.12,1.4,1.4,0,0,0,.47-.32,1.38,1.38,0,0,0,.31-.47,1.4,1.4,0,0,0,.12-.58,1.53,1.53,0,0,0-.43-1.06,1.38,1.38,0,0,0-.47-.31,1.53,1.53,0,0,0-.6-.12,1.38,1.38,0,0,0-.59.12,1.25,1.25,0,0,0-.44.31,1.42,1.42,0,0,0-.29.47A1.92,1.92,0,0,0,167.76,538.59Z"/><path class="cls-2" d="M176.46,537.2h-.89v3.26H175V537.2h-.79v-.48H175v-1a1.39,1.39,0,0,1,.35-1.06,1.29,1.29,0,0,1,.91-.31h.23l.23,0-.1.48-.2,0h-.21a.73.73,0,0,0-.35.07.51.51,0,0,0-.21.2.75.75,0,0,0-.09.31,2.25,2.25,0,0,0,0,.38v1h.89Z"/><path class="cls-2" d="M181,538.59a2,2,0,0,1-.15.78,2,2,0,0,1-3.68,0,2,2,0,0,1-.15-.78,2.06,2.06,0,0,1,.15-.79,2,2,0,0,1,.41-.62,1.91,1.91,0,0,1,.63-.41,2.21,2.21,0,0,1,1.6,0,1.91,1.91,0,0,1,.63.41,2,2,0,0,1,.41.62A2.06,2.06,0,0,1,181,538.59Zm-.58,0a1.66,1.66,0,0,0-.1-.59,1.58,1.58,0,0,0-.28-.47,1.29,1.29,0,0,0-.45-.31,1.37,1.37,0,0,0-.58-.12,1.38,1.38,0,0,0-.59.12,1.17,1.17,0,0,0-.44.31,1.4,1.4,0,0,0-.28.47,1.66,1.66,0,0,0-.1.59,1.57,1.57,0,0,0,.1.58,1.31,1.31,0,0,0,.28.47,1.19,1.19,0,0,0,.44.32,1.38,1.38,0,0,0,.59.12,1.37,1.37,0,0,0,.58-.12,1.32,1.32,0,0,0,.45-.32,1.47,1.47,0,0,0,.28-.47A1.57,1.57,0,0,0,180.37,538.59Z"/><path class="cls-2" d="M182,537.88c0-.16,0-.33,0-.5s0-.39,0-.66h.52v.69h0a.92.92,0,0,1,.16-.29,1.18,1.18,0,0,1,.25-.25,1,1,0,0,1,.34-.18,1.25,1.25,0,0,1,.45-.07,1.48,1.48,0,0,1,.39,0l-.1.52a.86.86,0,0,0-.31,0,1.21,1.21,0,0,0-.52.11,1.31,1.31,0,0,0-.36.3,1.23,1.23,0,0,0-.21.39,1.16,1.16,0,0,0-.07.4v2.11H182Z"/><path class="cls-2" d="M189.43,538.17v-.1a.85.85,0,0,0-1-1,1.69,1.69,0,0,0-1.15.44l-.32-.37a2.09,2.09,0,0,1,1.59-.55,1.82,1.82,0,0,1,.52.08,1.18,1.18,0,0,1,.44.24,1.17,1.17,0,0,1,.29.42,1.32,1.32,0,0,1,.12.59v1.67c0,.14,0,.3,0,.45s0,.29.05.39h-.51a2.54,2.54,0,0,1,0-.29c0-.11,0-.22,0-.32h0a1.35,1.35,0,0,1-.55.54,1.62,1.62,0,0,1-.77.17,2,2,0,0,1-.48-.07,1.44,1.44,0,0,1-.41-.21,1,1,0,0,1-.4-.82,1,1,0,0,1,.24-.71,1.39,1.39,0,0,1,.59-.39,2.71,2.71,0,0,1,.76-.16l.74,0Zm-.28.43a4.81,4.81,0,0,0-.5,0,2.71,2.71,0,0,0-.57.09,1.16,1.16,0,0,0-.47.24.54.54,0,0,0-.2.44.66.66,0,0,0,.08.32.8.8,0,0,0,.2.21.77.77,0,0,0,.28.12,1.75,1.75,0,0,0,.32,0,1.27,1.27,0,0,0,.5-.1,1,1,0,0,0,.36-.26,1.28,1.28,0,0,0,.21-.38,1.84,1.84,0,0,0,.07-.47v-.27Z"/><path class="cls-2" d="M191.76,536.72c0,.1,0,.2,0,.3s0,.2,0,.3h0A1.23,1.23,0,0,1,192,537a1.29,1.29,0,0,1,.3-.22,1.94,1.94,0,0,1,.36-.15,1.57,1.57,0,0,1,.37,0,1.37,1.37,0,0,1,1.06.38,1.56,1.56,0,0,1,.35,1.08v2.38h-.53v-2.07a1.71,1.71,0,0,0-.22-1,.88.88,0,0,0-.8-.33l-.22,0a1,1,0,0,0-.39.18,1.12,1.12,0,0,0-.36.43,1.62,1.62,0,0,0-.16.8v1.92h-.53v-2.92c0-.1,0-.23,0-.38s0-.3,0-.44Z"/><path class="cls-2" d="M198.86,535.28a.34.34,0,0,1-.12.27.4.4,0,0,1-.27.11.4.4,0,0,1-.26-.11.34.34,0,0,1-.12-.27.36.36,0,0,1,.12-.28.4.4,0,0,1,.26-.11.4.4,0,0,1,.27.11A.36.36,0,0,1,198.86,535.28Zm-.12,5.18h-.53v-3.74h.53Z"/><path class="cls-2" d="M200.59,536.72c0,.1,0,.2,0,.3v.3h0a1.23,1.23,0,0,1,.23-.28,1.29,1.29,0,0,1,.3-.22,1.94,1.94,0,0,1,.36-.15,1.57,1.57,0,0,1,.37,0A1.41,1.41,0,0,1,203,537a1.61,1.61,0,0,1,.34,1.08v2.38h-.53v-2.07a1.71,1.71,0,0,0-.22-1,.88.88,0,0,0-.8-.33l-.22,0a1,1,0,0,0-.39.18,1.21,1.21,0,0,0-.36.43,1.62,1.62,0,0,0-.16.8v1.92h-.53v-2.92c0-.1,0-.23,0-.38s0-.3,0-.44Z"/><path class="cls-2" d="M206.27,540.46h-.6l-1.52-3.74h.63l1.2,3.15h0l1.2-3.15h.6Z"/><path class="cls-2" d="M208.92,538.73a1.54,1.54,0,0,0,.14.53,1.3,1.3,0,0,0,.29.43,1.52,1.52,0,0,0,.43.28,1.27,1.27,0,0,0,.52.11,1.33,1.33,0,0,0,.73-.2,1.45,1.45,0,0,0,.47-.45l.41.33a2,2,0,0,1-1.61.8,2,2,0,0,1-1.39-.56,2.05,2.05,0,0,1-.4-.63,2,2,0,0,1-.15-.78,2.06,2.06,0,0,1,.15-.79,1.84,1.84,0,0,1,.4-.62,1.78,1.78,0,0,1,.6-.41,1.81,1.81,0,0,1,.74-.15,1.84,1.84,0,0,1,.76.15,1.66,1.66,0,0,1,.56.41,1.52,1.52,0,0,1,.35.59,2.18,2.18,0,0,1,.12.72v.24Zm2.55-.43a1.12,1.12,0,0,0-1.22-1.2,1.24,1.24,0,0,0-.5.1,1.68,1.68,0,0,0-.42.27,1.29,1.29,0,0,0-.28.38.93.93,0,0,0-.11.45Z"/><path class="cls-2" d="M215.07,537.6a1,1,0,0,0-.32-.36.88.88,0,0,0-.49-.14l-.28,0a.93.93,0,0,0-.25.1.73.73,0,0,0-.18.17.44.44,0,0,0-.07.26.4.4,0,0,0,.19.38,1.75,1.75,0,0,0,.55.21l.53.13a1.3,1.3,0,0,1,.66.36.93.93,0,0,1,.26.66,1.09,1.09,0,0,1-.13.53,1,1,0,0,1-.33.36,1.37,1.37,0,0,1-.46.2,2,2,0,0,1-.54.07,1.91,1.91,0,0,1-.8-.17,1.48,1.48,0,0,1-.64-.56l.46-.31a1.18,1.18,0,0,0,.4.4,1,1,0,0,0,.58.16,1.75,1.75,0,0,0,.32,0,.78.78,0,0,0,.28-.11.55.55,0,0,0,.2-.2.51.51,0,0,0,.08-.28.43.43,0,0,0-.21-.4,1.93,1.93,0,0,0-.5-.2l-.51-.12a1.23,1.23,0,0,1-.26-.08.9.9,0,0,1-.32-.17.84.84,0,0,1-.27-.29.78.78,0,0,1-.11-.44,1,1,0,0,1,.42-.86,1.32,1.32,0,0,1,.45-.2,1.7,1.7,0,0,1,.51-.07,1.8,1.8,0,0,1,.73.15,1.09,1.09,0,0,1,.52.52Z"/><path class="cls-2" d="M218.51,537.2h-1.08v2.2a1.16,1.16,0,0,0,0,.35.43.43,0,0,0,.11.2.37.37,0,0,0,.17.1.78.78,0,0,0,.22,0,1.45,1.45,0,0,0,.28,0,1,1,0,0,0,.26-.11l0,.49a1.73,1.73,0,0,1-.71.14,1.75,1.75,0,0,1-.32,0,.73.73,0,0,1-.3-.16.69.69,0,0,1-.22-.3,1.21,1.21,0,0,1-.09-.5V537.2h-.79v-.48h.79v-1.06h.53v1.06h1.08Z"/><path class="cls-2" d="M219.31,537.55c0-.14,0-.28,0-.42s0-.27,0-.41h.56v.57h0a1.27,1.27,0,0,1,.53-.5,1.55,1.55,0,0,1,.68-.17l.32,0a1.2,1.2,0,0,1,.63.35,1.22,1.22,0,0,1,.24.4,1.28,1.28,0,0,1,.51-.57,1.37,1.37,0,0,1,.72-.21,1.39,1.39,0,0,1,1.07.38,1.56,1.56,0,0,1,.34,1.08v2.38h-.53v-2.18a1.66,1.66,0,0,0-.2-.88.82.82,0,0,0-.74-.3,1,1,0,0,0-.5.12.92.92,0,0,0-.32.3,1.57,1.57,0,0,0-.18.44,2.1,2.1,0,0,0-.06.51v2h-.53v-2.18a1.57,1.57,0,0,0-.2-.88.82.82,0,0,0-.74-.3l-.22,0a.81.81,0,0,0-.36.18,1.28,1.28,0,0,0-.33.43,1.75,1.75,0,0,0-.15.8v1.92h-.52Z"/><path class="cls-2" d="M226.57,538.73a1.54,1.54,0,0,0,.14.53,1.3,1.3,0,0,0,.29.43,1.39,1.39,0,0,0,.43.28,1.27,1.27,0,0,0,.52.11,1.35,1.35,0,0,0,.73-.2,1.56,1.56,0,0,0,.47-.45l.4.33a1.91,1.91,0,0,1-.74.61,1.93,1.93,0,0,1-.86.19,2,2,0,0,1-.78-.15,2,2,0,0,1-.61-.41,2.05,2.05,0,0,1-.4-.63,2,2,0,0,1-.15-.78,2.26,2.26,0,0,1,.14-.79,2,2,0,0,1,.4-.62,1.78,1.78,0,0,1,.6-.41,2,2,0,0,1,1.51,0,1.72,1.72,0,0,1,.91,1,2.18,2.18,0,0,1,.12.72v.24Zm2.54-.43a1.12,1.12,0,0,0-1.21-1.2,1.24,1.24,0,0,0-.5.1,1.51,1.51,0,0,0-.42.27,1.53,1.53,0,0,0-.29.38,1,1,0,0,0-.1.45Z"/><path class="cls-2" d="M231.23,536.72a1.51,1.51,0,0,1,0,.3c0,.1,0,.2,0,.3h0a1.23,1.23,0,0,1,.23-.28,1.29,1.29,0,0,1,.3-.22,1.94,1.94,0,0,1,.36-.15,1.57,1.57,0,0,1,.37,0,1.36,1.36,0,0,1,1.06.38,1.56,1.56,0,0,1,.35,1.08v2.38h-.53v-2.07a1.71,1.71,0,0,0-.22-1,.88.88,0,0,0-.8-.33l-.22,0a1,1,0,0,0-.39.18,1.32,1.32,0,0,0-.36.43,1.62,1.62,0,0,0-.16.8v1.92h-.53v-2.92c0-.1,0-.23,0-.38s0-.3,0-.44Z"/><path class="cls-2" d="M237.2,537.2h-1.08v2.2a1.69,1.69,0,0,0,0,.35.56.56,0,0,0,.12.2.32.32,0,0,0,.17.1.78.78,0,0,0,.22,0,1.45,1.45,0,0,0,.28,0,1,1,0,0,0,.26-.11l0,.49a1.64,1.64,0,0,1-1,.1.73.73,0,0,1-.3-.16.8.8,0,0,1-.23-.3,1.41,1.41,0,0,1-.08-.5V537.2h-.8v-.48h.8v-1.06h.53v1.06h1.08Z"/><path class="cls-2" d="M240.8,536.72c0,.1,0,.2,0,.3s0,.2,0,.3h0a1.23,1.23,0,0,1,.23-.28,1.29,1.29,0,0,1,.3-.22,1.94,1.94,0,0,1,.36-.15,1.57,1.57,0,0,1,.37,0,1.37,1.37,0,0,1,1.06.38,1.56,1.56,0,0,1,.35,1.08v2.38H243v-2.07a1.71,1.71,0,0,0-.22-1,.88.88,0,0,0-.8-.33l-.22,0a1,1,0,0,0-.39.18,1.12,1.12,0,0,0-.36.43,1.62,1.62,0,0,0-.16.8v1.92h-.53v-2.92c0-.1,0-.23,0-.38s0-.3,0-.44Z"/><path class="cls-2" d="M245.19,538.73a1.8,1.8,0,0,0,.14.53,1.33,1.33,0,0,0,.3.43,1.34,1.34,0,0,0,.42.28,1.27,1.27,0,0,0,.52.11,1.33,1.33,0,0,0,.73-.2,1.45,1.45,0,0,0,.47-.45l.41.33a1.91,1.91,0,0,1-.74.61,2.07,2.07,0,0,1-1.64,0,1.87,1.87,0,0,1-.61-.41,2.08,2.08,0,0,1-.41-.63,2,2,0,0,1-.15-.78,2.06,2.06,0,0,1,.15-.79,2,2,0,0,1,.4-.62,1.78,1.78,0,0,1,.6-.41,1.95,1.95,0,0,1,1.5,0,1.7,1.7,0,0,1,.57.41,1.63,1.63,0,0,1,.34.59,2.18,2.18,0,0,1,.12.72v.24Zm2.55-.43a1.21,1.21,0,0,0-.32-.87,1.34,1.34,0,0,0-1.39-.23,1.51,1.51,0,0,0-.42.27,1.33,1.33,0,0,0-.29.38,1.06,1.06,0,0,0-.11.45Z"/><path class="cls-2" d="M249.51,536.72l.87,3h0l1-3h.55l1,3h0l.86-3h.62l-1.18,3.74h-.59l-1-3.07h0l-1,3.07h-.6l-1.18-3.74Z"/><path class="cls-2" d="M257.2,537.6a1,1,0,0,0-.32-.36.88.88,0,0,0-.49-.14,1.33,1.33,0,0,0-.28,0,.93.93,0,0,0-.25.1.49.49,0,0,0-.18.17.44.44,0,0,0-.07.26.42.42,0,0,0,.18.38,1.94,1.94,0,0,0,.56.21l.53.13a1.34,1.34,0,0,1,.66.36.92.92,0,0,1,.25.66,1.09,1.09,0,0,1-.12.53,1,1,0,0,1-.33.36,1.37,1.37,0,0,1-.46.2,2,2,0,0,1-.54.07,1.91,1.91,0,0,1-.8-.17,1.42,1.42,0,0,1-.64-.56l.46-.31a1.18,1.18,0,0,0,.4.4,1,1,0,0,0,.58.16,1.75,1.75,0,0,0,.32,0,.78.78,0,0,0,.28-.11.55.55,0,0,0,.2-.2.51.51,0,0,0,.08-.28.43.43,0,0,0-.21-.4,2.09,2.09,0,0,0-.5-.2l-.52-.12-.26-.08a1,1,0,0,1-.32-.17.92.92,0,0,1-.26-.29.78.78,0,0,1-.11-.44,1,1,0,0,1,.42-.86,1.32,1.32,0,0,1,.45-.2,1.7,1.7,0,0,1,.51-.07,1.8,1.8,0,0,1,.73.15,1.14,1.14,0,0,1,.52.52Z"/><path class="cls-2" d="M263.4,538.17v-.1a.85.85,0,0,0-1-1,1.65,1.65,0,0,0-1.14.44l-.32-.37a2.08,2.08,0,0,1,1.58-.55,1.89,1.89,0,0,1,.53.08,1.14,1.14,0,0,1,.43.24,1.33,1.33,0,0,1,.3.42,1.48,1.48,0,0,1,.11.59v1.67c0,.14,0,.3,0,.45s0,.29,0,.39h-.51a2.58,2.58,0,0,1,0-.29c0-.11,0-.22,0-.32h0a1.49,1.49,0,0,1-.55.54,1.65,1.65,0,0,1-.77.17,1.85,1.85,0,0,1-.48-.07,1.32,1.32,0,0,1-.41-.21,1,1,0,0,1-.4-.82,1,1,0,0,1,.24-.71,1.28,1.28,0,0,1,.59-.39,2.71,2.71,0,0,1,.76-.16l.74,0Zm-.27.43a4.81,4.81,0,0,0-.5,0,2.8,2.8,0,0,0-.58.09,1.23,1.23,0,0,0-.47.24.53.53,0,0,0-.19.44.66.66,0,0,0,.07.32.8.8,0,0,0,.49.33,1.65,1.65,0,0,0,.32,0,1.31,1.31,0,0,0,.5-.1.92.92,0,0,0,.35-.26,1,1,0,0,0,.21-.38,1.49,1.49,0,0,0,.07-.47v-.27Z"/><path class="cls-2" d="M265.23,536.72h.53v.62h0a1.18,1.18,0,0,1,.3-.33,2,2,0,0,1,.37-.22,1.87,1.87,0,0,1,.4-.13,1.69,1.69,0,0,1,.38,0,2.12,2.12,0,0,1,.81.15,1.91,1.91,0,0,1,.63.41,2,2,0,0,1,.41.62,2.06,2.06,0,0,1,.15.79,2,2,0,0,1-.15.78,1.82,1.82,0,0,1-1,1,2.12,2.12,0,0,1-.81.15,2.58,2.58,0,0,1-.38,0,1.87,1.87,0,0,1-.4-.13,2,2,0,0,1-.37-.22,1.55,1.55,0,0,1-.3-.33h0v2.92h-.53Zm3.42,1.87a1.66,1.66,0,0,0-.1-.59,1.58,1.58,0,0,0-.28-.47,1.29,1.29,0,0,0-.45-.31,1.38,1.38,0,0,0-.59-.12,1.53,1.53,0,0,0-.6.12,1.38,1.38,0,0,0-.47.31,1.48,1.48,0,0,0-.31.47,1.67,1.67,0,0,0-.11.59,1.58,1.58,0,0,0,.11.58,1.38,1.38,0,0,0,.31.47,1.4,1.4,0,0,0,.47.32,1.53,1.53,0,0,0,.6.12,1.38,1.38,0,0,0,.59-.12,1.32,1.32,0,0,0,.45-.32,1.47,1.47,0,0,0,.28-.47A1.57,1.57,0,0,0,268.65,538.59Z"/><path class="cls-2" d="M270.2,536.72h.53v.62h0a1.18,1.18,0,0,1,.3-.33,2,2,0,0,1,.37-.22,2,2,0,0,1,.39-.13,1.84,1.84,0,0,1,.39,0,2.12,2.12,0,0,1,.81.15,1.77,1.77,0,0,1,.62.41,1.89,1.89,0,0,1,.42.62,2.26,2.26,0,0,1,.14.79,2.21,2.21,0,0,1-.14.78,1.9,1.9,0,0,1-1,1,2.12,2.12,0,0,1-.81.15,2.87,2.87,0,0,1-.39,0,2,2,0,0,1-.39-.13,2,2,0,0,1-.37-.22,1.55,1.55,0,0,1-.3-.33h0v2.92h-.53Zm3.42,1.87a1.92,1.92,0,0,0-.1-.59,1.42,1.42,0,0,0-.29-.47,1.25,1.25,0,0,0-.44-.31,1.38,1.38,0,0,0-.59-.12,1.46,1.46,0,0,0-.6.12,1.38,1.38,0,0,0-.47.31,1.47,1.47,0,0,0-.42,1.06,1.4,1.4,0,0,0,.11.58,1.38,1.38,0,0,0,.31.47,1.4,1.4,0,0,0,.47.32,1.46,1.46,0,0,0,.6.12,1.38,1.38,0,0,0,.59-.12,1.28,1.28,0,0,0,.44-.32,1.33,1.33,0,0,0,.29-.47A1.81,1.81,0,0,0,273.62,538.59Z"/><path class="cls-2" d="M116.6,554.46H116v-5.14h-1.9v-.52h4.37v.52h-1.9Z"/><path class="cls-2" d="M122.16,552.59a2.21,2.21,0,0,1-.14.78,1.93,1.93,0,0,1-.42.63,1.86,1.86,0,0,1-.63.41,2.07,2.07,0,0,1-.8.15,2,2,0,0,1-.79-.15,1.86,1.86,0,0,1-.63-.41,1.76,1.76,0,0,1-.41-.63,2,2,0,0,1-.15-.78,2.06,2.06,0,0,1,.15-.79,1.84,1.84,0,0,1,1-1,2,2,0,0,1,.79-.15,2.07,2.07,0,0,1,.8.15,1.72,1.72,0,0,1,.63.41,1.89,1.89,0,0,1,.42.62A2.26,2.26,0,0,1,122.16,552.59Zm-.57,0a1.92,1.92,0,0,0-.1-.59,1.42,1.42,0,0,0-.29-.47,1.25,1.25,0,0,0-.44-.31,1.38,1.38,0,0,0-.59-.12,1.41,1.41,0,0,0-.59.12,1.25,1.25,0,0,0-.44.31,1.58,1.58,0,0,0-.28.47,1.92,1.92,0,0,0-.1.59,1.81,1.81,0,0,0,.1.58,1.47,1.47,0,0,0,.28.47,1.28,1.28,0,0,0,.44.32,1.41,1.41,0,0,0,.59.12,1.38,1.38,0,0,0,.59-.12,1.28,1.28,0,0,0,.44-.32,1.33,1.33,0,0,0,.29-.47A1.81,1.81,0,0,0,121.59,552.59Z"/><path class="cls-2" d="M127,552.59a2,2,0,0,1-.15.78,2,2,0,0,1-3.68,0,2,2,0,0,1-.15-.78,2.06,2.06,0,0,1,.15-.79,2,2,0,0,1,.41-.62,1.91,1.91,0,0,1,.63-.41,2.21,2.21,0,0,1,1.6,0,1.91,1.91,0,0,1,.63.41,2,2,0,0,1,.41.62A2.06,2.06,0,0,1,127,552.59Zm-.58,0a1.66,1.66,0,0,0-.1-.59,1.58,1.58,0,0,0-.28-.47,1.29,1.29,0,0,0-.45-.31,1.37,1.37,0,0,0-.58-.12,1.38,1.38,0,0,0-.59.12,1.17,1.17,0,0,0-.44.31,1.4,1.4,0,0,0-.28.47,1.66,1.66,0,0,0-.1.59,1.57,1.57,0,0,0,.1.58,1.31,1.31,0,0,0,.28.47,1.19,1.19,0,0,0,.44.32,1.38,1.38,0,0,0,.59.12,1.37,1.37,0,0,0,.58-.12,1.32,1.32,0,0,0,.45-.32,1.47,1.47,0,0,0,.28-.47A1.57,1.57,0,0,0,126.41,552.59Z"/><path class="cls-2" d="M128.68,554.46h-.53v-6.05h.53Z"/><path class="cls-2" d="M132,551.6a1,1,0,0,0-.32-.36.86.86,0,0,0-.49-.14l-.27,0a.82.82,0,0,0-.25.1.49.49,0,0,0-.18.17.44.44,0,0,0-.07.26.42.42,0,0,0,.18.38,1.86,1.86,0,0,0,.55.21l.54.13a1.27,1.27,0,0,1,.65.36.93.93,0,0,1,.26.66,1.09,1.09,0,0,1-.12.53,1.15,1.15,0,0,1-.33.36,1.42,1.42,0,0,1-.47.2,1.88,1.88,0,0,1-.53.07,2,2,0,0,1-.81-.17,1.48,1.48,0,0,1-.64-.56l.46-.31a1.21,1.21,0,0,0,.41.4,1,1,0,0,0,.58.16,1.65,1.65,0,0,0,.31,0,.83.83,0,0,0,.29-.11.64.64,0,0,0,.2-.2.51.51,0,0,0,.08-.28.43.43,0,0,0-.21-.4,2,2,0,0,0-.51-.2l-.51-.12-.26-.08a.9.9,0,0,1-.32-.17,1.08,1.08,0,0,1-.27-.29.87.87,0,0,1-.11-.44,1,1,0,0,1,.12-.5.9.9,0,0,1,.31-.36,1.35,1.35,0,0,1,.44-.2,1.81,1.81,0,0,1,.52-.07,1.72,1.72,0,0,1,.72.15,1.05,1.05,0,0,1,.52.52Z"/><path class="cls-2" d="M134.48,551.11a.44.44,0,0,1-.12.3.43.43,0,0,1-.62,0,.43.43,0,0,1,0-.6.43.43,0,0,1,.62,0A.44.44,0,0,1,134.48,551.11Zm0,3a.44.44,0,0,1-.12.3.43.43,0,0,1-.62,0,.44.44,0,0,1-.12-.3.41.41,0,0,1,.12-.3.41.41,0,0,1,.62,0A.41.41,0,0,1,134.48,554.08Z"/><path class="cls-2" d="M138.22,554.46h-.67L140,548.8h.56l2.47,5.66h-.68l-.62-1.49h-2.9Zm.84-2h2.46l-1.23-3Z"/><path class="cls-2" d="M147.43,554.46h-.53v-.62h0a1.55,1.55,0,0,1-.3.33,2,2,0,0,1-.37.22,2,2,0,0,1-.39.13,2.87,2.87,0,0,1-.39,0,2.12,2.12,0,0,1-.81-.15,1.9,1.9,0,0,1-1-1,2,2,0,0,1-.14-.78,2.05,2.05,0,0,1,.14-.79,1.89,1.89,0,0,1,.42-.62,1.77,1.77,0,0,1,.62-.41,2.12,2.12,0,0,1,.81-.15,1.84,1.84,0,0,1,.39,0,2,2,0,0,1,.39.13,2,2,0,0,1,.37.22,1.18,1.18,0,0,1,.3.33h0v-2.93h.53ZM144,552.59a1.57,1.57,0,0,0,.1.58,1.47,1.47,0,0,0,.28.47,1.42,1.42,0,0,0,.45.32,1.38,1.38,0,0,0,.59.12A1.45,1.45,0,0,0,146,554a1.35,1.35,0,0,0,.48-.32,1.38,1.38,0,0,0,.31-.47,1.4,1.4,0,0,0,.11-.58,1.47,1.47,0,0,0-.42-1.06,1.33,1.33,0,0,0-.48-.31,1.45,1.45,0,0,0-.59-.12,1.44,1.44,0,0,0-1,.43,1.58,1.58,0,0,0-.28.47A1.66,1.66,0,0,0,144,552.59Z"/><path class="cls-2" d="M152.44,552.59a2.21,2.21,0,0,1-.14.78,1.9,1.9,0,0,1-1,1,2.12,2.12,0,0,1-.81.15,2,2,0,0,1-.79-.15A1.86,1.86,0,0,1,149,554a1.76,1.76,0,0,1-.41-.63,2,2,0,0,1-.15-.78,2.06,2.06,0,0,1,.15-.79,1.84,1.84,0,0,1,1-1,2,2,0,0,1,.79-.15,2.12,2.12,0,0,1,.81.15,1.77,1.77,0,0,1,.62.41,1.89,1.89,0,0,1,.42.62A2.26,2.26,0,0,1,152.44,552.59Zm-.57,0a1.92,1.92,0,0,0-.1-.59,1.42,1.42,0,0,0-.29-.47,1.25,1.25,0,0,0-.44-.31,1.38,1.38,0,0,0-.59-.12,1.41,1.41,0,0,0-.59.12,1.25,1.25,0,0,0-.44.31,1.58,1.58,0,0,0-.28.47,1.92,1.92,0,0,0-.1.59,1.81,1.81,0,0,0,.1.58,1.47,1.47,0,0,0,.28.47,1.28,1.28,0,0,0,.44.32,1.41,1.41,0,0,0,.59.12A1.38,1.38,0,0,0,151,554a1.28,1.28,0,0,0,.44-.32,1.33,1.33,0,0,0,.29-.47A1.81,1.81,0,0,0,151.87,552.59Z"/><path class="cls-2" d="M153.48,548.41H154v2.93h0a1.18,1.18,0,0,1,.3-.33,2,2,0,0,1,.37-.22,1.87,1.87,0,0,1,.4-.13,1.69,1.69,0,0,1,.38,0,2.12,2.12,0,0,1,.81.15,1.91,1.91,0,0,1,.63.41,2,2,0,0,1,.41.62,2.06,2.06,0,0,1,.15.79,2,2,0,0,1-.15.78,1.82,1.82,0,0,1-1,1,2.12,2.12,0,0,1-.81.15,2.58,2.58,0,0,1-.38,0,1.87,1.87,0,0,1-.4-.13,2,2,0,0,1-.37-.22,1.55,1.55,0,0,1-.3-.33h0v.62h-.53Zm3.42,4.18a1.66,1.66,0,0,0-.1-.59,1.58,1.58,0,0,0-.28-.47,1.29,1.29,0,0,0-.45-.31,1.38,1.38,0,0,0-.59-.12,1.5,1.5,0,0,0-.6.12,1.38,1.38,0,0,0-.47.31,1.48,1.48,0,0,0-.31.47,1.67,1.67,0,0,0-.11.59,1.58,1.58,0,0,0,.11.58,1.38,1.38,0,0,0,.31.47,1.4,1.4,0,0,0,.47.32,1.5,1.5,0,0,0,.6.12,1.38,1.38,0,0,0,.59-.12,1.32,1.32,0,0,0,.45-.32,1.47,1.47,0,0,0,.28-.47A1.57,1.57,0,0,0,156.9,552.59Z"/><path class="cls-2" d="M158.82,552.73a1.54,1.54,0,0,0,.14.53,1.3,1.3,0,0,0,.29.43,1.39,1.39,0,0,0,.43.28,1.27,1.27,0,0,0,.52.11,1.35,1.35,0,0,0,.73-.2,1.56,1.56,0,0,0,.47-.45l.4.33a1.91,1.91,0,0,1-.74.61,2,2,0,0,1-.86.19,2,2,0,0,1-.78-.15,2,2,0,0,1-.61-.41,2.05,2.05,0,0,1-.4-.63,2,2,0,0,1-.15-.78,2.26,2.26,0,0,1,.14-.79,2,2,0,0,1,.4-.62,1.78,1.78,0,0,1,.6-.41,2,2,0,0,1,1.51,0,1.72,1.72,0,0,1,.91,1,2.18,2.18,0,0,1,.12.72v.24Zm2.54-.43a1.12,1.12,0,0,0-1.21-1.2,1.24,1.24,0,0,0-.5.1,1.51,1.51,0,0,0-.42.27,1.53,1.53,0,0,0-.29.38,1,1,0,0,0-.1.45Z"/><path class="cls-2" d="M165.4,548.8h1.88a3.61,3.61,0,0,1,1.06.17,3.05,3.05,0,0,1,.95.53,2.8,2.8,0,0,1,.7.89,2.86,2.86,0,0,1,.26,1.24,2.83,2.83,0,0,1-.26,1.24,2.65,2.65,0,0,1-.7.88,2.89,2.89,0,0,1-.95.54,3.61,3.61,0,0,1-1.06.17H165.4Zm.57,5.13h1.12a2.92,2.92,0,0,0,1.12-.19,2.41,2.41,0,0,0,.8-.52,2.22,2.22,0,0,0,.47-.74,2.45,2.45,0,0,0,.15-.85,2.41,2.41,0,0,0-.15-.85A2.22,2.22,0,0,0,169,550a2.26,2.26,0,0,0-.8-.52,2.91,2.91,0,0,0-1.12-.2H166Z"/><path class="cls-2" d="M171.35,551.88c0-.16,0-.33,0-.5s0-.39,0-.66h.52v.69h0a1.18,1.18,0,0,1,.16-.29,1.48,1.48,0,0,1,.25-.25,1.06,1.06,0,0,1,.35-.18,1.23,1.23,0,0,1,.44-.07,1.48,1.48,0,0,1,.39,0l-.1.52a.8.8,0,0,0-.3,0,1.14,1.14,0,0,0-.52.11,1.07,1.07,0,0,0-.36.3,1.26,1.26,0,0,0-.22.39,1.44,1.44,0,0,0-.06.4v2.11h-.53Z"/><path class="cls-2" d="M176.43,552.17v-.1a.85.85,0,0,0-1-1,1.69,1.69,0,0,0-1.15.44l-.32-.37a2.1,2.1,0,0,1,1.59-.55,1.82,1.82,0,0,1,.52.08,1.18,1.18,0,0,1,.44.24,1.17,1.17,0,0,1,.29.42,1.32,1.32,0,0,1,.12.59v1.67a3.46,3.46,0,0,0,0,.45,3.15,3.15,0,0,0,0,.39h-.51a2.54,2.54,0,0,1,0-.29c0-.11,0-.22,0-.32h0a1.4,1.4,0,0,1-.54.54,1.67,1.67,0,0,1-.78.17,2,2,0,0,1-.48-.07,1.44,1.44,0,0,1-.41-.21,1.19,1.19,0,0,1-.29-.34,1.06,1.06,0,0,1-.1-.48,1,1,0,0,1,.23-.71,1.39,1.39,0,0,1,.59-.39,2.71,2.71,0,0,1,.76-.16l.74,0Zm-.27.43a4.71,4.71,0,0,0-.5,0,2.7,2.7,0,0,0-.58.09,1.23,1.23,0,0,0-.47.24.54.54,0,0,0-.2.44.66.66,0,0,0,.08.32.8.8,0,0,0,.2.21.74.74,0,0,0,.29.12,1.65,1.65,0,0,0,.31,0,1.27,1.27,0,0,0,.5-.1,1,1,0,0,0,.36-.26,1.28,1.28,0,0,0,.21-.38,1.84,1.84,0,0,0,.07-.47v-.27Z"/><path class="cls-2" d="M178.42,550.72l.86,3h0l1-3h.54l1,3h0l.86-3h.63l-1.19,3.74h-.59l-1-3.07h0l-1,3.07H179l-1.19-3.74Z"/><path class="cls-2" d="M188.82,552.17v-.1a.85.85,0,0,0-1-1,1.65,1.65,0,0,0-1.14.44l-.32-.37a2.08,2.08,0,0,1,1.58-.55,1.77,1.77,0,0,1,.52.08,1.11,1.11,0,0,1,.44.24,1.33,1.33,0,0,1,.3.42,1.48,1.48,0,0,1,.11.59v1.67a3.46,3.46,0,0,0,0,.45c0,.16,0,.29,0,.39h-.51a2.54,2.54,0,0,1,0-.29c0-.11,0-.22,0-.32h0a1.49,1.49,0,0,1-.55.54,1.65,1.65,0,0,1-.77.17,1.85,1.85,0,0,1-.48-.07,1.38,1.38,0,0,1-.42-.21,1,1,0,0,1-.28-.34,1,1,0,0,1-.11-.48,1,1,0,0,1,.23-.71,1.36,1.36,0,0,1,.6-.39,2.63,2.63,0,0,1,.76-.16l.74,0Zm-.27.43a4.71,4.71,0,0,0-.5,0,2.8,2.8,0,0,0-.58.09,1.23,1.23,0,0,0-.47.24.54.54,0,0,0-.2.44.66.66,0,0,0,.08.32.8.8,0,0,0,.2.21.74.74,0,0,0,.29.12,1.65,1.65,0,0,0,.31,0,1.24,1.24,0,0,0,.5-.1,1,1,0,0,0,.57-.64,1.49,1.49,0,0,0,.07-.47v-.27Z"/><path class="cls-2" d="M191.16,550.72c0,.1,0,.2,0,.3v.3h0a1,1,0,0,1,.22-.28,1.29,1.29,0,0,1,.3-.22,1.94,1.94,0,0,1,.36-.15,1.64,1.64,0,0,1,.37,0,1.39,1.39,0,0,1,1.07.38,1.61,1.61,0,0,1,.34,1.08v2.38h-.53v-2.07a1.8,1.8,0,0,0-.21-1,.89.89,0,0,0-.8-.33l-.23,0a1,1,0,0,0-.39.18,1.32,1.32,0,0,0-.36.43,1.62,1.62,0,0,0-.16.8v1.92h-.53v-2.92c0-.1,0-.23,0-.38s0-.3,0-.44Z"/><path class="cls-2" d="M198.92,554.46h-.53v-.62h0a1.87,1.87,0,0,1-.3.33,2,2,0,0,1-.37.22,1.87,1.87,0,0,1-.4.13,2.58,2.58,0,0,1-.38,0,1.89,1.89,0,0,1-1.85-1.19,2,2,0,0,1-.15-.78,2.06,2.06,0,0,1,.15-.79,2,2,0,0,1,.41-.62,1.91,1.91,0,0,1,.63-.41,2.09,2.09,0,0,1,.81-.15,1.69,1.69,0,0,1,.38,0,1.87,1.87,0,0,1,.4.13,2,2,0,0,1,.37.22,1.36,1.36,0,0,1,.3.33h0v-2.93h.53Zm-3.42-1.87a1.57,1.57,0,0,0,.1.58,1.47,1.47,0,0,0,.28.47,1.32,1.32,0,0,0,.45.32,1.38,1.38,0,0,0,.59.12,1.53,1.53,0,0,0,1.07-.44,1.54,1.54,0,0,0,.31-.47,1.58,1.58,0,0,0,.11-.58,1.47,1.47,0,0,0-.42-1.06,1.42,1.42,0,0,0-.48-.31,1.45,1.45,0,0,0-.59-.12,1.38,1.38,0,0,0-.59.12,1.29,1.29,0,0,0-.45.31,1.58,1.58,0,0,0-.28.47A1.66,1.66,0,0,0,195.5,552.59Z"/><path class="cls-2" d="M202.55,554.46h-.67l2.46-5.66h.56l2.46,5.66h-.67l-.62-1.49h-2.9Zm.84-2h2.45l-1.22-3Z"/><path class="cls-2" d="M211.75,554.46h-.52v-.62h0a2.35,2.35,0,0,1-.3.33,2,2,0,0,1-.37.22,1.87,1.87,0,0,1-.4.13,2.58,2.58,0,0,1-.39,0,1.88,1.88,0,0,1-1.84-1.19,2,2,0,0,1-.15-.78,2.06,2.06,0,0,1,.15-.79,2,2,0,0,1,.41-.62,1.91,1.91,0,0,1,.63-.41,2.07,2.07,0,0,1,.8-.15,1.72,1.72,0,0,1,.39,0,1.87,1.87,0,0,1,.4.13,2,2,0,0,1,.37.22,1.6,1.6,0,0,1,.3.33h0v-2.93h.52Zm-3.41-1.87a1.57,1.57,0,0,0,.1.58,1.47,1.47,0,0,0,.28.47,1.32,1.32,0,0,0,.45.32,1.37,1.37,0,0,0,.58.12,1.46,1.46,0,0,0,.6-.12,1.44,1.44,0,0,0,.48-.32,1.54,1.54,0,0,0,.31-.47,1.58,1.58,0,0,0,.11-.58,1.47,1.47,0,0,0-.42-1.06,1.42,1.42,0,0,0-.48-.31,1.46,1.46,0,0,0-.6-.12,1.37,1.37,0,0,0-.58.12,1.29,1.29,0,0,0-.45.31,1.58,1.58,0,0,0-.28.47A1.66,1.66,0,0,0,208.34,552.59Z"/><path class="cls-2" d="M216.77,552.59a2,2,0,0,1-.15.78,1.91,1.91,0,0,1-.41.63,1.86,1.86,0,0,1-.63.41,2,2,0,0,1-2.64-1,2,2,0,0,1-.15-.78,2.06,2.06,0,0,1,.15-.79,2,2,0,0,1,.41-.62,1.91,1.91,0,0,1,.63-.41,2.21,2.21,0,0,1,1.6,0,1.72,1.72,0,0,1,.63.41,1.86,1.86,0,0,1,.41.62A2.06,2.06,0,0,1,216.77,552.59Zm-.57,0a1.67,1.67,0,0,0-.11-.59,1.4,1.4,0,0,0-.28-.47,1.25,1.25,0,0,0-.44-.31,1.41,1.41,0,0,0-.59-.12,1.38,1.38,0,0,0-.59.12,1.25,1.25,0,0,0-.44.31,1.58,1.58,0,0,0-.28.47,1.66,1.66,0,0,0-.1.59,1.57,1.57,0,0,0,.1.58,1.47,1.47,0,0,0,.28.47,1.28,1.28,0,0,0,.44.32,1.38,1.38,0,0,0,.59.12,1.41,1.41,0,0,0,.59-.12,1.28,1.28,0,0,0,.44-.32,1.31,1.31,0,0,0,.28-.47A1.58,1.58,0,0,0,216.2,552.59Z"/><path class="cls-2" d="M217.81,548.41h.53v2.93h0a1.18,1.18,0,0,1,.3-.33,2,2,0,0,1,.37-.22,1.79,1.79,0,0,1,.39-.13,1.84,1.84,0,0,1,.39,0,2.16,2.16,0,0,1,.81.15,1.77,1.77,0,0,1,.62.41,1.72,1.72,0,0,1,.41.62,2.06,2.06,0,0,1,.15.79,2,2,0,0,1-.15.78,1.76,1.76,0,0,1-.41.63,1.92,1.92,0,0,1-.62.41,2.16,2.16,0,0,1-.81.15,2.87,2.87,0,0,1-.39,0,1.79,1.79,0,0,1-.39-.13,2,2,0,0,1-.37-.22,1.55,1.55,0,0,1-.3-.33h0v.62h-.53Zm3.42,4.18a1.92,1.92,0,0,0-.1-.59,1.61,1.61,0,0,0-.29-.47,1.25,1.25,0,0,0-.44-.31,1.38,1.38,0,0,0-.59-.12,1.46,1.46,0,0,0-.6.12,1.38,1.38,0,0,0-.47.31,1.53,1.53,0,0,0-.43,1.06,1.4,1.4,0,0,0,.12.58,1.38,1.38,0,0,0,.31.47,1.4,1.4,0,0,0,.47.32,1.46,1.46,0,0,0,.6.12,1.38,1.38,0,0,0,.59-.12,1.28,1.28,0,0,0,.44-.32,1.49,1.49,0,0,0,.29-.47A1.81,1.81,0,0,0,221.23,552.59Z"/><path class="cls-2" d="M223.15,552.73a1.53,1.53,0,0,0,.13.53,1.5,1.5,0,0,0,.3.43,1.34,1.34,0,0,0,.42.28,1.31,1.31,0,0,0,.52.11,1.33,1.33,0,0,0,.73-.2,1.36,1.36,0,0,0,.47-.45l.41.33a1.91,1.91,0,0,1-.74.61,2.07,2.07,0,0,1-1.64,0,1.87,1.87,0,0,1-.61-.41,2.08,2.08,0,0,1-.41-.63,2.21,2.21,0,0,1-.14-.78,2.05,2.05,0,0,1,.14-.79,2,2,0,0,1,.4-.62,1.78,1.78,0,0,1,.6-.41,1.85,1.85,0,0,1,.74-.15,1.81,1.81,0,0,1,.76.15,1.61,1.61,0,0,1,.57.41,1.65,1.65,0,0,1,.35.59,2.18,2.18,0,0,1,.12.72v.24Zm2.54-.43a1.21,1.21,0,0,0-.32-.87,1.34,1.34,0,0,0-1.39-.23,1.51,1.51,0,0,0-.42.27,1.33,1.33,0,0,0-.29.38,1.06,1.06,0,0,0-.11.45Z"/><path class="cls-2" d="M230.38,554.46h-.58V548.8h.58Z"/><path class="cls-2" d="M232.45,554.46h-.53v-6.05h.53Z"/><path class="cls-2" d="M234.45,554.46h-.53v-6.05h.53Z"/><path class="cls-2" d="M238.51,554.46c0-.1,0-.2,0-.3s0-.2,0-.3h0a1.23,1.23,0,0,1-.23.28,1.29,1.29,0,0,1-.3.22,1.42,1.42,0,0,1-.36.14,1.19,1.19,0,0,1-.37.06,1.37,1.37,0,0,1-1.06-.38,1.59,1.59,0,0,1-.35-1.09v-2.37h.53v2.07a3,3,0,0,0,0,.55,1,1,0,0,0,.16.41.74.74,0,0,0,.31.24,1.24,1.24,0,0,0,.5.09l.22,0a1.08,1.08,0,0,0,.39-.17,1.31,1.31,0,0,0,.36-.43,1.62,1.62,0,0,0,.16-.8v-1.92H239v2.92c0,.1,0,.23,0,.38s0,.3,0,.44Z"/><path class="cls-2" d="M242.31,551.6a1,1,0,0,0-.31-.36.88.88,0,0,0-.49-.14,1.33,1.33,0,0,0-.28,0,.93.93,0,0,0-.25.1.49.49,0,0,0-.18.17.44.44,0,0,0-.07.26.4.4,0,0,0,.19.38,1.75,1.75,0,0,0,.55.21l.53.13a1.27,1.27,0,0,1,.65.36.9.9,0,0,1,.27.66,1.09,1.09,0,0,1-.13.53,1,1,0,0,1-.33.36,1.37,1.37,0,0,1-.46.2,2.05,2.05,0,0,1-1.35-.1,1.51,1.51,0,0,1-.63-.56l.45-.31a1.3,1.3,0,0,0,.41.4,1,1,0,0,0,.58.16,1.75,1.75,0,0,0,.32,0,.78.78,0,0,0,.28-.11.55.55,0,0,0,.2-.2.51.51,0,0,0,.08-.28.43.43,0,0,0-.21-.4,2.09,2.09,0,0,0-.5-.2l-.51-.12a1.23,1.23,0,0,1-.26-.08.9.9,0,0,1-.32-.17.84.84,0,0,1-.27-.29.78.78,0,0,1-.12-.44,1.05,1.05,0,0,1,.43-.86,1.32,1.32,0,0,1,.45-.2,1.7,1.7,0,0,1,.51-.07,1.8,1.8,0,0,1,.73.15,1.14,1.14,0,0,1,.52.52Z"/><path class="cls-2" d="M245.76,551.2h-1.08v2.2a1.69,1.69,0,0,0,0,.35.56.56,0,0,0,.12.2.37.37,0,0,0,.17.1.78.78,0,0,0,.22,0,1.45,1.45,0,0,0,.28,0,1,1,0,0,0,.26-.11l0,.49a1.73,1.73,0,0,1-.71.14,1.75,1.75,0,0,1-.32,0,.73.73,0,0,1-.3-.16.69.69,0,0,1-.22-.3,1.21,1.21,0,0,1-.09-.5V551.2h-.79v-.48h.79v-1.06h.53v1.06h1.08Z"/><path class="cls-2" d="M246.61,551.88c0-.16,0-.33,0-.5s0-.39,0-.66h.52v.69h0a1.14,1.14,0,0,1,.15-.29,1.24,1.24,0,0,1,.26-.25.92.92,0,0,1,.34-.18,1.23,1.23,0,0,1,.44-.07,1.62,1.62,0,0,1,.4,0l-.11.52a.8.8,0,0,0-.3,0,1.17,1.17,0,0,0-.52.11,1.2,1.2,0,0,0-.57.69,1.16,1.16,0,0,0-.07.4v2.11h-.53Z"/><path class="cls-2" d="M251.69,552.17v-.1a.85.85,0,0,0-1-1,1.65,1.65,0,0,0-1.14.44l-.32-.37a2.08,2.08,0,0,1,1.58-.55,1.89,1.89,0,0,1,.53.08,1.14,1.14,0,0,1,.43.24,1.33,1.33,0,0,1,.3.42,1.48,1.48,0,0,1,.11.59v1.67a3.46,3.46,0,0,0,0,.45c0,.16,0,.29,0,.39h-.51a2.54,2.54,0,0,1,0-.29c0-.11,0-.22,0-.32h0a1.49,1.49,0,0,1-.55.54,1.65,1.65,0,0,1-.77.17,1.85,1.85,0,0,1-.48-.07,1.38,1.38,0,0,1-.42-.21,1.16,1.16,0,0,1-.28-.34,1,1,0,0,1-.11-.48,1,1,0,0,1,.23-.71,1.36,1.36,0,0,1,.6-.39,2.63,2.63,0,0,1,.76-.16l.74,0Zm-.27.43a4.81,4.81,0,0,0-.5,0,2.8,2.8,0,0,0-.58.09,1.23,1.23,0,0,0-.47.24.54.54,0,0,0-.2.44.66.66,0,0,0,.08.32.7.7,0,0,0,.21.21.65.65,0,0,0,.28.12,1.65,1.65,0,0,0,.31,0,1.24,1.24,0,0,0,.5-.1,1,1,0,0,0,.57-.64,1.49,1.49,0,0,0,.07-.47v-.27Z"/><path class="cls-2" d="M255.46,551.2h-1.08v2.2a1.16,1.16,0,0,0,0,.35.43.43,0,0,0,.11.2.37.37,0,0,0,.17.1.78.78,0,0,0,.22,0,1.35,1.35,0,0,0,.28,0,1.09,1.09,0,0,0,.27-.11l0,.49a1.73,1.73,0,0,1-.71.14,1.87,1.87,0,0,1-.32,0,.73.73,0,0,1-.3-.16.78.78,0,0,1-.22-.3,1.21,1.21,0,0,1-.09-.5V551.2h-.79v-.48h.79v-1.06h.53v1.06h1.08Z"/><path class="cls-2" d="M260,552.59a2,2,0,0,1-.15.78,1.91,1.91,0,0,1-.41.63,1.86,1.86,0,0,1-.63.41,2.07,2.07,0,0,1-.8.15,2.11,2.11,0,0,1-.8-.15,1.9,1.9,0,0,1-1-1,2.21,2.21,0,0,1-.14-.78,2.26,2.26,0,0,1,.14-.79,1.89,1.89,0,0,1,.42-.62,1.77,1.77,0,0,1,.62-.41,2.11,2.11,0,0,1,.8-.15,2.07,2.07,0,0,1,.8.15,1.72,1.72,0,0,1,.63.41,1.86,1.86,0,0,1,.41.62A2.06,2.06,0,0,1,260,552.59Zm-.57,0a1.92,1.92,0,0,0-.1-.59,1.42,1.42,0,0,0-.29-.47,1.25,1.25,0,0,0-.44-.31,1.41,1.41,0,0,0-.59-.12,1.38,1.38,0,0,0-.59.12,1.25,1.25,0,0,0-.44.31,1.58,1.58,0,0,0-.28.47,1.92,1.92,0,0,0-.1.59,1.81,1.81,0,0,0,.1.58,1.47,1.47,0,0,0,.28.47,1.28,1.28,0,0,0,.44.32,1.38,1.38,0,0,0,.59.12,1.41,1.41,0,0,0,.59-.12,1.28,1.28,0,0,0,.44-.32,1.33,1.33,0,0,0,.29-.47A1.81,1.81,0,0,0,259.47,552.59Z"/><path class="cls-2" d="M261.14,551.88c0-.16,0-.33,0-.5s0-.39,0-.66h.52v.69h0a1.18,1.18,0,0,1,.16-.29,1.48,1.48,0,0,1,.25-.25,1.06,1.06,0,0,1,.35-.18,1.23,1.23,0,0,1,.44-.07,1.48,1.48,0,0,1,.39,0l-.1.52a.8.8,0,0,0-.3,0,1.14,1.14,0,0,0-.52.11,1.07,1.07,0,0,0-.36.3,1.26,1.26,0,0,0-.22.39,1.44,1.44,0,0,0-.06.4v2.11h-.53Z"/><path id="Dropshadow" class="cls-3" d="M599.11,183.25c-10.28-3.1-61.05,21.39-71.1,26.32a2.34,2.34,0,0,0-1.22,2.72L542.48,269c.38,1.37,6.63,0,7.93-.57,13.37-5.79,72.44-31.95,86.1-48.94C653,198.94,610.53,186.69,599.11,183.25Z"/><g id="Mug"><g id="Handle"><path id="Base" class="cls-4" d="M585.91,137.53c-5.1,0-7.06,6.87-13.25,3.64-1.25-.65-4.06,16.58-3.87,18.05.24,1.88-.83,13-.22,12.37a26,26,0,0,1,3.85-3.42c2.12-1.44,1.49-14,3.14-15.94,5.52-6.43,11.84-8.78,16.44-6.43,4.29,2.19,4.21,7,4.21,10.91,0,8.57-2,17.09-10.35,29.11-2.62,3.77-20.7,31.37-22.45,33.08-1,1-3.87,22.31-1.27,21.43,4.88-1.67,8.34-15.22,13.42-22.65,3-4.32,17.15-22.48,19.52-27.15,7.21-14.19,11.92-23.2,11.92-35.22,0-5.55-1.45-8.06-5.9-12.58C596.94,138.52,589.86,137.53,585.91,137.53Z"/><path id="Shadow" class="cls-5" d="M585.91,137.53c-5.1,0-7.06,6.87-13.25,3.64-1.25-.65-4.06,16.58-3.87,18.05.24,1.88-.83,13-.22,12.37a26,26,0,0,1,3.85-3.42c2.12-1.44,1.49-14,3.14-15.94,5.52-6.43,11.84-8.78,16.44-6.43,4.29,2.19,4.21,7,4.21,10.91,0,8.57-2,17.09-10.35,29.11-2.62,3.77-20.7,31.37-22.45,33.08-1,1-3.87,22.31-1.27,21.43,4.88-1.67,8.34-15.22,13.42-22.65,3-4.32,17.15-22.48,19.52-27.15,7.21-14.19,11.92-23.2,11.92-35.22,0-5.55-1.57-8.06-5.9-12.58C597,138.46,589.86,137.53,585.91,137.53Z"/></g><path id="Base-2" data-name="Base" class="cls-4" d="M463.67,121.23c-1.13,1.26.64,5.45,1.05,9.18.23,2.06,3.85,30,4.26,33.85.9,8.37,4.59,61.9,5.27,70.76.58,7.4,1,15.26,5.17,21.63,3.06,4.66,10.72,10.57,16.28,13,6.39,2.73,16.11,4.95,27.77,4.95,9.7,0,19.87-2.88,28.25-6.65,5.19-2.32,8.94-8.48,10.54-11.91a64,64,0,0,0,4.35-15.66c1.4-9.29,4.19-35.58,4.58-43.39a455,455,0,0,1,5.94-55.77c2.69-14.87,3.1-10.9,2.84-19.15,0-1.37-4.71-16.75-59.69-16.75C469.32,105.27,466.42,118.15,463.67,121.23Z"/><path id="Shadow-2" data-name="Shadow" class="cls-6" d="M463.67,121.23c-1.13,1.26.64,5.45,1.05,9.18.23,2.06,3.85,30,4.26,33.85.9,8.37,4.59,61.9,5.27,70.76.58,7.4.82,15.37,5.17,21.63,4.49,6.45,10.24,9.87,16.28,13,5.72,2.91,16.11,4.95,27.77,4.95,9.7,0,19.87-2.88,28.25-6.65,5.19-2.32,8.94-8.48,10.54-11.91s3.11-8.2,4.35-15.66c1.54-9.27,4.19-35.58,4.58-43.39a455,455,0,0,1,5.94-55.77c2.69-14.87,3.1-10.9,2.84-19.15,0-1.37-4.71-16.75-59.69-16.75C469.32,105.27,466.42,118.15,463.67,121.23Z"/><path id="Inner-shadow" class="cls-7" d="M467.33,126.86c0,10.48,26.57,15.8,57.9,15.62s44.76-6.27,49.2-12.43c2.42-3.16,17.1-24.7-49.47-24.74C449.26,105.27,467.33,126.86,467.33,126.86Z"/></g><g id="Coffee"><path id="Coffee-2" data-name="Coffee" class="cls-8" d="M472.91,132.36c0,7.12,21,10.24,52.32,10.12s44-5.48,44.76-10.71c-7.46-3.59-15.45-7.71-44.81-7.71C485.11,124.06,472.91,132.36,472.91,132.36Z"/><path id="Highlight2" class="cls-9" d="M550.21,128.3s11.94,2.22,12.64,2.8,3.39,1.76-3.39,3.75-14.74,3.39-14.74,3.39,15.65-4.74,16.36-5.62S553.26,129.23,550.21,128.3Z"/><path id="Highlight1" class="cls-9" d="M504,127s-11,.94-14.16,2-9.71,3.51-9.71,3.51,9.36-2.81,12.28-3.45S504,127,504,127Z"/></g><path id="Mug-top" class="cls-10" d="M580,120.3c0-2.28-3.28-4.84-5.21-6.08a36.78,36.78,0,0,0-4.58-2.52c-4.06-1.86-24.91-6.65-47.24-6.65-33.67,0-48.27,5.47-51.65,7s-7.38,2.55-8.06,10.17,7.05,21.94,58.39,21.8S580,131.06,580,120.3Zm-58.37,21.47c-47.38.13-55.68-13.32-55.68-20.38,0-9.2,37.16-14.24,55.68-14.24a207.83,207.83,0,0,1,44.8,5.51c5.15,1.4,9.21,4,9.21,8.11C575.68,127,569.05,141.64,521.67,141.77Z"/><path class="cls-11" d="M466.32,114.84a11.88,11.88,0,0,0-2.65,6.39,22,22,0,0,0,.8,7.07s3.95,31.23,4.23,33.6,4.12,53.29,4.12,53.29,23.48.84,27.11-29c2.22-18.27,29.36-20.66,31.68-21,16-2.38,27-10.09,31.13-15.36s6-12.91,6-12.91a71.52,71.52,0,0,1-20.14,5.49c-10.64,1.09-35.06,3.46-50.66.43s-20.58-3.81-25-6.82-7.31-8.62-7.47-10-.39-4.32-.51-6.55a9.12,9.12,0,0,1,1.39-4.57"/><path class="cls-9" d="M523.08,107.15s11.91.53,14.51.79-1.88-1.52-5-1.64-6.42-.58-11.1-.46-14.39,2-14.39,2,10.52-.74,16-.74"/><path id="Dropshadow-2" data-name="Dropshadow" class="cls-12" d="M165.13,334,344,230.32c2.28-1.32,7.67-3,10-1.63L635.08,391.05c4.9,2.85,5.11,11.33.19,14.15L456.79,507.44c-2.28,1.31-12.57,2-14.84.71L165.11,346.68A7.35,7.35,0,0,1,165.13,334Z"/><g id="Tablet"><g id="Back"><path class="cls-13" d="M163.81,336.46,341.9,233.24a7.72,7.72,0,0,1,7.75,0L627.51,394.71a7.72,7.72,0,0,1,0,13.38L456.09,506c-7.55,5.38-19.19,2.54-24.6-.61L167.07,349.81c-6.82-2.73-6.82-8.78-6.82-8.78S161.94,337.54,163.81,336.46Z"/></g><path id="Frame" class="cls-14" d="M163.81,332.25,341.9,229a7.72,7.72,0,0,1,7.75,0L627.51,390.5a7.72,7.72,0,0,1,0,13.38l-172.52,98.6a22.34,22.34,0,0,1-22.34-.09L163.79,345.6A7.72,7.72,0,0,1,163.81,332.25Z"/><path id="Border" class="cls-15" d="M443.86,505.65a22.56,22.56,0,0,1-11.37-3.06L163.67,345.8a8,8,0,0,1,0-13.76l.12.21-.12-.21L341.78,228.82a8,8,0,0,1,8,0L627.63,390.3a8,8,0,0,1,0,13.78L455.06,502.69A22.64,22.64,0,0,1,443.86,505.65ZM345.77,228.22a7.48,7.48,0,0,0-3.75,1L163.93,332.45a7.48,7.48,0,0,0,0,12.94L432.72,502.18a22.16,22.16,0,0,0,22.11.1l172.52-98.61a7.48,7.48,0,0,0,0-13L349.53,229.23A7.52,7.52,0,0,0,345.77,228.22Z"/></g><polygon id="ScreenBG" class="cls-16" points="346.12 256.71 201.98 340.91 434.52 477.02 586.76 393.77 346.12 256.71"/><g id="Text"><polygon class="cls-8" points="373 353.53 314.14 387.51 310.27 385.24 369.12 351.26 373 353.53"/><polygon class="cls-8" points="381.39 358.44 322.54 392.43 318.66 390.15 377.51 356.17 381.39 358.44"/><polygon class="cls-8" points="389.78 363.36 330.93 397.34 327.05 395.07 385.9 361.09 389.78 363.36"/><polygon class="cls-8" points="398.18 368.27 339.32 402.25 335.44 399.98 394.3 366 398.18 368.27"/></g><g id="Dropshadow-3" data-name="Dropshadow"><path class="cls-17" d="M461.83,407.8a.87.87,0,0,0,.76.14l1.5-.32s1.6-.73,1.63-.15-.72,5.24-1.05,5.18.09.53.79.38a8.07,8.07,0,0,1,1.26-.17s.57.83.87.82a4.8,4.8,0,0,0,.85,0c.24-.06,2-.91,2-.91l5.33-2.2a7.41,7.41,0,0,0,4.93-1.58c2.8-1.92,16.4-8.58,18-8.18s5.63-3,6-1.47a20.63,20.63,0,0,1,0,5s9.27-3.93,10.21-5.39,4.57-9.86,4.72-11.42,8.38-12.37,7.6-19,3.61-6.74,3.61-6.74l-14.93-8.51s-5.06,3.48-8.18,3.64-14.19,5.31-15.6,5.15-20.82,13.61-20.82,13.61l12.05,24.59-16,5.86-5.48,1.67"/><path class="cls-18" d="M459.87,379.34c-5.51.38-12.09,3.81-13.34,4.13s-4.37,1.52-5.62,3c-1.07,1.31-.42,1.67-.21,1.74l-2.09-.64-18.14-11.08L407.38,368l-71.26,41.47,39.39,23.12,31.31-19.43,31.48-20.72c.7,0,2.69-.08,3.7,0,1.25.1,2.5-3.07,5.15-4.92S466,384.77,466,384.77,465.38,379,459.87,379.34Z"/></g><g id="Card"><path id="Back-2" data-name="Back" class="cls-16" d="M407.14,367.51l13.1,8.55c1.09.66,7.48,4,8.66,4.45l8.58,2.51-30.89,30.12L375.28,433l-39.39-23.58Z"/><g id="Text-2" data-name="Text"><polygon class="cls-8" points="408.56 375.47 349.71 409.45 345.83 407.18 404.68 373.19 408.56 375.47"/><polygon class="cls-8" points="416.95 380.38 358.1 414.36 354.22 412.09 413.08 378.11 416.95 380.38"/><polygon class="cls-8" points="423.99 384.49 366.49 419.27 362.61 417 420.34 382.36 423.99 384.49"/><path class="cls-8" d="M431.13,385.81a215.28,215.28,0,0,0-19.54,15.61,89.76,89.76,0,0,1-8.62,5.94l-28.09,16.82L371,421.91l29.78-17.7a81,81,0,0,0,11.52-7.81A103.74,103.74,0,0,1,426.7,386Z"/></g></g><path id="Pants" class="cls-19" d="M490.66,361.91c-.45,0-14.2,7.11-15.2,7.44-2.42.78-4.75,1.82-7.19,2.53-3.92,1.14-8,1.59-11.9,2.62-2,.52-4.11,1.31-4.71,3.45A6.16,6.16,0,0,0,454,384.7c2.07,1.41,4.66,1.63,6.87,2.72s15.31,6.19,15.31,6.19-2.43,4.91-2.72,5.53c-1.53,3.3-2.73,7.89.59,10.64,2.79,2.32,7.06-1,9.43-2.71,4.23-3,13.59-8.42,17.85-11.35,2.48-1.7-.61-4-.81-7.14-.15-2.21-1.42.09-3.64.54,3.57-4.28,6.42-11.9,4.88-17.38a12.55,12.55,0,0,0-4.95-7.17c-1.58-1.05-4.23-2.66-6.13-2.66Z"/><path id="Shoe" class="cls-8" d="M502.62,384.9c-.8.23-1.47,1.12-2.14,1.55a13.82,13.82,0,0,0-1.94,1.19c-1.28,1.13-.73,2-.4,3.73s.52,3.55,1.84,4.73a12.45,12.45,0,0,0,2.28,1.14,13.17,13.17,0,0,1,2.38,2.1c-1,.88-5.16,3.5-2.13,5,2.18,1.06,6.85-2.41,7.86-4.13,2-3.34-.45-6.43-1.75-9.49-.94-2.23-2.69-6.74-6-5.79Z"/><path id="Arm-Left" class="cls-20" d="M473.64,389.48c1.16-2.87,1-8.93,1.39-12,.25-2.09-2.75-2.15-5.55-1.41a17.77,17.77,0,0,0-.84,3.57c-.57,2.13-.87,4.27-1.26,6.44-.54,3-.86,8.53-1.7,12-.67,2.86-2.31,2-2.89,4.95-.12.56-1,2.52-1.43,3.53-.23.56.26,1,.47,1.24.53.66,1.9-2.58,2.33-3-.1,1.13,0,3.58-.17,4.74-.17.93-.28,2.8.35,3,1,.38.85.12,1.06-.52a20.49,20.49,0,0,0,.7-5.35c.29.5.11,5.58.81,6.58.17.24.92.57,1.26.23s.19-4.21.26-4.86c.22,1,.37,3.62.9,3.91.31.18.78.08.92-.58a6.38,6.38,0,0,0,.09-.93s.11.33.5-1a10.36,10.36,0,0,0,.17-5.34,21.89,21.89,0,0,1-.65-2.91c-.49-3.39,1.12-6.38,1.42-7.29C472.24,393.13,472.77,391.63,473.64,389.48Z"/><path id="Arm-Right" class="cls-20" d="M456.13,366.8a.62.62,0,0,0-1-.05l-.88.85c-3,1.59-5.73,4.45-8.17,6.38-1.55,1.22-3.13,2.4-4.69,3.61a8.88,8.88,0,0,1-3.63,1.18c-2.2.29-4.68,0-6.07,1.8a13.93,13.93,0,0,1-1.81,2.1,5.56,5.56,0,0,0-1.35,2.09c-.91,2.16,1.18,1.63,2.58,1.6a4.8,4.8,0,0,0,3.3-2.25c1.42-.77,1.63-.28,1.8-.08a.22.22,0,0,1,0,.31,5.24,5.24,0,0,1-.67.55l-1.38,1.35c.82-.35,4-.14,4.58-1.46.14.1,1-1.59,1.17-1.73a34.6,34.6,0,0,1,7-4.41c3.71-2.15,3.22-1.21,6.55-2.93,1.89-1,5.95-1.63,6.36-4S458.81,366.05,456.13,366.8Z"/><path id="Shirt" class="cls-21" d="M469.18,341.63c-1.81,0-2.54,2-3.21,3.37-1.23,2.54-4.81,12.46-4.89,12.87-.38,2.05-.35,3-1.88,4.57s-5.7,4.91-5.7,4.91a11.11,11.11,0,0,0,2.37,5.18c1.88,2.33,2.44,1.77,2.44,1.77,1.55-1.35,7.55-6.37,8.38-8.3.08.76.35,1.46.47,2.53.46,4.17,0,11.64-.12,14.64,0,0-.33.71,3.69-.08a18.32,18.32,0,0,1,5,.38c-.4-3.36.46-9.79.26-13.17a32.1,32.1,0,0,0,6,5.25c1.82,1,5.43-1.18,6.42-2.35a83.12,83.12,0,0,1,5.85-6.34c1.49-1.48,1.63-2.66.58-4.95-1.68-3.72-8.34-7.54-11.32-10.08-2.66-2.27-4.21-4.1-6.42-5.89-2-1.63-5.07-4.31-7.84-4.31Z"/><path id="Face" class="cls-20" d="M461.31,332c-1.39-1.58-4.07-2-6.08-2-4.11,0-8.39,2.41-8.69,6.83-.13,1.91,1.06,2.46,1.52,3.85s-.3,3.18.2,4.77c1.63,5.11,3.76,5.57,7.89,3.57,2.82.5,6.46,5.81,8.35,4.34,1.64-1.28,3.15-3.05,4.67-4.48C470.43,347.68,462.91,333.79,461.31,332Z"/><path id="Hair" class="cls-8" d="M456.65,325.82c-3.23,0-7.74,2-9.69,4.67a4.07,4.07,0,0,0,1.7,6.22c1.23.58,2.69.33,3.9.89,1.46.67.93,1.85,1.25,3.34a11.46,11.46,0,0,0,2.19,4.28,16.77,16.77,0,0,1,1.85,4.35c.85,2.53-.28,6.89,2.14,8.64,2.85,2.07,4.58-1.16,5.6-3.37,1.36-2.92,4.27-4.49,4.49-7.91.07-1.2.29-2.37.4-3.55.13-1.38-.61-2.43-.85-3.77-.3-1.74.11-3.61-.55-5.28a14.86,14.86,0,0,0-4.27-5.55,15.89,15.89,0,0,0-8.16-3Z"/><g id="Shadows" class="cls-22"><path class="cls-23" d="M455.22,344.07a14.44,14.44,0,0,1-1.13,3.39c-.46.49-2.66,2.49-2.66,2.49a5.92,5.92,0,0,0,2.76-.14c1.21-.45,2-.8,2-.8a10.6,10.6,0,0,1,1.79.8s-.91-2.75-1.38-3.65A17.77,17.77,0,0,0,455.22,344.07Z"/><path class="cls-23" d="M498.73,394.06c-.23-.6-1-5.24-1-5.24s-1.79,1.17-.92.3a33.08,33.08,0,0,0,3.89-6.88,19,19,0,0,0,1.25-9.32,16.51,16.51,0,0,0-3.64-7.06,14.11,14.11,0,0,0-2.92-2.14l-.68-1.84a19.49,19.49,0,0,0-2.43-3.22c-1.34-1.36-6.85-5-8.89-6.83s-2.48-2.32-6.42-5.89c-4.13-3.74-6.94-4.23-6.94-4.23v2.36c0,1.39-.39,2.28-1.17,4.31s-2.65,3.63-3.2,4.4a23.11,23.11,0,0,0-1.6,4.65c-.16.75.75,1.89.75,1.89l.23,1.89-1-1.29s1.24,2.81,1.13,3.35a11.84,11.84,0,0,1-2.5,3.79c-1.09,1-3.62,4.48-4.36,5.11a7.14,7.14,0,0,1-1.87,1s-7.53,3.29-9.09,4.11a76,76,0,0,0-7.41,4.8c-.59.58-.94,1.64-1.52,2.14a6.68,6.68,0,0,1-2.11.87,4.92,4.92,0,0,0,.94-1.44c.23-.66.23-1.1-.47-.91s-1.17-.35-2.07.27-1.71,1.72-2.26,2.15a17.59,17.59,0,0,1-2.53,1.25,3.79,3.79,0,0,0,2.14-.28c3.12-1.87,3.67-1.43,3.5-1.27l-1.38,1.35,1.08-.2a10.63,10.63,0,0,0,2.22-.37,2.73,2.73,0,0,0,1.28-.89,15.29,15.29,0,0,0,1.17-1.73s2.15-1.76,3.24-2.42,4.73-2.56,6-3.2c.38-.19,1.43-.52,2.62-.94l1.42-.62a3.74,3.74,0,0,0-1.79,2.94c0,1.4.22-1.4,2.07-1.87s1.37-.47,3.6-.93,8.19-1.88,9.2-1.06l1,.82,0-3.63-8.5,1.77,3.34-3c1.46-1.31,3.3-3.25,3.68-3.69a10.32,10.32,0,0,0,.84-1.23s-.32-2.69-.39-3.23-.27-5.54-.27-5.54-.44-2.39.66-2.92.58.66,1.48,1.17,3,2.28,3.08,3.4,1.23,7.24.82,8,.7,6.75.58,8.8-.17,7.42-.17,7.42a13.75,13.75,0,0,0-1.75,0c-.81.07-2.89.38-2.89.38s3.41,2.48,3.41,3.53a54.07,54.07,0,0,1-1.38,7.74c-.43,1.31-1.39,4.82-1.7,5.91s.49,2.18.58,2.57a17.84,17.84,0,0,1,.43,2.71c.08,1.08.32,3.92.32,4s0,1.09,0,1.87-.2.87-.2.87h.4c.38,0,.44-.46.52-.65a3,3,0,0,0,.09-.93,1.54,1.54,0,0,0,.47-.84,15.89,15.89,0,0,0,.44-2.05,16.07,16.07,0,0,0-.24-3.43,24.36,24.36,0,0,1-.73-3.59,12,12,0,0,1,.2-2.72c.17-.87,2.14-6.23,2.14-6.23l3.54,1.4s7.14-15.85,7.72-17.12,2.46-.78,3.46-1.36,1-1.93,1.93-1.7,1.34,5.38,1.34,6.39-5,13.09-5,13.09-5.2,5.09-5.5,7.36a10.26,10.26,0,0,1-3.62,6.5c-1.88,1.29-5-1-3.89,1.21a4.17,4.17,0,0,0,3.83,2.59c1.2.15,3.45-1.11,4.26-1.58s2.8-1.92,3.7-2.55,5.43-3.48,5.43-3.48L500,396.1A16.07,16.07,0,0,1,498.73,394.06Zm-43.75-19h0c.62-.27,1.16-.5,1.39-.58a10.85,10.85,0,0,0,1.07-.43l.16.11C456.64,374.49,455.43,374.88,455,375.08Z"/><path class="cls-23" d="M462.18,388c-.3-.12-1.85-.84-2.31-1s-3.6-1.11-4.37-1.47a9.47,9.47,0,0,1-2.42-1.58,16.3,16.3,0,0,1-1.08-1.58,31.28,31.28,0,0,0,4.63,2.41c1.52.48,6.14,1.54,7.6,1s2.63-3.24,2.52-3.45a20.74,20.74,0,0,0-3-1s3.53-.11,3.5-.59-.17,2.37-.17,2.37-.16.07.07.18a2.87,2.87,0,0,0,.73.12s-.41,2.37-.5,2.77-.46,3.58-.46,3.58Z"/><path class="cls-23" d="M466,405.56s-.25,2.31-.31,2.84-.2,1.63-.35,2.34a14.55,14.55,0,0,1-.67,2,2.55,2.55,0,0,0,.28.08.28.28,0,0,0,.19-.08c.1-.06.09-.19.15-.37a6.46,6.46,0,0,0,.34-1.25,16.18,16.18,0,0,0,.34-2.42c.05-.73.13-1.95.13-1.95s0,.17,0,.24.07.68.08.86.09,1.87.09,1.87.07,1.53.14,1.85,0-2.64,0-2.64-.07-1.47-.09-1.78-.15-.6-.17-.8S466.11,405.6,466,405.56Z"/><path class="cls-23" d="M464.15,404.24v.57a1.54,1.54,0,0,0-.13.17c-.06.09-.87,1.51-1,1.68a8,8,0,0,1-.67,1c-.14.14-.28.27-.37.26h-.09a2.63,2.63,0,0,0,.42-.49c.19-.3,1.38-2.62,1.49-2.74S464.15,404.24,464.15,404.24Z"/><path class="cls-23" d="M468.11,406s.08,4.54.06,4.78,0,1.86-.06,2.09-.32.8-.42.8a.64.64,0,0,0,.48-.14.84.84,0,0,0,.18-.52,2.89,2.89,0,0,0,.08-.47c0-.19,0-1.38,0-1.88s0-2,0-2l.32,2.14a10.83,10.83,0,0,0,.09-1.64c-.06-.37-.31-1.95-.44-2.33S468.11,406,468.11,406Z"/><path class="cls-8" d="M473.41,356s2.29,1.6,2.75,2.88a43.47,43.47,0,0,1,1.06,5.19c.23,1.23,3.68,7.2,3.68,7.2l4.33,4.09a10.05,10.05,0,0,0,3.1-2.16c1-1.23,5.85-6.34,5.85-6.34s.82.61-.82,2.13-3.1,2.8-3.51,3.21-1.58,2.64-2.51,2.93-3.69.49-4.33,1.36a14,14,0,0,0-2.28,3.32c-.35,1.11-4.57,13.8-4.57,13.8l-3.54-1.4s1.56-3.8,1.56-4.15.36-3.29.36-3.29a4.24,4.24,0,0,0-2.12-1c-.94,0-3.74-.43-3.74-.43s2-.26,2.57-.32a4.44,4.44,0,0,1,1.23.05,14.2,14.2,0,0,0,2,.18,3,3,0,0,1,1.23.21s-.06-3.19-.06-3.66.32-9.51.32-9.51-.5-7.18-.56-7.75.11-2.57-.35-3-.17-1-.23-1.36A14.27,14.27,0,0,0,473.41,356Z"/><path class="cls-8" d="M496.86,389.12s-7.07,2.39-8.65,3.56-4.91,4-4.91,4L482,398.12l-1.14.35h2l-1,1.4a6.71,6.71,0,0,0,2.51-2.05,5.13,5.13,0,0,1,1.7-2.34c.93-.64,5-3.74,5.61-3.92S496.86,389.12,496.86,389.12Z"/><path class="cls-8" d="M474,409.78a4.25,4.25,0,0,0,3.24.72,10.42,10.42,0,0,0,3.39-1.51,18.7,18.7,0,0,1-3.31.85A14.61,14.61,0,0,1,474,409.78Z"/></g><g id="Highlight" class="cls-22"><path class="cls-9" d="M448.23,341.63s-.13,2.13-.13,2.84a5.37,5.37,0,0,0,.54,2,12.06,12.06,0,0,1,2.26-2.44c1.28-1,2.35-3,.53-2.28s-1,.82-1.82.7A2.41,2.41,0,0,1,448.23,341.63Z"/><path class="cls-9" d="M456.65,325.82a12.12,12.12,0,0,0-4.13.87s-5.61,1.73-6.34,5.51a3.34,3.34,0,0,0,.67,3,7.63,7.63,0,0,0-.31,1.61,2.61,2.61,0,0,0,.53,2.1,6.9,6.9,0,0,0,3.71,1,19.48,19.48,0,0,0-2.14-1.23c-.26-.1,0-1,.22-1.87a14.21,14.21,0,0,0,2,.38,9.32,9.32,0,0,1,1.73.4,4.68,4.68,0,0,1,0-4.47c1.3-2.22,4.56-2.1,4.51-3.8s3.8-2.64,3.8-2.64A15.67,15.67,0,0,0,456.65,325.82Z"/><path class="cls-9" d="M457.85,349.57a7.24,7.24,0,0,1,.34,1.78,41.48,41.48,0,0,0,.36,4.41,4,4,0,0,0,1.44,2.45,21.73,21.73,0,0,0-.12-3.09c-.2-2.45,2.16-5.5,1-7.66a17.22,17.22,0,0,0-3.46-4.91c-4.89-4.95,1,2.79.86,4S457.85,349.57,457.85,349.57Z"/><path class="cls-9" d="M460.83,359.32a5.43,5.43,0,0,1-1.63,3.12c-1,.94-5.7,4.91-5.7,4.91s.06.25.17.64c-.72.46-1.87,1.22-2.24,1.5-.56.42-3.73,3.15-4.38,3.71s-4.63,3.57-5.64,4.35a8.51,8.51,0,0,1-3.63,1.22c-1.07.18-1.87.16-3,.27a3.83,3.83,0,0,0-2.27.78,8.54,8.54,0,0,0-1.72,1.95,9.75,9.75,0,0,1-1.07,1.11,6,6,0,0,0-1,1.51c-.44.89-.46,1.29-.29,1.65s1,.44,1.51.4,3.35-3.79,4.75-4.64,4-.55,5.15-.94,4.84-3.82,6.71-5.26c1.51-1.16,6.15-4.23,7.9-5.37a5.85,5.85,0,0,0,.62,1.18c.82,1.12,1.39,1.79,1.39,1.79a10.27,10.27,0,0,1,.72-4.35c.91-2.18,5.12-4.83,5.43-5.61a9.59,9.59,0,0,0,.32-2.57Z"/><path class="cls-9" d="M469.69,378.52c0-3.2-1.69-7.14-.38-8.17a12.14,12.14,0,0,0,1.94-1.82s-1.77,1.26-1.94-.93-.79-7.44-.67-8.28-.59-4.35-1.37-4.35-1.24,2.26-1.24,2.26.19,6.24.66,8.77a29,29,0,0,1,.62,4.63c0,1.1,0,6.85-.12,9.7l-.15,2.84s.17.32.79.3h0l-.46,2.57s-.88,7-1,7.69-.54,3.43-.74,4.35a3.49,3.49,0,0,1-.6,1.49c-.43.75-1.28,1-1.75,1.95a5.94,5.94,0,0,0-.54,1.51c-.17.64-.49,1.19-.76,2-.39,1.12-.73,1.38-.73,1.82s1.37-.92,1.61-1.31,1.21-2.18,1.21-2.18l0,1.49s-.06,2.84-.08,3.74A10.88,10.88,0,0,0,464,412c.13.52.37.58.37.58a14.83,14.83,0,0,0,.67-2c0-.31.39-3.66.51-4.68s1.29-1.48,1.68-2.26-.24-3-.24-4.36,1.48-7.41,1.68-8.35c.14-.67.62-5.16.88-7.65l1.21-.18S469.69,381.72,469.69,378.52Z"/><path class="cls-9" d="M467.31,406.13l.16,5.3s.1,1.6.12,2.25a1.38,1.38,0,0,1-.68-.38,5,5,0,0,1-.18-2.06v-4.93l.27-1.66A4.68,4.68,0,0,1,467.31,406.13Z"/></g><g id="Dropshadow-4" data-name="Dropshadow"><path class="cls-24" d="M478.1,263.18c-6.33-4.53-8.77-3.34-16.49-.21s-5.63,5.08-5.63,5.08a15.72,15.72,0,0,1-6.3,0c-4-.66-5.87.19-8.68,2.26s-14.41,3-14.41,3l31.28,18.51s12.17-1.62,11-7.94,10.59-7.55,9.19-10.33S485.59,268.55,478.1,263.18Z"/><path class="cls-25" d="M404.92,325.64l30.64-17.72-4.84-3L422,300l-10-5.94a27.79,27.79,0,0,0-1.3,8.19l-20.49-11.09-.28.07-35.22-18.77L294,314l49.73,36.68,69.85-39.53a10.73,10.73,0,0,1-.75,1.86C411,316.75,404.92,325.64,404.92,325.64Z"/></g><g id="Card-2" data-name="Card"><path id="Back-3" data-name="Back" class="cls-26" d="M322.27,241.22l69.49,32.7s1.62,22.29-10.78,37.84-37.22,38.94-37.22,38.94l-63.82-42.51s31.33-25,35.8-36S322.27,241.22,322.27,241.22Z"/><g id="Text-3" data-name="Text"><path class="cls-8" d="M335.73,261.94s-5.2,30.46-28.25,45.84C295.66,315.67,258,336.44,258,336.44L252.1,333s38.61-20.86,50.45-29.22c20.85-14.73,26-45.28,26-45.28Z"/><path class="cls-8" d="M348.5,269.27s-4.58,30.17-28.25,46.22c-11.76,8-49.23,28.45-49.23,28.45l-5.92-3.42s38.37-20.65,50.22-29c20.85-14.72,26-45.65,26-45.65Z"/><path class="cls-8" d="M361.91,275.83s-6.17,31.95-30.22,47.93c-10.6,7.05-48.08,27.8-48.08,27.8l-5.87-3.44c6.58-3.55,38.42-20.86,49-28.35,20.86-14.72,28-47.36,28-47.36Z"/><path class="cls-8" d="M375.28,282.17s-6.67,31.17-31.3,48.75c-10.37,7.41-48.1,27.82-48.1,27.82L290,355.3s38.44-20.87,49.05-28.36c23.91-16.89,29.08-48.19,29.08-48.19Z"/></g></g><path id="Foot-right" class="cls-8" d="M444.59,292.5c-1.52,0-3.06,2-4.14,2.88a16.91,16.91,0,0,0-4,4.44,7.83,7.83,0,0,1-3.07,2.39c-.82.39-1.9.47-2.27,1.46-.87,2.37,2.79,3.73,4.41,4.25,2,.65,3.87.95,5.67-.38s1.74-3.4,2.83-5.08c1.25-1.93,3.95-3.2,4.53-5.53.46-1.88-2-4.43-4-4.43Z"/><path id="Foot-left" class="cls-8" d="M406.52,310.13c-.47,3.07-2.93,3.69-4.76,5.45s-4.87,2.64-6.55,4.33a4.72,4.72,0,0,0-.6.71,4.11,4.11,0,0,0-.24.39c-.59,1.11.2,2.93.2,2.93.75,1.05,3.08,1.63,4.06,1.79a13.27,13.27,0,0,0,5.43.15,10.9,10.9,0,0,0,4.41-2.32c2.37-1.94,4.9-4.29,5.41-7.46.42-2.64-1.12-3.41-1.82-5.6C412.06,310.5,406.83,308.1,406.52,310.13Z"/><path id="Pants-2" data-name="Pants" class="cls-19" d="M399.29,263.84c-1.4,1.52,2.44,7.33,3.16,8.62a26.8,26.8,0,0,1,1.82,3.25s-3.07,4.69-4.07,6.81c-1.56,3.34-2.52,5.44-.62,9,2.46,4.67,5.1,9.81,5.54,15.3.11,1.44-.38,4.11.31,5.46.91,1.79,1.83,1.3,3.46,1.25,1,0,2.75.25,3.68-.32,1.39-.85.89-2.72.84-4.13-.15-4.47,1.3-9.49-.64-13.67-.39-.83-.83-1.63-1.24-2.45-.74-1.5-.72-1.32.21-2.62,1.34-1.87,2.58-3.75,3.74-5.74,2.78,3.37,5.9,4.84,10,5.85a30.61,30.61,0,0,1,7.19,2.3c2.08,1.1,3.74,3.42,5.83,4.3s8.28-1.17,6.79-4.08c-2-3.86-5.89-6.78-9.24-9.34l.07.06c-2.73-2.15-5.51-3-8.66-4.22-2.27-.91-3.34-3.15-4.19-5.35-1-2.59,1.22-5.65.88-8.62-.23-2-1.34-8.82-3.95-8.82C420.23,256.71,399.53,263.58,399.29,263.84Z"/><path id="Shirt-2" data-name="Shirt" class="cls-21" d="M422.38,256.41c-1.66-2.63-12.6-13.63-19.68-20.84-2.36-2.4-5.55-3.1-5.93-3.37-4-2.87-8.9,4.59-10.13,4.41-4.71-.71-12,3.15-16.47,4.18-1,.24-2.43.67-4.05,1.19-5,1.62-12.06,4.11-15.28,4.27-3.56.18-1.89,6.09-.8,7,2.23,1.89,2,1.34,5.32,1,7.13-.68,11.61-2.33,17.15-3.36,2.37-.45,7.84-1.22,10.21-1.57l3.95,3.76c-.89,1.44-4.45,3.77-5.19,4.28-1.23.85-6.05,1.71-6.43,3.28-.63,2.69-.23,2.64.23,3.78.64,1.62,2.5,3.16,4.14,2.87,1.27-.23,1.8-.89,3.33-1.2.84-.17,9.62-6,10-6,2.83,1.87,5.12,2.52,6.48,5.84,1,2.55,13.2-.77,14.8-1.28C415.19,264.33,423.54,258.22,422.38,256.41Z"/><path id="Face-2" data-name="Face" class="cls-20" d="M381.13,217.89c-7.11,0-4.17,13.21-3.8,16.68a6.75,6.75,0,0,0,1.11,3.46c.78,1,1.45.7,2.47,1.08,1.39.51,3.91-1.33,4.53.2a6.8,6.8,0,0,1-.05,3.75,13.13,13.13,0,0,0,5.44-2c2.49-1.51,5-3.81,4.56-6.44-.18-1.17,0-1.8-1.82-2.28-1-.27.61-4.61,0-5.74s-8-8.72-12.4-8.72Z"/><path id="Hand-right" class="cls-20" d="M345,247a13.58,13.58,0,0,0-5.13.22c-1.83.37-1.58,3.58-1.33,6,.17,1.7,1.53,4.14,5.73,5.1,1.71.39,1.14,0,2-2.41a30.18,30.18,0,0,0,1.29-2.81l1.39.62c.34-1.1,1.95.14,3.14-.59.7-.32.48-2.07.61-2.54a3.14,3.14,0,0,0-.79-2.31c-.4-.59-1.62-.2-2.38-.3C347.59,247.75,346.1,247.14,345,247Z"/><path id="Hand-left" class="cls-20" d="M372,259.84a13.79,13.79,0,0,0-5.13.22c-1.83.38-1.58,3.58-1.33,6,.17,1.7-.36,3.54,3.84,4.5,1.71.39,3,.6,3.88-1.81.16-.46.75-1.47,1.07-2.19a.83.83,0,0,1,.91-.48c1,.18,3,.41,3.84-.11.7-.32.48-2.07.61-2.54a3.14,3.14,0,0,0-.79-2.31c-.4-.59-1.62-.2-2.38-.29C374.6,260.61,373.11,260,372,259.84Z"/><path id="Hair-2" data-name="Hair" class="cls-8" d="M394.82,227.59a8,8,0,0,0-.25-2.61c1-2-.08-4.57-1.73-5.92-.94-.77-2.17-1-3.14-1.63-1.6-1.08-2.37-2.27-4.52-2.68-1.64-.31-3.12.14-4.75.05-1.18-.07-2.21-.72-3.39-.72-2.75,0-3.77,5.43-2.55,7.29,1.66,2.55,5,2.17,7.52,2,1.49-.11,3.5-.5,4.7.62a3.42,3.42,0,0,1,.85,1.48.83.83,0,0,1,.56,1,5.5,5.5,0,0,0,.13,1.62c.24.74.72,1.8,1.7,1.28s.44-2.91,1.65-3.28c.63-.19.89.18,1.19.32a12.37,12.37,0,0,1-.34,4.56c-.47,1.54.07,2.86,1.44,1.34C394.85,231.19,395,228.92,394.82,227.59Z"/><g id="Shadow-3" data-name="Shadow" class="cls-22"><polygon class="cls-23" points="378.21 232.6 380.32 232.94 379.26 233.93 378.21 232.6"/><path class="cls-23" d="M382,239.17c-.83.11,1.83-1.5,2.86-1.73s3.92-1.72,4.23-3.51a4.31,4.31,0,0,0,0-2.39s1.09,1.77.78,2.86a20.29,20.29,0,0,0-.78,2.81c-.08.78-3.36,4-3.36,4a5,5,0,0,0-.29-1.95,1,1,0,0,0-.93-.58C384.07,238.65,382.89,239,382,239.17Z"/><path class="cls-23" d="M383.57,243.06a20,20,0,0,0,.86,5.26c.72,1.7,2.24,4.8,2.24,4.8l-3.95-3.76s-10.35,1.57-11.7,1.86-8.71,2.06-10.62,2.38-8,1-8,1a3.07,3.07,0,0,1-1.56-.69l-.8-.65a2.26,2.26,0,0,0-.77,0,1.74,1.74,0,0,0-.38.43l-.92-.41a10.08,10.08,0,0,1-.53,1.45,18.26,18.26,0,0,0-1,1.76c-.08.33-.22,1.75-.59,2s-.39.54-1.05.43a18.18,18.18,0,0,1-3-1.12,3,3,0,0,1-.71-.77,11.17,11.17,0,0,0,1.61.52c.56.1,1.69.53,2,.18s.16-.92.36-1.68,1.34-3.14,1.34-3.74a1,1,0,0,1,.8-1.1,16.84,16.84,0,0,1,2.3.26c.76,0,3,.06,3,0a.73.73,0,0,0,.06-.31s9.22-1.49,11.3-2,6.56-1.65,8-2.31,5.68-.58,7.35-1.28A32.69,32.69,0,0,0,383.57,243.06Z"/><path class="cls-23" d="M441.23,293.59c-2-1.71-2.84-5.62-6.49-6.47s-9.23-3.46-8.24-5.54l1-2.08-1.36,1.34.2-1.32-1,1.05.83-1.85s-.64-.65-1-1.08a6.07,6.07,0,0,1-1-1.48c0-.27-1-2.18-1-2.53a12.87,12.87,0,0,1,0-2.06c.08-.41.91-3.57,1-4.21a9.12,9.12,0,0,0,.1-1.49c0-.34-.14-1.3-.28-2s-.56-2.68-.81-3.41c-.17-.48-.7-1.7-1.06-2.5.35-.64.7-1,.32-1.52s-4.63-5.36-5.08-5.84l-14.6-15s-.9-.82-1.57-1.31a19.77,19.77,0,0,0-4.36-2.06,3.52,3.52,0,0,0-1.6-.66,2.06,2.06,0,0,0-.82,0s-.78,1.41-1.51,1.37c-.57,0-.55-.91-.55-.91s-.43,1.75.62,2.14.59,1.45,1.64,1.29l1.05-.15,1.48,3a16.07,16.07,0,0,1,3.51,1.58c.74.66,1.14,5.67,1.14,5.67l-.38,3-.48-2.48s-.1,2.86-.13,3.21a18.16,18.16,0,0,1-2.43,4,31.4,31.4,0,0,1-3,2.84c-.47.26-5.63,3.19-6.87,3.92s-5.59,2.86-6.55,3.27-2.26.91-2.26.91l0,.38s-1.44.2-2.17.2-2.19-.32-2.69-.32a2.3,2.3,0,0,0-1.75,1.35,22,22,0,0,1-1,3.42,1.67,1.67,0,0,1-1.26,1c-.5,0-3.87-.69-3.87-.69s.94.75,1.26,1a9.68,9.68,0,0,0,3.13.84,6,6,0,0,0,2.81-1.57,28.91,28.91,0,0,1,3.28-2.67,5.42,5.42,0,0,0,2.16.18c.61-.23,2.51-.77,3.33-1.2s10-6,10-6,3.26,2,3.76,2.36a6.85,6.85,0,0,1,1.9,1.9c.41.77.82,1.58.82,1.58a1.07,1.07,0,0,0,.09.5,21.25,21.25,0,0,0,.93,2.25c.26.44,1.45,2.77,1.81,3.25a18.89,18.89,0,0,1,1.64,2.69c.09.34.25,1.06.25,1.06l4.75-5a11.18,11.18,0,0,1-2.54-.85,3.54,3.54,0,0,1-1.38-1.95c.06-.36,9-2,9.66-2.4s4.24-3.26,5.06-3.91a14.89,14.89,0,0,1,.82,2.91c.34,2.14-.42,6.29-.24,8.07s-4.21,7.11-4.21,7.11l-7.58,10.21s-.79-.38-.61.82,2.28,6.37,2.87,9.12.23,10,.23,10.41-.18,3.42-.18,3.42,1.76.06,2.24-.62a3.06,3.06,0,0,0,.66-1.48c0-.34-.09-1.76-.15-2.75s.56-6.9.44-8.57a11.68,11.68,0,0,0-.55-3.51,5.88,5.88,0,0,1-.38-1c-.11-.26-1.82-3.69-1.82-3.69a3,3,0,0,1-.06-.44c0-.14.33-.55.38-.67s4.1-6.27,4.1-6.27,1.41,1.55,1.87,1.95.7,1.75,5.14,3,6.81,1.8,8.53,2.44c3.15,1.16,5.37,4.33,7.51,5.06,1.35.47,4.41.12,5.6-1.09a5.35,5.35,0,0,0,1.42-2.16A3.75,3.75,0,0,1,441.23,293.59Z"/><path class="cls-23" d="M380.71,228.62l.39,1.85s.19-1.18.86-1.45,3.63-1.21,3.63-1.21-1.83,0-2.44,0A5.62,5.62,0,0,0,380.71,228.62Z"/><path class="cls-8" d="M419.62,278.75l-4.14,5.88,1.87,1.95a17.47,17.47,0,0,1,1.49-3.92c.78-1.16,4.29-11.09,4.29-11.09Z"/><path class="cls-8" d="M422.06,257.93s-2,2.32-2.76,3-5.25,3.81-5.25,3.81a13,13,0,0,0,2.93-1.14c.67-.52,3.38-2.66,4-3a16.7,16.7,0,0,1,1.88-.85"/><path class="cls-8" d="M401.53,251a19.74,19.74,0,0,1-2,4.27,55.49,55.49,0,0,1-5.11,4,33.27,33.27,0,0,0,4.16-1.48c1.13-.6,2.59-1,3.41-2.63s.35-2.12.64-3.29a45.46,45.46,0,0,0,.47-5l-.88,2.19-.44-3.51-.2,3.94A3.27,3.27,0,0,1,401.53,251Z"/><path class="cls-8" d="M383.15,244.23a24.8,24.8,0,0,1-1.19,3c-.49.85-9.45,3.69-9.45,3.69l10.21-1.57,1.23,1.16s-1-1.32-.8-2.2.6-3,.6-3l-.6,1.34Z"/><path class="cls-8" d="M384.43,238.69a20.82,20.82,0,0,0,3.43-1.83,26.07,26.07,0,0,0,1.42-2.37,16,16,0,0,1-.79,2.6,38.17,38.17,0,0,1-2.9,2.68s0-.11-.15-.46a1,1,0,0,0-.55-.56A.79.79,0,0,0,384.43,238.69Z"/></g><g id="Highlight-2" data-name="Highlight" class="cls-22"><path class="cls-9" d="M322.27,241.22l16.05,7.55a5.3,5.3,0,0,1,.67-1.07,3.87,3.87,0,0,1,.83-.5,3.4,3.4,0,0,0,1.52,1.12c1.11.47,2.22,2.4,3.16,2.4s.72.06,1,.7-.47,2.4-.65,3.16.29,3-.64,2.13-1.46-1.78-2.93-3.42-2.51.27-2.63-.65S332,251,328,253.88s-10.48,13-10.48,13Z"/><path class="cls-9" d="M348.89,253.71l16.44,7.77a1.71,1.71,0,0,1,.83-1.09c.67-.33,1.21,1.15,2,1.09s1.4.35,2.69,1.23,1.23,1.69.88,2.54-.24,3.42-.82,3.66a13.7,13.7,0,0,1-3,.64c-.35-.06-1.41-.18-1.64-.52a2.77,2.77,0,0,1-.62-1.67c0-.73-6.4-4.07-7.45-5.12S349.36,255.54,348.89,253.71Z"/><path class="cls-9" d="M377.84,267.36l13.92,6.56a69.59,69.59,0,0,1-.78,13.36c-1.11,5.53-2.27,9.64-2.27,9.64s-1.1-5.67-1.45-9.41-.24-7.05-3.45-8.76-5.15-2.3-5.15-5.75A17.55,17.55,0,0,0,377.84,267.36Z"/><path class="cls-9" d="M350.84,246.25s.15,1.19,2.08,1a37.42,37.42,0,0,0,7.14-1.93c1.75-.7,5.67-2.22,8.13-3.1s7.32-3.14,7.32-3.14-16,5.07-16.74,5.24-4,1.23-4.68,1.41S350.84,246.25,350.84,246.25Z"/><path class="cls-9" d="M392.29,244.05a13.85,13.85,0,0,0-2.23,3.8c-.64,1.93-3.39,5.27-3.39,5.27a16.81,16.81,0,0,1-3.74,3.28l-2.2,1.38-4.79,1.91a18.91,18.91,0,0,0,4.82-.26c1.47-.46.41-1.28,2.29-1.4s4.68-.29,5.79-2.22.05-2.23,1.11-4.39,3.56-6.67,5.49-6.9,6.62-3.51,5.15-4.68-8.83,2.51-9.3,1.87-4.75.2-5.7.44c0,0,.41-2.1,0-2s-1.36,3.33-.77,4.45.39,4.82,2.5,2.21,3.1-2,4-2.37Z"/><path class="cls-9" d="M376.55,223a33.94,33.94,0,0,0-.1,3.87c.09,1.41.49,4.9.55,5.29s.37,2.84.45,3.29a6.37,6.37,0,0,0,1,2.54,3.78,3.78,0,0,0,2.47,1.08,29.66,29.66,0,0,0,1-4.3c0-.94,1.3-1.81,2.5-3s1.91-3.26,1.49-3.21-5.1,1.36-5.21,0,0-2,.52-2.12,1.87-.58,1.87-1.28-1.09-1.88-1.09-1.88-1.65-.52-1.65-1.22,1-1.16.87-2.69,0-.94-.76-2.11,1.26-1.26.12-1.58-2.28,1.11-2.69,0a1,1,0,0,1,.78-1.34,3.69,3.69,0,0,0-2.27-.22c-1,.21-2.17,1.79-2.39,4.19s.47,3,.47,3A3.18,3.18,0,0,0,376.55,223Z"/><path class="cls-9" d="M396.06,321.46a2.25,2.25,0,0,1,.84-1.11c.75-.64.44.59,2,.56s3.17-.77,4.72-1,1.23,1.84,2.14,2.08-4.4,1.11-5.91,1.15c-.66,0-2-.18-2.63-.24-.39,0-1.55-.1-1.35-.79Z"/><path class="cls-9" d="M405.43,312.31a26.6,26.6,0,0,0,.93-5.23c-.07-1.48-3.43-11.77-3.43-11.77a2.5,2.5,0,0,0,1.44.65,4.6,4.6,0,0,0,2-.65s1.79,6,1.79,9.67a71.69,71.69,0,0,0,.73,8.58,9.56,9.56,0,0,1-1.82.09A1.84,1.84,0,0,1,405.43,312.31Z"/><path class="cls-9" d="M399.11,286.42s-.55,2,.5,2.65,1.76,2.18,2.78,2,.84-.09,2-1.22a14.9,14.9,0,0,0,1.68-1.9s-3.12,1.26-4.05.78A19.55,19.55,0,0,1,399.11,286.42Z"/><path class="cls-27" d="M334.85,272.6c2.92.29,13,3.21,15.67,8s.52,8.32,7,9.25,7.29,3.61,7.29,3.61,13.55,11.35-4.4,9.36-11.83-1.4-22.08-4-15-11.59-15.75-15.56-2.69-12.16-.59-13.74,12.17,4.26,12.17,4.26Z"/></g><path id="Dropshadow-5" data-name="Dropshadow" class="cls-28" d="M255.33,209.15c-1,.06,5.65,11,6.64,10.78,18.61-4.94-4.13-7.24,3.36-10.54,12.19-5.36,41.47-10,44.53-11s-6.05,6.63-7.35,9.12c-1.8,3.46-6.85,1.85-9.77,4.27-4.86,4-16.77,8.79-14.44,8.54,6.55-.69,10.68,11.14,16.1,7.69,11.38-7.25-3.86-6.23-1.9-7.69,2.5-1.86,7.88-4.28,12.91-7.32a6.67,6.67,0,0,1,2.87-.43c5.45-.45,16.74-7.08,16.74-7.08l19.39,8.19,23.45-16.2-4.05-2.52s1.69-2.19-1.9-5c-.94-.75-4.73.92-4.73.92s1.56-1.14,0-3.31c-3.24-4.54.36-6.15,2-6,2.43.24,5.17,3.57,7.25.24,4.47-7.14,15-8.66,5.39-14.18s-11.53-4.38-19.89,1.31c-1.79,1.22-1.51,6.08-3.28,7-7.8,4.11-16.84,1.78-16.84,1.78l-13.07-3.8-29,11.12,9.77,4.67c-1.73.7-13.24,5.36-18.29,6.82-6.38,1.85-14.13,6.13-20,7.72a16.82,16.82,0,0,1-8.79.22Z"/><path id="Foot-right-2" data-name="Foot-right" class="cls-8" d="M252.92,203a8,8,0,0,1,3.25.78c1.38.67,1.24-.06,1.65,1.25a20.86,20.86,0,0,0,3.56,6.66c1,1.09,3.07,2.1,3.74,3.49l-.05.52.21.23-.38,1.49c-.88,1.29-1.82,1.5-3.67,1.9-2,.43-3.22,1-4.88-.59a18.14,18.14,0,0,1-3.88-6c-.55-1.33-1.31-3.11-1.71-4.49-.47-1.63,1-4.88,2.16-5.28Z"/><path id="Foot-left-2" data-name="Foot-left" class="cls-8" d="M284.65,215.66c1.48,0,.14,1.86.83,2.63a5.9,5.9,0,0,0,1.6,1.48c.92.54,3,1.37,4.37,2s2.77.59,3.8,1.15a1.21,1.21,0,0,1,.62,1.16l.05.89.19.1-.08,1.09c0,1.2-2.41,2.29-3.65,2.83-.82.35-3.83-.4-5.69-1-.9-.29-.5-.53-3.9-2.21-2.11-1.05-5-.75-5.87-3.12a6.5,6.5,0,0,1-.13-2.11c0-.13.29-.27.3-.4.12-1.55.6-2.73.73-3.76s1.46-.44,2.49-.42,1.91-.31,2.86-.31h1.48Z"/><path id="Pants-3" data-name="Pants" class="cls-21" d="M258.05,153.58c2.15.09,22.41,2.58,22.61,2.89.63.95,2.36,6.88,3,9.32a38.09,38.09,0,0,1,1,8.91,31.75,31.75,0,0,1-.37,7.09c-.54,2.55-.16,4.92.1,7.52.86,8.74.65,17.47,1.35,26.2.22,2.72-2,3.07-4.36,3.14-1.5,0-3.72.46-4.16-1.35-.24-1,.23-2.35.13-3.42a20.39,20.39,0,0,0-1.07-4.2c-.92-2.78-2.43-5.27-2.75-8.24-.24-2.2.34-4.45.55-6.63a27.28,27.28,0,0,0-.45-8.41c-1.15-5.68-3-11.19-4.38-16.8-2.22,6.69-3.9,13.36-6.77,19.82-1.13,2.57-3.16,4.94-4,7.56a18.34,18.34,0,0,0-.55,5.18c0,.83.27,2.08-.06,2.86-.74,1.68-4.83.87-5.59-.35s-.58-3.48-.78-4.74a34.62,34.62,0,0,1-.67-5.91c0-3.18,1.12-5.7,2.17-8.61s.54-6.32.46-9.21c-.12-4.23-.23-8.55,0-12.77.13-2.4,1.22-9.85,4.63-9.85Z"/><path id="Face-3" data-name="Face" class="cls-13" d="M260.61,101.09c-.13,2.93,1.45,5.63,1,7.84-.36,1.69-2.14,3.46-3.45,4.54-.68.56-2.17,1.12-2.69,1.86-1.77,2.52,3.36,2.71,4.74,3.08a85.54,85.54,0,0,0,8.91,2.28c2.9.46,7.68.35,9.13-2.92.58-1.3-1.57-2.6-3.36-3.56-.35-.19-.83-.3-1.11-.46-.7-.42-1-1-.91-1.09,1-.83,2.43-2,2.89-2.45.34-.15.27-.12.61-2.09.42-2.44,1.14-4.47,1-7-.11-1.91.44-4-.79-5.39a6,6,0,0,0-5.16-2.82C265.19,92.94,260.64,100.32,260.61,101.09Z"/><path id="Shirt-3" data-name="Shirt" class="cls-19" d="M283.57,150.71c-.17-2.17.09-21.24-.37-24.33-.34-2.26.08-4.5-.7-6.68a8.63,8.63,0,0,0-4.24-5.25,3.8,3.8,0,0,0-2.24-.61h0l-2.59-.21,1.45.58h0c-.41.19-.85.45-1.39.75a18.36,18.36,0,0,1-6.23,2.37,8,8,0,0,1-5.11-1c-1.26-.61-2.65-2.94-4.12-2.94-1.26,0-2.09,1.46-3,2.12-.72.49-1.61.81-2.35,1.29s-3.37,2-3.32,3.1c.11,2.34,1.52,6.33,1.81,9.36.35,3.78.61,7.6,1.15,11.37a52.7,52.7,0,0,0,3,10.27C256.3,153.72,283.69,152.38,283.57,150.71Z"/><path id="Hair-3" data-name="Hair" class="cls-8" d="M267.65,89.07c2.28,0,6.26.1,8.41,1s3.79,3.91,1.82,5.71c-1.19,1.09-.44,1-1.53.39s-3.41-.18-4.76-.24c-2.33-.1-2.16-.16-3.58,1.24-1.15,1.12-1.34,4.42-3.44,4.29-.5,0-1.46,0-1.39.47.3,2.11-.66,4.76-1.09,4.76-3.29.06-2.69-9.57-2-11.47,1.14-3.13,4.38-6.17,7.55-6.17Z"/><g id="Card-3" data-name="Card"><polygon id="Back-4" data-name="Back" class="cls-29" points="220.21 125.74 303.95 128.68 302.6 170.47 219.09 166.41 220.21 125.74"/><g id="Text-4" data-name="Text"><polygon class="cls-8" points="225.98 135.49 297.45 138.36 297.68 133.06 226.2 130.18 225.98 135.49"/><polygon class="cls-8" points="225.98 143.99 297.45 146.86 297.68 141.56 226.2 138.69 225.98 143.99"/><polygon class="cls-8" points="225.98 152.49 297.45 155.36 297.68 150.06 226.2 147.19 225.98 152.49"/><polygon class="cls-8" points="225.13 160.99 297.45 163.86 297.68 158.56 225.38 155.69 225.13 160.99"/></g></g><path id="Hand-right-2" data-name="Hand-right" class="cls-20" d="M256,161.13c1,0,1.56,2.8,1.75,3.63a35.28,35.28,0,0,0,1.45,3.34c.17.36-.27.61-.34.67-.28.07-.85-.74-1.32-1.34s-.85.4-.85.72l1.55.16c.45.37,1.14,2-3.77,1.69-3-.17-3.14-.09-2.91-3,.26-3.32.4-2.61,1-5.34Z"/><path id="Hand-left-2" data-name="Hand-left" class="cls-20" d="M286,125.67c2.24.47,1.7,3.72.52,5.52-.69,1-2.29,4-4.07,3.8-.92-.08-.71-1.33-1.23-1.52s-.11-5.22-.57-5.54l-1.87-.06c-.21-.23.14-.52,1.37-1.49,1.43-1.12,4.13-1.06,5.85-.71Z"/><path id="Arm-right-2" data-name="Arm-right" class="cls-19" d="M253.06,119.68c1.5.78,2.62,3.5,3.11,5,1.44,4.4,2.1,9.41.73,13.9-.29.94-.62,1.88-.92,2.82a19.51,19.51,0,0,0-.9,2.56c-.25,1.82.95,4.43,1.1,6.35a61.19,61.19,0,0,0,.81,8.21c.08.42.68,2.69.43,3.09s-3.52.6-4.34.65c-1.91.13-1.46.36-2.32-1.7-.57-1.36-4-9.51-4-13.5,0-1.5.76-2.82.81-4.3,0-1.78-.35-3.62-.47-5.39s0-3.32-.06-5-.81-3.37-1-5.17a11,11,0,0,1,.07-4.16c.28-.93,2.9-4.62,3.74-4.12A9.4,9.4,0,0,1,253.06,119.68Z"/><path id="Glasses" class="cls-8" d="M279.06,100.86l-1.71-.44V101l-2,.2-.69-.1a4.15,4.15,0,0,0-.93.05l-.81.29-4.09.34-4.68-1.23-1,.59,4.92,1.33.42,1.85a.67.67,0,0,0,.67.51c1.05,0,3.3-.14,3.82-.76a3.09,3.09,0,0,0,.59-1.58.56.56,0,0,1,.52-.41l.89,0a3.51,3.51,0,0,0,.28,1.13,2.3,2.3,0,0,1,.46,1,14,14,0,0,0,2.71-.24c.29-.09.48-.16.49-.46l.07-1.9h0Zm-6.6,3c-.1.28-3.11.52-3.16.4s-.1-1.66-.1-1.66a15.93,15.93,0,0,1,3.63-.36C273,102.28,272.57,103.54,272.46,103.83Zm6-.42a5.49,5.49,0,0,1-2.4.26,3.36,3.36,0,0,1-.25-1.85l2.72-.36.12,0A8.46,8.46,0,0,1,278.47,103.41Z"/><path id="Ear" class="cls-13" d="M265,102s.14-.46-.78-1.24c-1.11-.93-2.32.48-1.75,2.44s.5,2.52,1.25,2.52,1.11-2.17,1.11-2.17Z"/><g id="Shadow-4" data-name="Shadow" class="cls-22"><path class="cls-23" d="M280.14,115.79a9.67,9.67,0,0,1,2.47,4.22,10.45,10.45,0,0,1,.42,3.41l.12,2a3.36,3.36,0,0,0-1.5.14c-.49.26.17-3.56-.57-4.69s-1.26-3-2.42-3.43-2.46-2.27-3.2-2.31-2.6.15-2.6.15-4.11-2.09-4.38-2.84,5.23-.48,5.64-.83-1.26,1-1.26,1,.24.86.57,1a9.51,9.51,0,0,0,2.59.21,4.23,4.23,0,0,1,2.24.61C278.66,114.69,280.14,115.79,280.14,115.79Z"/><path class="cls-23" d="M276.71,121.78a8.7,8.7,0,0,1,.54,2.42,22.93,22.93,0,0,1-.27,3.57l-4-.14s3.64-.39,3.63-.82S276.71,121.78,276.71,121.78Z"/><path class="cls-23" d="M288.53,128.17l-1,0a6.77,6.77,0,0,0-.07-.93,6,6,0,0,0-.32-.79s-.21,1.1-.28,1.56a33.23,33.23,0,0,1-1.17,3.36c-.28.62-1.75,3.12-1.75,3.12a.78.78,0,0,0,1.12,0,22.7,22.7,0,0,0,2.81-4.53A12.15,12.15,0,0,1,288.53,128.17Z"/><polygon class="cls-23" points="272.95 106.71 275.5 106.48 274.31 107.59 272.95 106.71"/><path class="cls-23" d="M285.74,216s-.76-17.26-.88-19.91-.84-10.53-.87-11.39a15.61,15.61,0,0,1,.11-1.91,27.32,27.32,0,0,0,.58-7.14c0-.35-.32-6.09-.32-6.09s-25-1.14-25-1.22-.76-2.19-.88-2.78a5.67,5.67,0,0,1,.13-1.58c0-.17-.54-3.3-.54-3.3s-.91-9.71-1-10.68-.85-4.84-.85-5.81a22.85,22.85,0,0,1,1.71-4.92,60.66,60.66,0,0,0,.94-6.78c.08-1,.66-5.35.66-5.35L259,127h.09l-1.13-.69s.24,0,.51-.83.2-1.36-.51-.34-.74.44-.74-.17a5.86,5.86,0,0,0-.06-.74c0-1.11,0-2.17-.25-1.63-.39,1-.84,3-1,3.51s-.41,9.89-.37,10.84a77.12,77.12,0,0,1-1.42,7.65c-.22,1,.77,4.09,1.08,5.55s1.12,10.45,1.12,11a4.92,4.92,0,0,0,.07.9l-1.73.18-2.21.15a20.53,20.53,0,0,1,3.43.62,8.93,8.93,0,0,1,1,2.6,29,29,0,0,0-.49,3.21c0,.05-1.56.45-1.44.54-.13.28-3.25-.36-3.16.07s.83.41,1.5.53,2.5.2,2.93.35,2.44,2.72,3.57,3c2.25.62,3.58,2.92,4.18,3.66.86,1,0,4-.28,5.54a20.9,20.9,0,0,1-2.61,5.77c-1.13,1.87-2.69,5.93-3.43,7.52a15.45,15.45,0,0,0-1,4.06c-.31,1.44-1.6,6.08-1.6,6.08a10,10,0,0,0,1.46,0,1.65,1.65,0,0,0,1.33-.89,1,1,0,0,0,.15-.77s0-.85-.07-2.68a12.28,12.28,0,0,1,2.19-8c.8-1.42,2.08-3.56,2.65-4.82s2.53-6.69,3-8c.36-1.08,2.67-8.54,3.51-11.22l1.19,4.4a27.08,27.08,0,0,1,4.49.6c2.45.55,3.72,4.55,5.36,6.42s1.4,3.74,1.79,5.57,1.17,10.73,1.33,13.53,1,12.76,1,14-.62,4.33.06,4.08a2.26,2.26,0,0,0,1.19-1.29A2.31,2.31,0,0,0,285.74,216Z"/><path class="cls-30" d="M264.58,108.14a38.83,38.83,0,0,0,3.78,2.84,13.66,13.66,0,0,0,4.5.2,15.32,15.32,0,0,0,3.16-1.13c0-.15-3,2.61-3.16,2.61s.31.81.91,1.09,1.11.46,1.11.46a3.37,3.37,0,0,1,1.14-.37,4.84,4.84,0,0,1,2.24.61,21.86,21.86,0,0,1,1.88,1.34,7,7,0,0,0-2.93-.66c-1.59,0-2.62.58-4.35.66s-3.48.14-4.38-.6-2.07-1.17-2.77-2.06a3.94,3.94,0,0,1-.6-2.54A24.62,24.62,0,0,0,264.58,108.14Z"/></g><g id="Highlight-3" data-name="Highlight" class="cls-22"><path class="cls-9" d="M262.85,93.44c.64-1.64,3.56-2.52,4.79-3.22s4.68-.93,4.72-.94a46,46,0,0,0-4.71-.21c-3.17,0-6.41,3-7.55,6.17-.57,1.55-1.08,8.28.56,10.64a8.13,8.13,0,0,0,1.21-3.16c0-1.24.32-2.85.37-4.49A13.36,13.36,0,0,1,262.85,93.44Z"/><path class="cls-9" d="M263.67,100.82s-1.19.14-1.31.74a2.52,2.52,0,0,0,.06,1.64c.25.92-.14-1.31.21-1.65S263.63,101,263.67,100.82Z"/><path class="cls-9" d="M266.3,101.32l2.38.64,1.05-.13-1.08.29.26,2.69a1.52,1.52,0,0,1-.39-.46c-.06-.21-.5-2.23-.5-2.23l-2.83-1.07Z"/><polygon class="cls-9" points="272.93 101.47 273.74 101.18 274.31 101.12 273.89 101.3 272.93 101.47"/><path class="cls-9" d="M272.83,102.21a6.21,6.21,0,0,1-.13.87c-.08.27-.24.75-.24.75s.32-.55.4-.73S273,102.34,272.83,102.21Z"/><path class="cls-31" d="M220.21,125.5l-1.12,40.67s.58-4.66,2.91-7.26,1.63-7.17,7.33-12.64,14.12-9.28,15.21-13.49,1.49-6.16,1.49-6.16Z"/><path class="cls-9" d="M261.52,106.71s.12.63.15,1a4.08,4.08,0,0,1-.23,1.67,6.94,6.94,0,0,1-1.38,2.22c-.4.44-1.77,1.72-1.77,1.72s.37,0-.26,0a1.78,1.78,0,0,0-1.18.42c-.24.16-1.51,1.43-2,1.76-.23.17-.88.5-1.57.86a25.3,25.3,0,0,0-2.22,1.4,6.45,6.45,0,0,0-1.29,1.1l-.25,0c-1,.21-2.25,2.23-2.85,3.12a4.09,4.09,0,0,0-.78,2.88,38.22,38.22,0,0,0,1.11,6.72c.11.69.06,3.08.06,4.44s.52,5.93.53,6.69a32.41,32.41,0,0,1-.77,3.77,14.37,14.37,0,0,0,.7,4.91c.36,1.07.55,2.2,1,3.25,1.32,3.45,2.42,6.42,2.89,7.37.21.45.47.25,1,.28-.09.63-.52,2.07-.56,2.32-.16.82-.31,3-.31,3a4.82,4.82,0,0,0,0,1.19c.06.18,1.75.62,2.25-.49s.18-4.61.24-5.87l.24-.32c-.27-1.76-3.59-14.86-3.51-15.56s0-3.78,0-4.79-.08-6.71,0-7.84-1.95-8.66-1.45-8.59-.6-2.27,1.06-4.12c.7-.78.23-1.25.87-2.2s2.94-1.45,3.92-2.55a21.23,21.23,0,0,1,4.05-2.75,13.64,13.64,0,0,0,2.21-1.67c.44-.55.8-3.71.8-3.71C262.33,107.75,261.52,106.71,261.52,106.71Z"/><path class="cls-9" d="M256.57,170.05s.37,11.82.1,13.15-2.15,5.54-2.66,7.25a47.05,47.05,0,0,0-1.36,6.69c-.23,2.05-.85,6.25-.85,6.25s-.26-2.89-.35-3.46-.68-3.71-.67-4.56a17,17,0,0,1,.06-2.54,18.79,18.79,0,0,1,.68-3.35c.37-1.15.94-2.59,1.43-4.07a11.67,11.67,0,0,0,.6-3.22c0-.66-.27-12.3-.27-12.3S255.75,170.07,256.57,170.05Z"/><path class="cls-9" d="M279.17,213.5c-.1-.27-.51-.07-.91.21a21.44,21.44,0,0,0-.23-6.45,15,15,0,0,1-.45-6.79c.23-2.61-.95-4.75-.95-6.27s-2.46-3.35-2.46-3.35a25.71,25.71,0,0,1,0,3.46,51.33,51.33,0,0,0-.71,6,18.09,18.09,0,0,0,1.4,5.82,54.77,54.77,0,0,1,2.11,5.92c.17.7.36,2.41.36,2.41a12.93,12.93,0,0,0-.2,2.23,5,5,0,0,0,.32,1.19S279.36,214.07,279.17,213.5Z"/><path class="cls-9" d="M264.27,215.06c-.2-.24-4.8.18-4.64-.59s-1.2-1-2.84-.93-1.88-1.37-2.58-1.95a11.15,11.15,0,0,1-2.18-2.34,6.34,6.34,0,0,1-.57-1.8,4.06,4.06,0,0,0,.6-.5l1.72-.36s-2.16-1.47-2.07-2.34a8.92,8.92,0,0,0-1,3.09,36.45,36.45,0,0,0,1.15,3.85c1.22,3.52,3.14,6.47,5,7.91,2,1.59,2.06-2.92,2.06-2.92S264.46,215.29,264.27,215.06Z"/><path class="cls-9" d="M266,103.74s1.82-.53,2.57.61a14.15,14.15,0,0,0,1.75,2.07,3,3,0,0,1-2.57.29,3.19,3.19,0,0,1-1.75-1.9A2.74,2.74,0,0,1,266,103.74Z"/><path class="cls-9" d="M278.8,127.87s-.23-.14.2-.52a7.92,7.92,0,0,1,2.16-1.51,7.11,7.11,0,0,1,2-.4c.69,0-.12.63.77.91s.31.39,0,.82-1.4.27-1.52,1.87-.42,5.72-.42,5.72l-.74-1.29a4.26,4.26,0,0,1-.24-1.27c0-.63,0-3.87-.33-4.27Z"/><path class="cls-9" d="M276.79,220.55l.3-.4s.14-1.05.18-1.25l.13-.62s0,.09.39.62,1.46,2.08,1.93,2.25,3.19-.56,4.3-.41.29,2.34,2.25,2.34,4.94-.09,5.62.18-.5,1.69,0,2.13.21,1.32.21,1.32l-.48,2.36a19.75,19.75,0,0,1-2.94-.52c-1.33-.36-2-.56-2-.56a5,5,0,0,1-1.15-.64,17.52,17.52,0,0,0-2.75-1.57c-.67-.29-3.26-1-3.61-1.14a4.76,4.76,0,0,1-1.64-1,2.3,2.3,0,0,1-.62-1A8.59,8.59,0,0,1,276.79,220.55Z"/></g></g></svg>