<svg xmlns="http://www.w3.org/2000/svg" viewBox="0 0 600 600"><title>Cable_Car</title><g id="Layer_30" data-name="Layer 30"><rect width="800" height="800" style="fill:#5ce8ff"/></g><g id="Draw_Layer" data-name="Draw Layer"><path id="Road" d="M599.67,477.89s-4-.11-5.89-.2c-3.63-.17-53.23-2.52-58.55-2.62-5.55-.1-11.09-.26-16.63-.45-2.62-.09-79.09-.45-81.89-.32-5.55.27-11.11.39-16.67.47-11,.17-22.07.22-33.11,0-2.52-.06-186.84-.13-195.71-.18-5.41,0-10.81-.1-16.22-.07S94.84,472,89.36,472.1s-11,.2-16.52.33c-5.87.15-11.73.2-17.6.23C51,472.7,0,476.49,0,476.49L0,599.75,600,600Z" style="fill:#a29893"/><path id="Left_rail" data-name="Left rail" d="M236,475.56a35.5,35.5,0,0,1-4,3.76,64.43,64.43,0,0,0-8.43,9.76,90.83,90.83,0,0,0-8.79,14.09c-2.28,4.67-3.83,9.5-6,14.19-4.28,9.36-7.82,18.85-11.74,28.29-4.2,10.1-7.77,19.9-9.27,30.45-.7,4.89-2.26,9.57-3.35,14.42a36,36,0,0,0-1.33,9c0,.15,0,.28,0,.41H209c-.09-4.35.43-8.71.73-13.06.65-9.28-.34-18.87,1.33-28.08,1.9-10.45,3.92-20.87,6.24-31.27a141.57,141.57,0,0,1,5.45-19.42c2.33-6.17,4.69-12.45,9.54-17.79,2.67-2.94,5-6.24,7.9-9,2-2,8.14-4.49,11-6C252.43,474.6,236.75,474.45,236,475.56Z" style="fill:#7b5e4c"/><path id="Right_rail" data-name="Right rail" d="M411.66,595.5a40.19,40.19,0,0,0,1.14,4.38h27.43c-.31-.42-.68-.82-.83-1.06l.06.14c-3.59-6.47-7.23-12.89-10.93-19.33l0,.06c-9.24-16.87-16.3-34.41-24.22-51.63-3.78-8.22-8.35-16.2-12.84-24.22a81.77,81.77,0,0,0-12.83-17.12c-1.83-1.87-8.25-7.5-9.24-8.9a33,33,0,0,0-4.58-4.24c-1.27-.76-6.69-.41-7.81,1.59a56,56,0,0,0,4.24,4.84c4.88,4.27,8.68,8.94,12.74,13.64,1.13,1.3,6.13,10,7,11.41,3.14,4.9,10.07,26.07,11.75,30.85,1.52,4.3,2.66,8.64,3.88,13,2.71,9.67,7.08,19,10.17,28.6C408.77,583.45,409.91,589.52,411.66,595.5Z" style="fill:#7b5e4c"/><path id="Middle_rail" data-name="Middle rail" d="M330.74,590.23c-.32-6.75-.58-13.52-1.17-20.26-.56-6.51-1.87-13-2.62-19.5s-1.89-12.87-2.17-19.32-.39-13.08-1.75-19.55c-1.41-6.73-4.24-13.31-6.34-19.94-1.68-5.31-4.25-10.27-6.76-15.39-.77-1.57-12.2-3.12-12.95-2.21-.51.63-2.37,5.57-3.05,7a71.39,71.39,0,0,0-5.4,16c-1.12,5-1.88,10-2.61,15-1.6,10.83-3.52,21.56-4.14,32.46-.77,13.54-.5,27.13-.2,40.68.07,3.14-.06,14.62-.06,14.62-.36-.53,42.83,0,50.42,0C331.89,596.65,330.88,593.45,330.74,590.23Z" style="fill:#7b5e4c"/><path id="Middle_line" data-name="Middle line" d="M301,599.86h9.17c-1.74-10.08-2.78-20.33-2.09-30.48.53-7.79-1.15-33.74-1.59-38.91-.34-4-2-47.48-2-52.85,0-.89.67-3.42-.06-4.07-1.65-1.48-1.62.68-1.64,1.2-.14,3.26-.61,6.47-.61,9.81,0,19.24-1,38.47-.79,57.73.09,9.48-.21,19,.11,28.44C301.81,580.47,301.22,590.12,301,599.86Z"/></g><g id="Selfie_sticks_back" data-name="Selfie sticks back"><path d="M480.39,169.22c-.87-5.7-7.86-15.52-10.9-20.32-2.67-4.23-5.84-6.25-10.7-2.64a29.54,29.54,0,0,0-5.9,5.11c-1.66,2-3.28,2.66-2.17,5.22.95,2.21,6.11,11,6.11,11-9.11,9.15-42.71,37.58-45,39.55-1,.86-2.18,4.71-1.45,4.07,2.45-2.15,38-31,48.37-41.59,2.14,4.08,7.56,9,7.56,9C471.52,177,480.45,170.5,480.39,169.22Zm-8.4,2.63.09-.12Zm.15-.19,0,0,.06-.07Z" style="fill:#282b2f"/><path d="M188.12,204.46c-1.21-1.69-33.61-49.24-33.92-49.66.2-.18,8.35-10.31,8.29-10.66s-10.61-12.27-11.13-12.44a4.32,4.32,0,0,0-1.78.24c-.44.27-15,17.55-15.22,17.68A1,1,0,0,0,134,151c.87,1.73,9.48,13.24,9.68,13.24h.08c.2,0,7-6.36,7.29-6.66l.11-.11c.36.53,32,46,34,48.73a4,4,0,0,0,2.37.62h0S188.67,205.23,188.12,204.46Zm-44.58-42.4h0Zm-6.78-10.82,0-.06,0,.06Zm13.66-16.58h0Z" style="fill:#282b2f"/><path d="M441.8,241.12c6.91-10.25,32-50.34,37.46-59.59,1.85,1.27,6.37,4.72,8.84,3.77,1.85-.71,3.29-4.27,4.48-5.76,1.62-2,2-5.63,2-5.63-1.63-2.3-5.14-4.28-7.61-5.53-3.61-1.82-10.8-7.31-13.28-3.63-3.14,4.67-8.1,9.82-2.78,13.34,1.35.89,4.62,2,5.8,3.08,1.54,1.38-36.38,57.57-36.42,58.74,0,.59.5,2.73,1.49,1.21Zm28.07-65.9,0,0,0,0Zm3.39-4.91.08-.13-.08.13Z" style="fill:#282b2f"/><path id="Arm" d="M446.32,246.39c.89-8.05-5.28-15.76-10-12.29-2.11,1.57-6.36-3.79-7.77-5-1.23-1.07-14.24-7.05-16-6a21.92,21.92,0,0,0-2.34,4.11c-2.24,5.31,10.51,19.8,13.53,19.66s12.16,5.77,14.13,6C441.32,253.33,445.53,253.51,446.32,246.39Z" style="fill:#282b2f"/><path d="M416.57,208.41c.33-1,20-63.73,21.76-65,2.53-1.79,9.27,3.54,10.53,3.51s8.13-13.53,8-15a4.35,4.35,0,0,0-2.41-3.1c-2.48-1.47-19.85-8.54-21.09-8.58a1.84,1.84,0,0,0-1.71.73c-1.61,2.89-7.17,16.34-5.87,17.34.55.42,10.16,2.92,10.89,4.4.33.66-21.72,65.1-22.68,68s-3.41,11.41-3.85,12.82c-.16.52,1.41.55,1.41.55S415.94,210.24,416.57,208.41Z" style="fill:#282b2f"/><path d="M180.51,224.59c-8.72-8.76-43.19-41.16-51.22-48.29,1.6-1.57,5.87-5.34,5.41-7.95-.34-2-3.55-4.06-4.78-5.51-1.69-2-5.14-3.06-5.14-3.06-2.58,1.15-5.19,4.21-6.9,6.4-2.49,3.19-9.27,9.18-6.13,12.33,4,4,8.07,9.85,12.55,5.31,1.14-1.15,2.88-4.14,4.14-5.1,1.65-1.25,49.44,46.84,50.58,47.1.58.13,2.77,0,1.48-1.23ZM121.29,184.3h0ZM117.13,180l-.11-.1.11.1Z" style="fill:#282b2f"/></g><g id="People_inside" data-name="People inside"><rect id="BG" x="201.55" y="149.68" width="201.73" height="209.73" style="fill:#d0edff"/><path id="Light" d="M403.37,200.76c-2.16-5.65-6.94-7.91-12.47-10.62.36.17-7.64-1.66-6.82-1.75-15.26.83-59,12.58-62.38,11.33-1.39-.52-2.52-3.42-4.27-4-6.61-2.19-6.28,2-11.35,2.84-1,.18-3.94-.8-5.24-.61-4.55.66-11.5,3.06-16.3,2.81-1.92-.1-3.26-1.17-5.1-1.7-6.79-1.94-6.31-2.23-12-.72-4.48,1.19-4,2.4-8.72.31-4.36-1.93-5-4.82-10.41-5.35-4.43-.44-10.67-2.38-11.87-2.66s-13.89-2.44-15.48-2.25c-2.74.32-22.44,11.37-24.44,14.51-2.3,3.62-2,60.4,0,63.23,4.14,6,210.66,3.63,212.9,1.56C413.37,264,409.28,199.47,403.37,200.76Z" style="fill:#a5bed1"/><g id="Midtone"><path d="M356.25,202.47c5.12-.91,12.68-2.23,15-8.23,1.7-4.32-1-10.84-6.24-11.15C355.37,182.49,345.83,204.26,356.25,202.47Z" style="fill:#687fa8"/><path d="M389.45,199c-10.62.42-3.53,17.49-4.91,16.11-3.72-3.72-17.07-10.85-23.59-7.67-5,2.43-1.09,7.15-1.84,10.51-.41,1.82-23-8.39-32.83-11.48-12.78-4-17.19,11.42-13,15.21,0,0-24.94-9.65-25.13-8.37.78-5.34,0-5.36-6.35-6.36-4.71-.73-9-1.83-11.78,4-3.07,6.41-38.19,3.74-39.74,2.72-.76-.5-5.2-2.85-8.39-4.37,2.35-1.16,4.18-3,4.59-5.62,2.49-16.15-21.84,1.28-18.77,6.46-.06.58-9.79,63.55-9.79,63.55H404.86v-52S405.86,198.39,389.45,199Z" style="fill:#687fa8"/></g><path id="Darkest" d="M405.43,254.78c-1.82-8-9-9.23-12.46-15.22-1.59-2.71-2-9.64-1.53-14.54.46-4.51,2.95-9.16,1.78-13.83-1.53-6.13-7.78-7-9.73-11.3s-.55-8.71-2.45-13.09c-1.68-3.87-9.53-11.42-12.53-4.21-3.68-5.57-14.81,6.1-17.35,8.28-2.49-5.25-2.57,1.22-2.81,2-1.71,5.55,1.06,13.17-.05,19.14-1.19-4.73-13.68-4.85-16.91-2.47-6.14,4.53-15.94,29.51,5.33,30.66-3.76,5-7.24,6.85-10.1,12.86-3.4-5.09-12.63-6.66-13.46-11.79-.3-1.88,3.19-9.45,3.19-10.7,0-10.47-6.26-36.6-25.75-29.18-9.25,3.52-13.22,17.91-11.22,26.57,1.31,5.64,10.51,11,9.46,15.22-1.42,5.74-12.54-8.84-16-11,20.67-19.08-18.75-42.6-23.73-22.91-8-5.18-16.26-1.93-20,6.43-.74,1.66-4.48,13.81-4.39,14.88-.72-2.93-5.54-14-4.22-16.77.77-1.63,4.81-2.11,6.27-3.48,1.11-1.05,1.52.67,3.18-2.52,1-1.95-3.16-13.71-5.29-13.54-8.7.68-11.56,5-16.93,7.79-2.36,1.21-4.56,18.35,9.66,12.66.1.34,4.56,12.56,3.89,13.57-12.14-13.92-18,7-17.26,10.72-9.38-7.36-1.53,27.21.56,29.36,2.88,3,188.76,6.28,198.7,6.78C403.28,275.2,409.49,272.78,405.43,254.78ZM216.59,210c-10.89,4.39-7.46-6.26-.65-9.55,7.85-3.8,5.2-3.62,8.2.93C228.09,207.31,221.37,207.91,216.59,210Zm74.86,33.75c.09-.17.12.05.3.16Zm21.73-14.39-.09-.13Q313.28,229.32,313.18,229.32ZM365,201.91c-2.75,2.8-5.75,10-2.83,13.72-1,.25-4.91-11.31-4.77-11,4.61-1.58,12.95-8.41,17.5-7.08a2,2,0,0,0-.22.88A12.78,12.78,0,0,0,365,201.91ZM360.92,187c1.54-1.13,3.23-1.93,4.85-2.93,7.7,12.31,4.64,9.44-7.14,15.67-.26-3.16-1.69-6.43-5.47-6.36Q357,190.09,360.92,187Zm-.32,53.67a23.87,23.87,0,0,0-2.1,2c1.36-3.52,3.85-5.3,3.83-9.82,3.27.47,2.25,1.63,4,4.56A18.45,18.45,0,0,0,360.6,240.64Zm16.77-4.95v0S377.38,235.7,377.37,235.7Zm2.35-12.61c-.44,5.91-1.27,8.46-12.62,7.44-2.75-.25-7.08,1.35-8.54-2.12v0l-.2-.46s-1.59-7.25,2.82-9.77c2.63-1.5,10.13-1.12,13.1-.71C373.92,217.43,379.95,217.13,379.72,223.09Zm16.13,40.27.16,0Z" style="fill:#282b2f"/></g><g id="Characters"><g id="Man_back" data-name="Man back"><path id="Face" d="M189.65,190.42c-1.56-5.67-6.87-.7-9,.9-8.34,6.28-10,10.63-11.89,18.87-.89,3.88,3.38,7,3,10.45-.22,2.13,2.57,10.58-3.2,10,2.22,4.49,17.51,10.92,21.34,6.16C191.72,234.51,190.68,194.14,189.65,190.42Z" style="fill:#6a3f00"/><path d="M162.14,233.68c-.87-.5-17.46,3.31-19.9,4.1s-4.3,2.05-6.55,2.84a12.59,12.59,0,0,1-3.09,1c-.49,0-2.93,0-3.62.05a64,64,0,0,0-7.21,1.25c-2.58.62-5.19,1-7.78,1.65-1.22.29-6.28,2-7.56,2.54l-.09,0h0c-1.06.43-11.56,4-12.14,3.65a11.37,11.37,0,0,0-3.15-1.23,7.63,7.63,0,0,0-1.71-.15,7.56,7.56,0,0,1-1.59-.18,5.12,5.12,0,0,0-3.09.39c-1,.32-1.26,1.34-1.72,2.19-1,1.86-2.58,4.42-1.39,6.56.25.44.73.66,1,1a8.34,8.34,0,0,1,.4,1.82,5.14,5.14,0,0,0,1.5,2.74,2.84,2.84,0,0,0,1.42.6,3.44,3.44,0,0,1,1.08.65,3,3,0,0,0,2.81.62c.92-.11,1.9.43,3,.22a3.92,3.92,0,0,0,2.59-1.77c.25-.4.56-2.32.71-2.64s12-2.21,13-2.2,15.63-2.31,16.83-2.51c2.41-.4,4.84-.78,7.2-1.39.54-.14,1.05-.55,1.56-.67.32-.07.66,0,1-.07.58-.21,30.69-8.43,30.91-8.59C167.54,245.48,162.39,233.82,162.14,233.68Z" style="fill:#6a3f00"/><path id="Phone" d="M113.73,246.06l-2-1.66-23.25-1.56-2,2,.52,6.84c.08,1.08,4.25,2.25,4.33,3.34l.32,4.25c.06.83-3.75,4.32-3.75,4.32l21.85,4.67,2.15-1.61,1.82-20.57Z" style="fill:#161616"/><path id="Shirt" d="M190.8,245.41c-.62-13-4.43-12.44-17.25-14.87-11.66-2.21-15.95,4.9-16,7-.14,4.55,10.17,41.18,12,47.18,2.23,7.15,10.61,2.33,18.55,2.75C188.14,287.45,191.28,254.81,190.8,245.41Z" style="fill:#380883"/><path id="Hair" d="M211,205.64c-1.16-5.58-1.2-17.59-17.1-17.52l0,0c-45.22-28-21.66,30.95-2.16,9.47.84,2,7.07,30.94,12.08,30.94C205.95,228.57,211.37,207.41,211,205.64Z" style="fill:#161616"/><path id="Pants" d="M187.45,394.72c-.71-3.81,2.75-109.88.69-107.28-2.45-1-9.63-1.94-10.18-1.27.76.79-4.6,107.72-4.6,107.72S187.83,394,187.45,394.72Z" style="fill:#046380"/></g><g id="Woman_back" data-name="Woman back"><path id="Phone-2" data-name="Phone" d="M449.67,213.35c-.59-3.65-.73-11.38-2-11.57-3.63-.51-23.07,2.71-23.07,2.71l1.65,12.62C427.29,217.33,449.93,215,449.67,213.35Z" style="fill:#161616"/><path d="M433.8,213.12c-.19-1.11.79-5.84-.21-6.41-2.48-1.41-8.65.53-9.66,3s0,5.61-.16,8.07c-.18,2.69-3.61,8.32-3.81,11.31-.14,2.07,1.82,1.85,4.49-.09.67-.49,4.25-10.66,5.4-12.43C431.28,214.35,434.44,216.88,433.8,213.12Zm-6.71,5.54h0Z" style="fill:#f2d4a7"/><path id="Left_hand" data-name="Left hand" d="M449.19,204.83a10.72,10.72,0,0,0-3.79,3.55c-.36.71-2.05,4.51-2,6.79.07,2.06.87,4.1,1,5.45.3,2.34-6.94,10.84-6.94,10.84,1.58,0,3.63,3.16,4.31,2.29,1.18-1.5,1.24-2,2.43-3.36a36.92,36.92,0,0,0,5-8.54c1.25-2.8,2.82-5.72,2.55-8.66C451.77,212.39,449.48,204.71,449.19,204.83Z" style="fill:#f2d4a7"/><path id="Face-2" data-name="Face" d="M420.42,221.25c-.14-2-1.26-3.55-2-5.35s-9.56-5-8.74-3.34c1.8,3.59-.77,27.55,1.37,28.26,1.93.64,2.79-.88,4-2.1C419.82,233.91,420.88,228.17,420.42,221.25Z" style="fill:#f2d4a7"/><path id="Hair-2" data-name="Hair" d="M421.38,217.07c-.42-1.46-4.34-10.53-8.6-10.56-3.36,0-6.81.14-10.16.18-4.09.05-11.55,7.63-11.31,15.18,0,.55,1.23,6.79,1.52,7.6s3.38,6.43,4.66,7c.26.13.58.14.8.35s2.31,11.13,3.51,11.72,9.1-29.34,9.61-28.78c.9,1,7.46.34,9.08.13C421.82,219.76,421.76,218.37,421.38,217.07Z" style="fill:#282b2f"/><g id="Dress"><path d="M441.79,233.24c-1-1.72-2.62-3.78-5.7-2.59-1.53.59-10.16,8.95-11.18,10.09-1-1.46,3.24-11.86,1.11-12.88-3.65-1.76-5.91-5.27-6.7-3-1.71,5-5.29,10.77-6.14,14.64-.05.24-1.5,52.82,1.08,53,3,.25,13.41-5.56,14.22-7.67,1.45-3.78,3.21-36.5,4.34-37.87a33,33,0,0,0,2-3.13C436.14,241.93,443.34,236,441.79,233.24Z" style="fill:#046380"/><path d="M446.62,338c-2.65-1.16-3.86-3.74-4.88-6.25-.62-1.52-1.52-8.89-3.24-5.27-.57,1.21-9.06,36.41-3.38,34.54,0,0,10.1-1.24,13.24-4,2.73-2.39,9.39-10.36,9.79-14C458.79,337.23,450.41,339.7,446.62,338Z" style="fill:#046380"/></g></g><g id="Hipster"><path d="M508.4,270.59s1.14-2.3,2.34-4.61c1.28-2.46,3.46-10.44,3.13-11.57s-8.64-3.35-11.45-4.14a55.75,55.75,0,0,0-10.79-1.92c-2.34-.06-4.41,7.75-5.06,10.26s-2.25,5,.1,6.82,6,2.24,8.89,3.16A50.05,50.05,0,0,0,508.4,270.59Z" style="fill:#161616"/><path id="Pants-2" data-name="Pants" d="M414.28,303.24c-.57-.54-1.64,92.24-.72,94,2,3.91,17.11,3.73,17.07,2.7a41.8,41.8,0,0,1,.53-4.39c.22-3.38.3-6.76.56-10.13a193.82,193.82,0,0,1,2.92-20c1.23-6.7,2.33-13.39,3.3-20.13a88.75,88.75,0,0,0,1.18-9.88c.1-3.41,1.2-17.53,1.75-21.17.26-1.73.73-3.37,1.15-5.06C442.3,308,414.6,302.11,414.28,303.24Zm20.29,61.19,0,.4Q434.44,364.69,434.57,364.43Z" style="fill:#404040"/><path id="Shirt-2" data-name="Shirt" d="M481.69,262.81c-.2-2.47-.69-5-2.43-6.86-.78-.84-1.49-1.82-2.34-2.59s-21.69-9.21-22.8-9.09-4,.55-4.3.33a10.86,10.86,0,0,0-2.13-1,19.08,19.08,0,0,0-7.36-.27,10.92,10.92,0,0,0-3.69,1.59,19.12,19.12,0,0,1-3,2.17,28,28,0,0,0-3.43,1.72,4.2,4.2,0,0,0-1.24,1c-.19.25-.25,1.54-1,1.68H428c-3.53.52-4.75,3.74-4.36,7a6.1,6.1,0,0,0,1.75,4c1.28,1.1,3.15,1.15,4.74,1a14.07,14.07,0,0,1-.82,2.51,12.06,12.06,0,0,1-2,2.44c-1.29,1.44-8.11,10.65-9.46,14.12-.66,1.71-.75,3.63-1.67,5.19a26.5,26.5,0,0,0-2.6,5.33c-.23.72,1.51,9,2,9.74.79,1.29,5.13,2.47,5.45,2.73a11.67,11.67,0,0,0,2.38,1.46c3.45,1.61,14.8,3.82,16.7,4.22,1.67.35,3.79.68,5.38-.13,1.43-.72,4.2-7.06,5.54-8.34,1.5-1.42,2.94-2.9,4.45-4.3a20,20,0,0,0,3.88-4.78A11.59,11.59,0,0,0,460.4,291c.26-1,.13-2.19.62-3a38.43,38.43,0,0,0,3-5.84c.22.46.26,2.11.92,2.46,1,.55,3.1-.11,3.41-1.15.18-.6,1.93-1.5,2.54-1.7,1.16-.39,8.23-.27,9.91-2,1.13-1.14.86-2.23.76-3.66S481.92,265.63,481.69,262.81Z" style="fill:#2632ed"/><g id="Sneaker"><path id="Sole" d="M450.83,416.21a4.78,4.78,0,0,0-2.11-2.82,11,11,0,0,0-4.45-.23c-1.17.26-3.83,3.79-4.45,4.91-1.78-.36-23.11,0-24.79-.08s-9.14-.7-9.61,1.72a3.43,3.43,0,0,0,3.23,4.14c3.24.41,36.71-.37,38.16-1a25.3,25.3,0,0,0,3-1.95C450.43,420.28,451,417,450.83,416.21Z" style="fill:#fefefe"/><path id="Top" d="M441.25,418.64c1-.66,3-3.58,3.44-4.06,1.62-1.61-3.34-1.72-4.78-2.16s-11.85-4.74-10.23-2.71c-.57-.13-17.08,8.41-16,8.42C415.87,418.13,439.74,419.66,441.25,418.64Zm-5.81-.34Zm5.72-1s0-.09,0,0Zm-15.1-7.2h0Zm6.21-.09s0,0,0,0Z" style="fill:#5cba06"/><path id="Laces" d="M439.73,412.24h0a36.9,36.9,0,0,1-6.66-2.09c.47-.1,4.46-1.3,4.46-2.09a25.17,25.17,0,0,0-5.11,1.91c-.19-.15-.57-1-.9-.44V409a6.39,6.39,0,0,1-.37-.82c-1.8,2.44,3,11,4.26,10.14.49-.33-2.17-6-2.45-6.86,1.84,0,2.22,1.06,4.4.73h0c-.5.13,3.54,1.73,3.45.28A1.06,1.06,0,0,0,439.73,412.24Zm-8.51-.32q.27,0,.09.4c0-.14-.06-.28-.09-.42Zm4.28-.08h0q-.49.09-.37-.36.82.12,1.63.32A8,8,0,0,1,435.5,411.85Zm2.9.64h0c-.45-.08,0-.24.26-.13h0Q439.53,412.64,438.4,412.49Z" style="fill:#fefefe"/></g><path id="Hand" d="M423.08,258.31c6.26-1.76,9.68-20.38.82-19.2C414,240.44,412.65,261.26,423.08,258.31Z" style="fill:#f9e6c8"/><path id="Left_arm" data-name="Left arm" d="M503,255.25c-1.58-.77-2.52.21-3.8,1.1-2,1.42-2.38,6.39-4.25,8.08-.76.68-1.71,2.73-2.73,3a2.93,2.93,0,0,1-1.66-.23c-1.69-.57-3.55-1-.64,2.8-3.75,5.36-6.56,11.29-9.94,16.88.38-1.91,1.37-5.37.31-7.46l-3.26-.64a7.72,7.72,0,0,0-4.63.49h0c-1.69.71-3.27,1.73-4.9,2.58-2.1,1.1-2.25,1.14-2.47,3.53-.43,4.63-.65,8.71,1.66,12.73.27.13,2.38,2.61,2.63,2.89.88,1,.85,3.2,2.35,3.79,1.67.66,3.71-1,5.13-1.51,1-.37,2-.61,3.14-1.1,3.41-1.54,5.58-6.6,7.43-9.7,1.37-2.3,5.31-12.75,7.15-15.5,1.43-2.13,2.61-4.6,4.27-6.56,1.49-1.77,3.77-3,5.5-4.61C506.4,263.89,506,258.16,503,255.25Z" style="fill:#f9e6c8"/><path d="M491.11,219.65c-3.52-6.92-11.92-13.59-20-11.11s-14.56,10.54-16.52,18.55c-1.15,4.72-.22,8.61,1.58,13,.69,1.67,1.13,1.55.1,3.42a37.9,37.9,0,0,0-2.12,3.38c-1.34,3.21,1.6,6.61,4.2,8.34,1.54,1,2.7,2.11,4.62,2.45a12,12,0,0,0,2.48,0c1.19-.42,6.75-9.55,7.84-8.45.45-.49,0,0,2.34-.13C488.2,249.11,496.46,230.17,491.11,219.65Z" style="fill:#f9e6c8"/><path id="Sunglasses" d="M494.43,227.17c-1.89-4.59-8.35-4.18-12-4.58-2.68-.3-5.06-1.56-7.55-2.29-4.51-1.32-7.94-.47-12.17.7-.59.16-3.75-.15-3.86.81-.21,1.87,4.29,1.64,5.26,1.53-.48,6.87,7.15,7.87,11.58,6.48,1.84-.58,2.09-7.84,5.26-4.35.07.08.56,3.92.56,3.92a8.63,8.63,0,0,0,4.89,4.1C490.47,234.95,493.45,234,494.43,227.17Z" style="fill:#161616"/><g id="Hair-3" data-name="Hair"><path id="Moustache" d="M482.42,237.12c-3.47-1.71-9.68-4.29-13.08-1.57-4.6,3.69.44,2.89,2,2.8s5-.58,6.31.29l-.09-.07c.15.11,3.42,1.54,3.56,1.52C482,240,484.77,238.27,482.42,237.12Z" style="fill:#6a3f00"/><path id="Beard" d="M482.54,244.63l-.94.81c-1.1-2.78-3.65-.37-5.36-.05a58.38,58.38,0,0,1-6.29-1.92c-.72-.32-1.42,0-2.59-.83s-.46-2.37-2.07-2.79c-4.81-1.27-1.78,5.36-1,6.86,1.69,3.3,2.06,6.17,2.94,9.79,2,8.25,4.63,4.94,8.54.19,1.67-2,3.74-3.26,5.34-5a10.71,10.71,0,0,0,2.56-3.81C483.78,247.49,485.48,241.84,482.54,244.63Z" style="fill:#6a3f00"/><path id="Hair-4" data-name="Hair" d="M497.62,212.79c.59-1.65.1-4.64-2.24-4.36.49-1.55.22-4.64-1.13-5.81-1.87-1.63-2.75-.32-4.85-.48-.78-.06-1-1.32-1.86-1.36-2.71-.13-2.54,2-4.63,2.25l-1.24-1.31a3,3,0,0,0-2.5.11c-.71-.05-.93.81-1.47.85-1.83.13-2.17-.4-4.36.63L471.91,205q-.63,1.29-1.76-.25a21.32,21.32,0,0,0-3,1.61c-4.26,2.81-6.28,6-8.79,10.4-2.33,4.11-3.77,5.94-3.7,10.32,0,1.45-4.35,6.19-2.58,7.07,2.91,1.45,5.87-2.67,5.81-4.25-.12-2.8-.3-4.28,1.65-6-.39.34.91,1.29,1.49.89,1-.72.54-1.36,1.09-2.34,1-1.77.48-4.24,2.09-5.91,1.93-2,3.39-.75,5.51-2.23-.89,7.16,7.34-1.1,8.19-1.51,2.82-1.38,5.36.13,7.18,1.79s4.68,1.89,5.61,4c.59,1.33,1.39,3.87,1.39,3.87C493.62,221.47,498.86,214.48,497.62,212.79Z" style="fill:#6a3f00"/></g></g><g id="Boy"><path id="T-shirt" d="M156.68,295.42a1.55,1.55,0,0,0-1.43-.38c-.57.12-3,.84-3.65,1s-3.22,1.45-3.85,1.74-15.65,12.61-16.09,13.07a11.49,11.49,0,0,0-1.33,1.33c-.16.24-1.51.07-1.93.43s-1.93,1-1.79,1.65a54,54,0,0,0,4.29,7.12c.28.16,2,2.92,2.23,2.76s1.43-1.54,1.55-1.61c.3-.17,1.11.07,1.47.07a1.88,1.88,0,0,0,1.73-1.12c1.35,3.35,1.85,3.73,4,6.64a36.64,36.64,0,0,0,3.11,3.8,12.5,12.5,0,0,0,4,2.89C149.92,335.12,163.13,301.95,156.68,295.42Z" style="fill:#5cba06"/><path d="M134,321.17a15,15,0,0,0-2-.79c-.7-.23-20.61-5.57-23.23-6.69a44.53,44.53,0,0,1-13.23-8.34c1.67-1.63,8.81-7.09,9-7.7s-6.85-10-8.18-10.53c-1.52-.64-6.13,2.82-8.42,4.45-2.86,2-11.15,8.16-12.31,9.31-1,1-2,2.28-1.58,3.77s5.79,10.46,7.18,10.74,2.7-.72,3.76-1.55c2.62-2,7.76-7.22,8.33-6.72.33.29,5.81,4.64,7.28,5.55a69.82,69.82,0,0,0,10,4.94l-.07,0,.08,0h0l.06,0h0l.17.07s22.23,6.64,22.38,6.64C133.76,324.34,134.41,321.43,134,321.17Z" style="fill:#161616"/><path d="M132,310.28a17.11,17.11,0,0,0,10.37-4c2.72-2.37,3.56-5.65,4.65-9.08.17-.54,0-4.32.45-4.62,2.26-1.43,1.88-3.6,1-6.86a24.22,24.22,0,0,0-2-5.32,14.37,14.37,0,0,0-3.06-4.27c-.66-.55-7.87-4.15-9.72-4.51A14.64,14.64,0,0,0,123,274a16.29,16.29,0,0,0-6.73,8.39c-1.18,3.68-2.16,7.83-1.61,11.63.61,4.2,3.34,8.21,6,11.49A14.22,14.22,0,0,0,132,310.28Z" style="fill:#f9e6c8"/><path id="Hand-2" data-name="Hand" d="M131.93,318.79a1.51,1.51,0,0,0-1.22-1.46c-.42-.08-1.9-2.8-2.1-2.78a6.85,6.85,0,0,0-1.68-.62,3.51,3.51,0,0,0-2.13.42c-.37.24-1.63.73-2,1a5.51,5.51,0,0,0-1.59,1.71,7.1,7.1,0,0,0-1.17,5.13c.55,3.41,4.14,5.85,7.4,4.14S131.93,319.5,131.93,318.79Z" style="fill:#f9e6c8"/><g id="Glasses"><path d="M136.55,291.24l-.1,0A.16.16,0,0,0,136.55,291.24Z" style="fill:#2632ed"/><path d="M143.45,285.68a7.67,7.67,0,0,0-1.22-.27,1.94,1.94,0,0,1-1-.32c-1.06-.61-2.68-.37-3.83-.22s-2.48.5-3.73.69a4.53,4.53,0,0,0-2.85,1c-.71-1.19-5.14-.3-4.49.73-1.49-.32-3,.43-4.5.56-1.31.11-3,.07-3.91,1.19-.45.55-.52,1.07-1.31,1.23-.54.11-1.24,0-1.55.54s0,.94.61.93a5.51,5.51,0,0,0,1.78-.71c.11.61.34,1.18.51,1.78,0-.07.54,2.19,1.66,2.59,1.39.5,3.2-.52,4.47-1s2.54-1.14,3-2.37a5.28,5.28,0,0,0,.1-2.16,4.93,4.93,0,0,0-.33-2.16c.38.09.75-.34,1.06-.49a2.31,2.31,0,0,1,1-.2c.3,0,1.37.4,1.67.41-.34.78,1,3.07,1.46,3.73,1.1,1.63,1.59,1.08,3.47,1.17a7.68,7.68,0,0,0,5.24-1.53c1.37-1.16,1.19-2,1.15-3.63-.05,0,1.4-.14,1.51-.22C143.87,286.65,143.46,285.74,143.45,285.68Z" style="fill:#2632ed"/><path d="M136.63,291.05Zm1.26-.37c.87-.27,1.87-.73,2-1.68a11.51,11.51,0,0,0,0-1.87,5.81,5.81,0,0,0,0-1.12,4.23,4.23,0,0,0-1.09,0,18,18,0,0,0-3.83.76,10.08,10.08,0,0,1-3.46.63c.12,1.65,1.2,3.86,3.11,3.93A10.75,10.75,0,0,0,137.89,290.68Z" style="fill:#161616"/><path d="M122.5,293.87c1.71-.5,3.64-1.22,3.65-3.27v.14a16.21,16.21,0,0,0-.14-2.52,20,20,0,0,1-4.8,1.16c-.71.12-2.22.07-2.35.94a6.47,6.47,0,0,0,.65,2.82C120.09,294.47,121.29,294.16,122.5,293.87Z" style="fill:#161616"/></g><path id="Hair-5" data-name="Hair" d="M148.85,282.39a10.19,10.19,0,0,0-1.35-6,10,10,0,0,0-3.81-3.81,42.24,42.24,0,0,0-5.17-2.69,19.35,19.35,0,0,0-6.22-1.76,23.2,23.2,0,0,0-11.94,2.22c-3.54,2-5.63,6.09-6.87,9.83a11.84,11.84,0,0,0-.42,5.64c.12.88-3.3,4.12-4,4.77-2,1.94,1.5,3.1,5.22,2.38,1.79-.35,5.56-8.26,6.65-10a6.87,6.87,0,0,1,1.93-2.06c1-.67,1.17-.53,2.26-.08,2.05.85,3.71-.1,5.49-1.1.9-.5,1.34-.71,2.3-.23a22.4,22.4,0,0,1,2.52,1.59,12.69,12.69,0,0,0,2.8,1.68c.94.33,1.94.18,2.89.46a10.49,10.49,0,0,1,3.09,1.56c.74.54,2.26-.21,2.4-.14,1.91,1,2.32,4.46,2.27,4.09-.07-.53-.18-2.72-.23-3.25A12.26,12.26,0,0,1,148.85,282.39Z" style="fill:#af2a00"/><path id="Nose" d="M129,294.45c-.7.27-2.72,1.42-2.25,2s1.65-.88,2.25-1,2.31.5,2.8,0a1,1,0,0,0,0-1C131.26,294,129.61,294.2,129,294.45Z" style="fill:#f2d4a7"/><path id="Mouth" d="M131.85,304c2.28.05,3.31-2,3.1-2.64-.52-1.54-.11-2.14-3.58-2.24-4.83-.15-3.58,3-3.35,3.14C128.66,302.63,129.35,303.91,131.85,304Z" style="fill:#f2d4a7"/><path id="Tung" d="M129.52,300.26s-2.81-.86-2.17,1.33.13,2.1,1.44,2.3c2,.31,7-2.3,5.89-3.43-.65-.67-2.36.17-3.63.16A3.72,3.72,0,0,1,129.52,300.26Z" style="fill:#efc2e6"/></g><g id="Woman"><path d="M78.1,227.19c.35-1,23.43-63.73,23.55-65.88,3.21.89,10,3.59,11.4,3.56a4.79,4.79,0,0,0,3.32-2.15c.93-1.24,5.48-11.57,5.32-13.11a4.47,4.47,0,0,0-2.61-3.15c-2.69-1.49-21.48-8.66-22.83-8.7a2.06,2.06,0,0,0-1.85.74c-1.74,2.94-5.68,12.14-6.41,13.78-.56,1.26-1.35,2.79.05,3.81.59.43,10.06,4,11.79,4.47-.28.69-23.51,66-24.55,69s-3.69,11.57-4.17,13c-.18.52,1.53.56,1.53.56S77.43,229,78.1,227.19Z" style="fill:#161616"/><path id="Right_leg" data-name="Right leg" d="M188.49,370.78c-.25-4-8.32-4.28-9.49-2.4-2.25,3.61.3,20,1.23,24,.3,1.28,6,4.22,6,4.22S189,378.89,188.49,370.78Z" style="fill:#f9e6c8"/><path id="Left_leg" data-name="Left leg" d="M175.37,393.09c.31-5.15.58-24.36-2.84-24.19-2.07.1-11,1.11-13.18,2.77-1.23.92-.12,4.81.21,5.81v-.06c2.58,13,10.11,31.32-3.09,40-1.83,1.2-7.74,2.37-8.07,4.9-.65,4.95,24.62-1.17,24.63-9.7C173,409.71,175.24,394,175.37,393.09Z" style="fill:#f9e6c8"/><path id="Shoe-2" data-name="Shoe" d="M182.1,412.25c-1.57-6-9.3-1.32-11-1-1.95.38-3.9,3.42-5.5,4.64l.17-.13-.38.29.08-.06c-5.11,3.92-14.25.13-18.44,3.86-4,3.52,4,6.7,7,7.15,6.09.93,26.73-1.76,28.2-4.63C183,420.8,182.46,413.6,182.1,412.25Zm-3.69,10.15Z" style="fill:#ee45b0"/><path id="Right_arm" data-name="Right arm" d="M142.76,237.56c-1.67-.59-14-4.76-15.68-5.21s-3.06-.23-4.63-.8a107.14,107.14,0,0,0-13.45-4.4c-2.38-.56-6.71-1.14-9-2-1.11-.41-9.66-2.83-10.6-3.31A19.12,19.12,0,0,1,86.66,220a6.27,6.27,0,0,1-2.18-3.53,12,12,0,0,0-1.94-2.69s-2.5-.44-2.44-.48c.41-.29,2.05-.58,1.78-1.14-.58-1.18-3.61-1.71-4.77-1.84-1.37-.16-5,6.79-5.46,8a11.14,11.14,0,0,0-.41,3.28c.11.53.52.65.72,1.06a20.15,20.15,0,0,0,3.57,3.2,3.61,3.61,0,0,1,.81.6l2-5.75s2.31-1.65,2.28-.94l-2.48,7.27c.52.05,3.41.13,3.52.14a71.93,71.93,0,0,1,6.86,2.39,29.45,29.45,0,0,1,6.33,3.14c1.31.85,1.71.93,3.06,1.7a39,39,0,0,0,5.74,2.44c3.36,1,6.88,1.67,9.31,2.69s7.5,4.87,8.73,5.37c2.83,1.14,5.72,2.34,8.47,3.67a53.77,53.77,0,0,0,6.22,3C136.95,251.83,144,242.06,142.76,237.56Z" style="fill:#f9e6c8"/><g id="Dress-2" data-name="Dress"><path d="M186,315.48c-.34-5.91,5.42-14.62,2.83-20.36s-11.79-7.38-12.91-13.49c-2.08-11.24.37-24.73-4.78-35.14-2-4-6.12-9.25-10.45-10.15-3-.63-17.86-5-18.68-.21a45.74,45.74,0,0,0-.88,5.29c.06,4.48-5,8.68-5.13,13.46-.16,5.31,2,10.67,5.09,14.87,6.39,8.68,13.7,15.77,15.92,26.9,2.31,11.59-2.69,25.07-7.78,35.38-3.19,6.47-6.37,12.77-8.16,19.83-.89,3.53-1,7.23-2,10.73-.19.71-2,4.2-1.89,4.78,1.06,3.84,7.53-1.35,11.3-.57,4.68,1,7,6.09,11.71,7.53,5,1.53,6.79-1.26,11.3-3,4.35-1.65,11.35.38,15.65-1.22C190.52,368.93,186.82,329.31,186,315.48Z" style="fill:#ee45b0"/></g><path id="Left_arm-2" data-name="Left arm" d="M181.11,282.66a81.56,81.56,0,0,0,1.12-14.17,70.07,70.07,0,0,0-.35-8.32c-.15-1.17,3.1-12.59-.15-15.82a5.75,5.75,0,0,0-6.85-.51c-.74.47-3,4.68-3.47,4.52-.76-.26-2.21-2.81-3.16-3.4-1.54-1-3.3-1.64-5.12-.91-4.49,1.8-5.42,9.55-5,13.6.57,5.37,4,7.61,6.18,12,1.62,3.3,3.79,7,5.2,10.25l-.08-.18C171,283.36,179.91,289.35,181.11,282.66Z" style="fill:#f9e6c8"/><path id="Head" d="M169.57,194.1c-3.29-3.25-12.92-6.91-13.09-7,0,0,0,0,0,0a16.63,16.63,0,0,0-3.7-.82,22.13,22.13,0,0,0-7.5,2.08c-4.4,2-6.47,2-9,6a40.89,40.89,0,0,0-3.53,7.38c-.33.77-6.3,4.43-5.79,6.44.55,2.17,2.79,1.6,2.76,1.9a32.87,32.87,0,0,1-.53,5c-.67,2.76,0,5.62.73,8.39s1.19,2.5,2.41,3.3c1.77,1.16,7.37,1.39,8.26,1.77s2.48,5.5,2.65,5.88c.84,1.85,1.17,7.55,1.08,9.6-.07,1.77-3.74,7.12-2.25,8.53,1.23,1.16,2.7,1.32,3.75.41.74-.63,9.27-9.85,10.26-10.5.78-.52,3.71-3.08,4.42-3.68,1.65-1.4,1.19-1.62.45-3.53-.83-2.15-.16-5.56.86-8.31.34-.9,6.09-6,7-7a39,39,0,0,0,3.76-5.12c1.39-2.17,2.74-4.47,2.63-7.13A20.9,20.9,0,0,0,169.57,194.1Z" style="fill:#f9e6c8"/><path id="Sunglasses-2" data-name="Sunglasses" d="M143.33,206.23c-1.81-3-7-4.69-10.23-5.44.74-1.38,2.22-4.9,2.22-4.9-.3-.33-1.17-.32-3,.58-2.26,1.11-6,9.22-3.81,11.43,2,2,1.47,0,1.74-1.35.17-.86.11-2.32,1-2.63.51-.19,1.36.35,2.78.61C134.3,204.58,145.68,210.17,143.33,206.23Z" style="fill:#6a3f00"/><g id="Hair-6" data-name="Hair"><path id="Hair-7" data-name="Hair" d="M182.52,196.07c-1.23-5.57-4.2-13.12-11.12-11.7-5.63,1.15-2.16,2.15-6.91-1.16a14.16,14.16,0,0,0-10.28-2.13c-5.94.87-14.25,4.56-16.5,10.3-1.67,4.25,1.23,7,2.86,11,1.52,3.75,1.58,5.87,1.79,10.18.39,8,2.12,15.27,10.75,16.9,3.64.69,7.39.78,10.74-.87,5.37-2.64,10.38-10.27,13.5-15.31,2.31-3.73,1.29-6.58,2.53-10.19C180.73,200.61,183.33,199.77,182.52,196.07Z" style="fill:#ea9a00"/><path d="M167,185.89s-3.48-.19-2.24,6.71,1,9.78,4.44,10.47c4.95,1,5.26,2.46,9.32.29,5-2.66-.07-2.38-2.81-1.11s-6.45-1-7.51-2.25c-.81-.95-2.39-8.5-2.44-9.87A14.27,14.27,0,0,1,167,185.89Z" style="fill:#ee45b0"/></g></g></g><g id="Cable_Car" data-name="Cable Car"><g id="Handles"><path d="M427.77,320.75c.44-22.47.24-45.27-1.37-67.68-.73-10.15-.1-20.5-2.16-30.52-1-5-2.64-1.76-5.24-.75-2.16.84-4.34-.93-6.37-.44-.58.14-2.83,3.87-.88,4.41s4.53-.3,6.79.07c2.72.44,2.31.89,2.4,3.66.05,1.66,0,3.33,0,5a146.37,146.37,0,0,0,.16,16.57c1.61,17.06,2.18,33.89,2.48,51,.32,18.29-.43,36.47-.38,54.78,0,9.58.74,19.14.74,28.71,0,1.74-1.06,10.14,1.16,10.64,3.21.73,2.16-8,2.16-9.73Q427.18,353.61,427.77,320.75Zm-7.26-97s0,0,0,0Z" style="fill:#a5bed1"/><path d="M188.72,223.17c-2.24-2.69-6.9-.63-10-.17-.62.09-.43.91-1.5-.18-.11-.11-3.58-1.69-3.74-.86-.52,2.72-.06,6.08-.22,8.85-.43,7.77-.61,15.54-.49,23.32.2,13,1.08,26,1.2,39,.23,24.26-1.24,48.44-1.1,72.68,0,6.24.4,12.42.89,18.63,0,.57-.06,8.26,1.45,7-.19,3.4,1.88,0,2.07-1.58.46-3.89-.16-10.63-.32-14.52-.33-8.22-.68-16.46-.64-24.69.06-13.4,1.46-26.77,1.33-40.19-.12-12.86-.78-25.73-.73-38.6,0-8.51.09-17,.28-25.54.15-6.41,1.3-13.17.57-19.54a37.79,37.79,0,0,0,5.55.07,41.28,41.28,0,0,1,5-.44C188.54,226.52,189.59,224.2,188.72,223.17Z" style="fill:#a5bed1"/><path id="Woman_hand" data-name="Woman hand" d="M175.48,242.58c-3,3.24-2.84,1.89-3.06,4.86s-2.12,9.38.2,10.06,1.52,1,4.25.49,2,1.11,4.13-1.44,1.15-5.43,1.58-7.85S178.46,239.33,175.48,242.58Z" style="fill:#f9e6c8"/><path id="Man_hand" data-name="Man hand" d="M422,239.34c-3,3.93-2.84,2.29-3.06,5.89s-2.12,11.38.2,12.2,1.52,1.17,4.25.59,2,1.34,4.13-1.74,1.15-6.58,1.58-9.52S425,235.41,422,239.34Z" style="fill:#f9e6c8"/></g><g id="Front"><path d="M416.1,389.27c.61-.57.51-9,.58-11.77.07-3-.31-14.78-.55-17.67a63.79,63.79,0,0,1,0-8.73c.59-11.8-.06-23.65-.13-35.46,0-5.93-.14-11.86-.36-17.79s-.52-11.8-2-17.63c-.13-.51-227.24-2.81-227.23-1.75,0,2.6,0,5.2,0,7.8-.1,10.6-1.52,21.12-1.85,31.71s.11,21.32.4,32c.29,10.82.34,40.81.12,41.25C187.37,391,415.54,389.8,416.1,389.27Z" style="fill:#bb3200"/><path d="M413.29,235c0-1.18-.64-16.25-.55-21.08s.57-19.69.7-22.39c.06-1.28.69-27,.38-28.18s-225.57-2.19-226-2-.47,5.56-.72,6c-.49.78-.72,24.14-.54,26.49s.32,4.71.37,7.11c.09,4.87.55,9.71.57,14.58s-.2,9.87-.24,14.81.07,19.77.22,22.27.4,4.73.53,7.1c.06,1.08.15,5.44,0,6.47s-.16,8.58.12,8.93c.6.75,224.86.75,225.17-.1.11-.3,0-13.43.05-18.2s.24-9.69.07-14.55C413.35,239.84,413.31,237.42,413.29,235Zm-19.4-55.14q0,.29-.16,0Zm-47.2-6.56-.09.09Q346.57,173.3,346.69,173.3Zm-106,90.42c-2.09,0-11.73,0-12.86,0-2.14,0-4.27.07-6.4.23-1.08.09-5.43.36-6.53.41-2.12.1-8.39.3-8.71.34l-.17,0c0-16-.86-55.87-.88-57.91a86.94,86.94,0,0,1,1-10.29c.36-1.05,3.29-8,3.61-8.46a27.29,27.29,0,0,1,5.15-5.1,21.89,21.89,0,0,1,5.73-3.76c.84-.36,5-1.53,6.18-1.85a12.52,12.52,0,0,1,6.17-.47c.57.13,5.07.06,6.34.32a44.19,44.19,0,0,1,8,2.29c.44.18,3.12,1.71,3.23,1.79.37.31,2.55,3.19,2.76,3.48a49.74,49.74,0,0,1,3.11,6.74c.15.46,2,40.76,3.4,63.61,0,1,0,1.93-.08,2.89s-.19,2.17-.24,3.26c0,.83,0,1.67,0,2.5C255.58,263.78,242.72,263.72,240.7,263.72Zm95.15-85.86c0,.77-.2,13.3-.29,16.36-.19,6.38.18,12.74.19,19.12s-.37,12.66-.4,19-.05,12.84.23,19.25c.07,1.62.14,18.8.12,19.17,0,.78-.05.73-.82.8-1.88.19-3.78.09-5.66.09s-3.61.18-5.42.26c-3.6.16-30.34-.5-32-.31l.25,0c-3.86-.55-22.19-.89-22.38-.92-.56-.08-.65.06-.73-.44a15.91,15.91,0,0,1,.06-2.43q0-1.62,0-3.23c0-1.94,0-3.89-.05-5.82-.14-3.92-1.05-31-1.11-32.77-.14-4.11-.21-8.21-.14-12.32s.32-8.29.17-12.43c0-1.11.76-24.84.25-25.63,1.49-.1,24.13.12,28.38,0,4.4-.11,8.8.1,13.2.09s8.71.07,13.05,0c2.3,0,4.57,0,6.86.16s6.48.29,6.29.82A4.68,4.68,0,0,0,335.84,177.86ZM402,256.25c0,1.37-.31,6.89-.33,8.29-.66-.48-9.15.33-11.16.43-5.75-.58-11.52,0-17.27.11-3.16.06-6.32.24-9.48.31s-6.11-.11-9.16-.25c-2.62-.12-8.33-.4-8.42-.45-.27-.15-.2-2.16-.22-2.91,0-1.53-.1-19.88,0-23,.11-6.18.06-12.35.32-18.53s-.14-21.57-.2-23.13a20.87,20.87,0,0,1,.72-4,40.09,40.09,0,0,1,4.51-6.68,38.7,38.7,0,0,1,6.18-5.71c1.13-.77,4.64-2.72,5.23-3a11.62,11.62,0,0,1,2.37-.49,42.68,42.68,0,0,1,19.85,1.58c6.54,2.15,10.78,7.64,14.81,12.9l0,0,.23.3h0a19.18,19.18,0,0,1,1.83,6.16q-.08,3.74,0,7.48c.05,5,.23,10,.21,15,0,4.79.34,19,.41,21.29S402.11,253.8,402,256.25Z" style="fill:#dc7800"/><path id="strip" d="M414.5,279.92s-.06-5.24-1.51-5.66c-4.71-1.37-21,.89-32.05,0-25.75,0-51.59,1.45-77.37,1-9.28-.17-18.57-.29-27.86-.07-11.52.28-23.08-.73-34.63-.69-13.35.05-39.95-1.52-53.23-.11-1.86.2-1.35,5.35-1.35,5.35,2,0,11.55,1.21,15.24,1.27,8,.13,29.67-.17,33.21,0,5,.19,30.94,1.36,39,1,8.47-.42,68.73-.39,90.39-.44q14.73,0,29.45-.5C396.63,280.9,411,281.76,414.5,279.92Z"/></g><g id="Banner"><path d="M372.51,343.71c2.43-.89,4.53-3.12,6.57-4.62h0c2-1.53,4.14-3,6.29-4.37,1-.64,2.07-1.17,3.09-1.79.16-.1,2.21-1.2,1.27-1.33-.66-.09-14.23-4.42-15-4.77a23.08,23.08,0,0,1-2.28,1.84,58.07,58.07,0,0,1-8.45,5.14l.06,0a7.37,7.37,0,0,1-1.78.48h0c-.36,0-2.31.66-2.24,1.17,0,.32,5.6,4,6.82,4.89a27.48,27.48,0,0,0,3.82,2.4c.25.14,1.63,1.07,1.87,1Z" style="fill:#e9be83"/><path d="M236,346.11a34.83,34.83,0,0,0,3.66-3.49c.37-.4,5-4.53,4.92-4.85s-2-1.31-2.21-1.52a62.13,62.13,0,0,0-4.74-4.4h0a21.92,21.92,0,0,1-2-1.7c-.41-.41-1-1.4-1.64-1.49-.42-.06-1.23.62-1.67.84q-1.33.66-2.64,1.38c-1.6.88-3.12,1.92-4.72,2.8l-2.59,1.4c-.46.25-.91.54-1.38.77-.21.1-1.7.21-1.52.29-1.14-.45,6.32,3.86,9.16,5.56,1.34.8,2.79,1.33,4.09,2.18a31.08,31.08,0,0,0,3.32,2.22Zm1.82-13.48h0Zm0,0h0Z" style="fill:#e9be83"/><path d="M388,365.65c1.92-.09,4.42-.09,6.22-.84,2.2-.92,1.38-3.15,1-4.95a21,21,0,0,1-.09-6.9,25.15,25.15,0,0,1,.62-3.12,11.65,11.65,0,0,0,.73-3.34,1.9,1.9,0,0,0-1.61-1.82c-.89-.13-1.59.47-2.34.85a15.85,15.85,0,0,1-6.65,1.53c-4.39.15-8.42-1.2-12.39-3-3.13-1.39-6.77-3.14-9-6-.9-1.16-1.16-3-2.82-3.28s-2.37,1.2-3.22,2.44a117.82,117.82,0,0,0-4.94,11.49c-.5,1.74-1.5,4.13.41,5.38,1.6,1,4.21.68,6,.81a20.66,20.66,0,0,1,7.29,1.78c2.33,1.07,4.25,2.75,6.39,4.13,4.43,2.86,9,5,14.38,4.78Zm4.06-3.91s0,0,0,0v0Zm-35.46-10.45Zm35.63-1.84-.12,0q.13-.11.13,0Zm-31-9.84,0,0,0,0Zm0,0h0Z" style="fill:#ffa93c"/><path d="M211.42,373.15c3.91-.78,6.85-3.91,11-4,1.88,0,3.73.41,5.61.36a13.75,13.75,0,0,0,5.29-1.34,92,92,0,0,0,10.18-5.88c2.32-1.42,7.49-3.42,6.38-6.87-.54-1.68-1.4-3.25-1.94-4.95a30.49,30.49,0,0,1-1.48-5.77c-.2-1.77-.37-7.13-2.35-7.08-1,0-1.86,1.52-2.45,2.33a28.69,28.69,0,0,1-3.12,3.85,20.28,20.28,0,0,1-6.25,4.29c-3.56,1.64-7.11,3.62-11,4.42a19.69,19.69,0,0,1-6.69.5c-.83-.13-6.45-.48-7.44.36a3.1,3.1,0,0,0-.91,2.88c.19.53,1.71,12.53.94,13.57a2,2,0,0,0,.33,2.88,5,5,0,0,0,3.9.45Z" style="fill:#ffa93c"/><path d="M219.87,336.21c.38.16,2.11-.9,2.5-1.11,1.18-.65,2.37-1.26,3.54-1.93,1.79-1,3.5-2.15,5.33-3.1,3.67-1.92,7.56-3.56,11.4-5.38,4.26-2,8.78-3.45,13.16-5.17a84.88,84.88,0,0,1,14.15-4c4.91-1,9.9-1.57,14.84-2.33l-.15,0a146.35,146.35,0,0,1,19.86-1c3.3,0,6.6,0,9.89.17s6.58.65,9.87,1,6.61.79,9.92,1.33a75.34,75.34,0,0,1,9.13,1.56c6.41,1.88,13.07,3.57,19.05,6.56a105.94,105.94,0,0,0,9.93,4.12c1.35.51,2.7,1,4,1.59a9.14,9.14,0,0,1,2,.92c1.39.67,2.74,1.46,4.16,2.06a16.26,16.26,0,0,0,2.4.76c.66.16,2.38.55,3,.64.94.13,1.55-.67,2.32-1,.54-.26.24-2.27.18-3-.33-3.58-1.79-6.87-2-10.49q-.09-1.45-.07-2.91a3.35,3.35,0,0,0-.27-2c-.77-1.13-9.53-2.79-9.95-3a60.83,60.83,0,0,0-9.63-3.45c-3.38-.76-6.77-1.47-10.15-2.24a87.93,87.93,0,0,1-9.53-2.32c-3.11-1.08-6.09-2.54-9.29-3.32A47.16,47.16,0,0,0,329.19,298a41.59,41.59,0,0,1-9.29-1,44.6,44.6,0,0,0-10.15-1.51,39.12,39.12,0,0,0-4.81.29,30.5,30.5,0,0,1-5.28-.1,105.2,105.2,0,0,0-10.55-.45,97.85,97.85,0,0,0-10,1.33c-3.49.5-7,1-10.51,1.31a79.8,79.8,0,0,0-9.89,1.49c-3.36.74-6.66,2-10,3s-6.37,1.77-9.55,2.7a66.1,66.1,0,0,0-9.15,3.64c-3.37,1.57-6.67,3.17-9.94,4.94a21.23,21.23,0,0,1-2.77,1.53c-.38.13-.3.16-.64.14-.56,0-.73-.34-1.35-.18-1.86.49-1.12,2.38-.66,3.61.68,1.79,1.32,3.6,1.83,5.45.23.84.44,1.69.61,2.54.2,1-.09,1.15-.15,2.08a15.61,15.61,0,0,0,.2,2.3c.09,1-.22,2.18.14,3.1s1.79,2.21,2.91,2Zm64.46-23,.13,0-.12,0Z" style="fill:#ffa93c"/></g><g id="Light-2" data-name="Light"><path d="M306.88,355.46c1.41,0,3.54.2,4.83-.46.21-.11.33-.31.52-.41.7-.37-.16,0,.67-.31a10.32,10.32,0,0,0,1.93-.91,15.33,15.33,0,0,0,5.55-7.24,12.78,12.78,0,0,0,0-9.59c-1-2.65-2.25-6.1-4.24-8.18-.86-.9-2.84-1.39-4-1.82a19.52,19.52,0,0,0-5.17-1.14,13.54,13.54,0,0,0-9.27,2.45c-5.29,3.9-7.63,11.4-6.66,17.75.49,3.23,2.26,6.79,5.22,8.43,3.2,1.77,7.14,1.47,10.66,1.43Z"/><path d="M306,348.64a5.25,5.25,0,0,1,1.51-.38,3.67,3.67,0,0,0,1.73-.12,4.79,4.79,0,0,0,2.1-2c1-1.53,3-3.93,2.26-5.81s-1-4-3-5c-1-.51-2.07-1-3.09-1.48a5.37,5.37,0,0,0-3.53-.48c-2,.51-3.9,1.55-4.56,3.62-.3.93-.27,1.85-.58,2.8a10.79,10.79,0,0,0-.53,3.57C298.45,347.32,302.29,349.59,306,348.64Z" style="fill:#fff"/></g><g id="Open_window" data-name="Open window"><path d="M259.88,251.27c0-1.65-.33-5.79-.28-6.23s-.05-3-.05-3.95c0-.49-.31-9.81-.27-10.68.08-1.77-.11-15-.11-15.87,0-1-.1-2-.11-2.94s0-2,0-3c0-.1-.86-13.18-1-14.05-.1-.49-.59-2.23-.7-2.62a15.29,15.29,0,0,0-1.56-3.36,28.62,28.62,0,0,0-4-6.09c-.38-.38-.67-.88-1.08-1.23s-.77-.5-1.18-.8a11.89,11.89,0,0,0-1-.68c-.2-.12-2.56-1-2.87-1.06s-2.37-.89-1.79-.35a19,19,0,0,0,2.1.93,10.49,10.49,0,0,1,2.52,1.6h0l.05,0,0,0a16.44,16.44,0,0,1,2.61,2.85h0l0,.05h0a11.85,11.85,0,0,1,1.65,2.31l0-.06c1.13,2.68,2.94,5.13,3.43,8,.23,1.37.51,2.77.61,4.06.13,1.64.72,12.72.67,14.26-.11,3.06.11,6.15.13,9.21,0,3.24-.22,6.45-.28,9.69s.27,6.6.32,9.9c.11,6.86,0,13.76,0,20.62,0,.55-.36,1,.06,1.88.11.22,1.93.29,2,0S259.88,254.73,259.88,251.27Zm-8.23-67.62h0Z" style="fill:#c66c00"/><path id="Sideshadow" d="M197.93,273.6a8,8,0,0,0-.52-1.12c-.12-.39-.49-5.45-.54-6.25-.19-3.09-.29-6.15-.28-9.25,0-3.47.61-18.28.81-22.23.4-7.58.09-15.11,0-22.69-.05-7.17-.16-14.34-.16-21.51,0-7.39-.33-14.77,0-22.16l.1,0h0c.2-.07.47-.33.18-.51a5.69,5.69,0,0,0-2.68,1.43c-.34.58-.11,12.45-.1,16.24s-.4,7.57,0,11.26c.38,3.28-.8,47.77-.43,55.45.21,4.48.21,8.94.17,13.42a60.84,60.84,0,0,0,.08,6.21c.18.85.65,1,1.4,1.26.28.1,1.82.95,2,.48Zm-2.68-1.31Zm-.12-102.23v0Zm.13-.55h0Zm0,0h0v0s0,0,0,0Z" style="fill:#c66c00"/><path d="M267.94,176.07h0c-.7-.11-.84-.81-.8-.55-.22,0-6.73-1.28-7.94-1.41-2.55-.26-5.11-.47-7.67-.68-4.64-.38-29.07-3.69-34-4.06s-19.66-1.94-19.75-1.92c0-.22,0,.19-.42.35s-.16,1.9-.18,2.21c0,1.18.07,9.71.11,12.8.09,6,.08,11.92.12,17.88,0,4.63-.07,9.27.08,13.9.17,5.35-.74,28.49-.84,34.73-.07,4.48-.23,9,0,13.52.07,1.31.64,9.22.75,9.58a1.91,1.91,0,0,0,1.46,1.56c2.86.73,6.14,0,9-.05,3.49-.12,7,.1,10.47,0,13.88-.46,27.75-1.59,41.6-2.63,1.81-.14,3.6-.35,5.4-.6h0c.54,0,2.89-.12,3.43-.16.3,0,.58.06,0-.52-.23-.24-2.51.08-2.82.11-.79.09-2.36.32-2.36.32-4.29.58-8.68.75-13,1.07s-29.06,2-37.34,1.94c-2.44,0-4.86,0-7.3.1-2.26.14-7.14.45-7.81-.47h0c-.25-.37-1.15-14.35-1.09-20.89.06-6.94.87-34,.82-40.66,0-7-.18-14-.16-21,0-7.55-.33-15.08,0-22.63.55.16,17.23,1.53,24.26,2.4h0c3.75.51,20.66,3.05,25.43,3.32S266.86,176,267,176.07,268.55,176.14,267.94,176.07Z" style="fill:#7d4400"/></g><g id="Platform"><path d="M429.21,427.58c-.39-1.44-28.09-2.62-28.9-2.82s-12.54,0-12.54,0l-2.67,15.35s8.78-.16,9.57-.13a10.72,10.72,0,0,0,2.38-.23C400.63,439.1,429.72,429.43,429.21,427.58Z" style="fill:#7e7f6f"/><path d="M429.93,422.39c-.8-.8-3.86-.6-4.29-.5s-1.21,1.05-1.76,1c-2.82-.08-16.9.34-17.18,0s-.92-3.3-1.42-3.56c-1.91-1-9.35.88-8.83,2.89.18.68-.05,4.65.05,5.17.26,1.25,31,.27,32.72.16C430.38,427.5,430.77,423.22,429.93,422.39Z" style="fill:#a3a390"/><path d="M208,435.28l-9.67-13.75s-42.78,4.73-42,5.62a17.22,17.22,0,0,0,4.73,3.61c1.13.52,29.87,8.27,31.11,8.08.58-.09,16.62,1.09,16.62,1.09Z" style="fill:#7e7f6f"/><path d="M184.82,427.68c1.17-.21,3.69-2.4,3.92-2.84s1.31-1.06,1.62-1.36c.77-.75-7.81-7.47-7.81-7.47s-.5,5-.67,6.17c-.14.94-18,1.38-18.66,1.38s-1.59-1.1-2.4-1c-1.22.09-3.85.06-4.94.64s.46,3.68.83,4.79a8.46,8.46,0,0,1,1.62-.06c1.43,0,20.23.38,23.5-.21Zm-12.5-3.21.17,0-.17,0Z" style="fill:#a3a390"/></g><g id="Undercar"><path d="M404.85,417.59c-.23-1.21-.32-4.56-1-5.45-1.4-1.79-6.39-.73-8.06-.91-4.81-.52-207.62,2.21-208.94,4-1.11,1.46-.93,6-1.39,7.89-.31,1.24,1,3.67,2.26,3.62,2.94-.12,8.72,1.37,11.12,3.84s1.4,6.8,4.13,9.54c2.06,2.07,7.54,2.84,8.62,5.2.72,1.59-.84,4.88-1.09,6.67a56.84,56.84,0,0,0-.39,9c0,1.27.27,2.59.28,3.84,0-.66-.23,2.86-.26,2.63.34,2.19,6.39,8.5,7.06,8.61a19.63,19.63,0,0,1,3,1.11c9.78,3.8,152.4-.39,157.21-2.11,3.61-1.28,9-3.47,8.55-7.5-.71-6.55.92-13.7-2.5-18.11-3.25-4.18,2.08-4,4.05-8.81a9.77,9.77,0,0,0,.9-6.25c-.23-1.22-1.5-3.07-1.28-4.3.72-4,5.31-4.07,8.28-4.65.07,0,3.94-2.07,3.67-1.78C399.93,422.68,405.06,418.71,404.85,417.59Z" style="fill:#282b2f"/><path d="M403.84,412.14c-1.4-1.79-6.39-.73-8.06-.91-4.81-.52-207.62,2.21-208.94,4-1.11,1.46-.93,6-1.39,7.89-.31,1.24,1,3.67,2.26,3.62,2.94-.12,8.72,1.37,11.12,3.84s1.4,6.8,4.13,9.54c1.9,1.91,6.73,2.72,8.3,4.7,3.18,0,7.27,0,9.15-.07,11.67-.12,23.29-.64,35-.19,12.63.49,25.32-.38,38-.51,12.15-.12,24.27-.5,36.38.56,11.77,1,23.35.19,35.14-.05,5.91-.12,12.4.24,18.21-.87,1.11-1.22,3.28-.35,4.39-3a9.77,9.77,0,0,0,.9-6.25c-.23-1.22,4-8.37,7-9,.07,0,3.94-2.07,3.67-1.78.89-1,6-4.93,5.82-6.05S404.53,413,403.84,412.14Z"/><path id="Bottom_bar" data-name="Bottom bar" d="M386.31,469.23c-.49-3.14-17.92-.68-20.06-.63-5.91.14-29.64,1-33,.79-6.61-.33-80.39,1.05-83.39,1-3.82-.08-22.45,1.22-24.33-.28-2.08-1.66-13.67,0-14.42-.68.35.52.35.52,2.15,3.06a25.17,25.17,0,0,0,4.6,4.11,6.32,6.32,0,0,0,4.74.73c.73-.11,17.77,1.07,23.76,1.66,6.61.65,71.8-.29,80-.44,6.65-.12,52.18-2,52.79-2C381.23,476.5,386.31,469.23,386.31,469.23Z"/><path id="Top_bar" data-name="Top bar" d="M417.17,415.72c2.17-4.38-10.84-4.23-12.47-4.36-32.76-2.61-120.49-1.52-139.71-.53-8.77.45-78.79,4.2-80.3,5.35-.21.16-4.44.2-6.28,1.63-2.37,1.83,3.2,5.94,5.06,6.41,3.48.88,2.32-1.54,3.4-3.61,2.29-4.4,66.78-5.11,68.6-5.55a45.17,45.17,0,0,1,7.39-.64c18.07-1.14,36.26-1.07,54.37-1.45,21-.45,41.56-.91,62.54,1,4,.36,12.06.91,16.11,1.08.63,0,4.29-.32,5,.17.92.69-.15,1.48.4,2.65,2.14,4.55,4.06,1.43,7,.25C409.23,417.66,419.57,419.46,417.17,415.72Z"/><path id="Hole" d="M304.25,467.44c4.24-1.36,3.15-13.58-2.66-10.2-3.59,2.09-1.72,11.62,2.66,10.2Z"/></g><path id="Bumper" d="M432.22,400.2c-.37-2.4-2.64-4.38-4.54-5.72a27.49,27.49,0,0,0-6.93-3.23c-2.16-.74-4.75-.95-6.74-1.88s-4.9-.63-7.11-.73c-5.62-.27-11.31-.23-16.9-.81-2.61-.27-13.93-.4-15.32-.58A143,143,0,0,0,358.27,386c-5.46-.05-10.87-.47-16.32-.73a165.05,165.05,0,0,0-16.56.38c-5.59.3-11.15.15-16.74.29s-11,.65-16.43,1.06c-5.27.4-10.54.49-15.82.7-5.47.22-10.9.42-16.38.37s-11.12-.34-16.68-.47c-10.86-.25-21.69.52-32.54.72-2.62,0-22.3,1-23.69,1.13-2.64.28-5.28.33-7.93.4a29.4,29.4,0,0,0-7.92,1.1c-2,.61-5.06,1.22-6.29,3.09-1.38,2.1-.47,5,.15,7.24.71,2.52,1.39,5.05,2.21,7.54a79.74,79.74,0,0,1,2.15,7.74c.47,2.12,1.21,4.29,3.59,4.8a8,8,0,0,0,7.09-1.71,13.72,13.72,0,0,1,2.73-2.11c.49-.24,18.54-2.67,19.67-2.71,4.41-.17,8.8-.59,13.2-.85,7.43-.44,14.87-.72,22.3-1,9.06-.38,18.16.07,27.24-.1,4.55-.09,9.05-.38,13.57-.85s8.8-.49,13.21-.51q6.12,0,12.25-.12c2.23,0,35.22-1.6,37.5-1.6,9.34,0,18.59.9,27.92,1.3,4.64.2,9.27.56,13.91.81s9.12.28,13.71.91c4.36.6,8.69,1.1,13,1.93a23.72,23.72,0,0,1,5.24,1.51,48.62,48.62,0,0,1,5.11,3.09,28.2,28.2,0,0,0,2.54,1.41c.25.12,1,.59,1.29.51s.77-1,1-1.2c1.18-1.45,2.85-2.87,3.51-4.63.48-1.28,1.08-2.52,1.53-3.81a49.09,49.09,0,0,0,1.52-6.16A18.07,18.07,0,0,0,432.22,400.2Z" style="fill:#932800"/><g id="Bell"><path id="Base" d="M313.76,97.56c-.45-3-2-4.94-4.28-7-.43-.38-.85-1-1.31-1.3a11,11,0,0,0-1.94-.86c-.55-.24-1.51-.46-1.76-.89-.45-.76-.33-1.73-1-2.5a3.52,3.52,0,0,0-3.61-1.37c-1.48.44-1.75,2.07-2.22,3.3a7,7,0,0,1-.32,1c-.48.65.83-.17-.51.35-.74.29-1.65.37-2.43.66a10.27,10.27,0,0,0-3.81,2.8c-1.6,1.67-4,5.68-1.59,7.72.65.56,6.95.57,7.74.93.49.22,0,8,.31,8.69.49,1.13,5.1,1.29,5.13-.23,0-.66-.16-7.73.19-8,.63-.43,9.89-.8,10.48-1.06C313.93,99.44,313.88,98.54,313.76,97.56Z" style="fill:#7e7f70"/><path id="Highlight" d="M309.78,99.12c.05,0-.2-1.32-.19-1.4a6.39,6.39,0,0,0-.21-1c-.09-.31-.2-.62-.31-.92s-1.54-3.45-1.78-3.93a7.64,7.64,0,0,0-.79-1.29,19.89,19.89,0,0,0-1.42-1.62l-.25,0-.55.08a.24.24,0,0,0-.25-.07c-.16.05-.72.26-.85.32a.26.26,0,0,0-.11.29c0,.06.41,1,.42,1.11s.57,1.51.6,1.61c.07.28.16.55.25.82s.31.88.38,1.07a26.73,26.73,0,0,0,.62,2.67,28.17,28.17,0,0,0,.53,2.84C305.92,99.67,309,99.17,309.78,99.12Z" style="fill:#d8d8d6"/><g id="Shadow"><path d="M297.3,88.4c.47.71,2.29-.09,3-.13a12.36,12.36,0,0,0,3.24-.2c.14-.06,0-.34,0-.35s.3,0,.43-.16c.41-.42.25-.41-.09-.43-.52,0-1.85,0-2.41.06s-2.56.68-2.87.37.17-1.74.16-2.18.47-.85-.14-.51a1.82,1.82,0,0,0-.53.85A25.92,25.92,0,0,0,297.3,88.4Zm1.4-.77h0Z" style="fill:#4a4b42"/><path d="M312.7,98.68c-1.17-1.09-3.75-.44-5.23-.53-1-.06-1.92.07-2.87,0a27.71,27.71,0,0,0-3.57.09,31.31,31.31,0,0,1-3.67.51c-1.26,0-1.6-.37-2.88-.45-1.1-.07-.56-3.29.14-4.36a29.78,29.78,0,0,1,1.62-2.78c.43-.53,2-1.59,2.12-2.26.27-1.37-2.15.27-2.49.56a18.94,18.94,0,0,0-3.24,3.74A7.58,7.58,0,0,0,292,94.3c-.08.19-.69,1.68-1,2.25a16.93,16.93,0,0,1-.62,1.75c-.13.19-.57.25-.85.36s-1.08.33-1.08.33c0,.33.89.67,1,.85a22.25,22.25,0,0,0,3.56,1.1c.55,0,2.55.07,3.1.14-.06,0,.73.16.73,0a26,26,0,0,1,0,3.24,23.26,23.26,0,0,0,.28,3.75c.23,1.38.6-.27.68-.88s.18-1.51.21-2.29c0-.93.24-.8,1.19-1.08a1.9,1.9,0,0,1,1.61.29c.37.51-.4,4.41.54,4.45.64,0,.85-3.31.84-3.68a30.43,30.43,0,0,1,0-3.34c.36-.24-.19-.17.38-.24s1.27-.1,1.89-.13c1,0,2-.2,3-.31s2.14-.22,3.21-.24a6.3,6.3,0,0,0,2.63-1C313.79,99.2,313.16,99.12,312.7,98.68Z" style="fill:#4a4b42"/><path d="M293.93,92.74h0v0Z" style="fill:#4a4b42"/></g></g><g id="Roof"><path id="Windows" d="M353.8,120c-8.48-4.21-93.55-6-113.39,1.61-9.66,3.71,1.34,14.38,1.34,20.7,13.82-4.86,104.43-3.22,109.28.52C350.77,141.17,359.82,123,353.8,120Z" style="fill:#d8ebff"/><path id="Frame" d="M375.5,125.2c-11.59-2.27-22.21-8.35-33.73-9.7-13.53-1.58-27.88-1.42-41.65-1.08-7.3.18-14.61,0-21.92,0-7.69,0-14.87,1.83-22.4,3-11.38,1.82-26.91,6.5-37.71,10.67,0,0,.6,4.09,1.77,8.86a64,64,0,0,0,2.74,8.73c.33.82.92,3.15,1.56,3.63,2,1.52,9.3-.08,11.65-.29,1.56-.13,7.94.14,9-1.26,1.32-1.75-.93-9.37-1.29-11.53a43.41,43.41,0,0,1-.75-7.43c0-3.44-.29-3.83,2.88-5.14,6.53-2.7,13.93-3.44,20.85-4.79a59.59,59.59,0,0,1,10.8-1c3.85,0,9-.71,12.74.1,1.82.4,1-.28,2,1.21s.65,4.8.72,6.4c.13,3,0,6.1,0,9.14,0,2.54-.47,3.19,1.63,4.28,1.09.57,5.45,1.15,6.58.57,2.32-1.21,1.62-6.93,1.7-9.51.06-2.17-.86-8.36.08-10.15,1.13-2.17,5.68-1.17,8.24-1.49l-.2,0c3.62-.43,7.42,0,11.06,0h-.05c6.49,0,13.36.28,19.67,1.91,2.92.75,5.16,2.1,7.88,3.21.58.24,2.21.4,2.64.86,1.16,1.21,0,.09.27,1.74.49,3.4-.85,8.46-1,12-.1,1.79-1.19,6.75-.13,7.95.92,1,6,.71,7.27.79,3.35.2,10,1.17,13.16.16,2.33-.73,2.81-13.69,2.81-13.68.71-1.68.74-3.57,1.49-4.74C376.25,128,378.73,125.84,375.5,125.2Zm-33.28-8.54a.09.09,0,0,1,0-.06Z" style="fill:#dc7800"/><path id="Top-2" data-name="Top" d="M366.59,147.48a6.8,6.8,0,0,0-2-4.5,8,8,0,0,0-3.23-2.05c-1.13-.16-3.25-.29-4.37-.49-2.31-.41-4.63-.77-6.95-1.15-4.59-.77-9.1-1.5-13.75-1.84a12.82,12.82,0,0,0-2.74-.14,20,20,0,0,1-3,.17,71,71,0,0,0-7.25-.69c-2.33-.11-4.66,0-7,0-1,0-5-.74-6.12-.79a49.83,49.83,0,0,0-6.71-.11,13.49,13.49,0,0,1-3,.23,76.77,76.77,0,0,0-9.3.26c-2.38.3-4.76.25-7.15.34-4.84.18-9.66.63-14.49.84a98.27,98.27,0,0,0-14.06,1.33,58.89,58.89,0,0,1-6.85,1.37c-2.18.14-4.26,1.22-6.27,2-1,.36-5,1.19-6,1.64s-4.53,2-5.06,2.82a1.89,1.89,0,0,0,.07,2.18C231.82,149.56,366.85,149.72,366.59,147.48Zm-5.88-6.42-.22,0Z" style="fill:#ffba3e"/><g id="Top_roof"><path d="M225.86,126.79c1.79-.67,3.53-1.5,5.36-2a51.73,51.73,0,0,0,5.36-1.49h0c4.16-1.74,8.47-2.56,12.83-3.63A134.8,134.8,0,0,1,263,117.13a243.36,243.36,0,0,1,27.87-1.86c4.63-.1,9.27,0,13.9-.1s9.05.06,13.58,0a122.45,122.45,0,0,1,27.15,2.52,46.79,46.79,0,0,1,7.16,2.2c2.3.9,4.7,1.54,7.06,2.23s4.82.72,7.29,1.4,7.5,2.27,7.47,2.27c.15,0,2.31,1,2.46,1.06-.11,0,7.36,0,6.79-1s-2.41-1.48-3.43-1.95a34.38,34.38,0,0,0-9.05-2.33,65.23,65.23,0,0,1-9.32-2.44c-3-1-6.06-1.71-9-2.87a52.5,52.5,0,0,0-9.2-2.5c-3.21-.63-6.46-1-9.71-1.34s-6.64-.65-10-.75-6.63.08-10,0-6.48,0-9.71,0c-6.63.17-13.28.14-19.91.24s-13,.72-19.49,1.46c-3.24.38-6.46.92-9.69,1.43s-6.48,1.38-9.72,2.12a61,61,0,0,0-9.2,2.63c-2.84,1.14-5.9,1.51-8.7,2.76-1.42.63-2.89,1.15-4.35,1.68s-2.84.71-4.28,1.07a11.74,11.74,0,0,0-4.22,1.88c-.93.71-1.26-.34-.83,1s5,1.59,5.9.7C220,128.66,224,127.49,225.86,126.79Zm146.76-4.71-.15,0,.15,0Zm-.23,0-.23,0,.23,0Zm-108.56-5,.35,0-.35,0Zm110.8,8.8h0Z" style="fill:#932800"/><path d="M214.87,127.9l2.88-1.25-.17.08c5.35-2.22,10.71-4.51,16.22-6.32,2.75-.9,5.57-1.55,8.36-2.29s5.65-1.53,8.51-2.19a134.18,134.18,0,0,1,17.86-2.83c6.07-.55,12.14-.52,18.23-.57s12.21-.17,18.32-.27c3,0,5.92-.06,8.88.05s5.78.44,8.68.58c5.7.29,11.43.91,17.09,1.54s11.32,2.33,16.94,3.8c2.76.72,5.57,1.2,8.34,1.85a81.41,81.41,0,0,1,8.38,2.76c2.68,1,5.41,1.74,8,2.82,1,.39,2.08.87,3,.08a1.77,1.77,0,0,0,0-2.64,3.4,3.4,0,0,0-1.25-.52c-.69-.23-1.35-.57-2-.83-1.33-.53-2.7-.94-4.07-1.37-2.8-.89-5.51-2-8.32-2.9s-5.52-1.3-8.3-1.93-5.61-1.48-8.41-2.22c-11.18-3-22.76-3.32-34.23-4.26-5.95-.49-11.91-.35-17.87-.25s-12,.21-17.94.22a168.17,168.17,0,0,0-18,1,129,129,0,0,0-17.34,3.23,151.93,151.93,0,0,0-16.94,4.85c-5.28,2-10.55,4.06-15.72,6.35a1.68,1.68,0,0,0-1,2.39c.35,1.16.94,1.46,2,1Zm165.37-2.75-.09,0,.09,0Z" style="fill:#bb3200"/></g><g id="Main_roof"><path d="M416.18,185c2.83-2.8,5.84-5.45,7.09-9.35a37.51,37.51,0,0,0,1.32-6.3,27.14,27.14,0,0,0,.36-6.41c-.4-3.94-3.33-6-6.63-7.68a11.18,11.18,0,0,0-2.28-1,20.37,20.37,0,0,1-2.7-1.26c-1.77-.75-3.7-2.43-5.58-2.64a53.09,53.09,0,0,1-9.22-1.88c-4.08-1-11.19-.77-15.35-1.33a85,85,0,0,0-12.36-.79c-4.31,0-8.62.21-12.93.32-8.69.23-17.38.28-26.07.36-4.33,0-8.66-.14-13-.08s-8.57.3-12.86.4-8.86,0-13.28.17-8.65.43-13,.39-8.47-.34-12.72-.41-8.61.08-12.9.26c-8.72.38-17.42,1-26.15,1.3-4.27.13-8.53.09-12.8.18s-8.49.34-12.73.49-8.45.29-12.66.75q-1.56.17-3.12.41c-.94.15-1.91,0-2.83.2a6.39,6.39,0,0,0-2,1.13c-.83.58-1.7,1.11-2.48,1.76a13.85,13.85,0,0,0-4.56,9.59c-.07,2.17.71,4.27.93,6.43.5,4.92,9.28,14.59,10,14.54s.68-.18.71-.78.05-1.16.09-1.75c.12-2.22.24-4.43.32-6.65,0-1,.08-1.91.1-2.87a8.84,8.84,0,0,1,.1-2.45,1.65,1.65,0,0,1,.59-.84,18.34,18.34,0,0,1,2.34-1.74c.75-.35,8.63-1.07,10.36-1.5a33.84,33.84,0,0,1,5.15-1.18c.87-.07,1.62.32,2.4.3,1.13,0,2.31-.36,3.44-.49a125.33,125.33,0,0,1,12.51-.91c4.21-.08,8.4-.68,12.61-.67s8.64.17,13,.19c8.57,0,17.08-.3,25.66.1,4.27.2,8.53-.41,12.8-.33s8.38.49,12.58.48c8.55,0,17.11,0,25.67,0s17.13.87,25.68,1.34c4.19.23,8.4.31,12.6.45h0c1.08,0,10.29-.27,10.92-.29,1.42,0,2.83-.08,4.25-.09a78.66,78.66,0,0,1,8.71.41c2.69.28,5.32.55,8,.62,1.22,0,2.43-.21,3.66-.17,1.49,0,6.63.51,7.17.61s1.12.14,1.69.21c.11,0,5.16,1.39,5.25,2.37s-.93,15.38-.2,16.1a1.79,1.79,0,0,0,2.48,0Zm3.56-9.76.06-.13-.06.13Z" style="fill:#bb3200"/><path d="M183.91,184.41a3.22,3.22,0,0,0,.79.41,1,1,0,0,0,.39.07,3.47,3.47,0,0,0,.64-.09h0a1.36,1.36,0,0,0,.55-.25c0-1.25.11-2.49.18-3.73.1-1.83.2-3.66.26-5.49,0-.84.07-1.67.09-2.51,0-.48,0-1,0-1.43,0-.2,0-.4,0-.6s0-.14,0-.22a1.9,1.9,0,0,1,0-.4c-.1,0,0-1.31-.09-1.31s-1.24.25-1.81.3a2.09,2.09,0,0,0-.61.1l-.34.14h0l-.25,0a50,50,0,0,0-5.09,1.93,3.72,3.72,0,0,0-1.32,1.45,1.88,1.88,0,0,0-.34.88,2.69,2.69,0,0,0,.11,1,13.52,13.52,0,0,0,.63,1.82,8.86,8.86,0,0,0,1,1.82c.48.8,2.07,2,2.58,2.77m.29-7.76h0l0,0,0,0Z" style="fill:#932800"/></g></g></g><g id="Selfie_Sticks_in_front" data-name="Selfie Sticks in front"><path d="M274.72,209.16c3.34-3.17,7.12-6.91,10.58-10,3.3-2.91,6.17-6.26,9.4-9.23,1.76,1.91,8.81,6.62,10.42,5a55.75,55.75,0,0,0,5.43-6.08,8.15,8.15,0,0,0,1.84-3.22,3.45,3.45,0,0,0-1.09-2.88,35.32,35.32,0,0,0-5.77-4.55c-2.24-1.56-4.32-3.33-6.55-4.89-1.63-1.14-3.73-3.4-5.79-1.85s-3.24,3.83-4.71,5.72c-.41.53-3.64,5-2.77,5.74,1.12.95,2.53,1.66,3.73,2.5a32.83,32.83,0,0,1,3.68,2.85c-2.36,2.43-4.64,5-7,7.36l-.09.09c-2.43,2.38-5.07,4.53-7.55,6.85l-3.78,3.57-1.28,1.21ZM286,195.8Z"/><path d="M322.14,248.36c.91-3.06,1.85-6.11,2.83-9.15.51-1.56,1-3.12,1.51-4.69s.92-3,1.36-4.54c.64-2.2,1.16-4.43,1.71-6.66s1-4.23,1.52-6.34c.72-2.8,1.48-5.59,2.28-8.37q1.31-4.46,2.63-8.93c.74-2.49,1.54-5,2.26-7.46.36-1.25.73-2.49,1.06-3.74.11-.41.21-.81.31-1.22,0-.12.07-.25.1-.37l.07-.29c.24-.89.53-1.77.83-2.63.16-.46.35-.91.51-1.38.09-.28.18-.56.25-.85q1.87.57,3.7,1.22c.8.28,1.59.58,2.4.82a5.26,5.26,0,0,0,1,.2,2.39,2.39,0,0,0,1.68-.53,3.3,3.3,0,0,0,1-2.25c.09-.69.17-1.38.32-2.06.28-1,.63-1.9,1-2.84.28-.73.56-1.46.85-2.18.16-.39.33-.79.47-1.2a4.67,4.67,0,0,0,.31-1.52,3.09,3.09,0,0,0-.18-1.27,3.21,3.21,0,0,0-.58-1,6.49,6.49,0,0,0-2.79-1.63l-1.2-.45-1.29-.48a25.24,25.24,0,0,0-3.22-.94,32.3,32.3,0,0,0-3.73-.52c-1.61-.17-3.21-.43-4.82-.55l-2.17-.14c-.37,0-.75,0-1.12-.06s-.61,0-.91,0a3.25,3.25,0,0,0-1.64.55,5.4,5.4,0,0,0-1.86,2.6,15.34,15.34,0,0,0-.68,2.14c-.21.8-.4,1.61-.6,2.41a21.12,21.12,0,0,1-.8,2.39,1.71,1.71,0,0,0,.65,2,.84.84,0,0,0,.09.87,4.13,4.13,0,0,0,1.25,1.16,8.9,8.9,0,0,0,1.67.69c.66.21,1.34.36,2,.52.87.21,1.75.4,2.63.54s1.88.32,2.82.5l.3.06a10.09,10.09,0,0,0-.26,1.47c-.1.71-.24,1.4-.4,2.1l-.38,1.67a1.57,1.57,0,0,0-.07.3q-.24,1.07-.5,2.14c-.72,2.73-1.53,5.43-2.32,8.14q-1.27,4.36-2.46,8.74c-.81,3-1.62,5.92-2.32,8.91s-1.28,5.84-1.91,8.77c-.22,1-.42,2-.66,3s-.49,2-.74,3c-.35,1.29-.69,2.58-1.07,3.87-.48,1.59-1,3.18-1.46,4.76q-1.33,4.31-2.62,8.62c-.13.41-.25.82-.37,1.23a1,1,0,0,0,.53,1.25,1,1,0,0,0,1-.15.76.76,0,0,0,.27-.39Zm27.67-76.51h0Zm.11-.47,0-.15a.93.93,0,0,1,0,.15Zm-20.65,5.71h0ZM331,171.4l0-.15,0,.15Z" style="fill:#161616"/></g></svg>