<svg xmlns="http://www.w3.org/2000/svg" viewBox="0 0 359 263"><title>MHM</title><path fill="#fff" d="M0 0h359v263H0z"/><g data-name="Left arm"><path d="M201.85 76.83c-.93.17-.66 1.59-.68 2.32a45.53 45.53 0 0 0 .08 5.25c.21 2.58 0 5.13 0 7.71 0 .95.19 1.87.22 2.81s0 1.85 0 2.77c0 1.68.12 3.35.18 5 .12 3.15 0 6.3.11 9.45q0 1.11.06 2.22c0 .8 0 1.6.06 2.39A10.86 10.86 0 0 0 202 120c.25.66 1.68 1.58 2.12.74.19-.36-1.69-43.77-1.85-43.81.16-.06-.39-.06-.41-.09zm.25.39zM203 143.33a1.09 1.09 0 0 0-.78.59c0 2.83-.33 5.65-.07 8.48.27 3 .1 6 .07 9-.05 5.91.07 11.83.14 17.74 0 1.48.06 3 .11 4.43 0 .71 0 1.41.09 2.12a2.93 2.93 0 0 0 .08.91c.08.1.44.1.61.09s.56.16.73 0 .12-43.55-1-43.34zm.23.1zm-.95.34zm-.05.12" fill="#e0e0e0"/><path d="M180.64 64c-.28.47-2.39 131.9 1 135a38.23 38.23 0 0 1 4.25-2.33 64 64 0 0 0 7.22-3.68 44.39 44.39 0 0 0 4.45-2.5c.5-.35.38-.68.39-1.28s0 0-.08 0c0-3.26.33-6.47-.05-9.74a74.77 74.77 0 0 1-.21-10.61c.08-3.43-.25-6.82-.28-10.24 0-3-.13-5.92-.18-8.89q0-1.67-.08-3.33c0-.39-.1-.61.17-.82a10.13 10.13 0 0 1 2.85-.93c.94-.29 1.9-.52 2.85-.8.42 6.66.68 13.27.44 19.93-.07 2-.09 9.46 0 11.25s.19 7.21.27 8.18c0 .49.26 3.27.23 3.5 1.55-.81 3.3-1.81 4.82-2.74a24.33 24.33 0 0 0 2.69-1.74c.19-.15.4-.3.57-.46a1.79 1.79 0 0 0 .55-.91c.06-.14.42-97.28-.48-98.23a14.08 14.08 0 0 0-4.55-2.94 32.44 32.44 0 0 1-2.93-1.54 13.51 13.51 0 0 0-1.8-1.09c-.47-.16-.4-.38-.59.05v2c.05 1.67.17 3.36.09 5a46.33 46.33 0 0 0 .15 8.84V93c.66 5.16.19 10.43.32 15.62.09 3.68 0 7.39.23 11.07-1.21-.4-2.44-.72-3.66-1.06a6.09 6.09 0 0 1-1.82-.48c-.44-.37-.17-2.37-.18-3.05 0-3.13.05-6.28-.06-9.41-.25-7.13-.86-14.25-1-21.39 0-.88-.05-1.75-.08-2.63s0-1.68-.08-2.51c0-1.06 0-2.21-.09-3.25-.11-.88 0-1.8-.11-2.68-.07-.61-1.13-.88-1.59-1.12a49.77 49.77 0 0 1-4.92-2.93 60.58 60.58 0 0 0-5.36-3.57c-.51-.27-1-.53-1.55-.78s-.44-.27-.77-.42c-.09-.05-.97-.52-1.04-.41zm14.94 8.84c.1 0 .08 0 0 0zm.07 0zm.13 3.34v.05a.09.09 0 0 1 0-.01zm7.13 1.9l.17 1.09zM202.37 93zm9.23 84.26zm-.82 4.54z" fill="#80c6f3"/><path d="M231.77 82.17c-1.91 0-3.81 0-5.72.11-2.4.13-4.79.49-7.2.49-1.8 0-3.6 0-5.4-.17a9.73 9.73 0 0 0-1.57-.09c-.25.05-.12 2.76-.15 3.46-.13 4 .14 8.06.15 12.09v7.71c0 2.4.29 4.79.22 7.2 0 1.73-.23 3.46-.34 5.2-.2 3.16-.17 6.36-.17 9.52v12.38c0 5.58 0 11.15.2 16.72.14 4 .28 7.9.41 11.85s-.53 8-.41 12.05a5.53 5.53 0 0 0 .07 1.06c.07.19.63.08 1.07.06 1.5-.06 3-.24 4.5-.25 1.76 0 3.52-.21 5.28-.23 1.6 0 3.19.14 4.79.13 1.91 0 3.81.11 5.72.18 1.09 0 1.21-.45 1.39-1.53a15.45 15.45 0 0 0 .1-3.33c-.25-5.28.11-10.56-.12-15.85-.32-7.33-.42-14.65-.51-22 0-3.14-.09-6.29-.17-9.43-.11-4.23-.46-8.45-.49-12.69a30.39 30.39 0 0 1 .37-4.75c.34.19.4.71.52 1.05.39 1.1.77 2.19 1.17 3.29s.81 2.18 1.22 3.27c1.17 3.09 2.46 6.12 3.7 9.18 1.62 4 2.52 8.14 3.78 12.24 1.17 3.78 2.81 7.45 4.13 11.19s2.53 7.45 3.85 11.16c1.13 3.15 2.51 6.2 3.6 9.37q.79 2.3 1.65 4.56c.22.58.46 1.15.71 1.72s.52 1.94 1.1 2.27a3 3 0 0 0 1.25.16c.93.06 1.87.17 2.8.2 1.75.06 3.52.05 5.27 0l4.06-.11a26 26 0 0 0 3.09 0 .52.52 0 0 0 .5-.51 5.66 5.66 0 0 1 .18-.8 21.39 21.39 0 0 1 .87-2.45c1.11-3.19 2.56-6.24 3.63-9.45.63-1.89 1.14-3.8 1.76-5.69s1.31-3.43 1.89-5.18c1-3.06 2.11-6.12 3.27-9.12 1-2.71 2.19-5.35 3.29-8 1.29-3.16 2.05-6.51 3.47-9.61 1.5-3.28 2.46-6.76 3.74-10.13.78-2.06 1.44-4.15 2.37-6.15.21-.45 1-2.43 1-1 0 1.15.06 2.29.06 3.44 0 4 .16 8 .1 11.92-.07 4.77-.26 9.54-.41 14.31-.08 2.5 0 5 0 7.52 0 4.82-.48 9.63-.4 14.46s.25 9.65.23 14.49a10.43 10.43 0 0 1 0 1.28 4 4 0 0 0 .11 1c.26.24 1.11.09 1.41.1h2.13c1.74 0 3.48-.1 5.22-.17 3.16-.12 6.28-.22 9.45 0 1 .06 1.93.11 2.89.2a8.39 8.39 0 0 0 1.16.09c.22 0 .49-.1.69-.1a.78.78 0 0 0 .51-.1c.53-.2.37-1.69.4-2.09.1-1.2.18-2.38.19-3.59 0-4.16-.35-8.29-.51-12.44-.21-5.59.12-11.19-.09-16.78-.15-4 .05-7.87.19-11.82.1-2.85.21-5.71.23-8.56 0-2.48-.22-4.94-.24-7.41 0-4.64.38-9.28.39-13.93 0-3.44-.15-6.88-.13-10.33 0-2 .05-4.09 0-6.13 0-1.2-.08-2.4-.07-3.6 0-.38.24-1.63 0-1.91s-.81-.11-1.22-.07a56.57 56.57 0 0 1-5.93-.1h-5.29c-4.63 0-9.26 0-13.89.09a54.05 54.05 0 0 1-6.91-.38c-.61-.07-1.11-.28-1.47.24a19.48 19.48 0 0 0-1.61 3.41 78.45 78.45 0 0 0-3.06 9.21c-.78 2.74-1.52 5.47-2.13 8.25a74 74 0 0 1-3.31 10c-1.43 3.81-3.23 7.46-4.59 11.28s-2.24 7.54-3.58 11.24c-.57 1.57-1.3 3.07-1.75 4.68a48.17 48.17 0 0 1-1.56 4.83c-.7-1.86-1.36-3.73-2.11-5.58-.64-1.59-1.51-3.09-2.29-4.61a46.09 46.09 0 0 1-2.93-8.68 77.41 77.41 0 0 0-3.29-9.47 106.66 106.66 0 0 1-3.82-11 47.3 47.3 0 0 0-1.59-4.74c-.83-2-1.81-3.86-2.65-5.83-.83-2-1.49-4.13-2.28-6.18-.49-1.28-.91-2.55-1.3-3.86-.25-.82-.52-1.64-.81-2.45-.23-.65-.27-.89-.88-1.07a11.75 11.75 0 0 0-3.16-.22c-1.34 0-2.68-.09-4-.13-2-.06-3.95-.12-5.92-.11z" fill="#ffb625"/><path d="M324.74 121.68c-.86-.09 0 .08-.88.17a7.16 7.16 0 0 0-1 .12c-.59.16-.63.48-.9.94a3.68 3.68 0 0 0-.53 1c-.15.56-.29.51-.62.93a3.85 3.85 0 0 0-.11 2.78c-.9.08-1.27 1.14-2 1.55a13 13 0 0 1-1.83.5 2.54 2.54 0 0 1-1 .32 2 2 0 0 0-1.05.2c-.51.29-.73.57-1.36.59-.47 0-2.87-.16-3.21.27s-.21 1.82-.28 2.48a7.4 7.4 0 0 0 .06 1.58c.05.65-.34 1.33-.35 2s.08 1.36.05 2c0 1.29-.15 2.59-.29 3.88A32.08 32.08 0 0 0 309 148v1.65a11.82 11.82 0 0 0 .19 1.88c.13 1.34-.77 2.53-1.57 3.48a4.09 4.09 0 0 0-.66 1.83 10.64 10.64 0 0 0-.71 2.12c0 .75.25 1.52.28 2.28s0 1.62 0 2.43a21.74 21.74 0 0 0-.08 4.15 19.38 19.38 0 0 1 .2 2.71c.05 1.17-.3 2.29-.26 3.47a33 33 0 0 1-.14 3.36l-.22 3c0 .31-.07 1-.07 1.34 0 .65 5.9 0 8.43.17s5.19-.07 7.88.2a22.65 22.65 0 0 0 2.92-.15c.79-.31.09-30.23.12-31.57.1-4.6-.06-9.18-.18-13.78-.11-4.45.15-8.91.06-13.33v-1c0-.18 0-.54-.18-.63-.01.08-.27-.02-.27.07zm.32 61.14zm-.68.24z" fill="#e0e0e0"/><path d="M325.11 149.58c-.3.32-.22.75-.19 1.3 0 .2.13 1.8.12.75.12 0 .07 1.12.07 1.29 0 .44.17.63.19 1 0-.67.14-1.58.16-2.34v-1.22c0-.13.02-1.17-.35-.78zm-.19.25zm.47 3.61zM325.44 153a7.23 7.23 0 0 0 0 1.85 5.87 5.87 0 0 0 0 1.87c.3.44.24-1.11.23-1.17a11.92 11.92 0 0 1-.23-2.42c.01.13.03-.19 0-.13zm0 2l.36.72M324.84 134a31.85 31.85 0 0 0 .13 3.89v-1.28c0 1-.08 2.08-.08 3.12a12.66 12.66 0 0 0 0 1.37 5.94 5.94 0 0 1 .14 1.35c0-.43.1 0 .19-.41a2.43 2.43 0 0 0 .05-.52v-2c0-1.63 0-3.24-.17-4.87a4.22 4.22 0 0 1-.09-.6c.08-.14-.16-.31-.17-.05zm.25 0l-.13 7.15zm.32 1a.08.08 0 0 1-.13 7.11z" fill="#e0e0e0"/><path d="M49.46 63.65c-2.56.06-5.13.15-7.69.24s-5 .48-7.47.68a25.17 25.17 0 0 1-2.65.06c-1.3 0-2.64.06-3.93 0-.33 0-.09-.28-.39.1a2.48 2.48 0 0 0-.28 1.41c-.08 1.48-.11 3-.11 4.46 0 9.53-.27 19.06-.28 28.59 0 5.92.2 11.83.17 17.75 0 4.29.2 8.55.24 12.84.06 5.9-.43 11.78-.3 17.68.11 4.87.15 9.75.32 14.62.28 8.11.45 16.22.59 24.33 0 2.43 0 4.84-.12 7.28-.05 1-.07 2.09-.07 3.14a3.51 3.51 0 0 1 0 .86c-.11.28 0-.12-.06.36s.14.36.4.39c4.34.55 8.79.1 13.16.12 3.16 0 6.32.07 9.48.07 1.93 0 3.83-.27 5.75-.34a3.46 3.46 0 0 0 1.15-.06c.54-.27.58-.41.53-.72-.12-.87-.12-1.79-.16-2.66-.23-5.3-.06-10.62 0-15.93 0-5.88-.08-11.77-.08-17.65 0-7.19.11-14.38 0-21.57-.05-4.62-.15-9.25-.31-13.86-.16-4.86 0-9.7.07-14.55 0-2.2 0-4.39.13-6.59.9 3 1.8 6 2.8 8.9.9 2.66 1.53 5.41 2.39 8.08 1.35 4.2 3.38 8.17 5.07 12.21.9 2.7 2 5.37 2.92 8.08 1 2.89 2.08 5.72 3 8.61 1.92 5.75 4.26 11.32 6.29 17 1.43 4 2.73 8.08 4.29 12.06.83 2.11 1.61 4.24 2.38 6.37.86 2.4 1.85 4.76 2.61 7.19.48 1.54 1 3 1.64 4.54.23.56.29 1.09.88 1.3a9.68 9.68 0 0 0 2.6.28c3.43.17 6.78 0 10.2-.17 2.18-.08 4.37-.21 6.55-.29H113c.29 0 1.17-.09 1.17-.09.33.14 1.16-3.4 1.35-4 .53-1.61 1.12-3.21 1.76-4.78 1.33-3.28 2.53-6.62 3.86-9.91 1.76-4.36 3.65-8.68 5.46-13 2-4.55 3.44-9.28 5.24-13.89 1.27-3.26 2.55-6.52 3.76-9.8 2.94-7.92 5.73-15.93 8.83-23.79 1.74-4.42 3.11-9 4.79-13.42-.05 7.14-.12 14.31.44 21.43a107 107 0 0 1 .38 12c-.14 4.29-.45 8.56-.73 12.85-.35 5.36-.48 10.7-.4 16.08.06 4.48.15 8.93-.2 13.4a74.62 74.62 0 0 0-.3 7.81c0 1.06.07 2.12.09 3.19 0 .71-.18 1.42-.18 2.13s-.08 1.81-.08 2.17-.1 1.17.19 1.42 1.32.06 1.81.06c2.42 0 4.83.16 7.25.19 4.65.06 9.23-.71 13.87 0 1.68.25 3.4.36 5.09.48a21.18 21.18 0 0 0 4.32-.11 2.5 2.5 0 0 0 .74-.13c.35-.18-.12-7.84-.26-11.5-.06-1.5-.1-3-.14-4.51-.09-3.13-.44-6.25-.48-9.38-.07-5.55.08-11.1 0-16.65-.1-5.2-.22-10.4 0-15.6.09-2.13.24-4.26.36-6.4.16-3.16.06-6.34.05-9.51v-7.5c0-3.57.06-7.14.11-10.71.07-4.6.31-9.22.17-13.81-.16-5.25-.8-10.47-.82-15.73 0-2.17 0-4.34.13-6.51.07-1.21.13-2.41.16-3.62 0-.76 0-1.53.08-2.29a8 8 0 0 0 0-1.37 8 8 0 0 0-1.77-.17c-1.38.11-2.76.19-4.14.21-1.77 0-3.54 0-5.31-.05-4.62-.09-9.22-.07-13.84.08-1.89.06-3.77.12-5.66.22-2.71.14-5.41.53-8.13.57a42.59 42.59 0 0 1-5.13-.34 8.76 8.76 0 0 1-2.21-.2c-.14-.06-.75 0-.84.18a20.34 20.34 0 0 0-.84 2.92c-1.08 4.21-2.52 8.32-3.65 12.53-.64 2.41-1.54 4.68-2.39 7-1 2.65-1.82 5.35-2.7 8-2.46 7.51-4.79 15-7.5 22.46-1.48 4-2.86 8.13-4.41 12.14-1.8 4.65-3.78 9.17-5.26 13.94-.76 2.44-1.7 4.84-2.62 7.22-.56-1.74-1.57-3.32-2.2-5-.54-1.46-1-2.93-1.51-4.41-1.15-3.55-2.09-7.13-3-10.73a102.25 102.25 0 0 0-4-11.09c-1.53-3.87-2.66-7.86-4.16-11.73-1.23-3.16-2.5-6.31-3.65-9.5-1.54-4.28-3-8.55-4.85-12.71-.81-1.79-1.46-3.64-2.25-5.45a64.53 64.53 0 0 1-2.71-6.64c-.79-2.54-1.59-5.07-2.4-7.61a3.65 3.65 0 0 1-.27-.85c0-.35-.21-.47-.57-.8-.57-.54-2-.25-2.64-.23-2.49.06-4.92-.08-7.41-.15-4.46-.13-9-.25-13.42-.16z" fill="#ffb625"/><path d="M319.41 128.14c-.17.25.21 1.06.52.84s-.51-.88-.52-.84z" fill="#d6a049"/><path d="M319.72 128.16zM320 128.74zM320.13 128.78s-.06.01 0 0zM320 128.74h.06-.06zM320.9 128c-.21-.21-.15-.31-.18-.44-.27-.11-.42 0-.29.13-.11-.13-.35-.44-.45-.12v.17s-.15-.07-.16-.05v.25c0 .12-.12 0-.23 0s-.07.22 0 .22c.1 0-.24 0-.2-.05-.16.2.57.88.84.87a.7.7 0 0 0 .67-.98zm-1.2 0zM319.66 128.18h.01-.01z" fill="#edb150"/><path d="M321.12 129.5a.83.83 0 0 1 0-.45c0-.34.1-.85-.34-.65a3.75 3.75 0 0 0-.48.12.65.65 0 0 0-.49.34 4.66 4.66 0 0 0 .5.69c.14.62.45 1.19.86.35.11-.25.05-.14-.05-.4z" fill="#986845"/><path d="M320.94 128.41s0 .29.09.21-.03-.26-.09-.21zm0 0zm.05.08zm0 .08z" fill="#986845"/><path d="M319.82 128.81c-.13.24.56 1.18.88 1.34s-.59-1.12-.6-1.13-.1-.48-.28-.21zm.67 1.18" fill="#895e3e"/><path d="M325.8 151.87c-.15 0-.53.26-.66.35s-.58 6.52-.6 6.82-.07.87-.1 1.3v.33c0 .42-.17 3.46-.18 4 0 .27-.21 2.61-.2 2.82s-.38 4.33-.39 4.42-.2 2.29-.19 2.24c-.05.44-.07.88-.09 1.34 0 .14-.12 1.84-.13 2-.06.88-.2 3.61-.21 3.62-.1.17 0 .38.08.5s.07.11.11.12c.2.42.4-.81.43-.95A26.52 26.52 0 0 0 324 177c.1-1.47.23-2.94.32-4.41.16-2.34.4-4.65.52-7 .1-2 .39-4 .39-6 0-2.2.43-4.27.61-6.41a10.19 10.19 0 0 0-.04-1.31zM319.58 151.93l-.31.14a4.1 4.1 0 0 0-.64.43l-.11.08c-.07.16-.11 1.61-.15 2-.06.57-.08 1.15-.14 1.73-.05.55-.43 3.7-.47 4.3-.09 1.07-.3 4-.3 4.12 0 .42-.16 1.47-.16 1.57a13.38 13.38 0 0 0-.08 1.59c-.11 1-.22 2.06-.32 3.1v-.07c-.07.75-.19 1.61-.19 2.33 0 1.75-.48 3.51-.48 5.26a3.71 3.71 0 0 1 0 .42 22.43 22.43 0 0 1-.33 2.39c-.06.27-.34 1.29-.1 1.49a1.46 1.46 0 0 0 .54-.05 1.3 1.3 0 0 0 .08-.2 2.27 2.27 0 0 0 .4-1.29c.12-.79.3-1.57.4-2.36.21-1.79.37-3.6.54-5.39.14-1.4.36-2.79.46-4.18v.08c.16-1.65.15-3.08.29-4.61v.08c.05-.52.09-1 .15-1.56v.08c0-.39.05-.79.09-1.18v.07c0-.4.1-.79.14-1.18v.07c0-.28.05-.56.08-.84v.07c.1-.93.22-1.88.28-2.82v-1.19a4.42 4.42 0 0 1 .18-.8c.13-.64.16-1.39.26-2.06a10.59 10.59 0 0 0-.11-1.62zm-2.32 15.75M318.13 152.06z" fill="#8a4301"/><path d="M316.43 179.95zM316.41 179.94zM316.41 179.94zM316.41 179.94zM318.5 162.62zM325.38 157.9zM317.14 178c-.29 0-.23.88.23.83h2.81a16.8 16.8 0 0 1 1.88-.05c.21 0 .6.18.79.07s.38-.86.06-.9h-1.12c-.56 0-1.11.06-1.67.06-.48.06-2 0-2.34 0-.07-.01-.68-.07-.64-.01zm4.91.6z" fill="#834001"/><path d="M326.48 159.83v-.07s.01.03 0 .07zM322.93 182.54v.07-.06zM326.63 156.11z" fill="#a14f02"/><path d="M326.13 152.17l-.18-.26a13.38 13.38 0 0 1-.1 1.41l-.06.41v.16c-.07.57-.14 1.15-.18 1.72v.62l-.26 2.25c-.11 1-.14 2.12-.21 3.14 0-.16-.13 1.07-.2 1.87-.1 1.21-.17 2.42-.25 3.63v-.07c-.05.72-.12 1.43-.16 2.16v-.07l-.1 1.48v-.07c-.06.73-.12 1.45-.17 2.18v-.06.45c-.16 1.4-.41 3.71-.42 4.07-.08.65-.16 1.3-.21 2 0 .56-.1 1.11-.14 1.67v.11a6 6 0 0 0-.15.82.88.88 0 0 0 .06.14s.1.13.09.15.11-.17.12-.23c0-.1.14-1 .14-1.05a7.51 7.51 0 0 0 .16-1.29c0-.44.09-.89.13-1.33v.11c.19-2.4.47-4.78.62-7.2 0-.4.06-.8.09-1.2v.11c0-.58 0-1.16.08-1.74v.11c.1-1.42.29-2.82.37-4.25 0-.67.11-1.34.15-2v.07c.06-1.13.18-2.24.28-3.36v-1.1c.08-.54.12-1.11.18-1.62l.07-.62c0-.21.05-.41.08-.61s.13-.92.18-1.61a6.79 6.79 0 0 0-.01-1.1zM320 152.91c0-.29 0-.34-.15-.4l-.12-.05H319.56v.08c0 .18 0 .36-.06.54 0 0 0-.37.06-.54v1c0 .36-.16.71-.17 1.07a1 1 0 0 0 0 .35c-.06.63-.1 1.26-.16 1.89V157.76c-.11.88-.18 1.77-.24 2.64-.21 1.31-.46 2.61-.57 3.94-.19 2.2-.36 4.4-.57 6.6v-.07c-.21 1.92-.52 3.83-.64 5.77v.4a13.89 13.89 0 0 0-.24 2.46v.18c-.06.26-.11.52-.15.77a6.6 6.6 0 0 1-.26 1.43c-.11.26-.31.41-.32.57-.16.07.26.24.31.15h.08a.08.08 0 0 0 0-.08 2.1 2.1 0 0 0 .22-.82 2.32 2.32 0 0 0 0-.3 7.09 7.09 0 0 0 .34-2.17v-.12c0-.04.07-.73.1-1.12.09-.59.21-1.18.25-1.76.07-.87.15-1.73.23-2.59-.09.57.38-2.78.51-4v.07c.23-2.15.29-4.32.52-6.46v.07c.21-2 .58-4 .68-6v-.15c0-.24.07-.48.1-.7s0-.08 0-.11a1.46 1.46 0 0 0 0-.24 8 8 0 0 0 .18-1.41v-.23a1.86 1.86 0 0 0 .07-.61v-.48c0-.16 0 0 0 0v-.06a3.19 3.19 0 0 0 .1-.34zm-.09-.25z" fill="#773701"/><path d="M322.09 186z" fill="#a14f02"/><path d="M332 184.32c-.43-2.43-1.46-4.78-1.44-7.29 0-2.3-.68-4.55-.92-6.84-.28-2.67-.85-5.3-1.24-8-.21-1.68-.51-3.34-.75-5a15.27 15.27 0 0 0-.92-4.3c-.06-.15-.53-1.56-1-1.08a.55.55 0 0 0-.26.14c-.13.13-.42.37-.19.56s.35 3.12.49 4.12c0 .22.29 2.15.31 2.31a11.47 11.47 0 0 0 .22 1.52c0-.06.43 2.38.45 2.54s.88 4.73.91 5 .45 2.91.47 3.21c0 .63.38 4.08.43 4.56v.38c.08.49.17 1 .24 1.48 0 .34 1.22 7.46 1.43 7.53a8.76 8.76 0 0 0 1.58.62 5.62 5.62 0 0 0 .19-1.46zM324.31 184.78c-.16-.75-.2-1.59-.41-2.31a3.76 3.76 0 0 1-.28-.9v-1.33c-.1-1.05-.29-2.11-.45-3.15v.08c0-.32-.08-.62-.12-.94v.08c-.06-.44-.16-.88-.22-1.33v.08c-.05-.44-.08-.88-.14-1.32v.08c-.09-.58-.15-1.17-.23-1.75v.09c-.22-1.71-.2-3.31-.45-5.16v.08c-.16-1.55-.5-3.11-.72-4.67-.27-2-.53-4-.85-6-.15-.89-.43-1.76-.62-2.64-.12-.54-.16-1.12-.62-1.44a1.27 1.27 0 0 0-.13-.22 3.2 3.2 0 0 0-.85-.06c-.39.23.06 1.37.15 1.67a18.37 18.37 0 0 1 .53 2.67 3 3 0 0 1 .06.47c0 2 .76 3.93.76 5.89a20.8 20.8 0 0 0 .29 2.61v-.08c.15 1.17.33 2.32.5 3.47a10.7 10.7 0 0 0 .13 1.78c0 .11.18 1.28.25 1.75 0 .08.34 3.42.48 4.61.07.67.66 4.19.75 4.81.09.64.12 1.29.22 1.93a20 20 0 0 0 .23 2.2l.18.09h-.05a7.05 7.05 0 0 0 1 .49l.49.16a8.48 8.48 0 0 0 .12-1.79zm-3.77-16M322.59 185.69z" fill="#8a4301"/><path d="M320.89 157.8zM320.87 157.8zM320.87 157.8zM320.87 157.8zM323 175.12zM328.76 171.16c.13-.19.17-.94-.16-1a21.5 21.5 0 0 0-2.87.2c-.33 0-3.51.33-3.5.36.43 0 .48.83.19.87a11.39 11.39 0 0 0 1.72-.1c1.45-.23 3 0 4.41-.2M329.82 179.52c-.05-.68-.57-.46-1.09-.4-.41 0-2.09.28-2.54.34l-1.76.25c-.34 0-.88 0-.94.43s.17.48.14.59c.23.17.69 0 1-.07a10.24 10.24 0 0 0 1.22-.15c1-.11 2-.25 3-.3.49-.01 1.15.03.97-.69zm-5.93 1.22z" fill="#834001"/><path d="M320.74 157.77c.37.25 1.46 0 1.88 0 1.15-.21 2.86 0 4-.52 0 0-.81-1.2-1.18-1.19a18.87 18.87 0 0 0-3.27.36 13.73 13.73 0 0 0-1.61.19c-.27.06.14 1.16.18 1.16z" fill="#934403"/><path d="M329.84 179.84zM323.25 175.94c.73 0 2.43-.16 2.48-.17.29 0 3.6-.49 3.57-.39.35-.11.06-.72-.08-1-.22-.4-6.19.57-6.19.71a7.6 7.6 0 0 0 .22.85zM327.48 166.61c.54-.09.61-.15.63-.06 0-.3.15-.9-.17-1a3.57 3.57 0 0 0-1.14 0l-.45.06c-.7.09-4.46.3-4.45.26a7.5 7.5 0 0 1 .08.93c.15.31 5.38-.17 5.5-.19zm.32-.27zM321.38 162.81c.77 0 1.58-.21 2.34-.31.15 0 3.08-.37 3.67-.47.29 0 .13-1-.23-1h-.28c-1 .11-2.11.3-3.18.37-.19 0-2.59.26-2.59.49s-.2.76-.18.79.38.15.45.13zM321.59 158.57c.32 0 1.85-.25 2.33-.25.55-.06 1.11-.07 1.66-.13.39-.05.74-.06 1.11-.13.32-.08 0-.77-.08-.83a1.93 1.93 0 0 0-.86.11 16.8 16.8 0 0 1-1.87.17c-.93.12-1.86.15-2.79.29-.46 0-.42.85-.13.85-.06.01.54-.07.63-.08z" fill="#834001"/><path d="M330.94 177.92v.07s.06.01 0-.07zM327.4 155.21v-.07.06zM321.53 162.32c0 .35.08.69.11 1a5.66 5.66 0 0 0-.11-1zM331.09 181.63z" fill="#a14f02"/><path d="M332.17 184.32c-.12-.78-.35-1.62-.4-1.84s-.11-.47-.17-.7l-.15-.7c-.13-.58-.23-1.23-.39-1.85A8.72 8.72 0 0 1 331 178c-.21-1.27-.47-2.55-.62-3.83v.08c-.1-.77-.24-1.53-.34-2.3-.18-1.63-.59-3.22-.82-4.84v.13c-.1-.66-.1-1.32-.18-2v.13c-.07-.46-.12-.92-.19-1.37-.34-2.75-1-5.46-1.37-8.2v.13c-.09-.5-.18-1-.29-1.52a4.71 4.71 0 0 0-.36-1.47 10.06 10.06 0 0 0-.31-1.2c0-.07-.29-.46-.27-.37a1.5 1.5 0 0 1-.2.27.93.93 0 0 0-.14.16 4 4 0 0 0 .33.94v.13c.08.64.21 1.27.3 1.91a18.73 18.73 0 0 0 .46 2.24c0 .42.57 3.05.93 4.64 0 .17 0 .35.06.52v-.07c.12.83.26 1.65.39 2.48v-.08l.23 1.69v-.08c.1.82.24 1.64.35 2.46v-.08c.18 1.38.31 2.77.54 4.14.15.91.5 2.31.44 2.13.15 1.16.21 2.45.46 3.58l.57 2.56v.13-.13c0 .23.07.47.1.7v-.1.11a17.62 17.62 0 0 0 .4 2v.18l.12.47a8.06 8.06 0 0 1 .22 1.6h.05l.4-.29a4.09 4.09 0 0 0-.09-1.26zM324.7 185.89a3.11 3.11 0 0 0-.14-.39v-.07-.05-.05c0-.18 0-.37-.06-.54a1.73 1.73 0 0 0-.09-.69v-.26a7.5 7.5 0 0 0-.26-1.61v-.27-.13c0-.26-.09-.53-.14-.8v-.17c-.14-2.32-.66-4.59-1-6.89v.08c-.32-2.45-.4-4.92-.73-7.37v.08c-.19-1.34-.85-5.16-.73-4.51-.11-1-.23-2-.32-3-.06-.67-.24-1.34-.36-2 0-.44-.14-1.29-.14-1.27v-.14a6.66 6.66 0 0 0-.48-2.48 2.17 2.17 0 0 0-.07-.34 2.05 2.05 0 0 0-.31-.93s0-.07-.06-.09h-.12c-.08-.11-.67.09-.44.17 0 .18.3.35.45.65a6.25 6.25 0 0 1 .37 1.63c.06.29.13.59.21.88v.21a12.91 12.91 0 0 0 .33 2.81v.46c.18 2.21.61 4.38.9 6.58v-.08c.29 2.5.53 5 .8 7.52.16 1.52.51 3 .81 4.49.08 1 .19 2 .34 3l.06.46a4.17 4.17 0 0 0 .06.48v.08c.09.72.15 1.44.23 2.16v.4c0 .41.2.81.24 1.22 0 .11 0 .45.07.72a4.2 4.2 0 0 0 0 .42c0-.2-.08-.63-.08-.62a6 6 0 0 0 .08.62v.09a.06.06 0 0 0 .08 0c0 .05.06.08.15 0l.18-.06c.19-.07.25-.13.21-.46zm-.82-2.38l-.13-1.21v.2c0 .34.09.68.14 1zm.69 2.65zM326.55 151.74z" fill="#a14f02"/><path d="M320.6 130.76a.1.1 0 0 0 0-.1v-.05zm0 0zM320.62 130.81zM321 130.56a.23.23 0 0 0 0 .22.08.08 0 0 0 .12 0l.07-.09h-.05l-.05-.05-.06-.05z" fill="#e8c39c"/><path d="M320.43 129.84c-.08 0-.1.15-.11.24l.08.13c.05.13.12.25.16.39s.05.15.08.22v.07-.05.1h.08a.08.08 0 0 0 0-.07c.08 0 .07-.19 0-.26a.14.14 0 0 0 0-.12.49.49 0 0 0-.11-.21.33.33 0 0 0-.07-.22h-.05a.15.15 0 0 0 0-.08.11.11 0 0 0-.1-.06h-.06z" fill="#e8c39c"/><path d="M326.33 140.5c0-.39-.34-.79-.51-1.13a11.75 11.75 0 0 1-.43-1.11 12.33 12.33 0 0 0-1-1.75l-.19-.13a2.72 2.72 0 0 0 .07-.32c0-.17-.07-.37-.12-.54a9.23 9.23 0 0 0-.67-2c-.32-.6-.91-1.1-1.16-1.72a3.53 3.53 0 0 1-.14-1v-.12c0-.09.11-.19.06-.3a.18.18 0 0 0-.05-.08.25.25 0 0 0 0-.13.83.83 0 0 0-.29-.32l-.09-.09c-.05-.08-.08-.15-.18-.17h-.08a.29.29 0 0 0-.19.08h-.07a1.11 1.11 0 0 0-.36.58c-.06-.33-.55-.88-.56-.25a4.38 4.38 0 0 0 .58 1.22.23.23 0 0 0 .08.09c.78.48.84 2.12 1.08 2.95a9.69 9.69 0 0 0 .73 2c.18.33.58.55.74.85a3.52 3.52 0 0 1 .1.64 4.42 4.42 0 0 0 .58 1.69 2.19 2.19 0 0 1 .36.46c.15.36.09.74.32 1.1s.88 1.1 1.3 1 .17-1.15.09-1.5zM321.4 132.17z" fill="#e9b885"/><path d="M326.72 149.91a5.71 5.71 0 0 0-.54-1.45s-.27.33-.27.37-.62.74-.62.76c-.12.37.17.73.12 1.2a2.31 2.31 0 0 1-.32.93c-.05-.07-.25.08-.17.15s-.16.07 0 .11a1.67 1.67 0 0 0 .36.12q-.11.06-.06.15a.4.4 0 0 0 .3-.11 2.21 2.21 0 0 0 1.2-2.23zm-1.8 1.93zm.29.37z" fill="#5780ba"/><path d="M325.65 150.4a3.54 3.54 0 0 0-.29-.64s0-.05-.08 0 0-.19 0-.23-.06.1 0 .18 0 0-.08.05-.88-.46-1.15-.52a2.38 2.38 0 0 0-2.56 1q.1-.19 0-.29a.26.26 0 0 0 0 .32 21.23 21.23 0 0 0 .36 6.05 14.58 14.58 0 0 0 .43 2.89c0 .06.18.41.18.3.18 0 .62-.12.77 0 .27.05.55.06.82.1.16 0 .25 0 .25-.18v-.08a6.73 6.73 0 0 0-.13-1.88 22.38 22.38 0 0 1 .33-3c.05-.43 0-1.3.32-1.61l.12-.08c.08-.06.34-.46.44-.47a2.15 2.15 0 0 0 .27-1.91zm-4.24.09a.29.29 0 0 1 0-.18zm.05-.21zm.65 6.84zm0 .07zm.18 1.51a.22.22 0 0 1 0 .21 1.88 1.88 0 0 0-.03-.21zm.28.62a.26.26 0 0 1-.25-.05.72.72 0 0 1 0-.1v.15l.25.08h.15zm1-10h-.05.05zm1.5 2.51zm-.09 0zm-.48 1zm.92-2.94z" fill="#5f8cca"/><path d="M323.8 152.86h-.23c.14 0 .91.13.94-.2a3.12 3.12 0 0 1-.72.18zM324.47 152.91l-.45.22q-.27 0-.22.12c.15 0 .65-.17.66-.34z" fill="#5882bc"/><path d="M324.39 153.07s.09 0 .09-.12l-.09.12zM323.89 156.57l-.09.06c-.28 0-.59-.08-.86 0s-.23.17-.14.12a1.16 1.16 0 0 1 .32-.1c.26 0 .59.12.82-.07s0-.07 0-.06zm0 .06zm-.09 0zM323.15 157q-.16 0-.2.12a.89.89 0 0 0 .26-.07s.68-.1.65-.11a3.67 3.67 0 0 0-.71.06zM323.94 157.34h-.77l.76-.06z" fill="#5882bc"/><path d="M321.43 150.35c0 .28.18.31.42.42a1 1 0 0 0 .33.08s.2 0-.08-.05h-.18l-.13-.05q.17 0-.28-.15s-.05-.21-.05-.14z" fill="#4f74a8"/><path d="M324 152s-.28-.45-.32-.37c0-.11-.06-1.09-.24-1.09a3.19 3.19 0 0 0 .13.59v.39q-.06.18.07.16c.08.1.5.52.36.32zM325.14 150.25a3.83 3.83 0 0 0-.54 0 7.62 7.62 0 0 1-.93 0 7 7 0 0 0 1.47 0zM326.49 149.36a3.37 3.37 0 0 0-.59.63c.16.09.53-.63.59-.63zM322.18 151.39c0-.28.08-.57.11-.85q.16-.22 0-.35a3.6 3.6 0 0 0-.13.64.56.56 0 0 0 0 .11 7.61 7.61 0 0 0-.07 1.22c0-.06.08-.64.09-.77zM322.15 153.42c-.14 0 0 1.14 0 1.18a8.67 8.67 0 0 0 0-1.18zM322.23 155.49a12.26 12.26 0 0 0 .19 1.25s-.06-1.25-.19-1.25zM322.56 157.24s.17 1.29.18 1.39-.02-1.39-.18-1.39zM322.14 152.37c-.13 0 .05.82.05.75a3.29 3.29 0 0 0-.05-.75zM325.3 150.44s.08.74.07.83.11-.83-.07-.83zM325.16 151.72s-.43.36-.4.39.42-.41.4-.39zM326 150.1v.49-.07s.09.57.09.58a3.81 3.81 0 0 0-.09-1zM326.29 148.8q0 .15.08.19c.05 0-.09-.42-.11-.42.13 0-.46.72-.43.74a5.45 5.45 0 0 0 .46-.51z" fill="#4c70a2"/><path d="M325.72 155.76l-.17-.24c-.11-.16-.25-.29-.37-.47a1.31 1.31 0 0 1-.07-.33c-.11-.21-.35-1.48-.48-1.43-.13-.33-.36.64-.37.72-.08.71-.2 2.13-.2 2.12v.16a1 1 0 0 1 0 .17s-.11.17-.13.21 0 .08 0 .09v.47l.11-.06c.08.56.87-.5.92-.77.17-.41.27-.44.62-.44.22.04.16-.15.14-.2zM324 157.47a.33.33 0 0 1 0-.08v.08zM324.26 158.67c0-.15-.25-.15-.31-.15h-.3l-.29.05h-1.21l-.18.08V160.22a.86.86 0 0 0 .08.46V161.58l.05.49c0 .17.07.34.08.5a7 7 0 0 0 .17.95v.71a1.26 1.26 0 0 0-.13.35l-.07.29-.18.3.08.53a1.11 1.11 0 0 0 .3-.15s.32-.24.38-.32a1.47 1.47 0 0 0 .19-.44c0-.08 0-.15.08-.23a.58.58 0 0 1 .1-.18.91.91 0 0 1 .42-.19h.21c0 .06.17.1.16 0s0-.56 0-.69a7.29 7.29 0 0 1 .18-1.23l.06-.29v-.81V160.34v-.44a2.25 2.25 0 0 0 0-.39v-.53a.83.83 0 0 0 .13-.31zm-1.81 6.8zm0 0z" fill="#d6cba2"/><path d="M325.22 155.35a.32.32 0 0 0 .08.16h-.12.08l.09.05h.05s.05 0 0 0 0-.13-.09-.15zm.18.16zM325.59 155.64l.07.18-.09-.08a.41.41 0 0 0-.34 0 .57.57 0 0 1 .16 0h.06l.09.07.08.08s.07.13.12.14a.24.24 0 0 0 0-.07l-.14-.31zm.19.32zm0 0zm-.26-.24zM324.54 153.47s0 .15.08.15 0-.06 0-.08v-.08-.07z" fill="#d6cba2"/><path d="M324.53 153.21h-.05a.31.31 0 0 0 0 .06.32.32 0 0 0 0 .22c0 .05.08.07.09 0 .05 0 0-.12 0-.16a.72.72 0 0 1 0 .19v.22c0 .07.05 0 0 0a1.93 1.93 0 0 0 0-.36c0-.05 0-.15-.11-.17a.12.12 0 0 0-.08 0zm-.08.06zm.12 0zm0 .15zm0-.17zm0 0zm0 0zm0 0zm0 0z" fill="#d6cba2"/><path d="M324.52 153.19v.14a.09.09 0 0 0-.08-.12v-.05zm.08.12zm0 0z" fill="#d6cba2"/><path d="M323 163.73s0 .05 0 0h.05l.2-.05h.19l.14.07s.06 0 0 0a.45.45 0 0 0-.29-.12 1.11 1.11 0 0 0-.39.11zM323.1 163.44h.32a.54.54 0 0 0-.15 0h-.2zM322 160.53zM322.77 163.42a.71.71 0 0 0-.27.41c-.05.17-.11.33-.17.49.05-.12.11-.24.15-.36s.06-.21.1-.3l.07-.14.08-.08zM322.35 164.26v0zM325.31 155.3a.28.28 0 0 0-.15 0h.1l-.12.06-.19.1-.15.11-.09.12a1.42 1.42 0 0 1 .13-.13 2.68 2.68 0 0 1 .31-.18h.24s-.06-.07-.08-.08zM324.68 155.58a2.28 2.28 0 0 0-.12.24 1.37 1.37 0 0 0 0 .35 1.2 1.2 0 0 0 .12.4s.05 0 0 0a1.47 1.47 0 0 1-.08-.32 1.69 1.69 0 0 1 0-.39.5.5 0 0 1 0-.1l.07-.15zM322.77 163.9a.92.92 0 0 0-.22.43.88.88 0 0 0 0 .32 1.25 1.25 0 0 1 0-.34v-.1a1.86 1.86 0 0 1 .16-.3zM323.65 163.87a1.89 1.89 0 0 0 .06.22s0-.15-.05-.22zM324.18 156.17v-.45.57a1.07 1.07 0 0 1 0 .13v.13a.61.61 0 0 0 0-.38z" fill="#c5ba95"/><path d="M323.68 158.48h-.36a5.08 5.08 0 0 0-.76.05h-.31c-.08 0-.2 0-.26.08a.28.28 0 0 0 0 .25 3.72 3.72 0 0 1 0 .42c0 .11 0 .24.05.32a.31.31 0 0 0 .29.05l.35-.08h1.46a.59.59 0 0 0 0-.16v-.35c0-.16.07-.39-.07-.49h-.51zm.42.12l-.07-.07zm.05 0zm-1.63.09h-.35.39zm-.35.05a.29.29 0 0 0 0 .08zm0 0zm2 .72zm-2 .05zm0 0zM322.17 158.77z" fill="#a5ad8f"/><path d="M324 158.6a.34.34 0 0 0 0 .13.48.48 0 0 0-.23-.06.93.93 0 0 0-.23.12c-.15.1-.31.22-.48.32a4.6 4.6 0 0 1-.54.3 1.25 1.25 0 0 1-.25.09v-.1a2.25 2.25 0 0 1 0-.45h.14a.23.23 0 0 0 .11-.06.07.07 0 0 0 0-.05.41.41 0 0 0-.18.05h-.1a.26.26 0 0 0-.1.18 2.23 2.23 0 0 0 0 .39.49.49 0 0 0 0 .2c-.07.05 0 .15.07.14h.06a.13.13 0 0 0 .14 0 1.25 1.25 0 0 0 .24-.09c.16-.08.32-.18.48-.27l.45-.32a1 1 0 0 1 .21-.13h.05a.5.5 0 0 0 .2.05.82.82 0 0 1 0 .12v.38h.05v-.28-.13a.92.92 0 0 0 0-.1.18.18 0 0 0 0-.22.08.08 0 0 0-.07 0s-.06 0-.07.07zm.1 0zm-.05 0zm0 0zm-1.65 0zm-.16 1zm0 0zM324.74 153.25c-.09-.21-.16-.28-.2-.26a3.31 3.31 0 0 0-.15.51.57.57 0 0 0 0 .12c.08 0 .4-.1.36-.13s.08.07-.01-.24z" fill="#a5ad8f"/><path d="M323.54 159.73a1.26 1.26 0 0 0 0 .17 1.26 1.26 0 0 0 0-.17zM323.31 159.64v0zM323.37 160.27v0zM323.35 159.65v1.33h.05v-1.33z" fill="#d6cba2"/><path d="M323.37 159.92v1.4a9.59 9.59 0 0 1-.05 1.06 3.93 3.93 0 0 0-.11.43 4 4 0 0 0 0 .52 5 5 0 0 1 0-.59v-.07a1.08 1.08 0 0 0 .1-.29 2.57 2.57 0 0 0 0-.33v-.59-.59c0-.2-.05-.64-.08-1zm0 2.75zM324.59 153.78a3.83 3.83 0 0 1 .21.84 3.89 3.89 0 0 0 .09.41 1.22 1.22 0 0 0 .18.36s.06 0 0 0a2 2 0 0 1-.12-.22.88.88 0 0 1 0-.19c0-.08 0-.15-.05-.23a3.63 3.63 0 0 0-.1-.58c0-.11-.07-.21-.1-.32a3 3 0 0 0-.25-.51v.07c0 .01.08.23.14.37z" fill="#c9bf98"/><path d="M323.89 164.2a2 2 0 0 0-.78.14c0-.07-.26.26-.22.28a2.84 2.84 0 0 1-.5.78c-.06 0-.31.1-.32.19a1.19 1.19 0 0 0 0 .26c0 .2.34.1.3 0a2.08 2.08 0 0 0 .54-.47 3.12 3.12 0 0 0 .38-.92.87.87 0 0 1 .53 0c.08.06.07 0 .08-.07s.07.06.09.05c.14.22-.09-.24-.1-.24zm-1.72 1.66zM325.8 156s-.05-.22-.08-.21-.48.11-.44.09a1.68 1.68 0 0 0-.26.31c-.21.26-.26.59-.51.81s-.51.21-.49.31 0 .15 0 .15.67.07.8-.16a12.54 12.54 0 0 0 .84-1.29h.13zm-.29.11zm0-.06zm.26-.14z" fill="#d19c52"/><path d="M323.76 164.35c-.77 0-.63.86-1.11 1.22-.15.1-.22.22-.39.28s-.14 0-.15.07.22.06.25.06c.37-.09.79.1 1.2-.07.18-.09.21-.55.29-.73.09-.18.45-.83-.09-.83zm-1.59 1.55zM325.72 155.94c0-.27-.66.49-.68.54-.19.4-.21.69-.67.87a.94.94 0 0 1-.24.07h-.08v.08a2.19 2.19 0 0 0 .35.06 1.82 1.82 0 0 0 .47 0c.09 0 .25 0 .33-.06.1 0 .79-1.33.6-1.43 0-.07-.01-.18-.08-.13zM325.8 156zM324.27 157.65z" fill="#af8345"/><path d="M327.08 136.3a2.57 2.57 0 0 0-.13-.73.47.47 0 0 0 0-.09q-.11-.26-.25-.52l-.08-.06q0-.09-.09-.14l-.12-.12a.8.8 0 0 0-.19-.17c-.08-.09-.23-.27-.37-.21a1.61 1.61 0 0 0-1.81-.1l-.15.13a1.35 1.35 0 0 0-.22.16c-.19 0-.31.3-.32.43a.06.06 0 0 0 0 .05c-.06-.11-.06 0 0 .08a5.7 5.7 0 0 1 0 .61 1.74 1.74 0 0 0-.12.21v.12l-.05.16a1.6 1.6 0 0 0-.15 1.11c0 .41-.11.76.33 1a.54.54 0 0 0 .15.2 2.34 2.34 0 0 1-.09 1.07 2.71 2.71 0 0 1-.56.65.14.14 0 0 0-.1.08c-.13.24 1.27 1 1.48 1.07a1.2 1.2 0 0 0 1.73-.93 2.1 2.1 0 0 1-.06-.24 2.25 2.25 0 0 0-.23-.32 2.11 2.11 0 0 0 0-.26 4.82 4.82 0 0 1 .52-1 2 2 0 0 0 .88-2.24zm-1.7-2.2zm-2.54 3.43zm0 .05zm0 .12zm.53 2.86H323.2 323.37zm2.88-2.53l.07-.05zm.45-.47zm.08-.16z" fill="#f1caa2"/><path d="M326.57 141.56a.1.1 0 0 0-.1.07.07.07 0 0 0-.09 0s0-.05 0 0a1.91 1.91 0 0 0-.31-1.28 3.13 3.13 0 0 0-.29-.45c-.11-.22-.22-.39-.48-.44-.05-.05 0 .17 0 .12a.33.33 0 0 0 0 .11v.05l.08.15a.26.26 0 0 1 0 .14c0 .72-.83 1-1.44 1h-.14a3.56 3.56 0 0 0-.69-.49 1.13 1.13 0 0 0-.61-.35.52.52 0 0 0-.67 0 .05.05 0 0 0-.06 0c-.23 0-.21.19-.23.34a.18.18 0 0 0 0 .07s-.35.18-.29.26-.07.11-.09.12.16 0 .16 0a3.66 3.66 0 0 0 .56 0 .56.56 0 0 1 .47.34 10 10 0 0 1 .26 2 1 1 0 0 1 0 .22c-.25.88-.08 1.87-.28 2.76s-.59 1.81-.73 2.79a.48.48 0 0 0-.11.19.27.27 0 0 0 0 .06l-.06.11c-.12-.12-.17.34-.17.32a.93.93 0 0 0 0 .47.16.16 0 0 0 .1.2h.13a.17.17 0 0 0 .16 0 1.36 1.36 0 0 0 .27-.09.9.9 0 0 0 .4-.08.61.61 0 0 1 .26 0 .81.81 0 0 0 .81 0 .52.52 0 0 0 .18 0h1a.38.38 0 0 0 .28 0c.09.18.39-.2.37-.17h.06a1.59 1.59 0 0 0 .6-.36 5 5 0 0 1 .58-1 .43.43 0 0 1 0-.09 3.82 3.82 0 0 1-.11-.41 6.67 6.67 0 0 0-.13-1.35 2.21 2.21 0 0 0 0-.22.78.78 0 0 0 0-.35c0-.93.32-1.8.31-2.73a6.48 6.48 0 0 0 .04-2.03zm-5-1zm-.26 9.26zm3.5.2z" fill="#8ae8bb"/><path d="M326.25 144.39l-.25.61c0 .11-.07.21-.11.32l-.27.61c-.11.24-.23.48-.33.73 0 .11-.12.21-.16.32s-.07.16-.1.24a1.35 1.35 0 0 1-.08.19 2.93 2.93 0 0 0 .24-.46l.12-.18.08-.19.21-.42c.08-.18.16-.35.24-.53.15-.39.28-.79.41-1.19zm-.95 2.25zm.6-1.34z" fill="#80d8ae"/><path d="M326.28 144v.4a1.59 1.59 0 0 1-.05.25 1.73 1.73 0 0 0 .08-.29 1.5 1.5 0 0 1 0-.19.69.69 0 0 0 0-.18zM325.69 146.78a4.88 4.88 0 0 1-.27.93 1.72 1.72 0 0 1-.18.29l-.2.25a.91.91 0 0 0-.13.34v.67a4.45 4.45 0 0 0 .06-.45v-.25a1.33 1.33 0 0 1 .08-.23l.06-.11a2.4 2.4 0 0 0 .35-.48 3.25 3.25 0 0 0 .24-1zm-.61 1.58zm.07-.11zm.1-.27zM321.89 140.48h.59v-.05a.8.8 0 0 0-.23-.07h-.31zM325.75 140.43v.29a2.28 2.28 0 0 1 0 .4v.25c0 .18-.07.35-.12.54s-.16.66-.22 1c.08-.33.18-.66.27-1a3.55 3.55 0 0 0 .12-.56 3.3 3.3 0 0 0-.09-.95zM325.21 141.85c-.06.09-.11.19-.16.29s-.17.26-.24.39-.19.32-.29.46l-.33.46s0 .05 0 0a6 6 0 0 0 .61-.84l.23-.42c.06-.12.12-.23.19-.35zM323.07 146.46a2.29 2.29 0 0 1-.14.23c-.1.15-.22.3-.32.45s0 .05 0 0a2.59 2.59 0 0 0 .47-.69zM322.95 142.63v.29a2.77 2.77 0 0 1-.09.36c0 .1-.08.19-.11.29v-.05a3.15 3.15 0 0 0 .14-.38c0-.07 0-.13.05-.2a2.4 2.4 0 0 0 0-.33zM323 143.4l-.07.09a2.36 2.36 0 0 1-.29.27s0 .05 0 0a1.33 1.33 0 0 0 .27-.24l.08-.12zM322.74 145c.21.4.4.82.64 1.22 0 0 .05 0 0 0-.11-.21-.2-.43-.32-.64s-.21-.39-.32-.58zM322 140.16h.12l.11.05H322.45a1.21 1.21 0 0 0-.29-.11l-.18-.05z" fill="#80d8ae"/><path d="M324.65 133.65c-2.67.18-1.55 3.82-1.12 5.35.2.71-.46 2.24.62 2.51.43.11.47-.09.87.12.65.35.8.58 1.59.19s.3-1 .26-1.72a3 3 0 0 1 .29-1.06 5 5 0 0 0 .18-1.64c0-1.07 0-2.26-1-3-.04-.02-1.69-.99-1.69-.75z" fill="#aa6e26"/><path d="M318.44 151.88a.54.54 0 0 0-.39.27l-.05.07a1.54 1.54 0 0 1 .19-.2l.1-.06a.33.33 0 0 1 .15 0 1.05 1.05 0 0 1 .27 0h.35a.53.53 0 0 1 .21.05h-.38a1.77 1.77 0 0 0-.22-.05h-.25z" fill="#f1caa2"/><path d="M318.4 151.85l-.15.16a.09.09 0 0 0-.06 0 .62.62 0 0 0-.21.29V152.42s.07-.08.1-.12l.09-.11v-.05l.18-.21zm-.2.18zm0 .15zm-.13.17zM318.02 152.34v.01-.01z" fill="#f1caa2"/><path d="M322.89 145c0-.49-.1-1-.15-1.45-.09-.75.15-1.65-.3-2.32a.82.82 0 0 0-1.45 0 2.61 2.61 0 0 0 0 2.24 10.39 10.39 0 0 1 .13 2.06 2.26 2.26 0 0 1-.15 1.55 12 12 0 0 0-1 2.48c-.13.45-.16.95-.32 1.38a1.85 1.85 0 0 0-.36.45c-.38.14-1.21.19-1.33.7a.55.55 0 0 0-.17.24l.1.08q0 .16.09.2l.46-.52h.38c.06.1.62.06.68 0a.34.34 0 0 1 .12 0c.77 0 .85-.73 1.14-1.31s.53-1 .78-1.52a13.18 13.18 0 0 0 1.16-2.26 6.78 6.78 0 0 0 .19-2zm-4.89 7.39v.08-.05l.06-.08s-.06.03-.06.05zm.36-.34zm.5 0z" fill="#f1caa2"/><path d="M321.13 147.13c-.09.11-.2.19-.29.3s-.1.15-.15.22a1.05 1.05 0 0 0-.14.19v.11c-.05 0-.07.11-.09.16s0 .13-.07.19v.06l-.1.21a1.12 1.12 0 0 0-.08.34.32.32 0 0 0 0 .09v.24a.33.33 0 0 0 0 .19.07.07 0 0 0 .06 0h.06a.38.38 0 0 0 0-.09 2.51 2.51 0 0 1 .08-.32v-.18c.06-.18.12-.35.19-.52 0-.09.13-.24.09-.33v-.1a.87.87 0 0 1 .12-.2c.05-.07.09-.16.14-.23.08-.11.19-.2.27-.3zm-.66.9zm.12 0zm0 .06zm-.42 1.3zm-.12 0zm.12 0zm.05-.85zm.3-.25zm-.18 0zm.35-.66zm.22-.19z" fill="#f1caa2"/></g></svg>