<?xml version="1.0" encoding="utf-8"?>
<!-- Generator: Adobe Illustrator 21.1.0, SVG Export Plug-In . SVG Version: 6.00 Build 0)  -->
<svg version="1.1" id="Layer_1" xmlns="http://www.w3.org/2000/svg" xmlns:xlink="http://www.w3.org/1999/xlink" x="0px" y="0px"
	 viewBox="0 0 359 263" style="enable-background:new 0 0 359 263;" xml:space="preserve">
<style type="text/css">
	.st0{fill:#FFFFFF;}
	.st1{fill:#E0E0E0;}
	.st2{fill:#80C6F3;}
	.st3{fill:#FFB625;}
	.st4{fill:#D6A049;}
	.st5{fill:#EDB150;}
	.st6{fill:#986845;}
	.st7{fill:#895E3E;}
	.st8{fill:#8A4301;}
	.st9{fill:#834001;}
	.st10{fill:#A14F02;}
	.st11{fill:#773701;}
	.st12{fill:#934403;}
	.st13{fill:#E8C39C;}
	.st14{fill:#E9B885;}
	.st15{fill:#5780BA;}
	.st16{fill:#5F8CCA;}
	.st17{fill:#5882BC;}
	.st18{fill:#4F74A8;}
	.st19{fill:#4C70A2;}
	.st20{fill:#D6CBA2;}
	.st21{fill:#C5BA95;}
	.st22{fill:#A5AD8F;}
	.st23{fill:#C9BF98;}
	.st24{fill:#D19C52;}
	.st25{fill:#AF8345;}
	.st26{fill:#F1CAA2;}
	.st27{fill:#8AE8BB;}
	.st28{fill:#80D8AE;}
	.st29{fill:#AA6E26;}
</style>
<title>MHM</title>
<path class="st0" d="M0,0h359v263H0V0z"/>
<g>
	<path class="st1" d="M201.9,76.8c-0.9,0.2-0.7,1.6-0.7,2.3c-0.1,1.8,0,3.5,0.1,5.2c0.2,2.6,0,5.1,0,7.7c0,0.9,0.2,1.9,0.2,2.8
		s0,1.8,0,2.8c0,1.7,0.1,3.3,0.2,5c0.1,3.2,0,6.3,0.1,9.4c0,0.7,0,1.5,0.1,2.2c0,0.8,0,1.6,0.1,2.4c-0.1,1.1-0.1,2.2,0.1,3.3
		c0.2,0.7,1.7,1.6,2.1,0.7c0.2-0.4-1.7-43.8-1.9-43.8C202.4,76.9,201.9,76.9,201.9,76.8L201.9,76.8z M203,143.3
		c-0.3,0.1-0.6,0.3-0.8,0.6c0,2.8-0.3,5.6-0.1,8.5c0.3,3,0.1,6,0.1,9c-0.1,5.9,0.1,11.8,0.1,17.7c0,1.5,0.1,3,0.1,4.4
		c0,0.7,0,1.4,0.1,2.1c0,0.3,0,0.6,0.1,0.9c0.1,0.1,0.4,0.1,0.6,0.1s0.6,0.2,0.7,0S204.1,143.1,203,143.3L203,143.3z"/>
	<path class="st2" d="M180.6,64c-0.3,0.5-2.4,131.9,1,135c1.4-0.9,2.8-1.6,4.2-2.3c2.5-1.1,4.9-2.3,7.2-3.7c1.5-0.7,3-1.6,4.4-2.5
		c0.5-0.4,0.4-0.7,0.4-1.3s0,0-0.1,0c0-3.3,0.3-6.5-0.1-9.7c-0.3-3.5-0.4-7.1-0.2-10.6c0.1-3.4-0.2-6.8-0.3-10.2
		c0-3-0.1-5.9-0.2-8.9c0-1.1,0-2.2-0.1-3.3c0-0.4-0.1-0.6,0.2-0.8c0.9-0.4,1.9-0.8,2.9-0.9c0.9-0.3,1.9-0.5,2.9-0.8
		c0.4,6.7,0.7,13.3,0.4,19.9c-0.1,2-0.1,9.5,0,11.2s0.2,7.2,0.3,8.2c0,0.5,0.3,3.3,0.2,3.5c1.6-0.8,3.3-1.8,4.8-2.7
		c0.9-0.5,1.8-1.1,2.7-1.7c0.2-0.1,0.4-0.3,0.6-0.5c0.3-0.2,0.5-0.6,0.6-0.9c0.1-0.1,0.4-97.3-0.5-98.2c-1.3-1.3-2.9-2.3-4.6-2.9
		c-1-0.5-2-1-2.9-1.5c-0.6-0.4-1.2-0.8-1.8-1.1c-0.5-0.2-0.4-0.4-0.6,0.1v2c0.1,1.7,0.2,3.4,0.1,5c-0.2,2.9-0.2,5.9,0.1,8.8V93
		c0.7,5.2,0.2,10.4,0.3,15.6c0.1,3.7,0,7.4,0.2,11.1c-1.2-0.4-2.4-0.7-3.7-1.1c-0.6-0.1-1.2-0.2-1.8-0.5c-0.4-0.4-0.2-2.4-0.2-3.1
		c0-3.1,0.1-6.3-0.1-9.4c-0.2-7.1-0.9-14.2-1-21.4c0-0.9-0.1-1.8-0.1-2.6s0-1.7-0.1-2.5c0-1.1,0-2.2-0.1-3.2c-0.1-0.9,0-1.8-0.1-2.7
		c-0.1-0.6-1.1-0.9-1.6-1.1c-1.7-0.9-3.3-1.9-4.9-2.9c-1.7-1.3-3.5-2.5-5.4-3.6c-0.5-0.3-1-0.5-1.6-0.8s-0.4-0.3-0.8-0.4
		C181.6,64.4,180.7,63.9,180.6,64L180.6,64z M195.6,72.8C195.7,72.8,195.7,72.8,195.6,72.8z M195.8,76.2L195.8,76.2
		C195.8,76.2,195.8,76.2,195.8,76.2L195.8,76.2z M202.9,78.1l0.2,1.1L202.9,78.1z"/>
	<path class="st3" d="M231.8,82.2c-1.9,0-3.8,0-5.7,0.1c-2.4,0.1-4.8,0.5-7.2,0.5c-1.8,0-3.6,0-5.4-0.2c-0.5-0.1-1-0.1-1.6-0.1
		c-0.2,0.1-0.1,2.8-0.1,3.5c-0.1,4,0.1,8.1,0.1,12.1v7.7c0,2.4,0.3,4.8,0.2,7.2c0,1.7-0.2,3.5-0.3,5.2c-0.2,3.2-0.2,6.4-0.2,9.5
		v12.4c0,5.6,0,11.1,0.2,16.7c0.1,4,0.3,7.9,0.4,11.9s-0.5,8-0.4,12.1c0,0.4,0,0.7,0.1,1.1c0.1,0.2,0.6,0.1,1.1,0.1
		c1.5-0.1,3-0.2,4.5-0.2c1.8,0,3.5-0.2,5.3-0.2c1.6,0,3.2,0.1,4.8,0.1c1.9,0,3.8,0.1,5.7,0.2c1.1,0,1.2-0.4,1.4-1.5
		c0.2-1.1,0.2-2.2,0.1-3.3c-0.2-5.3,0.1-10.6-0.1-15.9c-0.3-7.3-0.4-14.6-0.5-22c0-3.1-0.1-6.3-0.2-9.4c-0.1-4.2-0.5-8.4-0.5-12.7
		c0-1.6,0.1-3.2,0.4-4.8c0.3,0.2,0.4,0.7,0.5,1.1c0.4,1.1,0.8,2.2,1.2,3.3s0.8,2.2,1.2,3.3c1.2,3.1,2.5,6.1,3.7,9.2
		c1.6,4,2.5,8.1,3.8,12.2c1.2,3.8,2.8,7.4,4.1,11.2s2.5,7.4,3.9,11.2c1.1,3.1,2.5,6.2,3.6,9.4c0.5,1.5,1.1,3.1,1.6,4.6
		c0.2,0.6,0.5,1.1,0.7,1.7s0.5,1.9,1.1,2.3c0.4,0.1,0.8,0.2,1.2,0.2c0.9,0.1,1.9,0.2,2.8,0.2c1.8,0.1,3.5,0.1,5.3,0l4.1-0.1
		c1,0.1,2.1,0.1,3.1,0c0.3,0,0.5-0.2,0.5-0.5c0-0.3,0.1-0.5,0.2-0.8c0.2-0.8,0.5-1.7,0.9-2.4c1.1-3.2,2.6-6.2,3.6-9.4
		c0.6-1.9,1.1-3.8,1.8-5.7s1.3-3.4,1.9-5.2c1-3.1,2.1-6.1,3.3-9.1c1-2.7,2.2-5.4,3.3-8c1.3-3.2,2-6.5,3.5-9.6
		c1.5-3.3,2.5-6.8,3.7-10.1c0.8-2.1,1.4-4.2,2.4-6.2c0.2-0.4,1-2.4,1-1c0,1.2,0.1,2.3,0.1,3.4c0,4,0.2,8,0.1,11.9
		c-0.1,4.8-0.3,9.5-0.4,14.3c-0.1,2.5,0,5,0,7.5c0,4.8-0.5,9.6-0.4,14.5s0.2,9.6,0.2,14.5c0,0.4,0,0.9,0,1.3c0,0.3,0,0.7,0.1,1
		c0.3,0.2,1.1,0.1,1.4,0.1h2.1c1.7,0,3.5-0.1,5.2-0.2c3.2-0.1,6.3-0.2,9.5,0c1,0.1,1.9,0.1,2.9,0.2c0.4,0.1,0.8,0.1,1.2,0.1
		c0.2,0,0.5-0.1,0.7-0.1c0.2,0,0.4,0,0.5-0.1c0.5-0.2,0.4-1.7,0.4-2.1c0.1-1.2,0.2-2.4,0.2-3.6c0-4.2-0.4-8.3-0.5-12.4
		c-0.2-5.6,0.1-11.2-0.1-16.8c-0.1-4,0-7.9,0.2-11.8c0.1-2.9,0.2-5.7,0.2-8.6c0-2.5-0.2-4.9-0.2-7.4c0-4.6,0.4-9.3,0.4-13.9
		c0-3.4-0.1-6.9-0.1-10.3c0-2,0-4.1,0-6.1c0-1.2-0.1-2.4-0.1-3.6c0-0.4,0.2-1.6,0-1.9s-0.8-0.1-1.2-0.1c-2,0.1-4,0-5.9-0.1h-5.3
		c-4.6,0-9.3,0-13.9,0.1c-2.3,0-4.6-0.1-6.9-0.4c-0.6-0.1-1.1-0.3-1.5,0.2c-0.6,1.1-1.2,2.2-1.6,3.4c-1.2,3-2.2,6.1-3.1,9.2
		c-0.8,2.7-1.5,5.5-2.1,8.2c-0.9,3.4-2,6.7-3.3,10c-1.4,3.8-3.2,7.5-4.6,11.3c-1.4,3.8-2.2,7.5-3.6,11.2c-0.6,1.6-1.3,3.1-1.8,4.7
		c-0.4,1.6-1,3.2-1.6,4.8c-0.7-1.9-1.4-3.7-2.1-5.6c-0.6-1.6-1.5-3.1-2.3-4.6c-1.3-2.8-2.2-5.7-2.9-8.7c-0.9-3.2-2-6.4-3.3-9.5
		c-1.5-3.6-2.7-7.3-3.8-11c-0.4-1.6-1-3.2-1.6-4.7c-0.8-2-1.8-3.9-2.6-5.8c-0.8-2-1.5-4.1-2.3-6.2c-0.5-1.3-0.9-2.6-1.3-3.9
		c-0.2-0.8-0.5-1.6-0.8-2.4c-0.2-0.7-0.3-0.9-0.9-1.1c-1-0.2-2.1-0.3-3.2-0.2c-1.3,0-2.7-0.1-4-0.1
		C235.8,82.2,233.8,82.1,231.8,82.2L231.8,82.2z"/>
	<path class="st1" d="M324.7,121.7c-0.9-0.1,0,0.1-0.9,0.2c-0.3,0-0.7,0.1-1,0.1c-0.6,0.2-0.6,0.5-0.9,0.9c-0.2,0.3-0.4,0.6-0.5,1
		c-0.1,0.6-0.3,0.5-0.6,0.9c-0.4,0.9-0.4,1.9-0.1,2.8c-0.9,0.1-1.3,1.1-2,1.5c-0.6,0.2-1.2,0.4-1.8,0.5c-0.3,0.2-0.6,0.3-1,0.3
		c-0.4,0-0.7,0-1,0.2c-0.5,0.3-0.7,0.6-1.4,0.6c-0.5,0-2.9-0.2-3.2,0.3s-0.2,1.8-0.3,2.5c0,0.5,0,1.1,0.1,1.6c0,0.6-0.3,1.3-0.4,2
		s0.1,1.4,0,2c0,1.3-0.1,2.6-0.3,3.9c-0.3,1.7-0.4,3.3-0.4,5v1.6c0,0.6,0.1,1.3,0.2,1.9c0.1,1.3-0.8,2.5-1.6,3.5
		c-0.4,0.5-0.6,1.2-0.7,1.8c-0.3,0.7-0.5,1.4-0.7,2.1c0,0.8,0.2,1.5,0.3,2.3s0,1.6,0,2.4c-0.2,1.4-0.2,2.8-0.1,4.1
		c0.1,0.9,0.2,1.8,0.2,2.7c0,1.2-0.3,2.3-0.3,3.5c0,1.1,0,2.2-0.1,3.4l-0.2,3c0,0.3-0.1,1-0.1,1.3c0,0.6,5.9,0,8.4,0.2
		s5.2-0.1,7.9,0.2c1,0,2,0,2.9-0.1c0.8-0.3,0.1-30.2,0.1-31.6c0.1-4.6-0.1-9.2-0.2-13.8c-0.1-4.4,0.1-8.9,0.1-13.3v-1
		c0-0.2,0-0.5-0.2-0.6C325,121.7,324.7,121.6,324.7,121.7L324.7,121.7z"/>
	<path class="st3" d="M49.5,63.7c-2.6,0.1-5.1,0.2-7.7,0.2s-5,0.5-7.5,0.7c-0.9,0.1-1.8,0.1-2.6,0.1c-1.3,0-2.6,0.1-3.9,0
		c-0.3,0-0.1-0.3-0.4,0.1c-0.2,0.4-0.3,0.9-0.3,1.4c-0.1,1.5-0.1,3-0.1,4.5c0,9.5-0.3,19.1-0.3,28.6c0,5.9,0.2,11.8,0.2,17.8
		c0,4.3,0.2,8.6,0.2,12.8c0.1,5.9-0.4,11.8-0.3,17.7c0.1,4.9,0.1,9.8,0.3,14.6c0.3,8.1,0.5,16.2,0.6,24.3c0,2.4,0,4.8-0.1,7.3
		c0,1-0.1,2.1-0.1,3.1c0,0.3,0,0.6,0,0.9c-0.1,0.3,0-0.1-0.1,0.4s0.1,0.4,0.4,0.4c4.3,0.6,8.8,0.1,13.2,0.1c3.2,0,6.3,0.1,9.5,0.1
		c1.9,0,3.8-0.3,5.8-0.3c0.4,0,0.8,0,1.2-0.1c0.5-0.3,0.6-0.4,0.5-0.7c-0.1-0.9-0.1-1.8-0.2-2.7c-0.2-5.3-0.1-10.6,0-15.9
		c0-5.9-0.1-11.8-0.1-17.6c0-7.2,0.1-14.4,0-21.6c0-4.6-0.2-9.2-0.3-13.9c-0.2-4.9,0-9.7,0.1-14.6c0-2.2,0-4.4,0.1-6.6
		c0.9,3,1.8,6,2.8,8.9c0.9,2.7,1.5,5.4,2.4,8.1c1.4,4.2,3.4,8.2,5.1,12.2c0.9,2.7,2,5.4,2.9,8.1c1,2.9,2.1,5.7,3,8.6
		c1.9,5.8,4.3,11.3,6.3,17c1.4,4,2.7,8.1,4.3,12.1c0.8,2.1,1.6,4.2,2.4,6.4c0.9,2.4,1.8,4.8,2.6,7.2c0.5,1.5,1,3,1.6,4.5
		c0.2,0.6,0.3,1.1,0.9,1.3c0.9,0.2,1.7,0.3,2.6,0.3c3.4,0.2,6.8,0,10.2-0.2c2.2-0.1,4.4-0.2,6.6-0.3h1.8c0.3,0,1.2-0.1,1.2-0.1
		c0.3,0.1,1.2-3.4,1.3-4c0.5-1.6,1.1-3.2,1.8-4.8c1.3-3.3,2.5-6.6,3.9-9.9c1.8-4.4,3.7-8.7,5.5-13c2-4.6,3.4-9.3,5.2-13.9
		c1.3-3.3,2.6-6.5,3.8-9.8c2.9-7.9,5.7-15.9,8.8-23.8c1.7-4.4,3.1-9,4.8-13.4c-0.1,7.1-0.1,14.3,0.4,21.4c0.4,4,0.5,8,0.4,12
		c-0.1,4.3-0.4,8.6-0.7,12.9c-0.4,5.4-0.5,10.7-0.4,16.1c0.1,4.5,0.1,8.9-0.2,13.4c-0.2,2.6-0.3,5.2-0.3,7.8c0,1.1,0.1,2.1,0.1,3.2
		c0,0.7-0.2,1.4-0.2,2.1s-0.1,1.8-0.1,2.2s-0.1,1.2,0.2,1.4s1.3,0.1,1.8,0.1c2.4,0,4.8,0.2,7.2,0.2c4.6,0.1,9.2-0.7,13.9,0
		c1.7,0.2,3.4,0.4,5.1,0.5c1.4,0.1,2.9,0.1,4.3-0.1c0.3,0,0.5,0,0.7-0.1c0.4-0.2-0.1-7.8-0.3-11.5c-0.1-1.5-0.1-3-0.1-4.5
		c-0.1-3.1-0.4-6.2-0.5-9.4c-0.1-5.6,0.1-11.1,0-16.6c-0.1-5.2-0.2-10.4,0-15.6c0.1-2.1,0.2-4.3,0.4-6.4c0.2-3.2,0.1-6.3,0.1-9.5
		v-7.5c0-3.6,0.1-7.1,0.1-10.7c0.1-4.6,0.3-9.2,0.2-13.8c-0.2-5.2-0.8-10.5-0.8-15.7c0-2.2,0-4.3,0.1-6.5c0.1-1.2,0.1-2.4,0.2-3.6
		c0-0.8,0-1.5,0.1-2.3c0-0.5,0-0.9,0-1.4c-0.6-0.1-1.2-0.2-1.8-0.2c-1.4,0.1-2.8,0.2-4.1,0.2c-1.8,0-3.5,0-5.3-0.1
		c-4.6-0.1-9.2-0.1-13.8,0.1c-1.9,0.1-3.8,0.1-5.7,0.2c-2.7,0.1-5.4,0.5-8.1,0.6c-1.7,0-3.4-0.1-5.1-0.3c-0.7,0-1.5,0-2.2-0.2
		c-0.1-0.1-0.8,0-0.8,0.2c-0.4,1-0.6,1.9-0.8,2.9c-1.1,4.2-2.5,8.3-3.6,12.5c-0.6,2.4-1.5,4.7-2.4,7c-1,2.7-1.8,5.3-2.7,8
		c-2.5,7.5-4.8,15-7.5,22.5c-1.5,4-2.9,8.1-4.4,12.1c-1.8,4.6-3.8,9.2-5.3,13.9c-0.8,2.4-1.7,4.8-2.6,7.2c-0.6-1.7-1.6-3.3-2.2-5
		c-0.5-1.5-1-2.9-1.5-4.4c-1.2-3.6-2.1-7.1-3-10.7c-1.1-3.8-2.5-7.5-4-11.1c-1.5-3.9-2.7-7.9-4.2-11.7c-1.2-3.2-2.5-6.3-3.7-9.5
		c-1.5-4.3-3-8.6-4.8-12.7c-0.8-1.8-1.5-3.6-2.2-5.4c-1-2.2-1.9-4.4-2.7-6.6c-0.8-2.5-1.6-5.1-2.4-7.6c-0.1-0.3-0.2-0.6-0.3-0.8
		c0-0.3-0.2-0.5-0.6-0.8c-0.6-0.5-2-0.2-2.6-0.2c-2.5,0.1-4.9-0.1-7.4-0.2C58.4,63.7,53.9,63.6,49.5,63.7L49.5,63.7z"/>
	<path class="st4" d="M319.4,128.1c-0.2,0.2,0.2,1.1,0.5,0.8S319.4,128.1,319.4,128.1z"/>
	<path class="st5" d="M320.1,128.8C320.1,128.8,320.1,128.8,320.1,128.8z M320,128.7L320,128.7L320,128.7z M320.9,128
		c-0.2-0.2-0.1-0.3-0.2-0.4c-0.3-0.1-0.4,0-0.3,0.1c-0.1-0.1-0.4-0.4-0.5-0.1v0.2c0,0-0.1-0.1-0.2-0.1v0.2c0,0.1-0.1,0-0.2,0
		s-0.1,0.2,0,0.2c0.1,0-0.2,0-0.2-0.1c-0.2,0.2,0.6,0.9,0.8,0.9c0.4,0,0.7-0.3,0.7-0.7C321,128.2,320.9,128.1,320.9,128L320.9,128z
		 M319.7,128.2L319.7,128.2L319.7,128.2z"/>
	<path class="st6" d="M321.1,129.5c0-0.1,0-0.3,0-0.4c0-0.3,0.1-0.9-0.3-0.6c-0.2,0-0.3,0.1-0.5,0.1c-0.2,0-0.4,0.2-0.5,0.3
		c0.1,0.2,0.3,0.5,0.5,0.7c0.1,0.6,0.5,1.2,0.9,0.4C321.3,129.7,321.2,129.8,321.1,129.5L321.1,129.5z"/>
	<path class="st6" d="M320.9,128.4c0,0,0,0.3,0.1,0.2S321,128.4,320.9,128.4z"/>
	<path class="st7" d="M319.8,128.8c-0.1,0.2,0.6,1.2,0.9,1.3s-0.6-1.1-0.6-1.1S320,128.5,319.8,128.8L319.8,128.8z"/>
	<path class="st8" d="M325.8,151.9c-0.1,0-0.5,0.3-0.7,0.4s-0.6,6.5-0.6,6.8s-0.1,0.9-0.1,1.3v0.3c0,0.4-0.2,3.5-0.2,4
		c0,0.3-0.2,2.6-0.2,2.8s-0.4,4.3-0.4,4.4s-0.2,2.3-0.2,2.2c0,0.4-0.1,0.9-0.1,1.3c0,0.1-0.1,1.8-0.1,2c-0.1,0.9-0.2,3.6-0.2,3.6
		c-0.1,0.2,0,0.4,0.1,0.5s0.1,0.1,0.1,0.1c0.2,0.4,0.4-0.8,0.4-0.9c0.2-1.3,0.3-2.5,0.3-3.8c0.1-1.5,0.2-2.9,0.3-4.4
		c0.2-2.3,0.4-4.6,0.5-7c0.1-2,0.4-4,0.4-6c0-2.2,0.4-4.3,0.6-6.4C325.9,152.7,325.8,152.3,325.8,151.9z M319.6,151.9l-0.3,0.1
		c-0.2,0.1-0.4,0.3-0.6,0.4l-0.1,0.1c-0.1,0.2-0.1,1.6-0.1,2c-0.1,0.6-0.1,1.1-0.1,1.7c0,0.6-0.4,3.7-0.5,4.3
		c-0.1,1.1-0.3,4-0.3,4.1c0,0.4-0.2,1.5-0.2,1.6c-0.1,0.5-0.1,1.1-0.1,1.6c-0.1,1-0.2,2.1-0.3,3.1v-0.1c-0.1,0.8-0.2,1.6-0.2,2.3
		c0,1.8-0.5,3.5-0.5,5.3c0,0.1,0,0.3,0,0.4c-0.1,0.8-0.2,1.6-0.3,2.4c-0.1,0.3-0.3,1.3-0.1,1.5c0.2,0,0.4,0,0.5-0.1
		c0-0.1,0.1-0.1,0.1-0.2c0.3-0.4,0.4-0.8,0.4-1.3c0.1-0.8,0.3-1.6,0.4-2.4c0.2-1.8,0.4-3.6,0.5-5.4c0.1-1.4,0.4-2.8,0.5-4.2v0.1
		c0.2-1.6,0.1-3.1,0.3-4.6v0.1c0-0.5,0.1-1,0.1-1.6v0.1c0-0.4,0-0.8,0.1-1.2v0.1c0-0.4,0.1-0.8,0.1-1.2v0.1c0-0.3,0-0.6,0.1-0.8v0.1
		c0.1-0.9,0.2-1.9,0.3-2.8v-1.2c0-0.3,0.1-0.5,0.2-0.8c0.1-0.6,0.2-1.4,0.3-2.1C319.7,153,319.7,152.5,319.6,151.9L319.6,151.9z"/>
	<path class="st9" d="M317.1,178c-0.3,0-0.2,0.9,0.2,0.8h2.8c0.6-0.1,1.3-0.1,1.9-0.1c0.2,0,0.6,0.2,0.8,0.1s0.4-0.9,0.1-0.9h-1.1
		c-0.6,0-1.1,0.1-1.7,0.1c-0.5,0.1-2,0-2.3,0C317.7,178,317.1,177.9,317.1,178L317.1,178z"/>
	<path class="st10" d="M326.5,159.8L326.5,159.8C326.5,159.8,326.5,159.8,326.5,159.8z M322.9,182.5L322.9,182.5L322.9,182.5
		L322.9,182.5z"/>
	<path class="st11" d="M326.1,152.2l-0.2-0.3c0,0.5,0,0.9-0.1,1.4l-0.1,0.4v0.2c-0.1,0.6-0.1,1.1-0.2,1.7v0.6l-0.3,2.2
		c-0.1,1-0.1,2.1-0.2,3.1c0-0.2-0.1,1.1-0.2,1.9c-0.1,1.2-0.2,2.4-0.2,3.6v-0.1c0,0.7-0.1,1.4-0.2,2.2v-0.1l-0.1,1.5v-0.1
		c-0.1,0.7-0.1,1.4-0.2,2.2v-0.1v0.4c-0.2,1.4-0.4,3.7-0.4,4.1c-0.1,0.6-0.2,1.3-0.2,2c0,0.6-0.1,1.1-0.1,1.7v0.1
		c-0.1,0.3-0.1,0.5-0.1,0.8c0,0,0,0.1,0.1,0.1c0,0,0.1,0.1,0.1,0.1s0.1-0.2,0.1-0.2c0-0.1,0.1-1,0.1-1.1c0.1-0.4,0.1-0.9,0.2-1.3
		c0-0.4,0.1-0.9,0.1-1.3v0.1c0.2-2.4,0.5-4.8,0.6-7.2c0-0.4,0.1-0.8,0.1-1.2v0.1c0-0.6,0-1.2,0.1-1.7v0.1c0.1-1.4,0.3-2.8,0.4-4.2
		c0-0.7,0.1-1.3,0.1-2v0.1c0.1-1.1,0.2-2.2,0.3-3.4v-1.1c0.1-0.5,0.1-1.1,0.2-1.6l0.1-0.6c0-0.2,0-0.4,0.1-0.6s0.1-0.9,0.2-1.6
		C326.2,152.9,326.2,152.5,326.1,152.2L326.1,152.2z M320,152.9c0-0.3,0-0.3-0.1-0.4l-0.1-0.1h-0.2v0.1c0,0.2,0,0.4-0.1,0.5
		c0,0,0-0.4,0.1-0.5v1c0,0.4-0.2,0.7-0.2,1.1c0,0.1,0,0.2,0,0.4c-0.1,0.6-0.1,1.3-0.2,1.9v0.9c-0.1,0.9-0.2,1.8-0.2,2.6
		c-0.2,1.3-0.5,2.6-0.6,3.9c-0.2,2.2-0.4,4.4-0.6,6.6v-0.1c-0.2,1.9-0.5,3.8-0.6,5.8v0.4c-0.2,0.8-0.2,1.6-0.2,2.5v0.2
		c-0.1,0.3-0.1,0.5-0.1,0.8c0,0.5-0.1,1-0.3,1.4c-0.1,0.3-0.3,0.4-0.3,0.6c-0.2,0.1,0.3,0.2,0.3,0.1h0.1c0,0,0-0.1,0-0.1
		c0.1-0.3,0.2-0.5,0.2-0.8c0-0.1,0-0.2,0-0.3c0.2-0.7,0.3-1.4,0.3-2.2v-0.1c0,0,0.1-0.7,0.1-1.1c0.1-0.6,0.2-1.2,0.2-1.8
		c0.1-0.9,0.1-1.7,0.2-2.6c-0.1,0.6,0.4-2.8,0.5-4v0.1c0.2-2.1,0.3-4.3,0.5-6.5v0.1c0.2-2,0.6-4,0.7-6v-0.1c0-0.2,0.1-0.5,0.1-0.7
		s0-0.1,0-0.1c0-0.1,0-0.2,0-0.2c0.1-0.5,0.2-0.9,0.2-1.4v-0.2c0.1-0.2,0.1-0.4,0.1-0.6v-0.5c0-0.2,0,0,0,0v-0.1
		C319.9,153.2,319.9,153.1,320,152.9L320,152.9z"/>
	<path class="st10" d="M322.1,186"/>
	<path class="st8" d="M332,184.3c-0.4-2.4-1.5-4.8-1.4-7.3c0-2.3-0.7-4.6-0.9-6.8c-0.3-2.7-0.9-5.3-1.2-8c-0.2-1.7-0.5-3.3-0.8-5
		c-0.1-1.5-0.4-2.9-0.9-4.3c-0.1-0.1-0.5-1.6-1-1.1c-0.1,0-0.2,0.1-0.3,0.1c-0.1,0.1-0.4,0.4-0.2,0.6s0.4,3.1,0.5,4.1
		c0,0.2,0.3,2.1,0.3,2.3c0,0.5,0.1,1,0.2,1.5c0-0.1,0.4,2.4,0.5,2.5s0.9,4.7,0.9,5s0.5,2.9,0.5,3.2c0,0.6,0.4,4.1,0.4,4.6v0.4
		c0.1,0.5,0.2,1,0.2,1.5c0,0.3,1.2,7.5,1.4,7.5c0.5,0.3,1,0.5,1.6,0.6C331.9,185.3,332,184.8,332,184.3L332,184.3z M324.3,184.8
		c-0.2-0.8-0.2-1.6-0.4-2.3c-0.1-0.3-0.2-0.6-0.3-0.9v-1.3c-0.1-1.1-0.3-2.1-0.5-3.1v0.1c0-0.3-0.1-0.6-0.1-0.9v0.1
		c-0.1-0.4-0.2-0.9-0.2-1.3v0.1c0-0.4-0.1-0.9-0.1-1.3v0.1c-0.1-0.6-0.1-1.2-0.2-1.8v0.1c-0.2-1.7-0.2-3.3-0.5-5.2v0.1
		c-0.2-1.6-0.5-3.1-0.7-4.7c-0.3-2-0.5-4-0.9-6c-0.1-0.9-0.4-1.8-0.6-2.6c-0.1-0.5-0.2-1.1-0.6-1.4c0-0.1-0.1-0.2-0.1-0.2
		c-0.3-0.1-0.6-0.1-0.9-0.1c-0.4,0.2,0.1,1.4,0.1,1.7c0.2,0.9,0.4,1.8,0.5,2.7c0,0.2,0.1,0.3,0.1,0.5c0,2,0.8,3.9,0.8,5.9
		c0,0.9,0.1,1.7,0.3,2.6v-0.1c0.1,1.2,0.3,2.3,0.5,3.5c0,0.6,0,1.2,0.1,1.8c0,0.1,0.2,1.3,0.2,1.8c0,0.1,0.3,3.4,0.5,4.6
		c0.1,0.7,0.7,4.2,0.8,4.8c0.1,0.6,0.1,1.3,0.2,1.9c0,0.7,0.1,1.5,0.2,2.2l0.2,0.1h0c0.3,0.2,0.7,0.4,1,0.5l0.5,0.2
		C324.3,186,324.3,185.4,324.3,184.8L324.3,184.8z"/>
	<path class="st9" d="M328.8,171.2c0.1-0.2,0.2-0.9-0.2-1c-1,0-1.9,0.1-2.9,0.2c-0.3,0-3.5,0.3-3.5,0.4c0.4,0,0.5,0.8,0.2,0.9
		c0.6,0,1.2,0,1.7-0.1c1.5-0.2,3,0,4.4-0.2 M329.8,179.5c0-0.7-0.6-0.5-1.1-0.4c-0.4,0-2.1,0.3-2.5,0.3l-1.8,0.2
		c-0.3,0-0.9,0-0.9,0.4s0.2,0.5,0.1,0.6c0.2,0.2,0.7,0,1-0.1c0.4,0,0.8-0.1,1.2-0.1c1-0.1,2-0.2,3-0.3
		C329.3,180.2,330,180.2,329.8,179.5L329.8,179.5z"/>
	<path class="st12" d="M320.7,157.8c0.4,0.2,1.5,0,1.9,0c1.1-0.2,2.9,0,4-0.5c0,0-0.8-1.2-1.2-1.2c-1.1,0-2.2,0.1-3.3,0.4
		c-0.5,0-1.1,0.1-1.6,0.2C320.3,156.7,320.7,157.8,320.7,157.8L320.7,157.8z"/>
	<path class="st9" d="M323.2,175.9c0.7,0,2.4-0.2,2.5-0.2c0.3,0,3.6-0.5,3.6-0.4c0.4-0.1,0.1-0.7-0.1-1c-0.2-0.4-6.2,0.6-6.2,0.7
		C323.1,175.4,323.2,175.7,323.2,175.9L323.2,175.9z M327.5,166.6c0.5-0.1,0.6-0.1,0.6-0.1c0-0.3,0.1-0.9-0.2-1
		c-0.4-0.1-0.8-0.1-1.1,0l-0.5,0.1c-0.7,0.1-4.5,0.3-4.5,0.3c0,0.3,0.1,0.6,0.1,0.9C322.1,167.1,327.4,166.6,327.5,166.6
		L327.5,166.6z M321.4,162.8c0.8,0,1.6-0.2,2.3-0.3c0.1,0,3.1-0.4,3.7-0.5c0.3,0,0.1-1-0.2-1h-0.3c-1,0.1-2.1,0.3-3.2,0.4
		c-0.2,0-2.6,0.3-2.6,0.5s-0.2,0.8-0.2,0.8S321.3,162.8,321.4,162.8L321.4,162.8z M321.6,158.6c0.3,0,1.9-0.2,2.3-0.2
		c0.5-0.1,1.1-0.1,1.7-0.1c0.4-0.1,0.7-0.1,1.1-0.1c0.3-0.1,0-0.8-0.1-0.8c-0.3,0-0.6,0-0.9,0.1c-0.6,0.1-1.2,0.1-1.9,0.2
		c-0.9,0.1-1.9,0.1-2.8,0.3c-0.5,0-0.4,0.9-0.1,0.9C320.9,158.7,321.5,158.6,321.6,158.6L321.6,158.6z"/>
	<path class="st10" d="M330.9,177.9L330.9,177.9C330.9,178,331,178,330.9,177.9z M327.4,155.2L327.4,155.2L327.4,155.2L327.4,155.2z
		 M321.5,162.3c0,0.4,0.1,0.7,0.1,1C321.6,163,321.6,162.6,321.5,162.3z"/>
	<path class="st10" d="M332.2,184.3c-0.1-0.8-0.4-1.6-0.4-1.8s-0.1-0.5-0.2-0.7l-0.1-0.7c-0.1-0.6-0.2-1.2-0.4-1.9
		c0-0.4-0.1-0.8-0.1-1.2c-0.2-1.3-0.5-2.6-0.6-3.8v0.1c-0.1-0.8-0.2-1.5-0.3-2.3c-0.2-1.6-0.6-3.2-0.8-4.8v0.1
		c-0.1-0.7-0.1-1.3-0.2-2v0.1c-0.1-0.5-0.1-0.9-0.2-1.4c-0.3-2.8-1-5.5-1.4-8.2v0.1c-0.1-0.5-0.2-1-0.3-1.5c0-0.5-0.2-1-0.4-1.5
		c-0.1-0.4-0.2-0.8-0.3-1.2c0-0.1-0.3-0.5-0.3-0.4c-0.1,0.1-0.1,0.2-0.2,0.3c-0.1,0-0.1,0.1-0.1,0.2c0.1,0.3,0.2,0.6,0.3,0.9v0.1
		c0.1,0.6,0.2,1.3,0.3,1.9c0.1,0.8,0.3,1.5,0.5,2.2c0,0.4,0.6,3.1,0.9,4.6c0,0.2,0,0.4,0.1,0.5v-0.1c0.1,0.8,0.3,1.6,0.4,2.5v-0.1
		l0.2,1.7v-0.1c0.1,0.8,0.2,1.6,0.4,2.5v-0.1c0.2,1.4,0.3,2.8,0.5,4.1c0.1,0.9,0.5,2.3,0.4,2.1c0.1,1.2,0.2,2.4,0.5,3.6l0.6,2.6v0.1
		v-0.1c0,0.2,0.1,0.5,0.1,0.7v-0.1v0.1c0.1,0.7,0.2,1.3,0.4,2v0.2l0.1,0.5c0.1,0.5,0.2,1.1,0.2,1.6h0l0.4-0.3
		C332.3,185.2,332.3,184.7,332.2,184.3L332.2,184.3z M324.7,185.9c0-0.1-0.1-0.3-0.1-0.4v-0.1v-0.1v-0.1c0-0.2,0-0.4-0.1-0.5
		c0-0.2,0-0.5-0.1-0.7v-0.3c0-0.5-0.1-1.1-0.3-1.6V182v-0.1c0-0.3-0.1-0.5-0.1-0.8v-0.2c-0.1-2.3-0.7-4.6-1-6.9v0.1
		c-0.3-2.4-0.4-4.9-0.7-7.4v0.1c-0.2-1.3-0.9-5.2-0.7-4.5c-0.1-1-0.2-2-0.3-3c-0.1-0.7-0.2-1.3-0.4-2c0-0.4-0.1-1.3-0.1-1.3v-0.1
		c0-0.8-0.2-1.7-0.5-2.5c0-0.1,0-0.2-0.1-0.3c0-0.3-0.1-0.6-0.3-0.9c0,0,0-0.1-0.1-0.1h-0.1c-0.1-0.1-0.7,0.1-0.4,0.2
		c0,0.2,0.3,0.4,0.5,0.6c0.2,0.5,0.3,1.1,0.4,1.6c0.1,0.3,0.1,0.6,0.2,0.9v0.2c0,0.9,0.1,1.9,0.3,2.8v0.5c0.2,2.2,0.6,4.4,0.9,6.6
		v-0.1c0.3,2.5,0.5,5,0.8,7.5c0.2,1.5,0.5,3,0.8,4.5c0.1,1,0.2,2,0.3,3l0.1,0.5c0,0.2,0,0.3,0.1,0.5v0.1c0.1,0.7,0.1,1.4,0.2,2.2
		v0.4c0,0.4,0.2,0.8,0.2,1.2c0,0.1,0,0.4,0.1,0.7c0,0.1,0,0.3,0,0.4c0-0.2-0.1-0.6-0.1-0.6c0,0.2,0,0.4,0.1,0.6v0.1c0,0,0.1,0,0.1,0
		c0,0.1,0.1,0.1,0.1,0l0.2-0.1C324.7,186.2,324.8,186.2,324.7,185.9L324.7,185.9z M323.9,183.5l-0.1-1.2v0.2
		C323.8,182.8,323.8,183.2,323.9,183.5L323.9,183.5z"/>
	<path class="st13" d="M320.6,130.8c0,0,0-0.1,0-0.1v-0.1V130.8z M321,130.6c0,0.1,0,0.2,0,0.2c0,0,0.1,0,0.1,0c0,0,0,0,0,0l0.1-0.1
		h0L321,130.6L321,130.6L321,130.6z"/>
	<path class="st13" d="M320.4,129.8c-0.1,0-0.1,0.1-0.1,0.2l0.1,0.1c0,0.1,0.1,0.2,0.2,0.4s0,0.1,0.1,0.2v0.1v-0.1v0.1h0.1
		c0,0,0,0,0-0.1c0.1,0,0.1-0.2,0-0.3c0,0,0-0.1,0-0.1c0-0.1-0.1-0.2-0.1-0.2c0-0.1,0-0.2-0.1-0.2h0c0,0,0-0.1,0-0.1
		C320.5,129.9,320.4,129.9,320.4,129.8l-0.1,0.1L320.4,129.8z"/>
	<path class="st14" d="M326.3,140.5c0-0.4-0.3-0.8-0.5-1.1c-0.2-0.4-0.3-0.7-0.4-1.1c-0.3-0.6-0.6-1.2-1-1.8l-0.2-0.1
		c0-0.1,0.1-0.2,0.1-0.3c0-0.2-0.1-0.4-0.1-0.5c-0.1-0.7-0.4-1.4-0.7-2c-0.3-0.6-0.9-1.1-1.2-1.7c-0.1-0.3-0.1-0.7-0.1-1v-0.1
		c0-0.1,0.1-0.2,0.1-0.3c0,0,0-0.1,0-0.1c0,0,0-0.1,0-0.1c-0.1-0.1-0.2-0.2-0.3-0.3l-0.1-0.1c0-0.1-0.1-0.1-0.2-0.2h-0.1
		c-0.1,0-0.1,0-0.2,0.1h-0.1c-0.2,0.2-0.3,0.4-0.4,0.6c-0.1-0.3-0.5-0.9-0.6-0.2c0.1,0.4,0.3,0.8,0.6,1.2c0,0,0,0.1,0.1,0.1
		c0.8,0.5,0.8,2.1,1.1,2.9c0.2,0.7,0.4,1.4,0.7,2c0.2,0.3,0.6,0.6,0.7,0.9c0.1,0.2,0.1,0.4,0.1,0.6c0.1,0.6,0.3,1.2,0.6,1.7
		c0.1,0.1,0.3,0.3,0.4,0.5c0.1,0.4,0.1,0.7,0.3,1.1s0.9,1.1,1.3,1S326.4,140.9,326.3,140.5L326.3,140.5z"/>
	<path class="st15" d="M326.7,149.9c-0.1-0.5-0.3-1-0.5-1.4c0,0-0.3,0.3-0.3,0.4s-0.6,0.7-0.6,0.8c-0.1,0.4,0.2,0.7,0.1,1.2
		c0,0.3-0.1,0.6-0.3,0.9c0-0.1-0.2,0.1-0.2,0.1s-0.2,0.1,0,0.1c0.1,0.1,0.2,0.1,0.4,0.1c-0.1,0-0.1,0.1-0.1,0.1c0.1,0,0.2,0,0.3-0.1
		C326.3,151.7,326.8,150.8,326.7,149.9L326.7,149.9z"/>
	<path class="st16" d="M325.6,150.4c-0.1-0.2-0.2-0.4-0.3-0.6c0,0,0-0.1-0.1,0s0-0.2,0-0.2s-0.1,0.1,0,0.2s0,0-0.1,0.1
		s-0.9-0.5-1.1-0.5c-1-0.2-2,0.2-2.6,1c0.1-0.1,0.1-0.2,0-0.3c-0.1,0.1-0.1,0.2,0,0.3c-0.2,2,0,4.1,0.4,6.1c0,1,0.2,1.9,0.4,2.9
		c0,0.1,0.2,0.4,0.2,0.3c0.2,0,0.6-0.1,0.8,0c0.3,0.1,0.5,0.1,0.8,0.1c0.2,0,0.2,0,0.2-0.2v-0.1c0-0.6,0-1.3-0.1-1.9
		c0-1,0.2-2,0.3-3c0-0.4,0-1.3,0.3-1.6l0.1-0.1c0.1-0.1,0.3-0.5,0.4-0.5C325.8,151.8,325.9,151,325.6,150.4L325.6,150.4z
		 M321.4,150.5c0-0.1,0-0.1,0-0.2V150.5z M322.3,158.7c0,0.1,0,0.1,0,0.2C322.3,158.8,322.3,158.8,322.3,158.7L322.3,158.7z
		 M322.6,159.3c-0.1,0-0.2,0-0.2-0.1c0,0,0-0.1,0-0.1v0.1L322.6,159.3l0.1,0.1L322.6,159.3z M323.6,149.3L323.6,149.3L323.6,149.3z"
		/>
	<path class="st17" d="M323.8,152.9h-0.2c0.1,0,0.9,0.1,0.9-0.2C324.3,152.7,324,152.8,323.8,152.9L323.8,152.9z M324.5,152.9
		l-0.5,0.2c-0.2,0-0.3,0-0.2,0.1C323.9,153.2,324.4,153.1,324.5,152.9L324.5,152.9z"/>
	<path class="st17" d="M324.4,153.1c0,0,0.1,0,0.1-0.1L324.4,153.1z M323.9,156.6L323.9,156.6c-0.4,0.1-0.7,0-0.9,0.1
		s-0.2,0.2-0.1,0.1c0.1,0,0.2-0.1,0.3-0.1C323.4,156.6,323.7,156.8,323.9,156.6C324.2,156.4,323.9,156.5,323.9,156.6L323.9,156.6z
		 M323.1,157c-0.1,0-0.2,0-0.2,0.1C323,157.1,323.1,157.1,323.1,157c0.1,0,0.7-0.1,0.7-0.1C323.6,156.9,323.4,157,323.1,157
		L323.1,157z M323.9,157.3h-0.8H323.9L323.9,157.3z"/>
	<path class="st18" d="M321.4,150.4c0,0.3,0.2,0.3,0.4,0.4c0.1,0,0.2,0.1,0.3,0.1c0,0,0.2,0-0.1-0.1h-0.2l-0.1-0.1
		c0.1,0,0-0.1-0.3-0.1c-0.5-0.1,0-0.2,0-0.1L321.4,150.4z"/>
	<path class="st19" d="M324,152c0,0-0.3-0.4-0.3-0.4c0-0.1-0.1-1.1-0.2-1.1c0,0.2,0.1,0.4,0.1,0.6v0.4c0,0.1,0,0.2,0.1,0.2
		C323.7,151.8,324.1,152.2,324,152L324,152z M325.1,150.2c-0.2,0-0.4,0-0.5,0c-0.3,0-0.6,0-0.9,0
		C324.2,150.3,324.7,150.3,325.1,150.2z M326.5,149.4c-0.2,0.2-0.4,0.4-0.6,0.6C326.1,150.1,326.4,149.4,326.5,149.4z M322.2,151.4
		c0-0.3,0.1-0.6,0.1-0.9c0.1-0.1,0.1-0.3,0-0.4c-0.1,0.2-0.1,0.4-0.1,0.6c0,0,0,0.1,0,0.1c-0.1,0.4-0.1,0.8-0.1,1.2
		C322.1,152.1,322.2,151.5,322.2,151.4L322.2,151.4z M322.1,153.4c-0.1,0,0,1.1,0,1.2C322.2,154.2,322.2,153.8,322.1,153.4z
		 M322.2,155.5c0,0.4,0.1,0.8,0.2,1.2C322.4,156.7,322.4,155.5,322.2,155.5z M322.6,157.2c0,0,0.2,1.3,0.2,1.4
		S322.7,157.2,322.6,157.2z M322.1,152.4c-0.1,0,0,0.8,0,0.8C322.2,152.9,322.2,152.6,322.1,152.4z M325.3,150.4
		c0,0,0.1,0.7,0.1,0.8S325.5,150.4,325.3,150.4z M325.2,151.7c0,0-0.4,0.4-0.4,0.4S325.2,151.7,325.2,151.7z M326,150.1v0.5v-0.1
		c0,0,0.1,0.6,0.1,0.6C326.1,150.8,326.1,150.4,326,150.1z M326.3,148.8c0,0.1,0,0.2,0.1,0.2c0,0-0.1-0.4-0.1-0.4
		c0.1,0-0.5,0.7-0.4,0.7C326,149.1,326.1,149,326.3,148.8L326.3,148.8z"/>
	<path class="st20" d="M325.7,155.8l-0.2-0.2c-0.1-0.2-0.2-0.3-0.4-0.5c0-0.1-0.1-0.2-0.1-0.3c-0.1-0.2-0.4-1.5-0.5-1.4
		c-0.1-0.3-0.4,0.6-0.4,0.7c-0.1,0.7-0.2,2.1-0.2,2.1v0.2c0,0.1,0,0.1,0,0.2c0,0-0.1,0.2-0.1,0.2s0,0.1,0,0.1v0.5l0.1-0.1
		c0.1,0.6,0.9-0.5,0.9-0.8c0.2-0.4,0.3-0.4,0.6-0.4C325.8,156,325.7,155.8,325.7,155.8L325.7,155.8z M324,157.5
		C324,157.4,324,157.4,324,157.5L324,157.5z M324.3,158.7c0-0.1-0.2-0.1-0.3-0.1h-0.3l-0.3,0.1h-1.2l-0.2,0.1v1.6
		c0,0.2,0,0.3,0.1,0.5v0.9l0,0.5c0,0.2,0.1,0.3,0.1,0.5c0,0.3,0.1,0.6,0.2,0.9v0.7c-0.1,0.1-0.1,0.2-0.1,0.4l-0.1,0.3l-0.2,0.3
		l0.1,0.5c0.1,0,0.2-0.1,0.3-0.1c0,0,0.3-0.2,0.4-0.3c0.1-0.1,0.2-0.3,0.2-0.4c0-0.1,0-0.1,0.1-0.2c0-0.1,0.1-0.1,0.1-0.2
		c0.1-0.1,0.3-0.2,0.4-0.2h0.2c0,0.1,0.2,0.1,0.2,0s0-0.6,0-0.7c0-0.4,0.1-0.8,0.2-1.2l0.1-0.3v-0.8v-0.8v-0.4c0-0.1,0-0.3,0-0.4
		V159C324.2,158.9,324.2,158.8,324.3,158.7L324.3,158.7z"/>
	<path class="st20" d="M325.2,155.4c0,0.1,0,0.1,0.1,0.2h-0.1h0.1l0.1,0.1h0c0,0,0,0,0,0S325.4,155.4,325.2,155.4L325.2,155.4z
		 M325.6,155.6l0.1,0.2L325.6,155.6c-0.1,0.1-0.3,0.1-0.4,0.1c0.1,0,0.1,0,0.2,0h0.1l0.1,0.1l0.1,0.1c0,0,0.1,0.1,0.1,0.1
		c0,0,0,0,0-0.1L325.6,155.6L325.6,155.6z M324.5,153.5c0,0,0,0.1,0.1,0.1S324.6,153.6,324.5,153.5L324.5,153.5L324.5,153.5
		L324.5,153.5z"/>
	<path class="st20" d="M324.5,153.2L324.5,153.2C324.5,153.2,324.5,153.3,324.5,153.2c-0.1,0.1-0.1,0.2,0,0.3c0,0.1,0.1,0.1,0.1,0
		c0,0,0-0.1,0-0.2c0,0.1,0,0.1,0,0.2v0.2c0,0.1,0,0,0,0c0-0.1,0-0.2,0-0.4C324.6,153.3,324.6,153.2,324.5,153.2c-0.1,0-0.1,0-0.1,0
		H324.5z"/>
	<path class="st20" d="M324.5,153.2v0.1C324.5,153.3,324.5,153.2,324.5,153.2C324.5,153.2,324.4,153.2,324.5,153.2L324.5,153.2
		L324.5,153.2z"/>
	<path class="st21" d="M323,163.7C323,163.7,323,163.8,323,163.7L323,163.7l0.2-0.1h0.2l0.1,0.1c0,0,0.1,0,0,0
		c-0.1-0.1-0.2-0.1-0.3-0.1c-0.1,0-0.3,0-0.4,0.1L323,163.7z M323.1,163.4h0.3c0,0-0.1,0-0.1,0H323.1L323.1,163.4z M322.8,163.4
		c-0.1,0.1-0.2,0.2-0.3,0.4c0,0.2-0.1,0.3-0.2,0.5c0-0.1,0.1-0.2,0.1-0.4s0.1-0.2,0.1-0.3l0.1-0.1L322.8,163.4L322.8,163.4z
		 M322.4,164.3L322.4,164.3z M325.3,155.3c0,0-0.1,0-0.1,0H325.3l-0.2,0.1l-0.2,0.1l-0.1,0.1l-0.1,0.1c0,0,0.1-0.1,0.1-0.1
		c0.1-0.1,0.2-0.1,0.3-0.2L325.3,155.3C325.4,155.4,325.3,155.3,325.3,155.3L325.3,155.3z M324.7,155.6c0,0.1-0.1,0.2-0.1,0.2
		c0,0.1,0,0.2,0,0.4c0,0.1,0.1,0.3,0.1,0.4c0,0,0,0,0,0c0-0.1-0.1-0.2-0.1-0.3c0-0.1,0-0.3,0-0.4c0,0,0-0.1,0-0.1L324.7,155.6
		L324.7,155.6z M322.8,163.9c-0.1,0.1-0.2,0.3-0.2,0.4c0,0.1,0,0.2,0,0.3c0-0.1,0-0.2,0-0.3v-0.1C322.6,164.1,322.6,164,322.8,163.9
		L322.8,163.9z M323.6,163.9c0,0.1,0,0.1,0.1,0.2C323.7,164.1,323.7,163.9,323.6,163.9L323.6,163.9z M324.2,156.2v-0.4v0.6
		c0,0,0,0.1,0,0.1v0.1C324.2,156.4,324.2,156.3,324.2,156.2L324.2,156.2z"/>
	<path class="st22" d="M323.7,158.5h-0.4c-0.3,0-0.5,0-0.8,0.1h-0.3c-0.1,0-0.2,0-0.3,0.1c0,0.1,0,0.2,0,0.2c0,0.1,0,0.3,0,0.4
		c0,0.1,0,0.2,0,0.3c0.1,0.1,0.2,0.1,0.3,0.1l0.4-0.1h1.5c0-0.1,0-0.1,0-0.2v-0.4c0-0.2,0.1-0.4-0.1-0.5h-0.5L323.7,158.5z
		 M324.1,158.6L324.1,158.6L324.1,158.6z M322.5,158.7h-0.4H322.5L322.5,158.7z M322.2,158.7C322.2,158.8,322.2,158.8,322.2,158.7
		L322.2,158.7z"/>
	<path class="st22" d="M324,158.6c0,0,0,0.1,0,0.1c-0.1,0-0.1-0.1-0.2-0.1c-0.1,0-0.2,0.1-0.2,0.1c-0.1,0.1-0.3,0.2-0.5,0.3
		c-0.2,0.1-0.4,0.2-0.5,0.3c-0.1,0-0.2,0.1-0.2,0.1v-0.1c0-0.1,0-0.3,0-0.4h0.1c0,0,0.1,0,0.1-0.1c0,0,0,0,0-0.1
		c-0.1,0-0.1,0-0.2,0.1h-0.1c-0.1,0-0.1,0.1-0.1,0.2c0,0.1,0,0.3,0,0.4c0,0.1,0,0.1,0,0.2c-0.1,0.1,0,0.1,0.1,0.1h0.1
		c0,0,0.1,0,0.1,0c0.1,0,0.2-0.1,0.2-0.1c0.2-0.1,0.3-0.2,0.5-0.3l0.5-0.3c0.1-0.1,0.1-0.1,0.2-0.1h0c0.1,0,0.1,0,0.2,0.1
		c0,0,0,0.1,0,0.1v0.4h0v-0.3v-0.1c0,0,0-0.1,0-0.1c0.1-0.1,0.1-0.2,0-0.2c0,0,0,0-0.1,0c0,0-0.1,0-0.1,0.1L324,158.6z M324.7,153.2
		c-0.1-0.2-0.2-0.3-0.2-0.3c-0.1,0.2-0.1,0.3-0.1,0.5c0,0,0,0.1,0,0.1c0.1,0,0.4-0.1,0.4-0.1S324.8,153.6,324.7,153.2L324.7,153.2z"
		/>
	<path class="st20" d="M323.5,159.7c0,0.1,0,0.1,0,0.2C323.5,159.8,323.5,159.8,323.5,159.7z M323.3,159.6L323.3,159.6z
		 M323.4,160.3L323.4,160.3z M323.4,159.6v1.3h0L323.4,159.6L323.4,159.6z"/>
	<path class="st23" d="M323.4,159.9v1.4c0,0.4,0,0.7,0,1.1c0,0.1-0.1,0.3-0.1,0.4c0,0.2,0,0.3,0,0.5c0-0.2,0-0.4,0-0.6v-0.1
		c0-0.1,0.1-0.2,0.1-0.3c0-0.1,0-0.2,0-0.3v-0.6v-0.6c0-0.2,0-0.6-0.1-1L323.4,159.9z M324.6,153.8c0.1,0.3,0.2,0.6,0.2,0.8
		c0,0.1,0.1,0.3,0.1,0.4c0,0.1,0.1,0.3,0.2,0.4c0,0,0.1,0,0,0c0-0.1-0.1-0.1-0.1-0.2c0-0.1,0-0.1,0-0.2c0-0.1,0-0.1,0-0.2
		c0-0.2-0.1-0.4-0.1-0.6c0-0.1-0.1-0.2-0.1-0.3c-0.1-0.2-0.2-0.3-0.2-0.5v0.1C324.4,153.4,324.5,153.6,324.6,153.8z"/>
	<path class="st24" d="M323.9,164.2c-0.3,0-0.5,0-0.8,0.1c0-0.1-0.3,0.3-0.2,0.3c-0.1,0.3-0.3,0.5-0.5,0.8c-0.1,0-0.3,0.1-0.3,0.2
		c0,0.1,0,0.2,0,0.3c0,0.2,0.3,0.1,0.3,0c0.2-0.1,0.4-0.3,0.5-0.5c0.2-0.3,0.3-0.6,0.4-0.9c0.2-0.1,0.4-0.1,0.5,0
		c0.1,0.1,0.1,0,0.1-0.1s0.1,0.1,0.1,0.1C324.1,164.7,323.9,164.2,323.9,164.2L323.9,164.2z M325.8,156c0,0,0-0.2-0.1-0.2
		s-0.5,0.1-0.4,0.1c-0.1,0.1-0.2,0.2-0.3,0.3c-0.2,0.3-0.3,0.6-0.5,0.8s-0.5,0.2-0.5,0.3s0,0.1,0,0.1s0.7,0.1,0.8-0.2
		c0.3-0.4,0.6-0.8,0.8-1.3L325.8,156L325.8,156z"/>
	<path class="st25" d="M323.8,164.4c-0.8,0-0.6,0.9-1.1,1.2c-0.1,0.1-0.2,0.2-0.4,0.3s-0.1,0-0.1,0.1s0.2,0.1,0.2,0.1
		c0.4-0.1,0.8,0.1,1.2-0.1c0.2-0.1,0.2-0.6,0.3-0.7C323.9,165,324.3,164.4,323.8,164.4L323.8,164.4z M325.7,155.9
		c0-0.3-0.7,0.5-0.7,0.5c-0.2,0.4-0.2,0.7-0.7,0.9c-0.1,0-0.2,0.1-0.2,0.1h-0.1v0.1c0.1,0,0.2,0,0.4,0.1c0.2,0,0.3,0,0.5,0
		c0.1,0,0.2,0,0.3-0.1c0.1,0,0.8-1.3,0.6-1.4C325.8,156,325.8,155.9,325.7,155.9L325.7,155.9z"/>
	<path class="st26" d="M327.1,136.3c0-0.2-0.1-0.5-0.1-0.7c0,0,0-0.1,0-0.1c-0.1-0.2-0.2-0.3-0.2-0.5l-0.1-0.1c0-0.1,0-0.1-0.1-0.1
		l-0.1-0.1c-0.1-0.1-0.1-0.1-0.2-0.2c-0.1-0.1-0.2-0.3-0.4-0.2c-0.5-0.4-1.2-0.4-1.8-0.1l-0.1,0.1c-0.1,0-0.2,0.1-0.2,0.2
		c-0.2,0-0.3,0.3-0.3,0.4c0,0,0,0,0,0.1c-0.1-0.1-0.1,0,0,0.1c0,0.2,0,0.4,0,0.6c0,0.1-0.1,0.1-0.1,0.2v0.1l0,0.2
		c-0.2,0.3-0.2,0.7-0.1,1.1c0,0.4-0.1,0.8,0.3,1c0,0.1,0.1,0.1,0.1,0.2c0.1,0.4,0,0.7-0.1,1.1c-0.2,0.2-0.3,0.5-0.6,0.6
		c0,0-0.1,0-0.1,0.1c-0.1,0.2,1.3,1,1.5,1.1c0.6,0.3,1.3,0.1,1.6-0.5c0.1-0.1,0.1-0.3,0.1-0.4c0-0.1,0-0.2-0.1-0.2
		c-0.1-0.1-0.1-0.2-0.2-0.3c0-0.1,0-0.2,0-0.3c0.1-0.4,0.3-0.7,0.5-1C327,138.1,327.3,137.2,327.1,136.3L327.1,136.3z M323.4,140.6
		h-0.2H323.4L323.4,140.6z M326.2,138L326.2,138L326.2,138z"/>
	<path class="st27" d="M326.6,141.6c0,0-0.1,0-0.1,0.1c0,0-0.1,0-0.1,0c0,0,0-0.1,0,0c0.1-0.4-0.1-0.9-0.3-1.3
		c-0.1-0.2-0.2-0.3-0.3-0.4c-0.1-0.2-0.2-0.4-0.5-0.4c0-0.1,0,0.2,0,0.1c0,0,0,0.1,0,0.1v0.1l0.1,0.1c0,0,0,0.1,0,0.1
		c0,0.7-0.8,1-1.4,1h-0.1c-0.2-0.2-0.4-0.4-0.7-0.5c-0.2-0.2-0.4-0.3-0.6-0.4c-0.2-0.2-0.5-0.2-0.7,0c0,0,0,0-0.1,0
		c-0.2,0-0.2,0.2-0.2,0.3c0,0,0,0,0,0.1c0,0-0.4,0.2-0.3,0.3s-0.1,0.1-0.1,0.1s0.2,0,0.2,0c0.2,0,0.4,0,0.6,0c0.2,0,0.4,0.1,0.5,0.3
		c0.2,0.7,0.2,1.3,0.3,2c0,0.1,0,0.1,0,0.2c-0.2,0.9-0.1,1.9-0.3,2.8s-0.6,1.8-0.7,2.8c-0.1,0.1-0.1,0.1-0.1,0.2c0,0,0,0,0,0.1
		l-0.1,0.1c-0.1-0.1-0.2,0.3-0.2,0.3c0,0.2,0,0.3,0,0.5c0,0.1,0,0.2,0.1,0.2h0.1c0,0,0.1,0,0.2,0c0.1,0,0.2-0.1,0.3-0.1
		c0.1,0,0.3,0,0.4-0.1c0.1,0,0.2,0,0.3,0c0.3,0.1,0.6,0.1,0.8,0c0.1,0,0.1,0,0.2,0h1c0.1,0,0.2,0,0.3,0c0.1,0.2,0.4-0.2,0.4-0.2h0.1
		c0.2-0.1,0.4-0.2,0.6-0.4c0.2-0.4,0.3-0.7,0.6-1c0,0,0-0.1,0-0.1c0-0.1-0.1-0.3-0.1-0.4c0-0.5,0-0.9-0.1-1.4c0-0.1,0-0.1,0-0.2
		c0-0.1,0-0.2,0-0.4c0-0.9,0.3-1.8,0.3-2.7C326.6,142.9,326.7,142.2,326.6,141.6L326.6,141.6z"/>
	<path class="st28" d="M326.2,144.4L326,145c0,0.1-0.1,0.2-0.1,0.3l-0.3,0.6c-0.1,0.2-0.2,0.5-0.3,0.7c0,0.1-0.1,0.2-0.2,0.3
		s-0.1,0.2-0.1,0.2c0,0.1,0,0.1-0.1,0.2c0.1-0.1,0.2-0.3,0.2-0.5l0.1-0.2l0.1-0.2l0.2-0.4c0.1-0.2,0.2-0.4,0.2-0.5
		C326,145.2,326.1,144.8,326.2,144.4L326.2,144.4z"/>
	<path class="st28" d="M326.3,144v0.4c0,0.1,0,0.2,0,0.2c0-0.1,0.1-0.2,0.1-0.3c0-0.1,0-0.1,0-0.2C326.3,144.1,326.3,144,326.3,144
		L326.3,144z M325.7,146.8c-0.1,0.3-0.1,0.6-0.3,0.9c-0.1,0.1-0.1,0.2-0.2,0.3l-0.2,0.2c-0.1,0.1-0.1,0.2-0.1,0.3v0.7
		c0-0.1,0-0.3,0.1-0.4v-0.2c0-0.1,0-0.2,0.1-0.2l0.1-0.1c0.1-0.1,0.3-0.3,0.4-0.5C325.6,147.4,325.7,147.1,325.7,146.8L325.7,146.8z
		 M321.9,140.5h0.6v-0.1c-0.1,0-0.2-0.1-0.2-0.1h-0.3L321.9,140.5z M325.8,140.4v0.3c0,0.1,0,0.3,0,0.4v0.2c0,0.2-0.1,0.4-0.1,0.5
		s-0.2,0.7-0.2,1c0.1-0.3,0.2-0.7,0.3-1c0.1-0.2,0.1-0.4,0.1-0.6C325.8,141,325.8,140.7,325.8,140.4L325.8,140.4z M325.2,141.9
		c-0.1,0.1-0.1,0.2-0.2,0.3s-0.2,0.3-0.2,0.4s-0.2,0.3-0.3,0.5l-0.3,0.5c0,0,0,0.1,0,0c0.2-0.3,0.4-0.5,0.6-0.8l0.2-0.4
		C325.1,142.1,325.1,142,325.2,141.9L325.2,141.9z M323.1,146.5c0,0.1-0.1,0.2-0.1,0.2c-0.1,0.1-0.2,0.3-0.3,0.4s0,0.1,0,0
		C322.8,146.9,323,146.7,323.1,146.5L323.1,146.5z M323,142.6v0.3c0,0.1-0.1,0.2-0.1,0.4c0,0.1-0.1,0.2-0.1,0.3v-0.1
		c0.1-0.1,0.1-0.3,0.1-0.4c0-0.1,0-0.1,0-0.2C322.9,142.8,322.9,142.7,323,142.6L323,142.6z M323,143.4L323,143.4
		c-0.2,0.2-0.3,0.3-0.4,0.4c0,0,0,0.1,0,0c0.1-0.1,0.2-0.1,0.3-0.2L323,143.4L323,143.4z M322.7,145c0.2,0.4,0.4,0.8,0.6,1.2
		c0,0,0,0,0,0c-0.1-0.2-0.2-0.4-0.3-0.6S322.9,145.2,322.7,145z M322,140.2h0.1l0.1,0.1h0.2c-0.1,0-0.2-0.1-0.3-0.1l-0.2-0.1
		L322,140.2z"/>
	<path class="st29" d="M324.6,133.6c-2.7,0.2-1.5,3.8-1.1,5.4c0.2,0.7-0.5,2.2,0.6,2.5c0.4,0.1,0.5-0.1,0.9,0.1
		c0.6,0.4,0.8,0.6,1.6,0.2s0.3-1,0.3-1.7c0-0.4,0.1-0.7,0.3-1.1c0.2-0.5,0.2-1.1,0.2-1.6c0-1.1,0-2.3-1-3
		C326.3,134.4,324.6,133.4,324.6,133.6z"/>
	<path class="st26" d="M318.4,151.9c-0.2,0-0.3,0.1-0.4,0.3l0,0.1c0.1-0.1,0.1-0.1,0.2-0.2l0.1-0.1
		C318.3,151.9,318.4,151.9,318.4,151.9c0.1,0.1,0.2,0.1,0.3,0.1h0.4c0.1,0,0.1,0,0.2,0.1h-0.4c-0.1,0-0.1,0-0.2-0.1L318.4,151.9
		L318.4,151.9z"/>
	<path class="st26" d="M318.4,151.9l-0.1,0.2c0,0,0,0-0.1,0c-0.1,0.1-0.2,0.2-0.2,0.3v0.1c0,0,0.1-0.1,0.1-0.1l0.1-0.1v-0.1
		L318.4,151.9L318.4,151.9z M318,152.3L318,152.3L318,152.3z"/>
	<path class="st26" d="M322.9,145c0-0.5-0.1-1-0.1-1.4c-0.1-0.8,0.1-1.6-0.3-2.3c-0.2-0.4-0.7-0.6-1.1-0.3c-0.1,0.1-0.3,0.2-0.3,0.3
		c-0.3,0.7-0.3,1.5,0,2.2c0.1,0.7,0.2,1.4,0.1,2.1c0.1,0.5,0.1,1.1-0.1,1.6c-0.4,0.8-0.8,1.6-1,2.5c-0.1,0.4-0.2,0.9-0.3,1.4
		c-0.1,0.1-0.3,0.3-0.4,0.4c-0.4,0.1-1.2,0.2-1.3,0.7c-0.1,0.1-0.1,0.1-0.2,0.2l0.1,0.1c0,0.1,0,0.2,0.1,0.2l0.5-0.5h0.4
		c0.1,0.1,0.6,0.1,0.7,0c0,0,0.1,0,0.1,0c0.8,0,0.9-0.7,1.1-1.3s0.5-1,0.8-1.5c0.5-0.7,0.8-1.5,1.2-2.3
		C322.9,146.3,322.9,145.7,322.9,145L322.9,145z M318,152.4L318,152.4L318,152.4L318,152.4C318.1,152.3,318,152.4,318,152.4z"/>
	<path class="st26" d="M321.1,147.1c-0.1,0.1-0.2,0.2-0.3,0.3s-0.1,0.1-0.1,0.2c-0.1,0.1-0.1,0.1-0.1,0.2v0.1c0,0-0.1,0.1-0.1,0.2
		s0,0.1-0.1,0.2v0.1l-0.1,0.2c0,0.1-0.1,0.2-0.1,0.3c0,0,0,0.1,0,0.1v0.2c0,0.1,0,0.1,0,0.2c0,0,0,0,0.1,0h0.1c0,0,0-0.1,0-0.1
		c0-0.1,0-0.2,0.1-0.3v-0.2c0.1-0.2,0.1-0.4,0.2-0.5c0-0.1,0.1-0.2,0.1-0.3v-0.1c0-0.1,0.1-0.1,0.1-0.2c0-0.1,0.1-0.2,0.1-0.2
		C321,147.4,321.1,147.3,321.1,147.1L321.1,147.1z"/>
</g>
</svg>
